G04 DipTrace 3.3.1.1*
G04 Bottom.gbr*
%MOIN*%
G04 #@! TF.FileFunction,Copper,L4,Bot*
G04 #@! TF.Part,Single*
%AMOUTLINE0*
4,1,4,
0.021654,0.019685,
0.021654,-0.019685,
-0.021654,-0.019685,
-0.021654,0.019685,
0.021654,0.019685,
0*%
%AMOUTLINE3*
4,1,4,
0.019685,-0.021654,
-0.019685,-0.021654,
-0.019685,0.021654,
0.019685,0.021654,
0.019685,-0.021654,
0*%
%AMOUTLINE6*
4,1,4,
-0.021654,-0.019685,
-0.021654,0.019685,
0.021654,0.019685,
0.021654,-0.019685,
-0.021654,-0.019685,
0*%
%AMOUTLINE9*
4,1,4,
-0.001392,-0.029231,
-0.029231,-0.001392,
0.001392,0.029231,
0.029231,0.001392,
-0.001392,-0.029231,
0*%
%AMOUTLINE12*
4,1,4,
0.029231,-0.001392,
0.001392,-0.029231,
-0.029231,0.001392,
-0.001392,0.029231,
0.029231,-0.001392,
0*%
%AMOUTLINE15*
4,1,4,
-0.029231,0.001392,
-0.001392,0.029231,
0.029231,-0.001392,
0.001392,-0.029231,
-0.029231,0.001392,
0*%
%AMOUTLINE24*
4,1,4,
-0.016703,-0.055677,
-0.055677,-0.016703,
0.016703,0.055677,
0.055677,0.016703,
-0.016703,-0.055677,
0*%
%AMOUTLINE27*
4,1,16,
0.012795,-0.003937,
0.014504,-0.003547,
0.015873,-0.002454,
0.016634,-0.000877,
0.016634,0.000877,
0.015873,0.002454,
0.014504,0.003547,
0.012795,0.003937,
-0.012795,0.003937,
-0.014504,0.003547,
-0.015873,0.002454,
-0.016634,0.000877,
-0.016634,-0.000877,
-0.015873,-0.002454,
-0.014504,-0.003547,
-0.012795,-0.003937,
0.012795,-0.003937,
0*%
%AMOUTLINE30*
4,1,16,
0.003937,0.012795,
0.003547,0.014504,
0.002454,0.015873,
0.000877,0.016634,
-0.000877,0.016634,
-0.002454,0.015873,
-0.003547,0.014504,
-0.003937,0.012795,
-0.003937,-0.012795,
-0.003547,-0.014504,
-0.002454,-0.015873,
-0.000877,-0.016634,
0.000877,-0.016634,
0.002454,-0.015873,
0.003547,-0.014504,
0.003937,-0.012795,
0.003937,0.012795,
0*%
%AMOUTLINE252*
4,1,4,
-0.055677,0.016703,
-0.016703,0.055677,
0.055677,-0.016703,
0.016703,-0.055677,
-0.055677,0.016703,
0*%
%AMOUTLINE255*
4,1,4,
0.055677,-0.016703,
0.016703,-0.055677,
-0.055677,0.016703,
-0.016703,0.055677,
0.055677,-0.016703,
0*%
G04 #@! TA.AperFunction,Conductor*
%ADD13C,0.015748*%
%ADD14C,0.011811*%
%ADD15C,0.007874*%
%ADD16C,0.019685*%
%ADD18R,0.070866X0.062992*%
%ADD19R,0.03937X0.043307*%
%ADD20R,0.062992X0.070866*%
%ADD21R,0.043307X0.03937*%
%ADD23R,0.031496X0.062992*%
G04 #@! TA.AperFunction,ComponentPad*
%ADD24O,0.086614X0.051181*%
%ADD26R,0.058071X0.017717*%
%ADD27R,0.011811X0.033465*%
%ADD29R,0.011811X0.055118*%
%ADD30R,0.055118X0.011811*%
%ADD31R,0.017717X0.058071*%
G04 #@! TA.AperFunction,ComponentPad*
%ADD32C,0.314961*%
%ADD34R,0.11811X0.03937*%
%ADD35R,0.03937X0.11811*%
%ADD37R,0.144882X0.05*%
%ADD39R,0.125197X0.05*%
%ADD41R,0.025591X0.041339*%
%ADD42R,0.023622X0.03937*%
%ADD45R,0.047244X0.047244*%
%ADD46R,0.062992X0.059055*%
G04 #@! TA.AperFunction,ComponentPad*
%ADD48O,0.059055X0.035433*%
%ADD50R,0.098425X0.098425*%
%ADD51R,0.023622X0.07874*%
%ADD52R,0.070866X0.015748*%
%ADD53R,0.05X0.125197*%
%ADD54O,0.033465X0.007874*%
%ADD55O,0.007874X0.033465*%
%ADD57R,0.102362X0.055118*%
%ADD60R,0.055118X0.102362*%
G04 #@! TA.AperFunction,ViaPad*
%ADD62C,0.023622*%
%ADD63C,0.017717*%
%ADD134OUTLINE0*%
%ADD137OUTLINE3*%
%ADD140OUTLINE6*%
%ADD143OUTLINE9*%
%ADD146OUTLINE12*%
%ADD149OUTLINE15*%
%ADD158OUTLINE24*%
%ADD161OUTLINE27*%
%ADD164OUTLINE30*%
%ADD386OUTLINE252*%
%ADD389OUTLINE255*%
%FSLAX26Y26*%
G04*
G70*
G90*
G75*
G01*
G04 Bottom*
%LPD*%
X-1234154Y467619D2*
D13*
X-1133021Y468752D1*
X-358021Y1056251D2*
X-464272D1*
Y1056252D1*
X-358021Y1056251D2*
X-258022D1*
X-126772Y925000D1*
X-4990945Y3050001D2*
X-5198362D1*
X-5233843Y3085482D1*
X-5457331D1*
X-4462598Y2706251D2*
X-4264270D1*
X-4195521Y2775000D1*
Y2795919D1*
X-4191929D1*
X-504134Y3635139D2*
X-1239272Y3637500D1*
X-1133021Y468752D2*
Y539123D1*
X-1114320Y557824D1*
X-710850D1*
X-464272Y1056252D2*
Y557824D1*
X-3295522Y3062500D2*
X-3271654Y3084647D1*
X-6284694Y3025001D2*
X-6404969D1*
X-2484694Y3037501D2*
X-2605165D1*
X-1239272Y3637500D2*
Y3400000D1*
X-1189272Y3350000D1*
Y3212500D1*
X-1171655Y3194883D1*
X-976378D1*
X-3271654Y3084647D2*
Y3088633D1*
X-3308021Y3125000D1*
X-458021Y2737500D2*
X-201772D1*
X-106102Y2641831D1*
Y1034745D1*
X-126772Y1014076D1*
Y925000D1*
X-445521Y2862501D2*
X-461811Y2846211D1*
Y2828790D1*
X-458021Y2825000D1*
Y2737500D1*
X-5899556Y3043751D2*
X-5899555D1*
X-592913Y3206252D2*
D14*
X-583024D1*
X-551772Y3175000D1*
X-2099558Y3056252D2*
X-2051773D1*
X-3592520Y3007875D2*
D13*
X-3708808D1*
X-4605807Y3068752D2*
D3*
X-5731348Y2687501D2*
X-5789273D1*
X-5801772Y2700000D1*
X-6116487Y2668751D2*
X-6151773D1*
X-4847736Y2687500D2*
X-4870521D1*
X-4901772Y2718751D1*
Y2781249D1*
X-2121102Y2854332D2*
D14*
X-2167567D1*
X-2186268Y2835631D1*
Y2778545D1*
X-264469Y3018948D2*
D15*
Y3006054D1*
X-276772Y2993751D1*
X-376772D1*
X-856890Y2276134D2*
D14*
Y2329037D1*
X-873673D1*
X-980807D1*
X-3811024Y2710631D2*
Y2637454D1*
X-3792320Y2618751D1*
X-3753986D1*
X-5671701Y3123773D2*
Y3182429D1*
X-5683022Y3193751D1*
X-5784892D1*
Y3156252D1*
X-5778987D1*
X-5540343Y3123773D2*
X-5620913D1*
X-6198625Y1515484D2*
D15*
X-6183862D1*
Y1550841D1*
X-6189272Y1556251D1*
X-376772Y2993751D2*
D14*
X-370521D1*
X-420521Y2943751D1*
X-897743D1*
X-935681Y2905812D1*
Y2873919D1*
X-1089661D1*
X-1095571Y2879828D1*
X-1387941D1*
X-1406642Y2898529D1*
Y3280513D1*
X-1391878Y3295277D1*
X-1404060D1*
X-1409228Y3300445D1*
X-1571505D1*
X-1823625Y1515484D2*
D15*
Y1582509D1*
X-1808858Y1597276D1*
X-1778004D1*
X-7255312Y1849367D2*
X-7240547D1*
X-7233614Y1856301D1*
X-7151772D1*
Y1854627D1*
X-873673Y2329037D2*
D14*
X-858907Y2343803D1*
Y2409745D1*
X-3645522Y1537500D2*
Y1550713D1*
X-3653004Y1558194D1*
Y1597276D1*
X-2421260Y1712598D2*
X-2425197D1*
X-2442913Y1694882D1*
Y1633858D1*
X-2406331Y1597276D1*
X-2403004D1*
X-5520521Y1518749D2*
X-5530560D1*
X-5551181Y1539370D1*
Y1597276D1*
X-5528004D1*
X-3066732Y1705710D2*
Y1597276D1*
X-3028004D1*
X-1773917Y2972001D2*
X-1814272D1*
Y2935680D1*
X-1571505Y3300445D2*
X-1633610D1*
X-1731052Y3397887D1*
X-1910433D1*
Y3264026D1*
Y3255173D1*
X-1904524Y3249264D1*
X-1854970D1*
X-4278004Y1597276D2*
D15*
X-4268866D1*
X-4323625Y1542517D1*
Y1515484D1*
X-1570522Y2287500D2*
D14*
Y2247934D1*
X-1560088Y2237500D1*
X-1445521D1*
X-1429673Y2253348D1*
X-1234843D1*
X-1223031Y2265159D1*
Y2277954D1*
X-2186268Y2778545D2*
X-2517370D1*
X-2536071Y2759844D1*
Y2619934D1*
X-2517370Y2601234D1*
X-2437055D1*
X-2418356D1*
Y2650888D1*
X-2424902D1*
X-7845052Y1880281D2*
D15*
X-7875028D1*
X-7899058Y1856251D1*
X-8020522D1*
X-8042348Y1878076D1*
Y1881462D1*
X-1095571Y2879828D2*
D14*
X-1101480Y2873919D1*
X-1114272D1*
Y2837501D1*
X-2403004Y1597276D2*
X-2351720D1*
X-2333020Y1578575D1*
Y1518151D1*
X-2253197D1*
X-2234496Y1499450D1*
Y1423458D1*
X-2215795Y1404757D1*
X-2073331D1*
X-2054630Y1386056D1*
Y944423D1*
X-2035207Y925000D1*
X-1926772D1*
X-2437055Y2601234D2*
X-2437056Y2568751D1*
X-5784892Y3156252D2*
Y3080365D1*
X-1992126Y3234253D2*
X-1940206D1*
X-1910433Y3264026D1*
X-1391878Y3295277D2*
X-1358268D1*
Y3269686D1*
X-980807Y2329037D2*
Y2277954D1*
X-1105311D1*
X-6243307Y2475000D2*
Y2508466D1*
X-6225738Y2526035D1*
Y2632138D1*
X-6231151D1*
X-6153004Y1597276D2*
X-6161547D1*
X-6196846Y1632575D1*
Y2432575D1*
X-6239272Y2475000D1*
X-6243307D1*
X-6189272Y1556251D2*
X-6153004D1*
Y1597276D1*
X-1358268Y3269686D2*
X-1368260D1*
Y3175642D1*
X-1358268Y3269686D2*
X-1368587D1*
X-4901772Y1550000D2*
D15*
X-4936125D1*
Y1515484D1*
X-4903004Y1597276D2*
D14*
X-4888583D1*
Y1563189D1*
X-4901772Y1550000D1*
X-4510236Y3175001D2*
X-4516142Y3170588D1*
Y3099114D1*
X-1429673Y2253348D2*
X-1429528D1*
Y2301526D1*
X-1778004Y1597276D2*
X-1775280Y1600000D1*
X-1820522D1*
Y2066684D1*
X-1803937Y2083269D1*
X-1647488D1*
X-1628787Y2101970D1*
Y2260484D1*
X-1601772Y2287500D1*
X-1570522D1*
X-7151772Y1854627D2*
Y1813681D1*
X-7133072Y1794982D1*
X-7054063D1*
Y1767588D1*
X-7035362Y1748887D1*
X-6991382D1*
X-6972681Y1730186D1*
Y1648423D1*
X-858907Y2409745D2*
X-935681Y2486520D1*
Y2873919D1*
X-3653004Y1597276D2*
D15*
X-3683858D1*
X-3698625Y1582509D1*
Y1515484D1*
X-2403004Y1597276D2*
Y1559450D1*
X-2417768Y1544686D1*
X-2448625D1*
Y1515484D1*
X-5528004Y1597276D2*
X-5558858D1*
X-5573625Y1582509D1*
Y1515484D1*
X-3066732Y1554135D2*
X-3073625Y1547243D1*
Y1515484D1*
X-3028004Y1597276D2*
D14*
Y1554135D1*
X-3066732D1*
X-1602165Y1156301D2*
Y1153545D1*
X-1613976Y1141734D1*
X-1626772D1*
Y1174017D1*
X-1429528Y2301526D2*
Y2362010D1*
X-1423228Y2368310D1*
Y2421261D1*
X-1958021Y3243751D2*
D15*
Y3234253D1*
X-1992126D1*
X-4923228Y2578741D2*
D3*
X-4510236Y3175001D2*
D3*
X-3753986Y2618751D2*
D14*
Y2458463D1*
X-3739273Y2443751D1*
X-8108021Y1950000D2*
X-8042348Y1884327D1*
Y1881462D1*
X-4937402Y2663387D2*
Y2660630D1*
X-4923228Y2646457D1*
Y2578741D1*
X-4278004Y1597276D2*
D15*
Y1588138D1*
X-4307087Y1559055D1*
X-540157Y472244D2*
D13*
Y462501D1*
X-689272D1*
X-161664Y2024165D2*
Y1790108D1*
X-351772Y1600000D1*
X-551772D1*
X-614272Y1537500D1*
Y546358D1*
X-540157Y472244D1*
X-7814001Y3275163D2*
Y3294848D1*
X-7888804Y3369651D1*
X-7262820Y3290911D2*
X-7317682D1*
X-7426772Y3400000D1*
X-7689164D1*
X-7814001Y3275163D1*
X-7262820Y3290911D2*
Y3273549D1*
X-7189272Y3200000D1*
Y3112500D1*
X-7114272Y3037500D1*
X-6989272D1*
X-6945891Y2994119D1*
Y2946423D1*
X-8231324Y2416895D2*
X-8197377D1*
X-8176772Y2437500D1*
X-8164272Y2350000D2*
Y2345906D1*
X-8117151Y2298785D1*
X-7526772Y2025000D2*
X-7579912D1*
X-7597466Y2007446D1*
X-6667571Y434430D2*
X-6711202D1*
X-6726772Y450000D1*
Y500000D1*
Y784844D1*
Y1135257D1*
Y1485671D1*
Y1836084D1*
Y2162500D1*
X-6702774Y2186497D1*
X-6667571D1*
Y1836084D2*
X-6726772D1*
X-6667571Y1485671D2*
X-6726772D1*
X-6667571Y784844D2*
X-6726772D1*
X-6667571Y1135257D2*
X-6726772D1*
X-6868988Y1312753D2*
Y1367217D1*
X-6876772Y1375000D1*
X-6868988Y1312753D2*
X-6926518D1*
X-7539272Y1712500D2*
X-7529570Y1722202D1*
X-7502846D1*
X-8170169Y1358029D2*
Y1286583D1*
Y1281602D1*
X-8226772Y1225000D1*
Y855576D1*
X-8154421Y783226D1*
Y734850D1*
X-8189272Y700000D1*
X-7801772Y400000D2*
Y403017D1*
X-7837492Y438738D1*
X-7276772Y400000D2*
Y444946D1*
X-7286311Y454486D1*
X-6885129Y445416D2*
X-6884688D1*
X-6839272Y400000D1*
X-6764272Y500000D2*
X-6726772D1*
X-6745521Y2562412D2*
Y2556241D1*
X-6930143Y2371619D1*
X-6726772Y2162500D2*
Y2500000D1*
X-6745521Y2518749D1*
Y2562412D1*
Y2793751D2*
X-6719930D1*
Y2844340D1*
X-6701770Y2862500D1*
X-6901772Y2943751D2*
X-6943219D1*
X-6945891Y2946423D1*
X-7888804Y3369651D2*
X-7838370D1*
X-7820521Y3387500D1*
X-6667571Y434430D2*
Y397049D1*
X-6583022Y312500D1*
X-6089272D1*
X-5458022D1*
X-4895522D1*
X-4167571D1*
X-3542571D1*
X-2917571D1*
X-2658021D1*
X-2483021Y487500D1*
X-2423165D1*
X-2395521D1*
X-2342451Y434430D1*
X-2292571D1*
X-2917571D2*
Y312500D1*
X-2292571Y1485671D2*
Y1302951D1*
X-2351772Y1243751D1*
Y1150000D1*
X-2337029Y1135257D1*
X-2292571D1*
Y784844D2*
X-2311615D1*
X-2423228Y896457D1*
Y1049058D1*
X-2337029Y1135257D1*
X-2423228Y896457D2*
X-2423165Y487500D1*
X-3542571Y434430D2*
Y312500D1*
X-4167571Y434430D2*
Y312500D1*
X-4792571Y434430D2*
X-4873591D1*
X-4895521Y456361D1*
Y482285D1*
Y784844D1*
Y1135257D1*
Y1181251D1*
X-4792571Y1284201D1*
Y1485671D1*
Y1135257D2*
X-4895521D1*
X-4792571Y784844D2*
X-4895521D1*
X-4167571Y434430D2*
X-4192451D1*
X-4220521Y462500D1*
Y775886D1*
Y1082307D1*
X-4167571Y1135257D1*
Y784844D2*
X-4211563D1*
X-4220521Y775886D1*
X-4167571Y1485671D2*
Y1302950D1*
X-4220521Y1250000D1*
Y1082307D1*
X-6042571Y1485671D2*
Y1302950D1*
X-6089272Y1256249D1*
Y1181958D1*
X-6042571Y1135257D1*
Y784844D2*
X-6066928D1*
X-6089272Y807188D1*
Y1181958D1*
X-6042571Y434430D2*
X-6054951D1*
X-6089272Y468751D1*
Y807188D1*
Y468751D2*
Y312500D1*
X-5417571Y1485671D2*
Y1302950D1*
X-5458021Y1262500D1*
Y1175707D1*
X-5417571Y1135257D1*
Y784844D2*
X-5436615D1*
X-5458021Y806249D1*
Y1175707D1*
X-5417571Y434430D2*
X-5423702D1*
X-5458021Y468749D1*
Y806249D1*
Y468749D2*
X-5458022Y312500D1*
X-3542571Y1485671D2*
Y1302950D1*
X-3589272Y1256249D1*
Y1181958D1*
X-3542571Y1135257D1*
Y784844D2*
X-3561615D1*
X-3589272Y812500D1*
Y1181958D1*
X-3542571Y434430D2*
X-3567451D1*
X-3589272Y456251D1*
Y812500D1*
X-2917571Y1485671D2*
Y1302950D1*
X-2970521Y1250000D1*
Y1188207D1*
X-2917571Y1135257D1*
Y784844D2*
X-2949115D1*
X-2987374Y823102D1*
X-3051772Y887500D1*
Y1106957D1*
X-2970521Y1188207D1*
X-2917571Y434430D2*
X-2967453D1*
X-2987374Y454352D1*
Y823102D1*
X-5417571Y1485671D2*
X-5443692D1*
X-5464272Y1506251D1*
Y1789383D1*
X-5417571Y1836084D1*
Y2186497D2*
X-5427774D1*
X-5464272Y2150000D1*
Y1789383D1*
X-4792571Y2186497D2*
X-4795786D1*
X-4845521Y2136762D1*
Y1856249D1*
X-4838794Y1849522D1*
X-4825356Y1836084D1*
X-4792571D1*
Y1485671D2*
X-4812441D1*
X-4845521Y1518751D1*
Y1849522D1*
X-4838794D1*
X-4167571Y2186497D2*
X-4196524D1*
X-4214272Y2168749D1*
Y1803035D1*
Y1532371D1*
X-4167571Y1485671D1*
Y1836084D2*
X-4181223D1*
X-4214272Y1803035D1*
X-2917571Y2186497D2*
X-2934024D1*
X-2970521Y2150000D1*
Y1807094D1*
Y1538621D1*
X-2917571Y1485671D1*
Y1836084D2*
X-2941531D1*
X-2970521Y1807094D1*
X-2292571Y2186497D2*
Y2134201D1*
X-2364272Y2062500D1*
Y1875000D1*
X-2325356Y1836084D1*
X-2292571D1*
X-1401772Y1043751D2*
X-1408022Y1050001D1*
X-1459843D1*
Y1175001D2*
X-1401772D1*
X-5257933Y2712501D2*
Y2562589D1*
X-5351772Y2468751D1*
X-5395521D1*
X-5464272Y2400000D1*
Y2150000D1*
X-6042571Y2186497D2*
Y2171701D1*
X-6095521Y2118751D1*
Y1849593D1*
Y1538621D1*
X-6042571Y1485671D1*
Y1836084D2*
X-6082012D1*
X-6095521Y1849593D1*
X-3072835Y2738190D2*
X-3126081D1*
X-3151772Y2712500D1*
Y2420698D1*
X-2917571Y2186497D1*
X-4218504Y2858269D2*
X-4293503D1*
X-4376772Y3200000D2*
Y3218751D1*
X-4310236Y3285286D1*
X-3987165Y2858269D2*
Y2822894D1*
X-3639272Y3318749D2*
X-3672735Y3285286D1*
X-3685236D1*
X-4310236D2*
X-4285235D1*
X-4264272Y3306249D1*
X-4933021Y3293751D2*
Y3281252D1*
X-5526770Y3293751D2*
X-5547735Y3272786D1*
X-5560238D1*
X-6120521Y3262500D2*
X-6130807Y3272786D1*
X-6185236D1*
X-3542571Y1836084D2*
X-3594105D1*
X-3614272Y1856251D1*
Y2150000D1*
X-3577774Y2186497D1*
X-3542571D1*
Y2172049D1*
X-3501772Y2131249D1*
X-3358022D1*
X-3314272Y2175000D1*
Y2550000D1*
X-3151772Y2712500D1*
X-2841496Y2712600D2*
X-2614172D1*
X-2595521Y2731251D1*
Y2756249D1*
X-2614272Y2775000D1*
X-789272Y4156252D2*
Y4143751D1*
X-839272Y4093751D1*
X-1870522Y4143751D2*
Y4150001D1*
X-1076772Y2533466D2*
X-1053987Y2531251D1*
X-501772Y2250000D2*
X-376772Y2125000D1*
X-262499D1*
X-161664Y2024165D1*
X-3126081Y2738190D2*
X-3245521D1*
X-3026772Y3300000D2*
X-3051770Y3275001D1*
X-3058021D1*
X-2376772Y3300000D2*
X-2403986Y3272786D1*
X-2435236D1*
X-689272Y512500D2*
Y462501D1*
X-2658021Y312500D2*
X-1845521D1*
X-789272D1*
X-689272Y412500D1*
Y462501D1*
X-2292571Y2134201D2*
X-2067222D1*
X-1914272Y1981251D1*
X-7255312Y1736769D2*
D15*
X-7214264D1*
X-7168201Y1690706D1*
X-7932112Y2038942D2*
X-7937436D1*
X-7974409Y2001969D1*
Y1969085D1*
X-7979356Y1964139D1*
X-8042348Y1948391D2*
X-7995104D1*
X-7979356Y1964139D1*
X-7845052Y1992879D2*
X-7886049D1*
X-7932112Y2038942D1*
X-4762598Y3050001D2*
X-4691487D1*
X-4672736Y3068752D1*
X-3364173Y3007875D2*
X-3281496D1*
X-3271654Y3017718D1*
X-4690945Y2706251D2*
X-4762056D1*
X-4780807Y2687500D1*
X-2256348Y3037501D2*
X-2185238D1*
X-2166487Y3056252D1*
X-6056348Y3025001D2*
X-5985235D1*
X-5966486Y3043751D1*
X-5959694Y2687501D2*
X-6030807D1*
X-6049558Y2668751D1*
X-748031Y3194883D2*
X-671211D1*
X-659843Y3206252D1*
X-1273228Y2301576D2*
X-1362549D1*
X-1362598Y2301526D1*
X-1323228Y2421261D2*
Y2351576D1*
X-1273228Y2301576D1*
X-264469Y3131546D2*
X-378543D1*
X-402854D1*
X-453346Y3182038D1*
Y3189715D1*
X-378543Y3238928D2*
Y3131546D1*
X-3030610Y3639717D2*
Y3489765D1*
X-3015846Y3475001D1*
X-2789272D1*
X-4664272Y3962501D2*
X-4492228Y3790458D1*
X-4260185D1*
Y3650001D1*
X-4282824D1*
X-3414272Y3962501D2*
Y3786423D1*
X-3446152D1*
X-3582573Y3650001D1*
X-3657824D1*
X-4039272Y3475001D2*
Y3306690D1*
X-4054035Y3291927D1*
X-4077661D1*
X-4178642Y3190946D1*
X-4218504D1*
X-3414272Y3475001D2*
Y3221458D1*
X-3429035Y3206694D1*
X-3588583D1*
X-2073362Y2777560D2*
X-2121102D1*
X-4601772Y3195966D2*
Y3240094D1*
X-4616535Y3254858D1*
X-4649507D1*
X-4664272Y3269623D1*
Y3475001D1*
X-2095521Y3183466D2*
Y3237503D1*
X-2164272Y3306253D1*
Y3475001D1*
X-5289272D2*
X-5518059D1*
X-5532824Y3489766D1*
Y3637501D1*
X-5895522Y3170966D2*
Y3261000D1*
X-5914272Y3279749D1*
Y3475001D1*
X-1571497Y3377217D2*
X-1655262D1*
X-1670028Y3391982D1*
Y3599954D1*
X-1655264Y3614718D1*
X-1605118D1*
X-1590354Y3629482D1*
Y3862206D1*
X-315353D2*
Y4103986D1*
X-300587Y4118752D1*
X-201969D1*
X-1480118Y4442915D2*
X-1718059D1*
X-1732824Y4428150D1*
Y4350001D1*
X-4307087Y1655512D2*
X-4298394Y1664205D1*
X-4278004D1*
X-3426181Y2808072D2*
Y2725395D1*
X-3440945Y2710631D1*
X-3637795D1*
X-2433071Y2448819D2*
X-2503986Y2519734D1*
Y2568751D1*
X-4320866Y3003938D2*
Y2898627D1*
X-4306098Y2883860D1*
X-4218504D1*
X-1375197Y1131694D2*
Y1192718D1*
X-1389961Y1207482D1*
X-1646457D1*
Y1174017D1*
X-4540748Y2971112D2*
X-4425591D1*
X-4410827Y2985875D1*
Y3175001D1*
X-4443307D1*
X-5041634Y2863190D2*
X-5097142D1*
X-5111906Y2877954D1*
Y2941537D1*
X-5151772D1*
X-1829134Y2458612D2*
Y2558072D1*
X-1843898Y2572836D1*
X-1889764D1*
X-1555980Y1100198D2*
X-1671063D1*
X-1685827Y1085434D1*
Y1050001D1*
X-4439961Y2552360D2*
X-4316535D1*
X-4301772Y2567123D1*
Y2597786D1*
X-5521114Y1289990D2*
Y1350375D1*
X-5573625Y1402886D1*
X-4021614Y2796316D2*
X-4031457Y2806159D1*
Y2960631D1*
X-3987165D1*
X-4010827Y2765804D2*
X-3947303Y2829328D1*
Y2935041D1*
X-3987165D1*
X-3272098Y2808072D2*
X-3253398Y2789371D1*
X-3072835D1*
X-5519685Y1551181D2*
X-5507874D1*
X-5492126Y1566929D1*
Y1629921D1*
X-5526409Y1664205D1*
X-5528004D1*
X-2436469Y1263811D2*
Y1265748D1*
X-2409449D1*
X-2399606Y1275591D1*
Y1353867D1*
X-2448625Y1402886D1*
X-4290354Y3003938D2*
Y2975399D1*
X-4275587Y2960631D1*
X-4218504D1*
X-691634Y2223423D2*
X-746654D1*
Y2276134D1*
X-1286909Y3058612D2*
X-1258024Y3087497D1*
Y3295970D1*
X-1272787Y3310734D1*
X-1311024D1*
X-1325787Y3295970D1*
Y3231596D1*
X-1309205Y3215013D1*
Y3175642D1*
X-5497787Y3112056D2*
Y3079627D1*
X-5501772Y3075643D1*
Y3045178D1*
X-5489272D1*
X-3651575Y1708661D2*
X-3653004D1*
Y1664205D1*
X-1889764Y2828741D2*
X-1943776D1*
Y2854332D1*
X-1916217Y2881891D1*
X-1871835D1*
X-3043752Y1772639D2*
X-3028004Y1756891D1*
Y1664205D1*
X-4268701Y1229332D2*
X-4311469D1*
Y1263811D1*
X-4237205Y2830710D2*
X-4178642D1*
Y2909450D1*
X-4218504D1*
X-6261909Y2759104D2*
X-6231151D1*
Y2805366D1*
X-1379579Y3127312D2*
Y3087592D1*
X-1368260Y3076273D1*
Y3002413D1*
X-1577559Y1077560D2*
X-1626772D1*
Y1050001D1*
X-6410382Y2878147D2*
Y2916535D1*
X-6445521D1*
X-5570522Y2795966D2*
Y2799213D1*
X-5538039D1*
Y2763682D1*
X-5489272D1*
X-5218071Y2656497D2*
Y2789273D1*
Y2814864D1*
X-5257933D1*
X-1788831Y1374635D2*
X-1823625D1*
Y1402886D1*
X-3079189Y1225423D2*
Y1263811D1*
X-3061469D1*
X-1286909Y3129379D2*
X-1272787Y3143501D1*
Y3214030D1*
X-1291339Y3232581D1*
Y3269686D1*
X-7931102Y1994094D2*
Y2038942D1*
X-7932112D1*
X-3364173Y3007875D2*
X-3418307Y3007879D1*
X-3389764Y2755907D2*
X-3389768Y2808072D1*
X-1460626Y606253D2*
X-1551770Y606252D1*
X-1817717Y706253D2*
X-1768450D1*
X-1768449Y706252D1*
X-1726573D1*
X-1817717Y806253D2*
X-1768450D1*
X-1768449Y806252D1*
X-1726573D1*
X-1817717Y606253D2*
X-1768450D1*
X-1768449Y606252D1*
X-1726573D1*
X-980807Y2395966D2*
X-980811Y2436320D1*
X-691634Y2862501D2*
X-769339D1*
X-858907D1*
X-6412844Y2793751D2*
X-6412846Y2746013D1*
X-595129Y3079037D2*
X-595126Y3040647D1*
X-3072835Y2814962D2*
X-3217520D1*
X-6120521Y2795966D2*
X-6165354D1*
X-6180118Y2781202D1*
Y2556302D1*
X-6165353Y2541537D1*
X-6120521D1*
X-1590354Y3862206D2*
X-1422047Y3693899D1*
Y3535139D1*
X-1436811Y3520375D1*
X-1557673D1*
Y3448226D1*
X-1510480Y3401033D1*
Y3366391D1*
X-1525244Y3351627D1*
Y3326035D1*
X-1571505D1*
X-358021Y1166487D2*
X-412157Y1166486D1*
X-2403004Y1664205D2*
X-2387795D1*
Y1724409D1*
X-2413386Y1750000D1*
Y1781496D1*
X-4851772Y2814715D2*
X-4892126Y2814714D1*
X-2436469Y1263811D2*
X-2433071D1*
Y1265748D1*
X-3686469Y1263811D2*
X-3646114Y1263812D1*
X-6186469Y1263811D2*
X-6146114D1*
Y1263812D1*
X-4936125Y1402886D2*
X-4913484Y1402887D1*
X-1273228Y2301576D2*
Y2355710D1*
X-588878Y3333466D2*
X-548520D1*
X-540157Y992915D2*
Y925000D1*
X-4996457Y2718505D2*
Y2663387D1*
X-1943776Y2854332D2*
X-1889764D1*
X-5489272Y2738092D2*
X-5538039D1*
Y2712501D1*
X-5489272D1*
X-4937402Y2790352D2*
Y2836615D1*
X-464272Y1163537D2*
Y1123181D1*
X-5218071Y2789273D2*
X-5257933D1*
X-1811469Y1225423D2*
Y1263811D1*
X-6310236Y2513387D2*
Y2475000D1*
X-5538039Y2763682D2*
Y2738092D1*
X-2789272Y3475001D2*
Y3079726D1*
X-2804035Y3064962D1*
X-3003354D1*
X-3023039Y3045277D1*
X-3072835D1*
X-1314272Y737500D2*
D13*
X-1312303D1*
X-1291339Y716535D1*
Y439915D1*
X-1241188Y389764D1*
X-1057087D1*
X-1022785Y424066D1*
Y468752D1*
X-2121102Y2777560D2*
D15*
X-2163630D1*
Y2758088D1*
X-2178394Y2743324D1*
X-2469193D1*
X-2483957Y2728560D1*
Y2650888D1*
X-4664272Y3475001D2*
X-4835238Y3645967D1*
X-4905609D1*
X-2164272Y3475001D2*
X-2343012D1*
Y3384993D1*
X-2357776Y3370230D1*
X-2397146D1*
X-2411909Y3384993D1*
Y3486978D1*
X-2407825Y3491062D1*
Y3637501D1*
X-5914272Y3475001D2*
X-6143059D1*
X-6157824Y3489766D1*
Y3637501D1*
X-1525244Y3351627D2*
X-1549510D1*
X-1549512Y3351626D1*
X-1571505D1*
X-3637795Y2710631D2*
X-3687056D1*
Y2618751D1*
X-4443307Y3175001D2*
Y3137501D1*
X-4457087D1*
Y3099114D1*
X-3040354Y2451773D2*
X-3032972Y2459155D1*
Y2712600D1*
X-3072835D1*
X-6289665Y3177364D2*
X-6297441Y3185139D1*
X-6430756D1*
X-6445521Y3170374D1*
Y3133465D1*
X-3777165Y3388387D2*
X-3785039Y3380513D1*
Y3196261D1*
X-3753346Y3164568D1*
Y3134056D1*
X-530709Y2968360D2*
X-522835Y2960486D1*
X-443701D1*
Y2993751D1*
X-7121106Y1698423D2*
Y1707537D1*
Y1711916D1*
X-7091093Y1741929D1*
Y1762501D1*
X-7121106Y1707537D2*
D3*
X-5386811Y3150395D2*
X-5378740Y3158466D1*
X-5151772D1*
X-5489272Y2789273D2*
X-5538039D1*
Y2814864D1*
X-5489272D1*
Y2763682D2*
X-5537402D1*
Y2789273D1*
X-5489272D1*
X-4931992Y1230364D2*
X-4926083D1*
X-4914272Y1242175D1*
Y1268749D1*
X-1702114Y1348064D2*
Y1342157D1*
X-1713925Y1330346D1*
X-1740504D1*
X-5521114Y1248060D2*
Y1252000D1*
X-5532925Y1263811D1*
X-5561469D1*
X-796559Y478249D2*
Y474312D1*
X-784748Y462501D1*
X-756201D1*
X-1136516Y3528249D2*
X-1132673Y3524407D1*
Y3382734D1*
X-1138878Y3376529D1*
Y3308466D1*
X-6296606Y2585875D2*
X-6290206Y2592276D1*
Y2632138D1*
X-4266240Y2939966D2*
X-4261315Y2935041D1*
X-4218504D1*
X-4261417Y2809131D2*
X-4267001Y2814715D1*
X-4301772D1*
X-3272098Y2762793D2*
X-3271110Y2763781D1*
X-3072835D1*
X-263878Y1985139D2*
X-261655Y1982916D1*
Y1899146D1*
X-4540748Y2932088D2*
X-4534546Y2925886D1*
X-4516142D1*
X-416929Y3260139D2*
Y3250739D1*
X-405118Y3238928D1*
X-378543D1*
X-1958021Y3176822D2*
D3*
X-4903004Y1664205D2*
D3*
X-2365504Y1330346D2*
Y1309693D1*
X-2409449Y1265748D1*
X-2433071D1*
X-5712058Y3156252D2*
D3*
X-4601772Y2941537D2*
D3*
X-5895522Y2916535D2*
D3*
X-6120521Y2795966D2*
D3*
X-2645522Y2929038D2*
D3*
X-4851772Y2560285D2*
D3*
X-1323228Y2633860D2*
D3*
X-6651772Y2631251D2*
Y2627706D1*
X-6668749Y2610728D1*
Y2562412D1*
X-6643159D2*
X-6668749D1*
X-7121106Y1698423D2*
X-7160484D1*
X-7168201Y1690706D1*
X-7051772Y1862500D2*
X-7076970D1*
X-7084843Y1854627D1*
X-6694340Y2793751D2*
X-6668749D1*
X-6643159D1*
X-6668749D2*
Y2876773D1*
X-6664272Y2881251D1*
X-6056348Y3025001D2*
X-6126770D1*
X-6139272Y3012500D1*
X-5959694Y2687501D2*
X-5910924D1*
X-5885827Y2712598D1*
X-6115504Y1330346D2*
Y1294423D1*
X-6146114Y1263812D1*
X-4913484Y1402887D2*
Y1401034D1*
X-4851772Y1339322D1*
X-5490504Y1330346D2*
Y1320600D1*
X-5521114Y1289990D1*
X-4323625Y1402886D2*
X-4313043D1*
X-4240504Y1330346D1*
X-4268701Y1229332D2*
Y1302150D1*
X-4240504Y1330346D1*
X-3698625Y1402886D2*
X-3612668Y1316929D1*
X-3602087D1*
X-3615504Y1330346D1*
X-3646114Y1263812D2*
Y1299736D1*
X-3615504Y1330346D1*
X-3073625Y1402886D2*
X-3029386Y1358647D1*
X-3018804D1*
X-2990504Y1330346D1*
X-3040354Y1225423D2*
X-3028988Y1236789D1*
Y1291862D1*
X-2990504Y1330346D1*
X-1739272Y1812501D2*
Y1702937D1*
X-1741612Y1700597D1*
X-1778004Y1664205D1*
X-1687008Y1600394D2*
Y1645993D1*
X-1741612Y1700597D1*
X-2645522Y3145967D2*
Y3177312D1*
X-2625984Y3196850D1*
X-2256348Y3037501D2*
X-2316829D1*
X-2322835Y3031496D1*
X-2424902Y2824117D2*
X-2396356D1*
X-2379921Y2840551D1*
X-1751969Y3275591D2*
X-1854234D1*
X-1854970Y3274854D1*
X-1958021Y3176822D2*
Y3167963D1*
X-1994094Y3131890D1*
Y2998031D1*
X-2063088Y2929038D1*
X-2095521D1*
X-1188976Y3051181D2*
X-1166734D1*
X-1138878Y3079037D1*
X-828740Y3188976D2*
X-826772D1*
X-820865Y3194883D1*
X-748031D1*
X-2841496Y2814962D2*
Y2789371D1*
X-2903543Y2779528D2*
Y2795276D1*
X-2883857Y2814962D1*
X-2841496D1*
X-4805118Y2679134D2*
X-4789173D1*
X-4780807Y2687500D1*
X-4840551Y3033465D2*
X-4836614D1*
X-4820077Y3050001D1*
X-4762598D1*
X-5489272Y2712501D2*
X-5503987D1*
X-5570522Y2645966D1*
X-5592520Y2879921D2*
Y2817963D1*
X-5570522Y2795966D1*
X-3811024Y2769686D2*
X-3875983D1*
X-3877953Y2767717D1*
X-3748031Y2893701D2*
X-3748669D1*
X-3753346Y2898378D1*
X-5784892Y2907136D2*
Y2953297D1*
X-5773622Y2964567D1*
X-5716535D1*
X-5725837Y3080365D2*
Y3019144D1*
X-5716535Y3009843D1*
Y2964567D1*
X-5712058Y3156252D2*
Y3144241D1*
X-5725837Y3130462D1*
Y3080365D1*
X-4923228Y2511812D2*
X-4900244D1*
X-4851772Y2560285D1*
X-1551770Y806252D2*
X-1461764D1*
X-1460630Y805118D1*
X-1551770Y706252D2*
X-1461071D1*
X-1460630Y706693D1*
X-6153004Y1664205D2*
X-6118110Y1629311D1*
Y1511811D1*
X-6078740Y1472441D1*
Y1348031D1*
X-6095521Y1331251D1*
X-6126990D1*
X-6198625Y1402886D1*
X-6251772Y3341930D2*
Y3467226D1*
X-6243996Y3475001D1*
X-5626772Y3341930D2*
Y3467226D1*
X-5618996Y3475001D1*
X-5001772Y3350001D2*
Y3467226D1*
X-4993996Y3475001D1*
X-4368996D2*
Y3357777D1*
X-4376772Y3350001D1*
X-6173822Y1443437D2*
X-6147115D1*
X-6139272Y1451281D1*
Y1493749D1*
X-1814272Y2131249D2*
X-1720522D1*
X-1645522Y2206249D1*
Y2812499D1*
X-1462598Y2995423D1*
Y3173230D1*
X-1513042Y3223673D1*
X-1571505D1*
X-3673822Y1443437D2*
X-3708335D1*
X-3716535Y1435236D1*
X-3676772Y2537500D2*
X-3526773D1*
X-3295522Y2768751D1*
Y2862500D1*
X-3176772Y2981251D1*
Y3037500D1*
X-3083021Y3131251D1*
X-2908022D1*
X-1639272Y3112500D2*
X-1630461Y3121311D1*
X-1571505D1*
Y3095720D2*
X-1618551D1*
X-1651772Y3062500D1*
Y2937500D1*
X-1783022Y2806249D1*
Y2550000D1*
X-3039272Y1518749D2*
X-3014270D1*
X-3001772Y1506251D1*
Y1456249D1*
X-3014584Y1443437D1*
X-3048822D1*
X-5548822D2*
X-5570344D1*
X-5576280Y1437501D1*
X-5595521D1*
X-1739272Y3037500D2*
X-1745522D1*
X-1720522Y3062500D1*
Y3127903D1*
X-1650343Y3198083D1*
X-1571505D1*
Y3070130D2*
X-1612891D1*
X-1633021Y3050000D1*
Y2925001D1*
X-1758022Y2800000D1*
Y2575000D1*
X-2408021Y1525000D2*
X-2383022Y1500001D1*
Y1456249D1*
X-2395835Y1443437D1*
X-2423822D1*
X-7869856Y1952328D2*
X-7816600D1*
X-7808022Y1943751D1*
X-1909449Y3043308D2*
X-1854970D1*
Y3044539D1*
Y3070130D2*
X-1971703D1*
X-7192913Y1836615D2*
Y1787403D1*
X-7202996Y1777320D1*
X-7230509D1*
X-4911322Y1443437D2*
X-4933484D1*
X-4941881Y1435041D1*
X-4945522D1*
X-1708022Y3037499D2*
X-1689272Y3056249D1*
Y3115846D1*
X-1633857Y3171261D1*
X-1572736D1*
X-1571505Y3172492D1*
X-4298822Y1443437D2*
X-4265226D1*
X-4261811Y1446852D1*
Y1501970D1*
X-1820521Y2393751D2*
X-1764270D1*
X-1664272Y2493749D1*
Y2825000D1*
X-1483022Y3006249D1*
Y3116882D1*
X-1513042Y3146902D1*
X-1571505D1*
X-1551770Y506252D2*
D16*
X-1483024D1*
X-1444391Y467619D1*
X-1368012D1*
X-1726573Y506252D2*
D13*
X-1551770D1*
X-176772Y3612501D2*
D15*
Y3293751D1*
X-232972Y3237550D1*
Y3131546D1*
X-145522Y3581251D2*
Y3293751D1*
X-217224Y3222049D1*
Y3131546D1*
X-4990945Y2973230D2*
X-5045079D1*
X-5076772Y2941537D1*
D14*
X-5028151D1*
X-5023622Y2937008D1*
X-6250000Y3724409D2*
Y3748230D1*
X-6251772Y3750001D1*
X-4462598Y2783022D2*
D15*
X-4408465D1*
X-4376772Y2814715D1*
X-6251772Y4250001D2*
D14*
Y4169094D1*
X-4416487Y2814715D2*
X-4376772D1*
X-6284694Y2948230D2*
D15*
X-6338827D1*
X-6370521Y2916535D1*
X-7876772Y4144096D2*
Y3712501D1*
X-7676772Y3512501D1*
X-7339272D1*
X-6376772Y2918752D2*
X-6374555Y2916535D1*
X-6370521D1*
X-6056348Y3101773D2*
X-6039714D1*
X-5970521Y3170966D1*
X-7376772Y4144096D2*
Y3662501D1*
X-7226772Y3512501D1*
X-6964272D1*
X-6914272Y3462501D1*
X-5970521Y3168752D2*
Y3170966D1*
X-3751772Y3350001D2*
Y3467226D1*
X-3743996Y3475001D1*
X-7868307Y3566537D2*
X-7768304D1*
X-7683020Y3481252D1*
X-7301772D1*
X-6401772Y3162501D2*
X-6399558D1*
X-6370521Y3133465D1*
X-6316378D1*
X-6284686Y3101773D1*
X-3126772Y3341930D2*
Y3467226D1*
X-3118996Y3475001D1*
X-5626772Y4250001D2*
D14*
Y4137500D1*
X-4414272Y2575000D2*
X-4399558D1*
X-4376772Y2597786D1*
X-4462606Y2629479D2*
D15*
X-4408465D1*
X-4376772Y2597786D1*
X-1571505Y3044539D2*
Y2955265D1*
X-1733021Y2793749D1*
Y2600000D1*
X-1702084Y1443437D2*
X-1798822D1*
X-1588188Y3487895D2*
Y3564764D1*
X-1590354Y3566930D1*
X-738188Y3487895D2*
Y3564765D1*
X-740353Y3566930D1*
X-1889764Y2803151D2*
X-1826770D1*
X-1814272Y2815650D1*
Y2868751D1*
X-248720Y3131546D2*
Y3176034D1*
X-311614Y3238928D1*
X-453346Y3122786D2*
X-437303Y3106743D1*
X-289272D1*
X-201476Y3131546D2*
Y3206547D1*
X-120522Y3287501D1*
Y3550001D1*
X-2484694Y2960730D2*
X-2538829D1*
X-2570521Y2929038D1*
X-3751772Y4250001D2*
D14*
X-3214273D1*
X-3026772Y4062500D1*
Y3875000D1*
X-2864272Y3712500D1*
X-2726772D1*
X-2601772Y3587500D1*
Y3300000D1*
X-2689272Y3212500D1*
Y2900000D1*
X-2664272Y2875000D1*
X-2589272D1*
X-2564272Y2900000D1*
Y2922789D1*
X-2570521Y2929038D1*
X-3126772Y4250001D2*
X-3101773D1*
X-2976772Y4125000D1*
Y3875000D1*
X-2851772Y3750000D1*
X-2714272D1*
X-2570521Y3606249D1*
Y3145967D1*
D15*
X-2516381D1*
X-2484686Y3114273D1*
X-2256348D2*
X-2239714D1*
X-2170521Y3183466D1*
X-2501772Y4250001D2*
D14*
Y4100000D1*
X-2539272Y4062500D1*
Y3225000D1*
X-2497738Y3183466D1*
X-2170521D1*
X-2256348Y2960730D2*
D15*
X-2202213D1*
X-2170521Y2929038D1*
X-1876772Y4250001D2*
D14*
Y4224999D1*
X-1920521Y4181249D1*
Y4118749D1*
X-1814272Y4012500D1*
Y3718751D1*
X-1826772Y3706251D1*
X-1895521D1*
X-1964272Y3637500D1*
Y3331249D1*
X-2020522Y3275000D1*
Y2999999D1*
X-2058021Y2962500D1*
X-2137059D1*
X-2170521Y2929038D1*
X-306937Y3487894D2*
D15*
Y3558514D1*
X-315353Y3566930D1*
X-95521Y3518751D2*
Y3275001D1*
X-176673Y3193849D1*
Y3106743D1*
X-433268Y4147639D2*
X-572539D1*
X-580315Y4155415D1*
X-5915849Y2209676D2*
X-5848348D1*
X-5826772Y2231252D1*
Y2456251D1*
X-5745521Y2537501D1*
X-5383022D1*
X-5345522Y2575001D1*
Y2950001D1*
X-5389518Y2993997D1*
X-5489272D1*
X-6540849Y459676D2*
X-6404596D1*
X-6258022Y606249D1*
X-5383022Y2581251D2*
Y2587500D1*
X-5364272Y2606251D1*
Y2937501D1*
X-5395177Y2968407D1*
X-5489272D1*
X-6540849Y809676D2*
X-6423345D1*
X-6289272Y943749D1*
X-5426772Y2593751D2*
X-5414273D1*
X-5383022Y2625001D1*
Y2925001D1*
X-5400837Y2942816D1*
X-5489272D1*
X-6540849Y1159676D2*
X-6535848D1*
X-6439272Y1256252D1*
Y1656252D1*
X-6401772Y1693752D1*
X-6335483D1*
X-6295276Y1653545D1*
X-5460630Y2592521D2*
X-5463238Y2595129D1*
X-5439617Y2618751D1*
X-5420522D1*
X-5401772Y2637501D1*
Y2906252D1*
X-5414272Y2918752D1*
X-5487745D1*
X-5489272Y2917226D1*
X-7640643Y462360D2*
Y363874D1*
X-7615352Y338583D1*
X-6850394D1*
X-6801772Y387205D1*
Y775000D1*
X-6758022Y818749D1*
Y2468751D1*
X-6576772Y2512501D2*
X-6591978Y2527707D1*
Y2562412D1*
X-8173657Y559878D2*
Y571887D1*
X-8251772Y650001D1*
Y1600000D1*
X-8208022Y1643749D1*
Y1727017D1*
X-7158022Y1968752D2*
X-7151772Y1962501D1*
X-6926772D1*
X-6566929Y2606299D2*
Y2561870D1*
X-6566387Y2562412D1*
X-6921076Y567752D2*
Y724446D1*
X-6783022Y862500D1*
X-6540797Y2512500D2*
Y2562412D1*
X-6515206D2*
Y2613434D1*
X-6551772Y2650000D1*
X-6626772D1*
X-6651772Y2675000D1*
X-6739273D1*
X-6808022Y2606251D1*
Y2581251D1*
X-6876772Y2031252D2*
X-6976770D1*
X-8151919Y1150001D2*
X-8152453Y1150535D1*
X-8036760Y1693736D2*
X-7845537D1*
X-7695522Y1843751D1*
X-7408022D1*
X-7170521Y2081252D1*
Y2312501D1*
X-7108021Y2375001D1*
X-7033021D1*
X-6883021Y2525001D1*
Y2643752D1*
X-6783022Y2743749D1*
X-6601773D1*
X-6564273Y2706251D1*
X-6508022D1*
X-6501773Y2712500D1*
Y2637501D2*
X-6489615Y2625344D1*
Y2562412D1*
X-7640643Y1619841D2*
Y1686130D1*
X-7576772Y1750001D1*
X-6464025Y2637500D2*
Y2562412D1*
X-7057974Y1680412D2*
X-7046361D1*
X-6889272Y1893751D2*
X-6851772Y1931251D1*
Y2055696D1*
X-6820522Y2537500D2*
X-6833022Y2550000D1*
Y2618749D1*
X-6758022Y2693749D1*
X-6639272D1*
X-6614273Y2668751D1*
X-6458021D1*
X-6438434Y2649163D1*
Y2562412D1*
X-6950155Y958831D2*
X-6911693D1*
X-6864272Y1006252D1*
X-6808022Y1855365D2*
Y2393751D1*
X-6826772Y2412500D1*
X-6614272Y2706251D2*
X-6601773D1*
X-6583022Y2687500D1*
X-6445521D1*
X-6412844Y2654823D1*
Y2562412D1*
X-7459669Y3267289D2*
X-7458022D1*
Y3337501D1*
X-6433021Y2856252D2*
Y2799164D1*
X-6438434Y2793751D1*
X-6464025D2*
Y2843751D1*
X-6765291Y3169770D2*
X-6926655D1*
X-8179236Y3161896D2*
Y3385037D1*
X-8114272Y3450001D1*
X-6983021D1*
X-6489272Y2956252D1*
Y2794094D1*
X-6489615Y2793751D1*
X-6947860Y2579113D2*
X-6916408D1*
X-6515206Y2750936D2*
Y2793751D1*
X-7063552Y2035912D2*
Y2055533D1*
X-7101772Y2093752D1*
Y2106251D1*
X-6970521Y2237501D1*
Y2406251D1*
X-6858021Y2518751D1*
Y2626232D1*
X-6765503Y2718751D1*
X-6708021D1*
X-6545522Y2732285D2*
Y2798476D1*
X-6540797Y2793751D1*
X-6566387D2*
Y2864617D1*
X-6608021Y2906249D1*
X-6708022D1*
X-6870521Y2743751D1*
X-6995522D1*
X-7045521Y2693752D1*
X-7139270D1*
X-7176772Y2656251D1*
Y2531251D1*
X-7226772Y2481251D1*
X-7326772D1*
X-7364272Y2443751D1*
Y2375001D1*
X-7383022Y2356251D1*
Y2162500D1*
X-7439272Y2106251D1*
X-7456113D1*
X-7459669Y2109807D1*
X-8042339Y2049236D2*
X-8046286D1*
X-8101772Y1993751D1*
X-8151770D1*
X-8214272Y2056252D1*
X-6595521Y2837501D2*
X-6591978Y2833958D1*
Y2793751D1*
X-1163188Y3487895D2*
Y3564764D1*
X-1165354Y3566930D1*
X-5731348Y2764273D2*
X-5677214D1*
X-5645521Y2795966D1*
X-1686024Y4155415D2*
D14*
X-1727854Y4113583D1*
X-5714272Y3450000D2*
Y3262500D1*
X-5645521Y3193749D1*
Y2795966D1*
X-1170669Y4155415D2*
X-1219686D1*
X-1239272Y4175000D1*
X-5739272Y3350000D2*
Y3312500D1*
X-5851772Y3200000D1*
Y2862500D1*
X-5858022Y2662500D2*
Y2656251D1*
X-5812501Y2610730D1*
X-5731356D1*
X-5645521Y2579037D2*
X-5699663D1*
X-5731356Y2610730D1*
X-5959694D2*
D15*
X-5976328D1*
X-6045521Y2541537D1*
X-6876772Y4144096D2*
D14*
Y3643751D1*
X-6839272Y3606251D1*
Y3431251D1*
X-6658022Y3250001D1*
X-6314272D1*
X-6083022Y2912501D2*
X-6089272Y2906252D1*
X-6133020D1*
X-6196850Y2842421D1*
Y2526331D1*
X-6164272Y2493752D1*
X-6093306D1*
X-6045521Y2541537D1*
X-5959694Y2764273D2*
D15*
X-6013828D1*
X-6045521Y2795966D1*
X-6876772Y3575001D2*
D14*
Y3425001D1*
X-6676772Y3225001D1*
X-6351772D1*
X-6089272Y2862500D2*
Y2839717D1*
X-6045521Y2795966D1*
X-6056348Y2948230D2*
D15*
X-6002215D1*
X-5970521Y2916535D1*
X-7380807Y3566537D2*
X-7318307D1*
X-7239272Y3487501D1*
X-6976772D1*
X-6689272Y3200001D1*
X-6264272D1*
X-6226772Y3162501D1*
X-6039272Y2906252D2*
X-5980804D1*
X-5970521Y2916535D1*
X-4690945Y2629479D2*
X-4707577D1*
X-4776772Y2560285D1*
X-5001772Y4250001D2*
D14*
Y4112500D1*
X-4889272Y3450000D2*
Y3200000D1*
X-4689272Y2575000D2*
X-4690945Y2576673D1*
Y2629479D1*
Y2783022D2*
D15*
X-4745079D1*
X-4776772Y2814715D1*
X-4376772Y4258072D2*
D14*
Y4100000D1*
X-4239272Y3962500D1*
Y3275000D1*
X-4351772Y3162500D1*
Y2925000D1*
X-4464272Y2812500D1*
X-4739272D2*
X-4741487Y2814715D1*
X-4776772D1*
X-5076772Y3158466D2*
D15*
X-5022630D1*
X-4990937Y3126773D1*
X-5626772Y3750001D2*
D14*
Y3737500D1*
X-5664272Y3700000D1*
Y3250000D1*
X-5626772Y3212500D1*
X-5130806D1*
X-5076772Y3158466D1*
X-4762598Y3126773D2*
D15*
X-4745965D1*
X-4676772Y3195966D1*
X-5001772Y3758072D2*
D14*
Y3712500D1*
X-5039272Y3675000D1*
Y3250000D1*
X-4964272Y3175000D1*
X-4801772D1*
X-4776772Y3200000D1*
X-4676772D1*
Y3195966D1*
X-4762598Y2973230D2*
D15*
X-4708465D1*
X-4676772Y2941537D1*
X-4376772Y3758072D2*
Y3725000D1*
X-4414272Y3687500D1*
Y3300000D1*
X-4489272Y3225000D1*
X-4526772D1*
X-4564272Y3187500D1*
Y2900000D1*
X-4576772Y2887500D1*
X-4639272D1*
X-4676772Y2925000D1*
Y2941537D1*
X-3592520Y2931104D2*
X-3645621D1*
X-3678346Y2898377D1*
X-3751772Y3750001D2*
D14*
Y3725000D1*
X-3801772Y3675000D1*
Y2875000D1*
X-3770522Y2843751D1*
X-3708022D1*
X-3678346Y2873425D1*
Y2898377D1*
Y3134056D2*
D15*
X-3667520D1*
X-3618110Y3084647D1*
X-3592512D1*
X-3126772Y3750001D2*
D14*
X-3439270D1*
X-3601772Y3587500D1*
Y3287500D1*
X-3678346Y3210925D1*
Y3134056D1*
X-3431102Y3147639D2*
D15*
Y3108269D1*
X-3407480Y3084647D1*
X-3364173D1*
X-2501772Y3750001D2*
D14*
X-2464272Y3787501D1*
Y3850000D1*
X-2426772Y3887500D1*
X-3195522Y3156251D2*
X-3431102D1*
Y3147639D1*
X-3364173Y2931104D2*
D15*
X-3383858D1*
X-3381890Y2929135D1*
Y2858269D1*
X-3387795D1*
X-1872047Y3748033D2*
D14*
X-1953739D1*
X-2020521Y3681249D1*
X-2264272D1*
X-2389272Y3556249D1*
Y3406251D1*
X-3070521Y3168749D2*
X-3083021D1*
X-3208021Y3043749D1*
Y2987500D1*
X-3337252Y2858269D1*
X-3387795D1*
X-1063878Y3308466D2*
D15*
X-1064567D1*
X-1096259Y3340157D1*
Y3487895D1*
X-1063878Y3308466D2*
X-1013181D1*
X-976370Y3271655D1*
X-748031Y3118112D2*
X-702953D1*
X-663878Y3079037D1*
X-240008Y3487894D2*
Y3417325D1*
X-302017Y3355316D1*
X-465601D1*
X-520522Y3300395D1*
Y3049606D1*
X-570127Y3000001D1*
X-638878D1*
X-663878Y3025001D1*
Y3079037D1*
X-748031Y3271655D2*
X-725689D1*
X-663878Y3333466D1*
X-671259Y3487895D2*
X-669881D1*
X-663878Y3481892D1*
Y3333466D1*
X-976378Y3118112D2*
X-1024803D1*
X-1063878Y3079037D1*
Y3029333D1*
X-1080710Y3012501D1*
X-1189667D1*
X-1224409Y3047244D1*
Y3321458D1*
X-1390846Y3487895D1*
X-1521259D1*
X-1314272Y887500D2*
X-1283022D1*
X-1258022Y912500D1*
Y1043751D1*
X-1314272Y1100000D1*
X-1489270D1*
X-1526772Y1137501D1*
Y1175001D1*
X-1685827Y1174017D2*
Y1134056D1*
X-1676772Y1125001D1*
X-1539272D1*
X-1526772Y1137501D1*
X-1373228Y2633860D2*
Y2743308D1*
X-1399606Y2769686D1*
X-1273228Y2633860D2*
Y2753545D1*
X-1289370Y2769686D1*
X-1162992Y2301576D2*
Y2333860D1*
X-1250394Y2421261D1*
X-1273228D1*
X-1035531Y2837462D2*
X-1040492D1*
X-1088583Y2789371D1*
X-1177165D1*
X-1190945Y2775592D1*
Y2570867D1*
X-1273228Y2488584D1*
Y2421261D1*
X-1153543Y2706693D2*
D14*
X-1074902D1*
Y2710730D1*
X-1064961Y2399608D2*
D15*
X-1070866D1*
X-1114173Y2442915D1*
X-1101772Y2331249D2*
X-1066390D1*
X-1064961Y2332678D1*
X-1151575Y2533466D2*
Y2624017D1*
X-1145669D1*
X-1326772Y1562500D2*
D14*
X-995571D1*
X-961655Y1528584D1*
Y1424146D1*
X-1570522Y2687500D2*
X-1539862D1*
X-1486220Y2633858D1*
Y2320866D1*
X-1364272Y1600000D2*
X-964272D1*
X-861655Y1497383D1*
Y1299146D1*
X-864272Y1550000D2*
X-761655Y1447383D1*
Y1424146D1*
X-361655D2*
Y1427617D1*
X-276772Y1512500D1*
X-661655Y1299146D2*
X-664272D1*
Y1350000D1*
X-701772Y1387500D1*
Y1500000D1*
X-801772Y1600000D1*
X-864272D1*
X-1014272Y2475001D2*
Y2575001D1*
X-1063287Y2624017D1*
X-1078740D1*
X-261655Y1299146D2*
Y1446366D1*
X-461655Y1299146D2*
Y1490117D1*
X-520522Y1542815D2*
Y1512499D1*
X-558021Y1475000D1*
Y1424146D1*
X-561655D1*
X-1646457Y1050001D2*
D15*
Y1019686D1*
X-1626772Y1000001D1*
X-1551772D1*
X-1526772Y1025001D1*
Y1050001D1*
X-1314272Y937500D2*
X-1439272D1*
X-1526772Y1025000D1*
X-6540849Y2209676D2*
X-6479596D1*
X-6456987Y2232285D1*
X-6257874D1*
X-5553150Y2842520D2*
X-5551084Y2840454D1*
X-5489272D1*
X-6540849Y1859676D2*
X-6517096D1*
X-6433021Y1943751D1*
Y2018752D1*
X-6401772Y2050001D1*
X-6303937D1*
X-6263780Y2009844D1*
X-5515748Y2633860D2*
X-5493356Y2656252D1*
X-5445521D1*
X-5439272Y2662501D1*
Y2868752D1*
X-5486564D1*
X-5489272Y2866045D1*
X-6540849Y1509676D2*
X-6539273D1*
Y1600000D1*
X-6439272Y1700001D1*
Y1843751D1*
X-6408021Y1875001D1*
X-6333661D1*
X-6269685Y1811025D1*
X-5478346Y2622049D2*
X-5483318Y2627020D1*
X-5472835Y2637501D1*
X-5433022D1*
X-5420522Y2650001D1*
Y2887501D1*
X-5424656Y2891635D1*
X-5489272D1*
X-2165849Y459676D2*
Y424703D1*
X-2232283Y358269D1*
X-2379921D1*
X-2458022Y436370D1*
X-2730315Y2812992D2*
Y2811024D1*
X-2785434Y2866143D1*
X-2841496D1*
Y2891734D2*
X-2755907D1*
X-2700789Y2836615D1*
X-2624016D1*
X-2561024Y2773623D1*
Y2453001D1*
X-2433022Y2325000D1*
X-2383858Y797245D2*
X-2311024Y724411D1*
X-2251114D1*
X-2165849Y809676D1*
Y1159676D2*
Y1133365D1*
X-2292963Y1006251D1*
X-2389272D1*
X-2724409Y2911417D2*
Y2915356D1*
X-2841496D1*
Y2917324D1*
X-2165849Y1509676D2*
Y1580215D1*
X-2066929Y1679135D1*
Y1728348D1*
X-2104331Y1765749D1*
X-2358268D1*
X-2433071Y1840552D1*
Y2281497D1*
X-2732283Y2580710D1*
X-2797244D1*
X-2901772Y2685238D1*
Y2734449D1*
X-2927165Y2759843D1*
Y2911419D1*
X-2895669Y2942915D1*
X-2841496D1*
Y2968505D2*
Y2966537D1*
X-2771654D1*
X-2489272Y2437500D2*
X-2495521D1*
X-2401772Y2343751D1*
Y1856497D1*
X-2336614Y1791340D1*
X-2234185D1*
X-2165849Y1859676D1*
X-2841496Y2994096D2*
X-2738189D1*
Y2986222D1*
X-1931102Y2210631D2*
X-1974409D1*
X-1973454Y2209676D1*
X-2165849D1*
X-2790849Y459676D2*
X-2650562D1*
X-2523622Y586615D1*
X-2887795Y3013781D2*
X-2885827D1*
Y3019686D1*
X-2841496D1*
X-2790849Y809676D2*
X-2700168D1*
X-2543307Y966537D1*
X-2939272Y3012500D2*
X-2910432Y3041340D1*
X-2845433D1*
X-2841496Y3045277D1*
X-2790849Y1159676D2*
Y1144192D1*
X-2905512Y1029529D1*
X-3017717D1*
X-2931102Y2722441D2*
X-2952756Y2744094D1*
Y2950789D1*
X-3021654Y3019686D1*
X-3072835D1*
X-2790849Y1509676D2*
Y1506396D1*
X-2673228Y1624017D1*
Y1661419D1*
X-2653543Y1681104D1*
X-2562992D1*
X-3125984Y2988190D2*
Y2994096D1*
X-3072835D1*
X-2790849Y1859676D2*
X-2768278D1*
X-2675197Y1952757D1*
Y2480316D1*
X-2748031Y2553151D1*
X-2807087D1*
X-2980315Y2726379D1*
Y2929135D1*
X-3019685Y2968505D1*
X-3072835D1*
X-2790849Y2209676D2*
X-2770640D1*
X-2704724Y2275592D1*
Y2462600D1*
X-2763780Y2521655D1*
X-2814961D1*
X-3005906Y2712600D1*
Y2917324D1*
X-3031496Y2942915D1*
X-3072835D1*
X-3415849Y459676D2*
Y402071D1*
X-3372047Y358269D1*
X-3208661D1*
X-3068898Y498033D1*
Y629923D1*
X-3120079Y2919293D2*
X-3110236D1*
Y2913387D1*
X-3061024D1*
X-3064961Y2917324D1*
X-3072835D1*
X-3415849Y809676D2*
X-3322215D1*
X-3208661Y923230D1*
X-3169291D1*
X-3145522Y2893751D2*
X-3072835D1*
Y2891734D1*
X-3415849Y1159676D2*
X-3397412D1*
X-3295276Y1261812D1*
Y1478004D1*
X-3249656Y1523623D1*
X-3190600D1*
X-3169291Y2866143D2*
X-3161417Y2858269D1*
Y2866143D1*
X-3072835D1*
X-3415849Y1509676D2*
X-3397806D1*
X-3295276Y1612206D1*
Y1659450D1*
X-3263780Y1690946D1*
X-3176772D1*
X-3194882Y2840552D2*
X-3072835D1*
X-3415849Y1859676D2*
X-3494028Y1781497D1*
X-3598425D1*
X-3670522Y1853594D1*
Y2276823D1*
X-3842520Y2448820D1*
Y2525592D1*
X-4046220Y2729293D1*
Y2990159D1*
X-4024567Y3011812D1*
X-3987165D1*
Y3037403D2*
X-3947795D1*
X-3914331Y3003938D1*
Y2626930D1*
X-3814961Y2527560D1*
Y2458663D1*
X-3627953Y2271655D1*
Y2269932D1*
X-3576772Y2218751D1*
X-3406774D1*
X-3415849Y2209676D1*
X-4040849Y459676D2*
Y420772D1*
X-3972047Y351970D1*
X-3716929D1*
X-3647835Y421063D1*
X-3834646Y3062993D2*
X-3987165D1*
X-4040849Y809676D2*
X-3938357D1*
X-3799213Y948820D1*
X-3842520Y3104332D2*
X-3875984D1*
X-3891732Y3088584D1*
X-3987165D1*
X-4040849Y1159676D2*
Y1148129D1*
X-3927165Y1261812D1*
Y1503937D1*
X-3903543Y1527559D1*
X-3816929D1*
X-3917323Y3116143D2*
X-3915354Y3114175D1*
X-3987165D1*
X-4040849Y1509676D2*
Y1514270D1*
X-3927165Y1627954D1*
Y1675198D1*
X-3919291Y1683072D1*
X-3791339D1*
X-3842520Y3141734D2*
X-3955669D1*
X-3957638Y3139765D1*
X-3987165D1*
X-4040849Y1859676D2*
X-3971034D1*
X-3919291Y1911419D1*
Y2562993D1*
X-4044252Y3137797D2*
Y3145671D1*
X-4024567Y3165356D1*
X-3987165D1*
Y3190946D2*
X-4035824D1*
X-4083021Y3143749D1*
X-3946850Y2543308D2*
Y2275592D1*
X-4012766Y2209676D1*
X-4040849D1*
X-4665849Y459676D2*
Y431598D1*
X-4598425Y364175D1*
X-4377953D1*
X-4311024Y431104D1*
X-4065906Y2566930D2*
Y3084647D1*
X-4146614Y3165356D1*
X-4218504D1*
X-4665849Y809676D2*
X-4542688D1*
X-4423228Y929135D1*
X-4089528Y2598427D2*
Y3076773D1*
X-4152520Y3139765D1*
X-4218504D1*
X-4665849Y1159676D2*
Y1200294D1*
X-4547244Y1318899D1*
Y1655513D1*
X-4521654Y1681104D1*
X-4464567D1*
X-4433071Y1649608D1*
X-4113150Y2629923D2*
Y3072836D1*
X-4154488Y3114175D1*
X-4218504D1*
X-4665849Y1509676D2*
X-4651743D1*
X-4568898Y1592521D1*
Y1669293D1*
X-4531496Y1706694D1*
X-4437008D1*
X-4425197Y1694883D1*
X-4154488Y3078741D2*
X-4164331Y3088584D1*
X-4218504D1*
X-4665849Y1859676D2*
X-4577333D1*
X-4557087Y1879923D1*
X-4458661D1*
X-4419291Y1840552D1*
X-4158022Y3039570D2*
X-4181446Y3062993D1*
X-4218504D1*
X-4665849Y2209676D2*
X-4626940D1*
X-4594488Y2242127D1*
X-4417323D1*
X-4267717Y3039371D2*
X-4220472D1*
X-4218504Y3037403D1*
X-5290849Y459676D2*
Y391243D1*
X-5243356Y343749D1*
X-4353102D1*
X-4275591Y421261D1*
Y553151D1*
X-4139764Y2541340D2*
X-4136772Y2538348D1*
Y2988190D1*
X-4160394Y3011812D1*
X-4218504D1*
X-5290849Y809676D2*
X-5158829D1*
X-5035433Y933072D1*
X-4340551Y2629923D2*
Y2631891D1*
X-4224409D1*
X-4154488Y2701812D1*
Y2964568D1*
X-4176142Y2986222D1*
X-4218504D1*
X-5257933Y2866045D2*
X-5217815D1*
X-5190945Y2839175D1*
Y2564175D1*
X-4945522Y2318752D1*
Y2156251D1*
X-4929134Y2139862D1*
Y1717077D1*
X-5020521Y1650000D2*
X-5083021D1*
X-5114272Y1681251D1*
X-5158021D1*
X-5195521Y1643751D1*
Y1255004D1*
X-5290849Y1159676D1*
X-5257933Y2891635D2*
X-5218406D1*
X-5175197Y2848427D1*
Y2580710D1*
X-4926772Y2332285D1*
Y2175000D1*
X-4908022Y2156251D1*
Y1825001D1*
X-4892396Y1809375D1*
X-5020522Y1681249D2*
X-5039273Y1700001D1*
X-5164270D1*
X-5214272Y1650000D1*
Y1556251D1*
X-5260846Y1509676D1*
X-5290849D1*
X-5257933Y2917226D2*
X-5212745D1*
X-5159449Y2863929D1*
Y2602364D1*
X-4908022Y2350937D1*
Y2193753D1*
X-4883021Y2168752D1*
Y1862206D1*
X-5019685D2*
X-5022215Y1859676D1*
X-5290849D1*
X-5257933Y2942816D2*
X-5213337D1*
X-5143701Y2873180D1*
Y2618113D1*
X-4883021Y2357433D1*
Y2204726D1*
X-4994094D2*
X-5285899D1*
X-5290849Y2209676D1*
X-5915849Y459676D2*
X-5792097D1*
X-5664272Y587501D1*
X-5058022Y2633564D2*
Y2775001D1*
X-5195521Y2956252D2*
X-5198647Y2953126D1*
X-5213927Y2968407D1*
X-5257933D1*
X-5915849Y809676D2*
X-5804597D1*
X-5670521Y943752D1*
X-5089272Y2633564D2*
Y2831251D1*
X-5195522Y2987501D2*
X-5257933D1*
Y2993997D1*
X-5915849Y1159676D2*
Y1192175D1*
X-5795522Y1312501D1*
Y1656249D1*
X-5770521Y1681251D1*
X-5683022D1*
X-5120522Y2633564D2*
Y2800001D1*
X-5195522Y3018751D2*
X-5196360Y3019588D1*
X-5257933D1*
X-5915849Y1509676D2*
X-5892097D1*
X-5814272Y1587501D1*
Y1812501D1*
X-5789272Y1837501D1*
Y2437501D1*
X-5726772Y2500001D1*
X-5364272D1*
X-5308022Y2556251D1*
Y3031251D1*
X-5294094Y3045178D1*
X-5257933D1*
X-5489272Y3019588D2*
X-5383858D1*
X-5326772Y2962501D1*
Y2568752D1*
X-5376772Y2518752D1*
X-5739270D1*
X-5808021Y2450001D1*
Y1900001D1*
X-5848346Y1859676D1*
X-5915849D1*
X-6617568Y2562412D2*
Y2622047D1*
X-6620521Y2625000D1*
X-5254823Y2840551D2*
X-5258030D1*
X-5257933Y2840454D1*
X-3938976Y2984252D2*
X-3940946Y2986222D1*
X-3987165D1*
X-2799211Y2840552D2*
X-2841496D1*
X-1301772Y1525000D2*
D14*
X-1089272D1*
X-1061655Y1497383D1*
Y1299146D1*
X-2501772Y3341930D2*
D15*
Y3467226D1*
X-2493996Y3475001D1*
X-1870079Y3598427D2*
Y3476084D1*
X-1868996Y3475001D1*
X-8150157Y2770818D2*
X-8216337D1*
X-6620522Y2868752D2*
Y2790797D1*
X-6617568Y2793751D1*
X-289272Y3090995D2*
X-404526D1*
X-433021Y3062500D1*
X-1776772Y3093751D2*
X-1853000D1*
X-1854970Y3095720D1*
X-1872047Y3814962D2*
Y3910975D1*
X-1868996Y3914026D1*
Y3962501D1*
X-2501772Y3816930D2*
Y3954726D1*
X-2493996Y3962501D1*
X-3126772Y3816930D2*
Y3954726D1*
X-3118996Y3962501D1*
X-3751772Y3816930D2*
Y3925001D1*
X-3743996Y3932777D1*
Y3962501D1*
X-4376772Y3825001D2*
Y3954726D1*
X-4368996Y3962501D1*
X-5001772Y3825001D2*
Y3954726D1*
X-4993996Y3962501D1*
X-5626772Y3816930D2*
Y3954726D1*
X-5618996Y3962501D1*
X-4376772Y4325001D2*
Y4442226D1*
X-4368996Y4450001D1*
X-5001772Y4316930D2*
Y4442226D1*
X-4993996Y4450001D1*
X-7601772Y3566930D2*
X-7448130D1*
X-7447736Y3566537D1*
X-7101772Y3566930D2*
X-6951772D1*
X-6943701Y3575001D1*
X-7101772Y4147639D2*
X-6947244D1*
X-6943701Y4144096D1*
X-956693Y4147639D2*
X-1095965D1*
X-1103740Y4155415D1*
X-1480118Y4147639D2*
X-1611319D1*
X-1619094Y4155415D1*
X-1876772Y4316930D2*
Y4442226D1*
X-1868996Y4450001D1*
X-2501772Y4316930D2*
Y4442226D1*
X-2493996Y4450001D1*
X-3118996D2*
Y4324706D1*
X-3126772Y4316930D1*
X-3751772D2*
Y4442226D1*
X-3743996Y4450001D1*
X-5626772Y4316930D2*
Y4442226D1*
X-5618996Y4450001D1*
X-7935236Y3566537D2*
X-8101378D1*
X-8101772Y3566930D1*
X-7443701Y4144096D2*
X-7598228D1*
X-7601772Y4147639D1*
X-7943701Y4144096D2*
X-8098228D1*
X-8101772Y4147639D1*
X-6251772Y4316930D2*
Y4442226D1*
X-6243996Y4450001D1*
X-6251772Y3816930D2*
Y3954726D1*
X-6243996Y3962501D1*
X-6195423Y3543013D2*
Y3349902D1*
X-6185236Y3339715D1*
X-6187058D1*
X-6251772Y3275001D1*
X-5570423Y3543013D2*
Y3349900D1*
X-5560238Y3339715D1*
X-5562058D1*
X-5626772Y3275001D1*
X-4943207Y3551479D2*
Y3358367D1*
X-4933021Y3348181D1*
X-4936663D1*
X-5001772Y3283072D1*
X-4320423Y3555513D2*
Y3362402D1*
X-4310236Y3352215D1*
Y3349608D1*
X-4376772Y3283072D1*
X-3695423Y3555513D2*
Y3362402D1*
X-3685236Y3352215D1*
Y3349608D1*
X-3751772Y3283072D1*
X-3068209Y3545228D2*
Y3352118D1*
X-3058021Y3341930D1*
X-3059843D1*
X-3126772Y3275001D1*
X-2445424Y3543013D2*
Y3349903D1*
X-2435236Y3339715D1*
X-2437058D1*
X-2501772Y3275001D1*
X-1770423Y4255513D2*
Y4183172D1*
X-1803593Y4150001D1*
Y4108073D1*
X-1783021Y4087501D1*
Y3718752D1*
X-1836417Y3665356D1*
X-1870079D1*
X-722343Y4156252D2*
X-648081D1*
X-647244Y4155415D1*
X-164370Y4213240D2*
X-589419D1*
X-647244Y4155415D1*
X-6170522Y3812501D2*
D3*
X-1164272Y1325000D2*
Y1421529D1*
X-1161655Y1424146D1*
X-5545524Y3812501D2*
D3*
X-1189272Y1287500D2*
X-1264272D1*
Y1296529D1*
X-1261655Y1299146D1*
X-4918307Y3820967D2*
X-4922739D1*
X-4951772Y3850000D1*
Y3862500D1*
X-1364272Y1337500D2*
Y1421529D1*
X-1361655Y1424146D1*
X-4295524Y3825001D2*
D3*
X-1388437Y1299165D2*
X-1461664D1*
X-3670524Y3825001D2*
D3*
X-814272Y2212500D2*
X-1351772D1*
X-1464272Y2100000D1*
Y1901762D1*
X-1461655Y1899146D1*
X-3043307Y3814717D2*
D3*
X-789272Y2187500D2*
X-1301772D1*
X-1361655Y2127617D1*
Y2024146D1*
X-2420522Y3812501D2*
X-2364273D1*
X-2289272Y3737500D1*
X-2039272D1*
X-1976772Y3800000D1*
X-764272Y2162500D2*
X-1214272D1*
X-1261655Y2115117D1*
Y1899146D1*
X-1783021Y4535681D2*
X-1776772D1*
Y4575000D1*
X-739272Y2137500D2*
X-1139272D1*
X-1164272Y2112500D1*
Y2026762D1*
X-1161655Y2024146D1*
X-185236Y4320966D2*
Y4316535D1*
X-214272Y4287500D1*
X-714272Y2112500D2*
X-1051772D1*
X-1061655Y2102617D1*
Y1899146D1*
X-461655D2*
Y1865117D1*
X-645521Y1681251D1*
X-1383021D1*
X-1633021Y1431251D1*
Y1237500D1*
X-1676772Y993751D2*
X-1666142Y1004381D1*
Y1050001D1*
Y1174017D2*
Y1430315D1*
X-1387795Y1708661D1*
X-669291D1*
X-561655Y1816298D1*
Y2024146D1*
X-176673Y3090995D2*
X-135777D1*
X-89272Y3137500D1*
X-176673Y3075247D2*
X-114025D1*
X-89272Y3100000D1*
Y3062500D2*
Y3059499D1*
X-176673D1*
Y3043751D2*
X-120522D1*
X-89272Y3012500D1*
X-6230121Y1402886D2*
Y553131D1*
X-6386322Y396930D1*
X-5605121Y1402886D2*
Y553131D1*
X-5761322Y396930D1*
X-4967621Y1402886D2*
Y565631D1*
X-5136322Y396930D1*
X-4355121Y1402886D2*
Y553131D1*
X-4511322Y396930D1*
X-3730121Y1402886D2*
Y553131D1*
X-3886322Y396930D1*
X-3105121Y1402886D2*
Y553131D1*
X-3261322Y396930D1*
X-2480121Y1402886D2*
Y553131D1*
X-2636322Y396930D1*
X-1855121Y1402886D2*
Y553131D1*
X-2011322Y396930D1*
X-7136487Y2957911D2*
D13*
X-7043892D1*
X-7797808Y1880281D2*
D15*
Y1834663D1*
X-7829749Y1802722D1*
X-8081718D1*
X-8286442Y2007446D1*
Y2826344D1*
X-8154875Y2957911D1*
X-8062434D1*
X-7969839D2*
D13*
X-8062434D1*
X-7321677D2*
X-7229083D1*
X-7506865D2*
X-7414272D1*
X-7692054D2*
X-7599459D1*
X-7877243D2*
X-7784648D1*
X-7963825Y771738D2*
X-8056420D1*
X-7778635D2*
X-7871230D1*
X-7593448D2*
X-7686041D1*
X-7408259D2*
X-7500853D1*
X-7223070D2*
X-7315664D1*
X-7037878D2*
X-7130474D1*
X-7037878D2*
D15*
X-6952673D1*
X-6800000Y924411D1*
Y1722836D1*
X-7004091Y1926927D1*
X-7270563D1*
X-7302556Y1894933D1*
Y1849367D1*
X-7043892Y3143115D2*
D13*
X-7136487D1*
X-7229083D2*
X-7321677D1*
X-7414272D2*
X-7506865D1*
X-7599459D2*
X-7692054D1*
X-7877243D2*
X-7784648D1*
X-8062434D2*
D15*
Y3081848D1*
X-8302190Y2842092D1*
Y1999572D1*
X-8089592Y1786974D1*
X-7821875D1*
X-7782060Y1826789D1*
Y1880281D1*
X-7969839Y3143115D2*
D13*
X-8062434D1*
X-8056420Y586533D2*
X-7963825D1*
X-7871230D2*
X-7778635D1*
X-7686041D2*
X-7593448D1*
X-7500853D2*
X-7408259D1*
X-7223070D2*
X-7315664D1*
X-7037878D2*
X-7130474D1*
X-7037878D2*
D15*
Y647801D1*
X-6778740Y906938D1*
Y1733860D1*
X-6987555Y1942675D1*
X-7280161D1*
X-7318304Y1904531D1*
Y1849367D1*
X-7229083Y2402336D2*
D13*
X-7321677D1*
X-7757257Y1905084D2*
D15*
X-7420301D1*
X-7194360Y2131025D1*
Y2344463D1*
X-7136487Y2402336D1*
X-7043892D2*
D13*
X-7136487D1*
X-7414272D2*
X-7506865D1*
X-7599459D2*
X-7692054D1*
X-7784648D2*
X-7877243D1*
X-7969839D2*
X-8062434D1*
X-7871230Y1327312D2*
X-7778635D1*
X-7686041D2*
X-7593448D1*
X-7963825D2*
X-8056420D1*
X-7500853D2*
X-7408259D1*
X-7315664D2*
X-7223070D1*
X-7130474D2*
X-7037878D1*
X-7963825D2*
D15*
Y1450446D1*
X-7917323Y1496949D1*
Y1587253D1*
X-7680012Y1824564D1*
X-7343108D1*
X-7829304Y1992879D2*
Y2030786D1*
X-7884786Y2086268D1*
X-7271060Y1736769D2*
Y1698915D1*
X-7215526Y1643381D1*
X-6230121Y1515484D2*
Y2021980D1*
X-6386322Y2178181D1*
X-5605121Y1515484D2*
Y2021980D1*
X-5761322Y2178181D1*
X-4967621Y1515484D2*
Y2009480D1*
X-5136322Y2178181D1*
X-4355121Y1515484D2*
Y2021980D1*
X-4511322Y2178181D1*
X-3730121Y1515484D2*
Y2021980D1*
X-3886322Y2178181D1*
X-3105121Y1515484D2*
Y2021980D1*
X-3261322Y2178181D1*
X-2480121Y1515484D2*
Y2021980D1*
X-2636322Y2178181D1*
X-1855121Y1515484D2*
Y2021980D1*
X-2011322Y2178181D1*
X-7043892Y2217147D2*
D13*
X-7136487D1*
X-7757257Y1920832D2*
D15*
X-7436049D1*
X-7321677Y2035203D1*
Y2217147D1*
D13*
X-7229083D1*
X-7414272D2*
X-7506865D1*
X-7692054D2*
X-7599459D1*
X-7877243D2*
X-7784648D1*
X-7969839D2*
X-8062433D1*
X-8056420Y1512501D2*
X-7963825D1*
X-7686041D2*
X-7593448D1*
X-7408259D2*
X-7500853D1*
X-7223070D2*
X-7315664D1*
X-7130474D2*
X-7037879D1*
X-7871230D2*
X-7778635D1*
D15*
Y1694445D1*
X-7664264Y1808816D1*
X-7343108D1*
X-8016190Y2147701D2*
X-7891264D1*
X-7813556Y2069993D1*
Y1992879D1*
X-7084122Y1581948D2*
X-7209049D1*
X-7286808Y1659707D1*
Y1736769D1*
X-6214373Y1515484D2*
Y2262482D1*
X-6386322Y2434430D1*
X-5589373Y1515484D2*
Y2262482D1*
X-5761322Y2434430D1*
X-4951873Y1515484D2*
Y2125101D1*
X-4964272Y2137500D1*
Y2304824D1*
X-5093878Y2434430D1*
X-5136322D1*
X-4339373Y1515484D2*
Y2262482D1*
X-4511322Y2434430D1*
X-3714373Y1515484D2*
Y2262482D1*
X-3886322Y2434430D1*
X-3089373Y1515484D2*
Y2262482D1*
X-3261322Y2434430D1*
X-2464373Y1515484D2*
Y2262482D1*
X-2636322Y2434430D1*
X-1839373Y1515484D2*
Y2262482D1*
X-2011322Y2434430D1*
X-7830993Y2147654D2*
X-7797808Y2114469D1*
Y1992879D1*
X-7269319Y1581995D2*
X-7302556Y1615232D1*
Y1736769D1*
X-7869856Y1968076D2*
X-7905940D1*
X-7976806Y1897210D1*
X-7979356D1*
X-7230509Y1761572D2*
X-7158951D1*
X-7158022Y1762501D1*
X-7645798Y2344465D2*
X-7680480D1*
X-7749927Y2275018D1*
Y2182424D1*
X-7782060Y2150290D1*
Y1992879D1*
X-7454514Y1385184D2*
X-7419832D1*
X-7350386Y1454630D1*
Y1547224D1*
X-7318304Y1579306D1*
Y1736769D1*
X-7090247Y2494930D2*
X-7148062D1*
X-7182785Y2460207D1*
Y2402336D1*
X-7345522Y2239598D1*
Y2042854D1*
X-7451797Y1936580D1*
X-7757257D1*
X-8010066Y1234718D2*
X-7952251D1*
X-7917528Y1269441D1*
Y1327312D1*
X-7743913Y1500927D1*
Y1697671D1*
X-7648516Y1793068D1*
X-7343108D1*
X-7275444Y2355975D2*
X-7364272Y2267147D1*
Y2055601D1*
X-7467545Y1952328D1*
X-7757257D1*
X-7824869Y1373673D2*
X-7720764Y1477778D1*
Y1689324D1*
X-7632768Y1777320D1*
X-7343108D1*
X-7460640Y2286593D2*
X-7692054D1*
X-7726777Y2251870D1*
Y2000182D1*
X-7757257Y1969702D1*
Y1968076D1*
X-7639672Y1443055D2*
X-7408259D1*
X-7373535Y1477778D1*
Y1729466D1*
X-7343108Y1759894D1*
Y1761572D1*
X-6214373Y1402886D2*
Y1358644D1*
X-6186469Y1330740D1*
X-5589373Y1402886D2*
Y1358644D1*
X-5561469Y1330740D1*
X-4951873Y1402886D2*
Y1373281D1*
X-4914272Y1335678D1*
X-4339373Y1402886D2*
Y1358644D1*
X-4311469Y1330740D1*
X-3714373Y1402886D2*
Y1358644D1*
X-3686469Y1330740D1*
X-3089373Y1402886D2*
Y1358644D1*
X-3061469Y1330740D1*
X-2464373Y1402886D2*
Y1358644D1*
X-2436469Y1330740D1*
X-1839373Y1402886D2*
Y1358644D1*
X-1811469Y1330740D1*
X-6173822Y1427689D2*
X-6145917D1*
X-6115504Y1397276D1*
X-5548822Y1427689D2*
X-5520917D1*
X-5490504Y1397276D1*
X-4911322Y1427689D2*
X-4873210D1*
X-4851772Y1406251D1*
X-4298822Y1427689D2*
X-4270917D1*
X-4240504Y1397276D1*
X-3673822Y1427689D2*
X-3645917D1*
X-3615504Y1397276D1*
X-2990504D2*
X-3018408D1*
X-3048822Y1427689D1*
X-2365504Y1397276D2*
X-2392797D1*
X-2423210Y1427689D1*
X-2423822D1*
X-1740504Y1397276D2*
X-1768408D1*
X-1798822Y1427689D1*
X-6245869Y1402886D2*
Y743879D1*
X-6386320Y603428D1*
X-5620869Y1402886D2*
Y743879D1*
X-5761320Y603428D1*
X-4983369Y1402886D2*
Y756379D1*
X-5136320Y603428D1*
X-4370869Y1402886D2*
Y743879D1*
X-4511320Y603428D1*
X-3745869Y1402886D2*
Y743879D1*
X-3886320Y603428D1*
X-3120869Y1402886D2*
Y743879D1*
X-3261320Y603428D1*
X-2495869Y1402886D2*
Y743879D1*
X-2636320Y603428D1*
X-1870869Y1402886D2*
Y743879D1*
X-2011320Y603428D1*
X-1889764Y2777560D2*
X-1922736D1*
X-1928150Y2772147D1*
X-1939961D1*
X-1959259D1*
X-1964180Y2777068D1*
X-4990157Y2559056D2*
Y2566016D1*
X-5000671Y2576530D1*
Y2599724D1*
X-4976773Y2623623D1*
X-4976772Y2663387D1*
X-1889764Y2751970D2*
X-1922736D1*
X-1928150Y2757383D1*
X-1939961D1*
X-1959259D1*
X-1964180Y2752462D1*
X-4972759Y2576455D2*
X-4979718D1*
X-4985907Y2582646D1*
Y2593609D1*
X-4966332Y2613185D1*
X-4957087Y2622430D1*
Y2663387D1*
X-1889764Y2726379D2*
X-1922736D1*
X-1928150Y2720966D1*
X-1939961D1*
X-1973812D1*
X-1978734Y2725887D1*
X-3690622Y2767400D2*
X-3697581D1*
X-3708096Y2777915D1*
X-3738488D1*
X-3764210Y2752192D1*
X-3768862Y2747541D1*
X-3777067D1*
X-3779528Y2750001D1*
X-3811024D1*
X-1889764Y2700789D2*
X-1922736D1*
X-1928150Y2706202D1*
X-1939961D1*
X-1973812D1*
X-1978734Y2701281D1*
X-3708021Y2750001D2*
Y2756961D1*
X-3714211Y2763151D1*
X-3732373D1*
X-3753772Y2741753D1*
X-3765207Y2730316D1*
X-3811024D1*
X-1889764Y2675198D2*
X-1922736D1*
X-1928150Y2669785D1*
X-1939961D1*
X-1973917D1*
X-1984432Y2659270D1*
X-1991391D1*
X-4467186Y3009580D2*
X-4474146D1*
X-4480336Y3015770D1*
Y3049185D1*
X-4479232Y3050289D1*
Y3065157D1*
X-4476772Y3067618D1*
Y3099114D1*
X-1889764Y2649608D2*
X-1922736D1*
X-1928150Y2655021D1*
X-1939961D1*
X-1967802D1*
X-1973992Y2648831D1*
Y2641871D1*
X-4484585Y2992181D2*
Y2999140D1*
X-4495100Y3009655D1*
Y3055301D1*
X-4493996Y3056404D1*
Y3065157D1*
X-4496457Y3067618D1*
Y3099114D1*
X-1889764Y2624017D2*
X-1922736D1*
X-1928150Y2618604D1*
X-1944987D1*
X-2019298Y2544293D1*
X-2199803D1*
X-2383084Y2727573D1*
X-2440546D1*
X-2461811Y2706308D1*
Y2684845D1*
X-2464272Y2682385D1*
Y2650888D1*
X-1889764Y2598427D2*
X-1922736D1*
X-1928150Y2603840D1*
X-1938871D1*
X-2013182Y2529529D1*
X-2205919D1*
X-2389199Y2712810D1*
X-2434430D1*
X-2447047Y2700193D1*
Y2684845D1*
X-2444587Y2682385D1*
Y2650888D1*
X-6270521Y2632138D2*
Y2600642D1*
X-6268060Y2598181D1*
Y2586370D1*
Y2565888D1*
X-6272982Y2560967D1*
X-2121102Y2572836D2*
D3*
X-6250836Y2632138D2*
Y2600642D1*
X-6253297Y2598181D1*
Y2586370D1*
Y2565888D1*
X-6248375Y2560967D1*
X-2121102Y2598427D2*
D3*
Y2624017D2*
D3*
X-5745915Y3000001D2*
X-5750836Y3004923D1*
Y3016825D1*
X-5747983Y3019678D1*
Y3046408D1*
X-5745522Y3048869D1*
Y3080365D1*
X-2121102Y2649608D2*
D3*
X-5770521Y3000001D2*
X-5765600Y3004923D1*
Y3022941D1*
X-5762747Y3025794D1*
Y3046408D1*
X-5765207Y3048869D1*
Y3080365D1*
X-1328890Y3175642D2*
Y3144146D1*
X-1331350Y3141685D1*
Y3122285D1*
X-1326429Y3117364D1*
X-1964448Y2846297D2*
X-1971407D1*
X-2015748Y2801955D1*
Y2732711D1*
X-2058110Y2690350D1*
X-2067848Y2680612D1*
X-2082717D1*
X-2088130Y2675198D1*
X-2121102D1*
X-1348575Y3175642D2*
Y3144146D1*
X-1346114Y3141685D1*
Y3122285D1*
X-1351035Y3117364D1*
X-1981846Y2863696D2*
Y2856736D1*
X-2030512Y2808071D1*
Y2738827D1*
X-2068549Y2700789D1*
X-2121102D1*
X-6667571Y501360D2*
Y537678D1*
X-6540849Y664400D1*
X-6042571Y501360D2*
Y537678D1*
X-5915849Y664400D1*
X-5417571Y501360D2*
Y537678D1*
X-5290849Y664400D1*
X-4792571Y501360D2*
Y537678D1*
X-4665849Y664400D1*
X-4167571Y501360D2*
Y537678D1*
X-4040849Y664400D1*
X-3542571Y501360D2*
Y537678D1*
X-3415849Y664400D1*
X-2917571Y501360D2*
Y537678D1*
X-2790849Y664400D1*
X-2292571Y501360D2*
Y537678D1*
X-2165849Y664400D1*
X-6667571Y2253427D2*
Y2287678D1*
X-6540849Y2414400D1*
X-6042571Y2253427D2*
Y2287678D1*
X-5915849Y2414400D1*
X-5417571Y2253427D2*
Y2287678D1*
X-5290849Y2414400D1*
X-4792571Y2253427D2*
Y2287678D1*
X-4665849Y2414400D1*
X-4167571Y2253427D2*
Y2287678D1*
X-4040849Y2414400D1*
X-3542571Y2253427D2*
Y2287678D1*
X-3415849Y2414400D1*
X-2917571Y2253427D2*
Y2287678D1*
X-2790849Y2414400D1*
X-2292571Y2253427D2*
Y2287678D1*
X-2165849Y2414400D1*
X-6667571Y1903013D2*
Y1937678D1*
X-6540849Y2064400D1*
X-6042571Y1903013D2*
Y1937678D1*
X-5915849Y2064400D1*
X-5417571Y1903013D2*
Y1937678D1*
X-5290849Y2064400D1*
X-4792571Y1903013D2*
Y1937678D1*
X-4665849Y2064400D1*
X-4167571Y1903013D2*
Y1937678D1*
X-4040849Y2064400D1*
X-3542571Y1903013D2*
Y1937678D1*
X-3415849Y2064400D1*
X-2917571Y1903013D2*
Y1937678D1*
X-2790849Y2064400D1*
X-2292571Y1903013D2*
Y1937678D1*
X-2165849Y2064400D1*
X-6667571Y1552600D2*
Y1587678D1*
X-6540849Y1714400D1*
X-6042571Y1552600D2*
Y1587678D1*
X-5915849Y1714400D1*
X-5417571Y1552600D2*
Y1587678D1*
X-5290849Y1714400D1*
X-4792571Y1552600D2*
Y1587678D1*
X-4665849Y1714400D1*
X-4167571Y1552600D2*
Y1587678D1*
X-4040849Y1714400D1*
X-3542571Y1552600D2*
Y1587678D1*
X-3415849Y1714400D1*
X-2917571Y1552600D2*
Y1587678D1*
X-2790849Y1714400D1*
X-2292571Y1552600D2*
Y1587678D1*
X-2165849Y1714400D1*
X-6667571Y1202186D2*
Y1237678D1*
X-6540849Y1364400D1*
X-6042571Y1202186D2*
Y1237678D1*
X-5915849Y1364400D1*
X-5417571Y1202186D2*
Y1237678D1*
X-5290849Y1364400D1*
X-4792571Y1202186D2*
Y1237678D1*
X-4665849Y1364400D1*
X-4167571Y1202186D2*
Y1237678D1*
X-4040849Y1364400D1*
X-3542571Y1202186D2*
Y1237678D1*
X-3415849Y1364400D1*
X-2917571Y1202186D2*
Y1237678D1*
X-2790849Y1364400D1*
X-2292571Y1202186D2*
Y1237678D1*
X-2165849Y1364400D1*
X-6667571Y851773D2*
Y887678D1*
X-6540849Y1014400D1*
X-6042571Y851773D2*
Y887678D1*
X-5915849Y1014400D1*
X-5417571Y851773D2*
Y887678D1*
X-5290849Y1014400D1*
X-4792571Y851773D2*
Y887678D1*
X-4665849Y1014400D1*
X-4167571Y851773D2*
Y887678D1*
X-4040849Y1014400D1*
X-3542571Y851773D2*
Y887678D1*
X-3415849Y1014400D1*
X-2917571Y851773D2*
Y887678D1*
X-2790849Y1014400D1*
X-2292571Y851773D2*
Y887678D1*
X-2165849Y1014400D1*
X-8150157Y2566093D2*
Y2564991D1*
X-8231324Y2483824D1*
X-6950155Y1163555D2*
Y1164657D1*
X-6868988Y1245824D1*
X-8187101Y2193999D2*
Y2295764D1*
X-8184080Y2298785D1*
X-6913211Y1535650D2*
Y1433213D1*
X-6924097Y1422325D1*
X-7664395Y2007446D2*
X-7664394Y2109807D1*
X-7435917Y1722202D2*
X-7435919Y1619841D1*
X-6930143Y2304690D2*
Y2192026D1*
X-6918790Y2180675D1*
X-8170169Y1424958D2*
Y1537622D1*
X-8181522Y1548974D1*
X-6947860Y2783837D2*
Y2877525D1*
X-6945891Y2879493D1*
X-8154421Y850155D2*
Y943843D1*
X-8152453Y945811D1*
X-8034474Y3306659D2*
X-8018726D1*
X-7955734Y3369651D1*
X-6932454Y398091D2*
X-7040938D1*
X-7065839Y422990D1*
X-7195891Y3290911D2*
X-7095038D1*
X-7071417Y3314533D1*
X-7904421Y438738D2*
X-8005274D1*
X-8028895Y415115D1*
X-7664394Y3267289D2*
X-7739198D1*
X-7747072Y3275163D1*
X-7435919Y462360D2*
X-7361114D1*
X-7353240Y454486D1*
X-6261617Y1402886D2*
Y903083D1*
X-6386322Y778378D1*
X-5636617Y1402886D2*
Y903083D1*
X-5761322Y778378D1*
X-4999117Y1402886D2*
Y915583D1*
X-5136322Y778378D1*
X-4386617Y1402886D2*
Y903083D1*
X-4511322Y778378D1*
X-3761617Y1402886D2*
Y903083D1*
X-3886322Y778378D1*
X-3136617Y1402886D2*
Y903083D1*
X-3261322Y778378D1*
X-2511617Y1402886D2*
Y903083D1*
X-2636322Y778378D1*
X-1886617Y1402886D2*
Y903083D1*
X-2011322Y778378D1*
X-6170522Y3745572D2*
Y3700000D1*
X-6233021Y3637501D1*
X-5545524Y3745572D2*
Y3699999D1*
X-5608021Y3637501D1*
X-4918307Y3754038D2*
Y3708466D1*
X-4980806Y3645967D1*
X-4295524Y3758072D2*
Y3712499D1*
X-4358021Y3650001D1*
X-3670524Y3758072D2*
Y3712499D1*
X-3733021Y3650001D1*
X-3043307Y3747787D2*
Y3702217D1*
X-3105807Y3639717D1*
X-2420522Y3745572D2*
Y3700001D1*
X-2483022Y3637501D1*
X-1783021Y4468752D2*
Y4375001D1*
X-1808021Y4350001D1*
X-126772Y4118752D2*
Y4312501D1*
X-118307Y4320966D1*
X-4990945Y2998820D2*
X-5067126D1*
X-5076772Y3008466D1*
X-5151772D2*
X-5076772D1*
X-3592520Y2956694D2*
X-3635827D1*
X-3644440Y2965307D1*
X-3678346D1*
X-3753346D2*
X-3678346D1*
X-4462598Y2757432D2*
X-4386417D1*
X-4376772Y2747786D1*
X-4301772D2*
X-4376772D1*
X-2484694Y2986320D2*
X-2560874D1*
X-2570521Y2995967D1*
X-2645522D2*
X-2570521D1*
X-6284694Y2973820D2*
X-6360877D1*
X-6370521Y2983465D1*
X-6445521D2*
X-6370521D1*
X-5731348Y2738682D2*
X-5655167D1*
X-5645521Y2729037D1*
X-5570522D2*
X-5645521D1*
X-976378Y3143702D2*
X-1061614D1*
X-1063878Y3145966D1*
X-1138878D2*
X-1063878D1*
X-4762598Y3024411D2*
X-4802362D1*
X-4957087Y2869686D1*
Y2836615D1*
X-3364173Y2982285D2*
X-3452756D1*
X-3470472Y2964568D1*
Y2901576D1*
X-3547244Y2824804D1*
Y2761812D1*
X-3578740Y2730316D1*
X-3637795D1*
X-4690945Y2731841D2*
X-4657432D1*
X-4496457Y2892816D1*
Y2925886D1*
X-2256348Y3011911D2*
X-2289861D1*
X-2444587Y2857185D1*
Y2824117D1*
X-6056348Y2999411D2*
X-6108613D1*
X-6120522Y2987501D1*
Y2968749D1*
X-6250836Y2838436D1*
Y2805366D1*
X-5959694Y2713092D2*
X-5926182D1*
X-5765207Y2874067D1*
Y2907136D1*
X-748031Y3169293D2*
X-801180D1*
X-840551Y3129921D1*
Y3068899D1*
X-1003150Y2906301D1*
X-1307087D1*
X-1348575Y2947789D1*
Y3002413D1*
X-4990945Y3101182D2*
X-5067126D1*
X-5076772Y3091537D1*
X-5151772D2*
X-5076772D1*
X-3592520Y3059056D2*
X-3670276D1*
X-3678346Y3067127D1*
X-3753346D2*
X-3678346D1*
X-4462598Y2655070D2*
X-4386417D1*
X-4376772Y2664715D1*
X-4301772D2*
X-4376772D1*
X-2484694Y3088682D2*
X-2560877D1*
X-2570521Y3079038D1*
X-2645522D2*
X-2570521D1*
X-6284694Y3076182D2*
X-6360874D1*
X-6370521Y3066535D1*
X-6445521D2*
X-6370521D1*
X-5731348Y2636320D2*
X-5655167D1*
X-5645521Y2645966D1*
X-5570522Y2579037D2*
Y2570967D1*
X-5645521Y2645966D1*
X-976378Y3246064D2*
X-1059350D1*
X-1063878Y3241537D1*
X-1138878D2*
X-1063878D1*
X-6286420Y1427689D2*
X-6297591D1*
X-6330071Y1395209D1*
Y1009626D1*
X-6386320Y953377D1*
X-5661420Y1427689D2*
X-5672591D1*
X-5705071Y1395209D1*
Y1009626D1*
X-5761320Y953377D1*
X-5023920Y1427689D2*
X-5047591D1*
X-5080071Y1395209D1*
Y1009626D1*
X-5136320Y953377D1*
X-4411420Y1427689D2*
X-4422591D1*
X-4455071Y1395209D1*
Y1009626D1*
X-4511320Y953377D1*
X-3786420Y1427689D2*
X-3797591D1*
X-3830071Y1395209D1*
Y1009626D1*
X-3886320Y953377D1*
X-3161420Y1427689D2*
X-3172591D1*
X-3205071Y1395209D1*
Y1009626D1*
X-3261320Y953377D1*
X-2536420Y1427689D2*
X-2547591D1*
X-2580071Y1395209D1*
Y1009626D1*
X-2636320Y953377D1*
X-1911420Y1427689D2*
X-1922591D1*
X-1955071Y1395209D1*
Y1009626D1*
X-2011320Y953377D1*
X-4762598Y3101182D2*
X-4711072D1*
X-4683218Y3129037D1*
X-4676772D1*
Y3131252D1*
X-4606004D1*
Y3129037D1*
X-4601772D1*
X-3364173Y3059056D2*
X-3472441D1*
X-3498031Y3084647D1*
Y3147639D1*
X-3580709D1*
X-3588583Y3139765D1*
X-4690945Y2655070D2*
X-4742471D1*
X-4770327Y2627214D1*
X-4776772D1*
Y2625001D1*
X-4847539D1*
Y2627214D1*
X-4851772D1*
X-2256348Y3088682D2*
X-2204823D1*
X-2176969Y3116537D1*
X-2170521D1*
Y3118752D1*
X-2099753D1*
Y3116537D1*
X-2095521D1*
X-6056348Y3076182D2*
X-6006840D1*
X-5978986Y3104037D1*
X-5970521D1*
Y3106249D1*
X-5899753D1*
Y3104037D1*
X-5895522D1*
X-5959694Y2636320D2*
X-6011219D1*
X-6039073Y2608466D1*
X-6045521D1*
Y2606252D1*
X-6116290D1*
Y2608466D1*
X-6120521D1*
X-748031Y3246064D2*
X-690797D1*
X-670324Y3266537D1*
X-663878D1*
Y3268751D1*
X-593110D1*
Y3266537D1*
X-588878D1*
X-4762598Y2998820D2*
X-4686417D1*
X-4676772Y3008466D1*
X-4601772D1*
X-3454724Y2858269D2*
Y2757875D1*
X-3456693Y2755907D1*
X-3364173Y2956694D2*
X-3423228D1*
X-3438976Y2940946D1*
Y2858269D1*
X-3454724D1*
X-4690945Y2757432D2*
X-4767126D1*
X-4776772Y2747786D1*
X-4851772D1*
X-2256348Y2986320D2*
X-2180168D1*
X-2170521Y2995967D1*
X-2095521D1*
X-6056348Y2973820D2*
X-5980165D1*
X-5970521Y2983465D1*
X-5895522D1*
X-5959694Y2738682D2*
X-6035875D1*
X-6045521Y2729037D1*
X-6120521D1*
X-748031Y3143702D2*
X-666142D1*
X-663878Y3145966D1*
X-595129D1*
X-6286420Y1443437D2*
X-6319343D1*
X-6355071Y1407709D1*
Y1159579D1*
X-6386322Y1128328D1*
X-5661420Y1443437D2*
X-5694343D1*
X-5730071Y1407709D1*
Y1159579D1*
X-5761322Y1128328D1*
X-5023920Y1443437D2*
X-5069343D1*
X-5105071Y1407709D1*
Y1159579D1*
X-5136322Y1128328D1*
X-4411420Y1443437D2*
X-4444343D1*
X-4480071Y1407709D1*
Y1159579D1*
X-4511322Y1128328D1*
X-3786420Y1443437D2*
X-3819343D1*
X-3855071Y1407709D1*
Y1159579D1*
X-3886322Y1128328D1*
X-3161420Y1443437D2*
X-3194343D1*
X-3230071Y1407709D1*
Y1159579D1*
X-3261322Y1128328D1*
X-2536420Y1443437D2*
X-2569343D1*
X-2605071Y1407709D1*
Y1159579D1*
X-2636322Y1128328D1*
X-1911420Y1443437D2*
X-1944343D1*
X-1980071Y1407709D1*
Y1159579D1*
X-2011322Y1128328D1*
X-4762598Y3075592D2*
X-4847636D1*
X-4874016Y3049213D1*
Y2977757D1*
X-4976772Y2875001D1*
Y2836615D1*
X-3637795Y2750001D2*
X-3590551D1*
X-3564961Y2775592D1*
Y2832678D1*
X-3490157Y2907482D1*
Y3009844D1*
X-3466535Y3033466D1*
X-3364173D1*
X-4690945Y2680660D2*
X-4639861D1*
X-4606835Y2713686D1*
X-4608021Y2714873D1*
Y2756252D1*
X-4476772Y2887501D1*
Y2925886D1*
X-2256348Y3063092D2*
X-2330609D1*
X-2348425Y3045276D1*
Y2978348D1*
X-2464272Y2862501D1*
Y2824117D1*
X-6056348Y3050592D2*
X-6144929D1*
X-6170522Y3025000D1*
Y2943748D1*
X-6270521Y2843749D1*
Y2805366D1*
X-5959694Y2661911D2*
X-5889861D1*
X-5851772Y2700000D1*
Y2762503D1*
X-5745522Y2868752D1*
Y2907136D1*
X-1328890Y3002413D2*
Y2958025D1*
X-1296850Y2925986D1*
X-1012992D1*
X-860236Y3078741D1*
Y3196850D1*
X-836613Y3220474D1*
X-748031D1*
X-4996457Y2836615D2*
Y2880316D1*
X-4914272Y2962501D1*
Y3050001D1*
X-4939862Y3075592D1*
X-4990945D1*
X-3637795Y2769686D2*
X-3594488D1*
X-3582677Y2781497D1*
Y2840552D1*
X-3513780Y2909450D1*
Y3003938D1*
X-3543307Y3033466D1*
X-3592520D1*
X-4457087Y2925886D2*
Y2882185D1*
X-4539272Y2800000D1*
Y2706251D1*
X-4513681Y2680660D1*
X-4462598D1*
X-2483957Y2824117D2*
Y2867818D1*
X-2408021Y2943753D1*
Y3037501D1*
X-2433612Y3063092D1*
X-2484694D1*
X-6290206Y2805366D2*
Y2849067D1*
X-6208022Y2931251D1*
Y3025003D1*
X-6233612Y3050592D1*
X-6284694D1*
X-5725837Y2907136D2*
Y2863434D1*
X-5833022Y2756249D1*
Y2687500D1*
X-5807433Y2661911D1*
X-5731348D1*
X-1309205Y3002413D2*
Y2968655D1*
X-1289370Y2948820D1*
X-1017717D1*
X-881890Y3084647D1*
Y3196852D1*
X-905512Y3220474D1*
X-976378D1*
X-6386320Y1297077D2*
Y1413959D1*
X-6341094Y1459185D1*
X-6286420D1*
X-5761320Y1297077D2*
Y1413959D1*
X-5716094Y1459185D1*
X-5661420D1*
X-5136320Y1297077D2*
Y1413959D1*
X-5091094Y1459185D1*
X-5023920D1*
X-4511320Y1297077D2*
Y1413959D1*
X-4466094Y1459185D1*
X-4411420D1*
X-3886320Y1297077D2*
Y1413959D1*
X-3841094Y1459185D1*
X-3786420D1*
X-3261320Y1297077D2*
Y1413959D1*
X-3216094Y1459185D1*
X-3161420D1*
X-2636320Y1297077D2*
Y1413959D1*
X-2591094Y1459185D1*
X-2536420D1*
X-2011320Y1297077D2*
Y1413959D1*
X-1966094Y1459185D1*
X-1911420D1*
X-4990945Y3024411D2*
X-4944930D1*
X-4933021Y3012501D1*
Y2968752D1*
X-5016142Y2885631D1*
Y2836615D1*
X-3637795Y2789371D2*
Y2812993D1*
X-3529528Y2921261D1*
Y2968505D1*
X-3543307Y2982285D1*
X-3592520D1*
X-4462598Y2731841D2*
X-4508613D1*
X-4520522Y2743751D1*
Y2793749D1*
X-4437402Y2876870D1*
Y2925886D1*
X-2484694Y3011911D2*
X-2438678D1*
X-2426770Y3000003D1*
Y2950003D1*
X-2503642Y2873131D1*
Y2824117D1*
X-6284694Y2999411D2*
X-6238680D1*
X-6226770Y2987501D1*
Y2937501D1*
X-6309891Y2854381D1*
Y2805366D1*
X-5731348Y2713092D2*
X-5777362D1*
X-5789272Y2725001D1*
Y2775001D1*
X-5706152Y2858121D1*
Y2907136D1*
X-1289520Y3002413D2*
Y2976529D1*
X-1280709Y2967718D1*
X-1030315D1*
X-901575Y3096458D1*
Y3155513D1*
X-915354Y3169293D1*
X-976378D1*
X-6286420Y1474933D2*
X-6382976D1*
X-6386322Y1478278D1*
X-5661420Y1474933D2*
X-5757976D1*
X-5761322Y1478278D1*
X-5023920Y1474933D2*
X-5132976D1*
X-5136322Y1478278D1*
X-4411420Y1474933D2*
X-4507976D1*
X-4511322Y1478278D1*
X-3786420Y1474933D2*
X-3882976D1*
X-3886322Y1478278D1*
X-3161420Y1474933D2*
X-3257976D1*
X-3261322Y1478278D1*
X-2536420Y1474933D2*
X-2632976D1*
X-2636322Y1478278D1*
X-1911420Y1474933D2*
X-2007976D1*
X-2011322Y1478278D1*
X-6286420Y1490681D2*
Y1553378D1*
X-6386320Y1653278D1*
X-5661420Y1490681D2*
Y1553378D1*
X-5761320Y1653278D1*
X-5023920Y1490681D2*
Y1502852D1*
X-5020522Y1506249D1*
Y1556251D1*
X-5058022Y1593751D1*
X-5076793D1*
X-5136320Y1653278D1*
X-4411420Y1490681D2*
X-4401772D1*
Y1543730D1*
X-4511320Y1653278D1*
X-3786420Y1490681D2*
Y1553378D1*
X-3886320Y1653278D1*
X-3161420Y1490681D2*
Y1553378D1*
X-3261320Y1653278D1*
X-2536420Y1490681D2*
Y1553378D1*
X-2636320Y1653278D1*
X-1911420Y1490681D2*
Y1553378D1*
X-2011320Y1653278D1*
X-7136487Y2587501D2*
D13*
X-7043892D1*
X-7321677D2*
X-7229083D1*
X-7506865D2*
X-7414272D1*
X-7692054D2*
X-7599459D1*
X-7877243D2*
X-7784648D1*
X-8062434D2*
D15*
Y2514919D1*
X-8254946Y2322407D1*
Y2023194D1*
X-8065970Y1834218D1*
X-7845497D1*
X-7829304Y1850411D1*
Y1880281D1*
X-7969839Y2587501D2*
D13*
X-8062434D1*
X-7963825Y1142147D2*
X-8056420D1*
X-7778635D2*
X-7871230D1*
X-7593448D2*
X-7686041D1*
X-7408259D2*
X-7500853D1*
X-7223070D2*
X-7315664D1*
X-7130474D2*
X-7037878D1*
D15*
Y1263894D1*
X-6840945Y1460827D1*
Y1698427D1*
X-7037949Y1895430D1*
X-7254815D1*
X-7271060Y1879185D1*
Y1849367D1*
X-6261617Y1515484D2*
Y1709774D1*
X-6386322Y1834479D1*
X-5636617Y1515484D2*
Y1709774D1*
X-5761322Y1834479D1*
X-4999117Y1515484D2*
Y1697274D1*
X-5136322Y1834479D1*
X-4386617Y1515484D2*
Y1709774D1*
X-4511322Y1834479D1*
X-3761617Y1515484D2*
Y1709774D1*
X-3886322Y1834479D1*
X-3136617Y1515484D2*
Y1709774D1*
X-3261322Y1834479D1*
X-2511617Y1515484D2*
Y1709774D1*
X-2636322Y1834479D1*
X-1886617Y1515484D2*
Y1709774D1*
X-2011322Y1834479D1*
X-7043923Y2772171D2*
D13*
X-7136517D1*
X-7229113D2*
X-7321707D1*
X-7414302D2*
X-7506895D1*
X-7599490D2*
X-7692084D1*
X-7784678D2*
X-7877273D1*
X-7813556Y1880281D2*
D15*
Y1842537D1*
X-7837623Y1818470D1*
X-8073844D1*
X-8270694Y2015320D1*
Y2810596D1*
X-8223450Y2857840D1*
X-8081718D1*
X-8062465Y2838587D1*
Y2772171D1*
X-7969869D2*
D13*
X-8062465D1*
X-8056390Y957478D2*
X-7963795D1*
X-7871199D2*
X-7778605D1*
X-7686010D2*
X-7593417D1*
X-7500823D2*
X-7408228D1*
X-7315634D2*
X-7223039D1*
X-7037848D2*
X-7130444D1*
X-7037848D2*
D15*
Y891062D1*
X-7018594Y871808D1*
X-6891972D1*
X-6820472Y943308D1*
Y1712600D1*
X-7019051Y1911178D1*
X-7262689D1*
X-7286808Y1887059D1*
Y1849367D1*
X-6245869Y1515484D2*
Y1856528D1*
X-6386320Y1996979D1*
X-5620869Y1515484D2*
Y1856528D1*
X-5761320Y1996979D1*
X-4983369Y1515484D2*
Y1867228D1*
X-5113119Y1996979D1*
X-5136320D1*
X-4370869Y1515484D2*
Y1856528D1*
X-4511320Y1996979D1*
X-3745869Y1515484D2*
Y1856528D1*
X-3886320Y1996979D1*
X-3120869Y1515484D2*
Y1856528D1*
X-3261320Y1996979D1*
X-2495869Y1515484D2*
Y1856528D1*
X-2636320Y1996979D1*
X-1870869Y1515484D2*
Y1856528D1*
X-2011320Y1996979D1*
X-2121102Y2803151D2*
X-2068896D1*
X-2005906Y2866142D1*
Y2919291D1*
X-1799213Y3324804D2*
X-1854970D1*
Y3326035D1*
X-1798822Y1474933D2*
X-1875984D1*
Y1480316D1*
X-7230509Y1808816D2*
X-7295035D1*
X-6714272Y2650000D2*
X-6694340Y2630068D1*
Y2562412D1*
X-5257933Y2763682D2*
X-5257972D1*
X-3979291Y2909450D2*
X-3987165D1*
X-6173822Y1474933D2*
Y1474411D1*
X-6204724D1*
X-6210630Y1480316D1*
X-6250000D1*
X-7869856Y1920832D2*
X-7835104D1*
X-7833022Y1918751D1*
X-5548822Y1474933D2*
Y1474411D1*
X-5582677D1*
X-5590551Y1482285D1*
X-5627953D1*
X-4976772Y1480513D2*
Y1474933D1*
X-4911322D1*
X-4377953Y1482285D2*
X-4375984Y1480316D1*
X-4336614D1*
X-4331231Y1474933D1*
X-4298822D1*
X-3751772Y1481251D2*
X-3733022D1*
X-3726705Y1474933D1*
X-3673822D1*
X-3090551Y1478348D2*
X-3087136Y1474933D1*
X-3048822D1*
X-2494094Y1482285D2*
Y1474933D1*
X-2423822D1*
X-2841496Y2763781D2*
Y2761812D1*
X-2689958D1*
X-2645521Y2806249D1*
X-1614075Y1912501D2*
D14*
Y1879823D1*
X-1488189Y1753937D1*
X-938976D1*
X-861655Y1831259D1*
Y1899146D1*
X-1714272Y1475000D2*
D15*
X-1614075Y1575197D1*
Y1912501D1*
X-289272Y3059499D2*
X-317273D1*
X-333021Y3043751D1*
X-1620522Y1918751D2*
X-1614273Y1912501D1*
X-1614075D1*
X-2121102Y2828741D2*
X-2078739D1*
X-2037402Y2870079D1*
X-2624016Y2738190D2*
X-2841496D1*
X-3987165Y2883860D2*
X-3981260D1*
X-5257933Y2738190D2*
Y2738092D1*
X-6173822Y1459185D2*
X-6241604D1*
X-6250000Y1450789D1*
X-7273870Y1781249D2*
X-7262051Y1793068D1*
X-7230509D1*
X-7869856Y1936580D2*
X-7898067D1*
X-7925197Y1909450D1*
Y1895671D1*
X-5548822Y1459185D2*
Y1458663D1*
X-5612205D1*
X-4970522Y1455266D2*
Y1459185D1*
X-4911322D1*
X-4368110Y1456694D2*
X-4366142D1*
X-4363651Y1459185D1*
X-4298822D1*
X-3739272Y1456251D2*
X-3726770D1*
X-3723836Y1459185D1*
X-3673822D1*
X-3090551Y1440946D2*
X-3092520D1*
X-3074281Y1459185D1*
X-3048822D1*
X-2486220Y1452757D2*
X-2479793Y1459185D1*
X-2423822D1*
X-1866142Y1452757D2*
X-1834646D1*
X-1828218Y1459185D1*
X-1798822D1*
X-1854970Y3351626D2*
X-1774853D1*
X-1726378Y3303151D1*
Y3236220D1*
X-1751772Y3210827D1*
Y3068749D1*
X-1818551Y3001970D1*
X-1962598D1*
X-2037402Y2927167D1*
Y2870079D1*
X-6719930Y2562412D2*
Y2593159D1*
X-6751772Y2625000D1*
X-7026772Y1837500D2*
Y1781249D1*
X-961655Y2024146D2*
D14*
Y1829684D1*
X-1001969Y1789370D1*
X-1486220D1*
X-1531496Y1834646D1*
Y1960630D1*
X-1583367Y2012501D1*
X-1739272D1*
X-1798822Y1459185D2*
D15*
X-1767587D1*
X-1651772Y1575000D1*
Y1837500D1*
X-1676772Y1862500D1*
X-1708022D1*
X-1739272Y1893749D1*
Y2012501D1*
X-289272Y3075247D2*
Y3075000D1*
X-339270D1*
X-345521Y3068749D1*
X-351772D1*
X-1739272Y2012501D2*
X-1639273D1*
X-1808021Y2506251D2*
Y2687499D1*
D62*
X-551772Y3175000D3*
X-2051773Y3056252D3*
X-3708808Y3007875D3*
X-4605807Y3068752D3*
X-5801772Y2700000D3*
X-6151773Y2668751D3*
X-5801772Y2700000D3*
X-4901772Y2781249D3*
X-3739273Y2443751D3*
X-3789272Y1625000D3*
X-8108021Y1950000D3*
X-4307087Y1559055D3*
X-8176772Y2437500D3*
X-8164272Y2350000D3*
X-7526772Y2025000D3*
X-6926518Y1312753D3*
X-7539272Y1712500D3*
X-8189272Y700000D3*
X-7801772Y400000D3*
X-7276772D3*
X-6839272D3*
X-6764272Y500000D3*
X-6839272Y400000D3*
X-8170169Y1286583D3*
X-6701770Y2862500D3*
X-6901772Y2943751D3*
X-7820521Y3387500D3*
X-8176772Y2437500D3*
X-4895521Y482285D3*
X-4895522Y312500D3*
X-1401772Y1043751D3*
Y1175001D3*
X-4293503Y2858269D3*
X-4376772Y3200000D3*
X-3987165Y2822894D3*
X-4293503Y2858269D3*
X-3639272Y3318749D3*
X-4264272Y3306249D3*
X-4933021Y3293751D3*
X-5526770D3*
X-6120521Y3262500D3*
X-2614272Y2775000D3*
X-3751772Y3212500D3*
X-839272Y4093751D3*
X-1651772Y4062500D3*
X-1870522Y4143751D3*
X-1053987Y2531251D3*
X-501772Y2250000D3*
X-3245521Y2738190D3*
Y2850000D3*
X-4264272Y3306249D3*
X-3639272Y3318749D3*
X-3026772Y3300000D3*
X-3639272Y3318749D3*
X-2376772Y3300000D3*
D3*
X-689272Y512500D3*
X-1914272Y1981251D3*
X-1845521Y312500D3*
D63*
X-6139272Y1493749D3*
D62*
X-1814272Y2131249D3*
D63*
X-3716535Y1435236D3*
X-3676772Y2537500D3*
D62*
X-2908022Y3131251D3*
X-1639272Y3112500D3*
D63*
X-1783022Y2550000D3*
X-3039272Y1518749D3*
X-5595521Y1437501D3*
D62*
X-5561024Y1718505D3*
X-1895522Y2481249D3*
X-1739272Y3037500D3*
D63*
X-1758022Y2575000D3*
X-2408021Y1525000D3*
X-7808022Y1943751D3*
X-1909449Y3043308D3*
X-1971703Y3070130D3*
X-7192913Y1836615D3*
X-4945522Y1435041D3*
D62*
X-4891732Y1750001D3*
X-1883022Y1918749D3*
X-1708022Y3037499D3*
D63*
X-4261811Y1501970D3*
Y2393751D3*
D62*
X-1820521D3*
X-176772Y3612501D3*
X-145522Y3581251D3*
X-5023622Y2937008D3*
X-6250000Y3724409D3*
X-6251772Y4169094D3*
X-4416487Y2814715D3*
X-7339272Y3512501D3*
X-6376772Y2918752D3*
X-6914272Y3462501D3*
X-5970521Y3168752D3*
X-7301772Y3481252D3*
X-6401772Y3162501D3*
X-5626772Y4137500D3*
X-4414272Y2575000D3*
D63*
X-1733021Y2600000D3*
X-1702084Y1443437D3*
D62*
X-120522Y3550001D3*
X-95521Y3518751D3*
X-6258022Y606249D3*
X-5383022Y2581251D3*
X-6289272Y943749D3*
X-5426772Y2593751D3*
X-6295276Y1653545D3*
X-5460630Y2592521D3*
X-6758022Y2468751D3*
X-6576772Y2512501D3*
X-8208022Y1727017D3*
X-7158022Y1968752D3*
X-6926772Y1962501D3*
X-6566929Y2606299D3*
X-6783022Y862500D3*
X-6540797Y2512500D3*
X-6808022Y2581251D3*
X-6876772Y2031252D3*
X-6976770D3*
X-8151919Y1150001D3*
X-6501773Y2712500D3*
Y2637501D3*
X-7576772Y1750001D3*
X-6464025Y2637500D3*
X-7046361Y1680412D3*
X-6889272Y1893751D3*
X-6851772Y2055696D3*
X-6820522Y2537500D3*
X-6864272Y1006252D3*
X-6808022Y1855365D3*
X-6826772Y2412500D3*
X-6614272Y2706251D3*
X-7458022Y3337501D3*
X-6433021Y2856252D3*
X-6464025Y2843751D3*
X-6765291Y3169770D3*
X-6916408Y2579113D3*
X-6515206Y2750936D3*
X-6708021Y2718751D3*
X-6545522Y2732285D3*
X-8214272Y2056252D3*
X-6595521Y2837501D3*
X-1727854Y4113583D3*
X-5714272Y3450000D3*
X-1239272Y4175000D3*
X-5739272Y3350000D3*
X-5851772Y2862500D3*
X-5858022Y2662500D3*
X-6314272Y3250001D3*
X-6083022Y2912501D3*
X-6351772Y3225001D3*
X-6089272Y2862500D3*
X-6226772Y3162501D3*
X-6039272Y2906252D3*
X-5001772Y4112500D3*
X-4889272Y3450000D3*
Y3200000D3*
X-4689272Y2575000D3*
X-4464272Y2812500D3*
X-4739272D3*
X-2426772Y3887500D3*
X-3195522Y3156251D3*
X-2389272Y3406251D3*
X-3070521Y3168749D3*
X-1153543Y2706693D3*
D63*
X-1101772Y2331249D3*
D62*
X-1326772Y1562500D3*
X-1486220Y2320866D3*
X-1364272Y1600000D3*
X-864272Y1550000D3*
X-276772Y1512500D3*
X-864272Y1600000D3*
X-1014272Y2475001D3*
X-261655Y1446366D3*
X-461655Y1490117D3*
X-520522Y1542815D3*
X-6257874Y2232285D3*
X-5553150Y2842520D3*
X-6263780Y2009844D3*
X-5515748Y2633860D3*
X-6269685Y1811025D3*
X-5478346Y2622049D3*
X-2458022Y436370D3*
X-2730315Y2812992D3*
X-2433022Y2325000D3*
X-2383858Y797245D3*
X-2389272Y1006251D3*
X-2724409Y2911417D3*
X-2771654Y2966537D3*
X-2489272Y2437500D3*
X-2738189Y2986222D3*
X-1931102Y2210631D3*
X-2523622Y586615D3*
X-2887795Y3013781D3*
X-2543307Y966537D3*
X-2939272Y3012500D3*
X-3017717Y1029529D3*
X-2931102Y2722441D3*
X-2562992Y1681104D3*
X-3125984Y2988190D3*
X-3068898Y629923D3*
X-3120079Y2919293D3*
X-3169291Y923230D3*
X-3145522Y2893751D3*
X-3190600Y1523623D3*
X-3169291Y2866143D3*
X-3176772Y1690946D3*
X-3194882Y2840552D3*
X-3647835Y421063D3*
X-3834646Y3062993D3*
X-3799213Y948820D3*
X-3842520Y3104332D3*
X-3816929Y1527559D3*
X-3917323Y3116143D3*
X-3791339Y1683072D3*
X-3842520Y3141734D3*
X-3919291Y2562993D3*
X-4044252Y3137797D3*
X-4083021Y3143749D3*
X-3946850Y2543308D3*
X-4311024Y431104D3*
X-4065906Y2566930D3*
X-4423228Y929135D3*
X-4089528Y2598427D3*
X-4433071Y1649608D3*
X-4113150Y2629923D3*
X-4425197Y1694883D3*
X-4154488Y3078741D3*
X-4419291Y1840552D3*
X-4158022Y3039570D3*
X-4417323Y2242127D3*
X-4267717Y3039371D3*
X-4275591Y553151D3*
X-4139764Y2541340D3*
X-5035433Y933072D3*
X-4340551Y2629923D3*
D63*
X-4929134Y1717077D3*
X-5020521Y1650000D3*
X-4892396Y1809375D3*
X-5020522Y1681249D3*
D62*
X-4883021Y1862206D3*
X-5019685D3*
X-4883021Y2204726D3*
X-4994094D3*
X-5664272Y587501D3*
X-5058022Y2633564D3*
Y2775001D3*
X-5195521Y2956252D3*
X-5670521Y943752D3*
X-5089272Y2633564D3*
Y2831251D3*
X-5195522Y2987501D3*
X-5683022Y1681251D3*
X-5120522Y2633564D3*
Y2800001D3*
X-5195522Y3018751D3*
D63*
X-6620521Y2625000D3*
X-5254823Y2840551D3*
X-3938976Y2984252D3*
X-2799211Y2840552D3*
D62*
X-1301772Y1525000D3*
X-8216337Y2770818D3*
X-6620522Y2868752D3*
D63*
X-433021Y3062500D3*
X-1776772Y3093751D3*
D62*
X-6170522Y3812501D3*
X-1164272Y1325000D3*
X-5545524Y3812501D3*
X-1189272Y1287500D3*
X-4951772Y3862500D3*
X-1364272Y1337500D3*
X-4295524Y3825001D3*
X-1388437Y1299165D3*
X-3670524Y3825001D3*
D63*
X-814272Y2212500D3*
D62*
X-3043307Y3814717D3*
D63*
X-789272Y2187500D3*
D62*
X-1976772Y3800000D3*
D63*
X-764272Y2162500D3*
D62*
X-1776772Y4575000D3*
D63*
X-739272Y2137500D3*
X-214272Y4287500D3*
X-714272Y2112500D3*
X-1633021Y1237500D3*
X-1676772Y993751D3*
D62*
X-89272Y3137500D3*
Y3100000D3*
Y3062500D3*
Y3012500D3*
X-8016190Y2147701D3*
X-7084122Y1581948D3*
X-7830993Y2147654D3*
X-7269319Y1581995D3*
X-7645798Y2344465D3*
X-7454514Y1385184D3*
X-7090247Y2494930D3*
X-8010066Y1234718D3*
X-7275444Y2355975D3*
X-7824869Y1373673D3*
X-7460640Y2286593D3*
X-7639672Y1443055D3*
D63*
X-1964180Y2777068D3*
X-4990157Y2559056D3*
X-1964180Y2752462D3*
X-4972759Y2576455D3*
X-1978734Y2725887D3*
X-3690622Y2767400D3*
X-1978734Y2701281D3*
X-3708021Y2750001D3*
X-1991391Y2659270D3*
X-4467186Y3009580D3*
X-1973992Y2641871D3*
X-4484585Y2992181D3*
X-6272982Y2560967D3*
X-2121102Y2572836D3*
X-6248375Y2560967D3*
X-2121102Y2598427D3*
Y2624017D3*
X-5745915Y3000001D3*
X-2121102Y2649608D3*
X-5770521Y3000001D3*
X-1326429Y3117364D3*
X-1964448Y2846297D3*
X-1351035Y3117364D3*
X-1981846Y2863696D3*
D62*
X-2005906Y2919291D3*
D63*
X-1799213Y3324804D3*
X-7295035Y1808816D3*
X-6714272Y2650000D3*
X-5257972Y2763682D3*
X-3979291Y2909450D3*
X-6250000Y1480316D3*
X-7833022Y1918751D3*
X-7295035Y1808816D3*
X-5627953Y1482285D3*
X-6250000Y1480316D3*
X-4976772Y1480513D3*
X-5627953Y1482285D3*
X-4377953D3*
X-3751772Y1481251D3*
X-3090551Y1478348D3*
X-2494094Y1482285D3*
X-2645521Y2806249D3*
D62*
X-2005906Y2919291D3*
D63*
X-3979291Y2909450D3*
D62*
X-2005906Y2919291D3*
D63*
X-1714272Y1475000D3*
X-333021Y3043751D3*
X-1799213Y3324804D3*
X-1620522Y1918751D3*
D62*
X-2037402Y2870079D3*
D63*
X-2692913Y2811025D3*
X-2624016Y2738190D3*
X-3981260Y2883860D3*
X-5257933Y2738190D3*
X-6250000Y1450789D3*
X-7273870Y1781249D3*
X-7925197Y1895671D3*
X-5612205Y1458663D3*
X-6250000Y1450789D3*
X-4970522Y1455266D3*
X-5612205Y1458663D3*
X-4368110Y1456694D3*
X-3739272Y1456251D3*
X-3090551Y1440946D3*
X-2486220Y1452757D3*
X-1866142D3*
X-6751772Y2625000D3*
X-7026772Y1837500D3*
Y1781249D3*
X-3981260Y2883860D3*
D62*
X-2037402Y2870079D3*
D63*
X-351772Y3068749D3*
X-1726378Y3236220D3*
X-1639273Y2012501D3*
X-1808021Y2506251D3*
Y2687499D3*
D62*
X-2037402Y2870079D3*
X-6386322Y2434430D3*
X-6386320Y1996979D3*
Y1653278D3*
Y1297077D3*
Y953377D3*
Y603428D3*
X-6386322Y2178181D3*
Y1834479D3*
Y1478278D3*
Y1128328D3*
Y778378D3*
Y396930D3*
X-5761322Y2434430D3*
X-5761320Y1996979D3*
Y1653278D3*
Y1297077D3*
Y953377D3*
Y603428D3*
X-5761322Y2178181D3*
Y1834479D3*
Y1478278D3*
Y1128328D3*
Y778378D3*
Y396930D3*
X-5136322Y2434430D3*
X-5136320Y1996979D3*
Y1653278D3*
Y1297077D3*
Y953377D3*
Y603428D3*
X-5136322Y2178181D3*
Y1834479D3*
Y1478278D3*
Y1128328D3*
Y778378D3*
Y396930D3*
X-4511322Y2434430D3*
X-4511320Y1996979D3*
Y1653278D3*
Y1297077D3*
Y953377D3*
Y603428D3*
X-4511322Y2178181D3*
Y1834479D3*
Y1478278D3*
Y1128328D3*
Y778378D3*
Y396930D3*
X-3886322Y2434430D3*
X-3886320Y1996979D3*
Y1653278D3*
Y1297077D3*
Y953377D3*
Y603428D3*
X-3886322Y2178181D3*
Y1834479D3*
Y1478278D3*
Y1128328D3*
Y778378D3*
Y396930D3*
X-3261322Y2434430D3*
X-3261320Y1996979D3*
Y1653278D3*
Y1297077D3*
Y953377D3*
Y603428D3*
X-3261322Y2178181D3*
Y1834479D3*
Y1478278D3*
Y1128328D3*
Y778378D3*
Y396930D3*
X-2636322Y2434430D3*
X-2636320Y1996979D3*
Y1653278D3*
Y1297077D3*
Y953377D3*
Y603428D3*
X-2636322Y2178181D3*
Y1834479D3*
Y1478278D3*
Y1128328D3*
Y778378D3*
Y396930D3*
X-2011322Y2434430D3*
X-2011320Y1996979D3*
Y1653278D3*
Y1297077D3*
Y953377D3*
Y603428D3*
X-2011322Y2178181D3*
Y1834479D3*
Y1478278D3*
Y1128328D3*
Y778378D3*
Y396930D3*
X-8056420Y1512501D3*
X-7963825D3*
X-7871230D3*
X-7778635D3*
X-7686041D3*
X-7593448D3*
X-7500853D3*
X-7408259D3*
X-7315664D3*
X-7223070D3*
X-7130474D3*
X-7037879D3*
X-8056420Y1327312D3*
X-7963825D3*
X-7871230D3*
X-7778635D3*
X-7686041D3*
X-7593448D3*
X-7500853D3*
X-7408259D3*
X-7315664D3*
X-7223070D3*
X-7130474D3*
X-7037878D3*
X-8056420Y586533D3*
X-7963825D3*
X-7871230D3*
X-7778635D3*
X-7686041D3*
X-7593448D3*
X-7500853D3*
X-7408259D3*
X-7315664D3*
X-7223070D3*
X-7130474D3*
X-7037878D3*
X-8056420Y771738D3*
X-7963825D3*
X-7871230D3*
X-7778635D3*
X-7686041D3*
X-7593448D3*
X-7500853D3*
X-7408259D3*
X-7315664D3*
X-7223070D3*
X-7130474D3*
X-7037878D3*
X-8056390Y957478D3*
X-7963795D3*
X-7871199D3*
X-7778605D3*
X-7686010D3*
X-7593417D3*
X-7500823D3*
X-7408228D3*
X-7315634D3*
X-7223039D3*
X-7130444D3*
X-7037848D3*
X-8056420Y1142147D3*
X-7963825D3*
X-7871230D3*
X-7778635D3*
X-7686041D3*
X-7593448D3*
X-7500853D3*
X-7408259D3*
X-7315664D3*
X-7223070D3*
X-7130474D3*
X-7037878D3*
X-7043892Y2217147D3*
X-7136487D3*
X-7229083D3*
X-7321677D3*
X-7414272D3*
X-7506865D3*
X-7599459D3*
X-7692054D3*
X-7784648D3*
X-7877243D3*
X-7969839D3*
X-8062433D3*
X-7043892Y2402336D3*
X-7136487D3*
X-7229083D3*
X-7321677D3*
X-7414272D3*
X-7506865D3*
X-7599459D3*
X-7692054D3*
X-7784648D3*
X-7877243D3*
X-7969839D3*
X-8062434D3*
X-7043892Y3143115D3*
X-7136487D3*
X-7229083D3*
X-7321677D3*
X-7414272D3*
X-7506865D3*
X-7599459D3*
X-7692054D3*
X-7784648D3*
X-7877243D3*
X-7969839D3*
X-8062434D3*
X-7043892Y2957911D3*
X-7136487D3*
X-7229083D3*
X-7321677D3*
X-7414272D3*
X-7506865D3*
X-7599459D3*
X-7692054D3*
X-7784648D3*
X-7877243D3*
X-7969839D3*
X-8062434D3*
X-7043923Y2772171D3*
X-7136517D3*
X-7229113D3*
X-7321707D3*
X-7414302D3*
X-7506895D3*
X-7599490D3*
X-7692084D3*
X-7784678D3*
X-7877273D3*
X-7969869D3*
X-8062465D3*
X-7043892Y2587501D3*
X-7136487D3*
X-7229083D3*
X-7321677D3*
X-7414272D3*
X-7506865D3*
X-7599459D3*
X-7692054D3*
X-7784648D3*
X-7877243D3*
X-7969839D3*
X-8062434D3*
X-7051772Y1862500D3*
X-6664272Y2881251D3*
X-6139272Y3012500D3*
X-5885827Y2712598D3*
X-1687008Y1600394D3*
X-2625984Y3196850D3*
X-2322835Y3031496D3*
X-2379921Y2840551D3*
X-1751969Y3275591D3*
X-1188976Y3051181D3*
X-828740Y3188976D3*
X-2903543Y2779528D3*
X-4805118Y2679134D3*
X-4840551Y3033465D3*
X-5592520Y2879921D3*
X-3877953Y2767717D3*
X-3748031Y2893701D3*
X-5716535Y2964567D3*
X-1460630Y706693D3*
Y805118D3*
X-1105311Y2277954D3*
X-5671701Y3123773D3*
X-5620913D3*
X-4923228Y2578741D3*
X-5540343Y3123773D3*
X-1223031Y2277954D3*
X-6972681Y1648423D3*
X-6295521Y1256251D3*
X-1773917Y2972001D3*
X-1602165Y1156301D3*
X-3066732Y1705710D3*
X-2421260Y1712598D3*
X-2186268Y2778545D3*
X-2375984Y3043307D3*
Y3157480D3*
X-1926772Y925000D3*
X-5064272Y1550000D3*
X-4901772D3*
X-4510236Y3175001D3*
X-3645522Y1537500D3*
X-4433022Y1531251D3*
X-3066732Y1554135D3*
X-1992126Y3234253D3*
X-5520521Y1518749D3*
X-6189272Y1556251D3*
X-5457331Y3085482D3*
X-4191929Y2795919D3*
X-710850Y557824D3*
X-464272D3*
X-3308021Y3125000D3*
X-3295522Y3062500D3*
X-458021Y2737500D3*
X-504134Y3635139D3*
X-6404969Y3025001D3*
D63*
X-1875984Y1480316D3*
D62*
X-2473130Y3214860D3*
X-2605165Y3037501D3*
X-1239272Y3637500D3*
X-5899555Y3043751D3*
X-4122256Y3176182D3*
X-4307087Y1655512D3*
X-3426181Y2808072D3*
X-2433071Y2448819D3*
X-4320866Y3003938D3*
X-1375197Y1131694D3*
X-4540748Y2971112D3*
X-5041634Y2863190D3*
X-3040354Y2451773D3*
X-1829134Y2458612D3*
X-6289665Y3177364D3*
X-1555980Y1100198D3*
X-4439961Y2552360D3*
X-3777165Y3388387D3*
X-5521114Y1289990D3*
X-3040354Y1225423D3*
X-4021614Y2796316D3*
D63*
X-6651772Y2631251D3*
D62*
X-4010827Y2765804D3*
X-3272098Y2808072D3*
X-5519685Y1551181D3*
X-4290354Y3003938D3*
X-691634Y2223423D3*
X-1286909Y3058612D3*
X-5497787Y3112056D3*
X-530709Y2968360D3*
X-3651575Y1708661D3*
X-1871835Y2881891D3*
X-7121106Y1698423D3*
X-5386811Y3150395D3*
X-3043752Y1772639D3*
X-4268701Y1229332D3*
X-4237205Y2830710D3*
X-6261909Y2759104D3*
X-1379579Y3127312D3*
X-1577559Y1077560D3*
X-6410382Y2878147D3*
X-1788831Y1374635D3*
X-3079189Y1225423D3*
X-4931992Y1230364D3*
X-1702114Y1348064D3*
X-5521114Y1248060D3*
X-796559Y478249D3*
X-1286909Y3129379D3*
X-1136516Y3528249D3*
X-6296606Y2585875D3*
X-4266240Y2939966D3*
X-4261417Y2809131D3*
X-3272098Y2762793D3*
X-263878Y1985139D3*
X-4540748Y2932088D3*
X-7931102Y1994094D3*
X-3418307Y3007879D3*
X-3389768Y2808072D3*
X-1460626Y606253D3*
X-1817717Y706253D3*
Y806253D3*
Y606253D3*
X-980811Y2436320D3*
X-691634Y2862501D3*
X-6412846Y2746013D3*
X-595126Y3040647D3*
X-3217520Y2814962D3*
X-412157Y1166486D3*
X-2413386Y1781496D3*
X-4892126Y2814714D3*
X-3646114Y1263812D3*
X-6146114D3*
X-5218071Y2656497D3*
X-4913484Y1402887D3*
X-1273228Y2355710D3*
X-548520Y3333466D3*
X-416929Y3260139D3*
X-540157Y992915D3*
X-4996457Y2718505D3*
X-2073362Y2777560D3*
X-4937402Y2790352D3*
X-464272Y1163537D3*
X-1811469Y1225423D3*
X-6310236Y2513387D3*
X-1323228Y2633860D3*
X-4903004Y1664205D3*
X-4851772Y2560285D3*
X-2645522Y2929038D3*
X-6120521Y2795966D3*
X-5895522Y2916535D3*
X-4601772Y2941537D3*
X-5712058Y3156252D3*
X-2433071Y1265748D3*
X-1958021Y3176822D3*
D18*
X-358021Y1056251D3*
Y1166487D3*
D19*
X-464272Y1056252D3*
Y1123181D3*
D20*
X-856890Y2276134D3*
X-746654D3*
D19*
X-980807Y2329037D3*
Y2395966D3*
D20*
X-1399606Y2769686D3*
X-1289370D3*
D21*
X-689272Y462501D3*
X-756201D3*
D20*
X-1133021Y468752D3*
X-1022785D3*
D19*
X-1958021Y3243751D3*
Y3176822D3*
D21*
X-1429528Y2301526D3*
X-1362598D3*
D19*
X-453346Y3122786D3*
Y3189715D3*
D21*
X-376772Y2993751D3*
X-443701D3*
D20*
X-1273228Y2301576D3*
X-1162992D3*
D19*
X-6153004Y1597276D3*
Y1664205D3*
X-5528004Y1597276D3*
Y1664205D3*
X-4903004Y1597276D3*
Y1664205D3*
X-4278004Y1597276D3*
Y1664205D3*
X-3653004Y1597276D3*
Y1664205D3*
X-3028004Y1597276D3*
Y1664205D3*
X-2403004Y1597276D3*
Y1664205D3*
X-1778004Y1597276D3*
Y1664205D3*
X-8042348Y1881462D3*
Y1948391D3*
D134*
X-7151772Y1854627D3*
X-7084843D3*
D19*
X-6115504Y1397276D3*
Y1330346D3*
X-5490504Y1397276D3*
Y1330346D3*
X-4851772Y1406251D3*
Y1339322D3*
X-4240504Y1397276D3*
Y1330346D3*
X-3615504Y1397276D3*
Y1330346D3*
X-2990504Y1397276D3*
Y1330346D3*
X-2365504Y1397276D3*
Y1330346D3*
X-1740504Y1397276D3*
Y1330346D3*
X-4923228Y2578741D3*
Y2511812D3*
D21*
X-3753986Y2618751D3*
X-3687056D3*
X-4510236Y3175001D3*
X-4443307D3*
X-2437056Y2568751D3*
X-2503986D3*
X-6243307Y2475000D3*
X-6310236D3*
X-5778987Y3156252D3*
X-5712058D3*
X-1358268Y3269686D3*
X-1291339D3*
X-4672736Y3068752D3*
X-4605807D3*
D19*
X-3271654Y3017718D3*
Y3084647D3*
D21*
X-4780807Y2687500D3*
X-4847736D3*
X-2166487Y3056252D3*
X-2099558D3*
X-5966486Y3043751D3*
X-5899556D3*
X-6049558Y2668751D3*
X-6116487D3*
X-659843Y3206252D3*
X-592913D3*
D137*
X-7979356Y1897210D3*
Y1964139D3*
D140*
X-7158022Y1762501D3*
X-7091093D3*
D23*
X-1234154Y467619D3*
X-1368012D3*
D24*
X-1570522Y2187500D3*
Y2287500D3*
Y2387500D3*
Y2487500D3*
Y2587500D3*
Y2687500D3*
Y2787500D3*
X-310680D3*
Y2687500D3*
Y2587500D3*
Y2487500D3*
Y2387500D3*
Y2287500D3*
Y2187500D3*
D26*
X-1889764Y2854332D3*
Y2828741D3*
Y2803151D3*
Y2777560D3*
Y2751970D3*
Y2726379D3*
Y2700789D3*
Y2675198D3*
Y2649608D3*
Y2624017D3*
Y2598427D3*
Y2572836D3*
X-2121102D3*
Y2598427D3*
Y2624017D3*
Y2649608D3*
Y2675198D3*
Y2700789D3*
Y2726379D3*
Y2751970D3*
Y2777560D3*
Y2803151D3*
Y2828741D3*
Y2854332D3*
D27*
X-1626772Y1050001D3*
X-1646457D3*
X-1666142D3*
X-1685827D3*
Y1174017D3*
X-1666142D3*
X-1646457D3*
X-1626772D3*
D29*
X-4937402Y2663387D3*
X-4957087D3*
X-4976772D3*
X-4996457D3*
X-5016142D3*
Y2836615D3*
X-4996457D3*
X-4976772D3*
X-4957087D3*
X-4937402D3*
D30*
X-3811024Y2710631D3*
Y2730316D3*
Y2750001D3*
Y2769686D3*
Y2789371D3*
X-3637795D3*
Y2769686D3*
Y2750001D3*
Y2730316D3*
Y2710631D3*
D29*
X-4516142Y3099114D3*
X-4496457D3*
X-4476772D3*
X-4457087D3*
X-4437402D3*
Y2925886D3*
X-4457087D3*
X-4476772D3*
X-4496457D3*
X-4516142D3*
X-2424902Y2650888D3*
X-2444587D3*
X-2464272D3*
X-2483957D3*
X-2503642D3*
Y2824117D3*
X-2483957D3*
X-2464272D3*
X-2444587D3*
X-2424902D3*
X-6231151Y2632138D3*
X-6250836D3*
X-6270521D3*
X-6290206D3*
X-6309891D3*
Y2805366D3*
X-6290206D3*
X-6270521D3*
X-6250836D3*
X-6231151D3*
X-5784892Y3080365D3*
X-5765207D3*
X-5745522D3*
X-5725837D3*
X-5706152D3*
Y2907136D3*
X-5725837D3*
X-5745522D3*
X-5765207D3*
X-5784892D3*
X-1368260Y3175642D3*
X-1348575D3*
X-1328890D3*
X-1309205D3*
X-1289520D3*
Y3002413D3*
X-1309205D3*
X-1328890D3*
X-1348575D3*
X-1368260D3*
D26*
X-5489272Y2712501D3*
Y2738092D3*
Y2763682D3*
Y2789273D3*
Y2814864D3*
Y2840454D3*
Y2866045D3*
Y2891635D3*
Y2917226D3*
Y2942816D3*
Y2968407D3*
Y2993997D3*
Y3019588D3*
Y3045178D3*
X-5257933D3*
Y3019588D3*
Y2993997D3*
Y2968407D3*
Y2942816D3*
Y2917226D3*
Y2891635D3*
Y2866045D3*
Y2840454D3*
Y2814864D3*
Y2789273D3*
Y2763682D3*
Y2738092D3*
Y2712501D3*
X-4218504Y2858269D3*
Y2883860D3*
Y2909450D3*
Y2935041D3*
Y2960631D3*
Y2986222D3*
Y3011812D3*
Y3037403D3*
Y3062993D3*
Y3088584D3*
Y3114175D3*
Y3139765D3*
Y3165356D3*
Y3190946D3*
X-3987165D3*
Y3165356D3*
Y3139765D3*
Y3114175D3*
Y3088584D3*
Y3062993D3*
Y3037403D3*
Y3011812D3*
Y2986222D3*
Y2960631D3*
Y2935041D3*
Y2909450D3*
Y2883860D3*
Y2858269D3*
X-3072835Y2712600D3*
Y2738190D3*
Y2763781D3*
Y2789371D3*
Y2814962D3*
Y2840552D3*
Y2866143D3*
Y2891734D3*
Y2917324D3*
Y2942915D3*
Y2968505D3*
Y2994096D3*
Y3019686D3*
Y3045277D3*
X-2841496D3*
Y3019686D3*
Y2994096D3*
Y2968505D3*
Y2942915D3*
Y2917324D3*
Y2891734D3*
Y2866143D3*
Y2840552D3*
Y2814962D3*
Y2789371D3*
Y2763781D3*
Y2738190D3*
Y2712600D3*
D31*
X-6745521Y2793751D3*
X-6719930D3*
X-6694340D3*
X-6668749D3*
X-6643159D3*
X-6617568D3*
X-6591978D3*
X-6566387D3*
X-6540797D3*
X-6515206D3*
X-6489615D3*
X-6464025D3*
X-6438434D3*
X-6412844D3*
Y2562412D3*
X-6438434D3*
X-6464025D3*
X-6489615D3*
X-6515206D3*
X-6540797D3*
X-6566387D3*
X-6591978D3*
X-6617568D3*
X-6643159D3*
X-6668749D3*
X-6694340D3*
X-6719930D3*
X-6745521D3*
D32*
X-1590354Y3862206D3*
D34*
Y3566930D3*
D32*
X-740353Y3862206D3*
D34*
Y3566930D3*
D32*
X-8101772Y4442915D3*
D34*
Y4147639D3*
D32*
Y3862206D3*
D34*
Y3566930D3*
D32*
X-7601772Y4442915D3*
D34*
Y4147639D3*
D32*
Y3862206D3*
D34*
Y3566930D3*
D32*
X-6539272Y3962501D3*
D35*
X-6243996D3*
D32*
X-5914272D3*
D35*
X-5618996D3*
D32*
X-5289272D3*
D35*
X-4993996D3*
D32*
X-4664272D3*
D35*
X-4368996D3*
D32*
X-6539272Y4450001D3*
D35*
X-6243996D3*
D32*
X-5914272D3*
D35*
X-5618996D3*
D32*
X-5289272D3*
D35*
X-4993996D3*
D32*
X-4664272D3*
D35*
X-4368996D3*
D32*
X-1165354Y3862206D3*
D34*
Y3566930D3*
D32*
X-315353Y3862206D3*
D34*
Y3566930D3*
D32*
X-1480118Y4442915D3*
D34*
Y4147639D3*
D32*
X-956693Y4442915D3*
D34*
Y4147639D3*
D32*
X-7101772Y4442915D3*
D34*
Y4147639D3*
D32*
Y3862206D3*
D34*
Y3566930D3*
D32*
X-4039272Y3962501D3*
D35*
X-3743996D3*
D32*
X-3414272D3*
D35*
X-3118996D3*
D32*
X-2789272D3*
D35*
X-2493996D3*
D32*
X-2164272D3*
D35*
X-1868996D3*
D32*
X-4039272Y4450001D3*
D35*
X-3743996D3*
D32*
X-3414272D3*
D35*
X-3118996D3*
D32*
X-2789272D3*
D35*
X-2493996D3*
D32*
X-2164272D3*
D35*
X-1868996D3*
D32*
X-6539272Y3475001D3*
D35*
X-6243996D3*
D32*
X-5914272D3*
D35*
X-5618996D3*
D32*
X-5289272D3*
D35*
X-4993996D3*
D32*
X-4664272D3*
D35*
X-4368996D3*
D32*
X-4039272D3*
D35*
X-3743996D3*
D32*
X-3414272D3*
D35*
X-3118996D3*
D32*
X-2789272D3*
D35*
X-2493996D3*
D32*
X-2164272D3*
D35*
X-1868996D3*
D32*
X-433268Y4442915D3*
D34*
Y4147639D3*
D37*
X-1551770Y906252D3*
Y806252D3*
Y706252D3*
Y606252D3*
Y506252D3*
X-1726573D3*
Y606252D3*
Y706252D3*
Y806252D3*
Y906252D3*
D39*
X-1739272Y2012501D3*
X-1614075Y1912501D3*
X-1739272Y1812501D3*
D41*
X-1151575Y2533466D3*
X-1076772D3*
X-1114173Y2442915D3*
D42*
X-6233021Y3637501D3*
X-6157824D3*
X-6195423Y3543013D3*
X-5608021Y3637501D3*
X-5532824D3*
X-5570423Y3543013D3*
X-4980806Y3645967D3*
X-4905609D3*
X-4943207Y3551479D3*
X-4358021Y3650001D3*
X-4282824D3*
X-4320423Y3555513D3*
X-3733021Y3650001D3*
X-3657824D3*
X-3695423Y3555513D3*
X-3105807Y3639717D3*
X-3030610D3*
X-3068209Y3545228D3*
X-2483022Y3637501D3*
X-2407825D3*
X-2445424Y3543013D3*
X-1808021Y4350001D3*
X-1732824D3*
X-1770423Y4255513D3*
X-126772Y4118752D3*
X-201969D3*
X-164370Y4213240D3*
D21*
X-1814272Y2868751D3*
Y2935680D3*
D19*
X-1526772Y1050001D3*
X-1459843D3*
X-1526772Y1175001D3*
X-1459843D3*
D21*
X-6251772Y3275001D3*
Y3341930D3*
X-5626772Y3275001D3*
Y3341930D3*
X-5001772Y3283072D3*
Y3350001D3*
X-4376772Y3283072D3*
Y3350001D3*
X-1064961Y2332678D3*
Y2399608D3*
D19*
X-1145669Y2624017D3*
X-1078740D3*
X-378543Y3238928D3*
X-311614D3*
D21*
X-3751772Y3283072D3*
Y3350001D3*
X-3126772Y3275001D3*
Y3341930D3*
X-2501772Y3275001D3*
Y3341930D3*
X-1870079Y3665356D3*
Y3598427D3*
D19*
X-647244Y4155415D3*
X-580315D3*
X-1521259Y3487895D3*
X-1588188D3*
X-671259D3*
X-738188D3*
X-7876772Y4144096D3*
X-7943701D3*
X-7868307Y3566537D3*
X-7935236D3*
X-7376772Y4144096D3*
X-7443701D3*
X-7380807Y3566537D3*
X-7447736D3*
D21*
X-6251772Y3750001D3*
Y3816930D3*
X-5626772Y3750001D3*
Y3816930D3*
X-5001772Y3758072D3*
Y3825001D3*
X-4376772Y3758072D3*
Y3825001D3*
X-6251772Y4250001D3*
Y4316930D3*
X-5626772Y4250001D3*
Y4316930D3*
X-5001772Y4250001D3*
Y4316930D3*
X-4376772Y4258072D3*
Y4325001D3*
D19*
X-1096259Y3487895D3*
X-1163188D3*
X-240008Y3487894D3*
X-306937D3*
X-1686024Y4155415D3*
X-1619094D3*
X-1170669D3*
X-1103740D3*
X-6876772Y4144096D3*
X-6943701D3*
X-6876772Y3575001D3*
X-6943701D3*
D21*
X-3751772Y3750001D3*
Y3816930D3*
X-3126772Y3750001D3*
Y3816930D3*
X-2501772Y3750001D3*
Y3816930D3*
X-1872047Y3748033D3*
Y3814962D3*
X-3751772Y4250001D3*
Y4316930D3*
X-3126772Y4250001D3*
Y4316930D3*
X-2501772Y4250001D3*
Y4316930D3*
X-1876772Y4250001D3*
Y4316930D3*
X-4676772Y2941537D3*
Y3008466D3*
D19*
X-3387795Y2858269D3*
X-3454724D3*
D21*
X-4776772Y2814715D3*
Y2747786D3*
X-2170521Y2929038D3*
Y2995967D3*
X-5970521Y2916535D3*
Y2983465D3*
X-6045521Y2795966D3*
Y2729037D3*
X-663878Y3079037D3*
Y3145966D3*
X-4601772Y3008466D3*
Y2941537D3*
D19*
X-3456693Y2755907D3*
X-3389764D3*
D21*
X-4851772Y2747786D3*
Y2814715D3*
X-2095521Y2995967D3*
Y2929038D3*
X-5895522Y2983465D3*
Y2916535D3*
X-6120521Y2729037D3*
Y2795966D3*
X-595129Y3145966D3*
Y3079037D3*
X-6186469Y1263811D3*
Y1330740D3*
X-5561469Y1263811D3*
Y1330740D3*
X-4914272Y1268749D3*
Y1335678D3*
X-4311469Y1263811D3*
Y1330740D3*
X-3686469Y1263811D3*
Y1330740D3*
X-3061469Y1263811D3*
Y1330740D3*
X-2436469Y1263811D3*
Y1330740D3*
X-1811469Y1263811D3*
Y1330740D3*
X-6667571Y434430D3*
Y501360D3*
X-6042571Y434430D3*
Y501360D3*
X-5417571Y434430D3*
Y501360D3*
X-4792571Y434430D3*
Y501360D3*
X-4167571Y434430D3*
Y501360D3*
X-3542571Y434430D3*
Y501360D3*
X-2917571Y434430D3*
Y501360D3*
X-2292571Y434430D3*
Y501360D3*
X-6667571Y784844D3*
Y851773D3*
X-6042571Y784844D3*
Y851773D3*
X-5417571Y784844D3*
Y851773D3*
X-4792571Y784844D3*
Y851773D3*
X-4167571Y784844D3*
Y851773D3*
X-3542571Y784844D3*
Y851773D3*
X-2917571Y784844D3*
Y851773D3*
X-2292571Y784844D3*
Y851773D3*
X-6667571Y1135257D3*
Y1202186D3*
X-6042571Y1135257D3*
Y1202186D3*
X-5417571Y1135257D3*
Y1202186D3*
X-4792571Y1135257D3*
Y1202186D3*
X-4167571Y1135257D3*
Y1202186D3*
X-3542571Y1135257D3*
Y1202186D3*
X-2917571Y1135257D3*
Y1202186D3*
X-2292571Y1135257D3*
Y1202186D3*
X-6667571Y1485671D3*
Y1552600D3*
X-6042571Y1485671D3*
Y1552600D3*
X-5417571Y1485671D3*
Y1552600D3*
X-4792571Y1485671D3*
Y1552600D3*
X-4167571Y1485671D3*
Y1552600D3*
X-3542571Y1485671D3*
Y1552600D3*
X-2917571Y1485671D3*
Y1552600D3*
X-2292571Y1485671D3*
Y1552600D3*
X-6667571Y1836084D3*
Y1903013D3*
X-6042571Y1836084D3*
Y1903013D3*
X-5417571Y1836084D3*
Y1903013D3*
X-4792571Y1836084D3*
Y1903013D3*
X-4167571Y1836084D3*
Y1903013D3*
X-3542571Y1836084D3*
Y1903013D3*
X-2917571Y1836084D3*
Y1903013D3*
X-2292571Y1836084D3*
Y1903013D3*
X-6667571Y2186497D3*
Y2253427D3*
X-6042571Y2186497D3*
Y2253427D3*
X-5417571Y2186497D3*
Y2253427D3*
X-4792571Y2186497D3*
Y2253427D3*
X-4167571Y2186497D3*
Y2253427D3*
X-3542571Y2186497D3*
Y2253427D3*
X-2917571Y2186497D3*
Y2253427D3*
X-2292571Y2186497D3*
Y2253427D3*
X-6930143Y2371619D3*
Y2304690D3*
X-8170169Y1358029D3*
Y1424958D3*
D19*
X-7597466Y2007446D3*
X-7664395D3*
X-7502846Y1722202D3*
X-7435917D3*
X-8117151Y2298785D3*
X-8184080D3*
D143*
X-6876772Y1375000D3*
X-6924097Y1422325D3*
D21*
X-8231324Y2416895D3*
Y2483824D3*
X-6868988Y1312753D3*
Y1245824D3*
D19*
X-7814001Y3275163D3*
X-7747072D3*
X-7286311Y454486D3*
X-7353240D3*
X-7262820Y3290911D3*
X-7195891D3*
X-7837492Y438738D3*
X-7904421D3*
X-7888804Y3369651D3*
X-7955734D3*
D146*
X-6885129Y445416D3*
X-6932454Y398091D3*
D21*
X-6945891Y2946423D3*
Y2879493D3*
X-8154421Y783226D3*
Y850155D3*
X-5076772Y2941537D3*
Y3008466D3*
X-3678346Y2898378D3*
Y2965307D3*
X-4376772Y2814715D3*
Y2747786D3*
X-2570521Y2929038D3*
Y2995967D3*
X-6370521Y2916535D3*
Y2983465D3*
X-5645521Y2795966D3*
Y2729037D3*
X-1063878Y3079037D3*
Y3145966D3*
X-5151772Y3008466D3*
Y2941537D3*
X-3753346Y2965307D3*
Y2898378D3*
X-4301772Y2747786D3*
Y2814715D3*
X-2645522Y2995967D3*
Y2929038D3*
X-6445521Y2983465D3*
Y2916535D3*
X-5570522Y2729037D3*
Y2795966D3*
X-1138878Y3145966D3*
Y3079037D3*
X-5076772Y3158466D3*
Y3091537D3*
X-3678346Y3134056D3*
Y3067127D3*
X-4376772Y2597786D3*
Y2664715D3*
X-2570521Y3145967D3*
Y3079038D3*
X-6370521Y3133465D3*
Y3066535D3*
X-5645521Y2579037D3*
Y2645966D3*
X-1063878Y3308466D3*
Y3241537D3*
X-6170522Y3745572D3*
Y3812501D3*
X-5545524Y3745572D3*
Y3812501D3*
X-4918307Y3754038D3*
Y3820967D3*
X-4295524Y3758072D3*
Y3825001D3*
X-3670524Y3758072D3*
Y3825001D3*
X-3043307Y3747787D3*
Y3814717D3*
X-2420522Y3745572D3*
Y3812501D3*
X-1783021Y4468752D3*
Y4535681D3*
D19*
X-118307Y4320966D3*
X-185236D3*
D21*
X-6185236Y3272786D3*
Y3339715D3*
X-5560238Y3272786D3*
Y3339715D3*
X-4933021Y3281252D3*
Y3348181D3*
X-4310236Y3285286D3*
Y3352215D3*
X-3685236Y3285286D3*
Y3352215D3*
X-3058021Y3275001D3*
Y3341930D3*
X-2435236Y3272786D3*
Y3339715D3*
D19*
X-1870522Y4150001D3*
X-1803593D3*
X-789272Y4156252D3*
X-722343D3*
D21*
X-5151772Y3091537D3*
Y3158466D3*
X-3753346Y3067127D3*
Y3134056D3*
X-4301772Y2664715D3*
Y2597786D3*
X-2645522Y3079038D3*
Y3145967D3*
X-6445521Y3066535D3*
Y3133465D3*
X-5570522Y2579037D3*
Y2645966D3*
X-1138878Y3241537D3*
Y3308466D3*
X-4676772Y3195966D3*
Y3129037D3*
D19*
X-3431102Y3147639D3*
X-3498031D3*
D21*
X-4776772Y2560285D3*
Y2627214D3*
X-2170521Y3183466D3*
Y3116537D3*
X-5970521Y3170966D3*
Y3104037D3*
X-6045521Y2541537D3*
Y2608466D3*
X-663878Y3333466D3*
Y3266537D3*
X-4601772Y3129037D3*
Y3195966D3*
X-3588583Y3139765D3*
Y3206694D3*
X-4851772Y2627214D3*
Y2560285D3*
X-2095521Y3116537D3*
Y3183466D3*
X-5895522Y3104037D3*
Y3170966D3*
X-6120521Y2608466D3*
Y2541537D3*
X-588878Y3266537D3*
Y3333466D3*
D149*
X-7932112Y2038942D3*
X-7884786Y2086268D3*
X-7168201Y1690706D3*
X-7215526Y1643381D3*
D45*
X-1114272Y2837501D3*
D46*
X-1074902Y2710729D3*
D45*
X-1035531Y2837462D3*
D48*
X-1314272Y737500D3*
Y787500D3*
Y837500D3*
Y887500D3*
Y937500D3*
Y987500D3*
D50*
X-126772Y925000D3*
X-540157D3*
Y472244D3*
X-126772D3*
D51*
X-1423228Y2633860D3*
X-1373228D3*
X-1323228D3*
X-1273228D3*
Y2421261D3*
X-1323228D3*
X-1373228D3*
X-1423228D3*
D50*
X-445521Y2862501D3*
X-858907D3*
Y2409745D3*
X-445521D3*
D52*
X-1854970Y3044539D3*
Y3070130D3*
Y3095720D3*
Y3121311D3*
Y3146902D3*
Y3172492D3*
Y3198083D3*
Y3223673D3*
Y3249264D3*
Y3274854D3*
Y3300445D3*
Y3326035D3*
Y3351626D3*
Y3377217D3*
X-1571497D3*
X-1571505Y3351626D3*
Y3326035D3*
Y3300445D3*
Y3274854D3*
Y3249264D3*
Y3223673D3*
Y3198083D3*
Y3172492D3*
Y3146902D3*
Y3121311D3*
Y3095720D3*
Y3070130D3*
Y3044539D3*
D53*
X-161664Y1424165D3*
X-261655Y1299146D3*
X-361655Y1424146D3*
X-461655Y1299146D3*
X-561655Y1424146D3*
X-661655Y1299146D3*
X-761655Y1424146D3*
X-861655Y1299146D3*
X-961655Y1424146D3*
X-1061655Y1299146D3*
X-1161655Y1424146D3*
X-1261655Y1299146D3*
X-1361655Y1424146D3*
X-1461664Y1299165D3*
X-1461655Y1899146D3*
X-1361655Y2024146D3*
X-1261655Y1899146D3*
X-1161655Y2024146D3*
X-1061655Y1899146D3*
X-961655Y2024146D3*
X-861655Y1899146D3*
X-761655Y2024146D3*
X-661655Y1899146D3*
X-561655Y2024146D3*
X-461655Y1899146D3*
X-361655Y2024146D3*
X-261655Y1899146D3*
X-161664Y2024165D3*
D54*
X-289272Y3043751D3*
Y3059499D3*
Y3075247D3*
Y3090995D3*
Y3106743D3*
D55*
X-264469Y3131546D3*
X-248720D3*
X-232972D3*
X-217224D3*
X-201476D3*
D54*
X-176673Y3106743D3*
Y3090995D3*
Y3075247D3*
Y3059499D3*
Y3043751D3*
D55*
X-201476Y3018948D3*
X-217224D3*
X-232972D3*
X-248720D3*
X-264469D3*
D57*
X-6540849Y1714401D3*
Y1509676D3*
X-5915849Y1714401D3*
Y1509676D3*
X-5290849Y1714401D3*
Y1509676D3*
X-4665849Y1714401D3*
Y1509676D3*
X-4040849Y1714401D3*
Y1509676D3*
X-3415849Y1714401D3*
Y1509676D3*
X-2790849Y1714401D3*
Y1509676D3*
X-2165849Y1714401D3*
Y1509676D3*
X-6540849Y1364401D3*
Y1159676D3*
X-5915849Y1364401D3*
Y1159676D3*
X-5290849Y1364401D3*
Y1159676D3*
X-4665849Y1364401D3*
Y1159676D3*
X-4040849Y1364401D3*
Y1159676D3*
X-3415849Y1364401D3*
Y1159676D3*
X-2790849Y1364401D3*
Y1159676D3*
X-2165849Y1364401D3*
Y1159676D3*
X-6540849Y1014401D3*
Y809676D3*
X-5915849Y1014401D3*
Y809676D3*
X-5290849Y1014401D3*
Y809676D3*
X-4665849Y1014401D3*
Y809676D3*
X-4040849Y1014401D3*
Y809676D3*
X-3415849Y1014401D3*
Y809676D3*
X-2790849Y1014401D3*
Y809676D3*
X-2165849Y1014401D3*
Y809676D3*
X-6540849Y664401D3*
Y459676D3*
X-5915849Y664401D3*
Y459676D3*
X-5290849Y664401D3*
Y459676D3*
X-4665849Y664401D3*
Y459676D3*
X-4040849Y664401D3*
Y459676D3*
X-3415849Y664401D3*
Y459676D3*
X-2790849Y664401D3*
Y459676D3*
X-2165849Y664401D3*
Y459676D3*
X-8150157Y2566093D3*
Y2770817D3*
X-6950155Y1163555D3*
Y958831D3*
D158*
X-8187101Y2193999D3*
X-8042339Y2049236D3*
X-6913211Y1535650D3*
X-7057974Y1680412D3*
D60*
X-7664394Y2109807D3*
X-7459670D3*
X-7435918Y1619841D3*
X-7640643D3*
D161*
X-7869856Y1905084D3*
Y1920832D3*
Y1936580D3*
Y1952328D3*
Y1968076D3*
D164*
X-7845052Y1992879D3*
X-7829304D3*
X-7813556D3*
X-7797808D3*
X-7782060D3*
D161*
X-7757257Y1968076D3*
Y1952328D3*
Y1936580D3*
Y1920832D3*
Y1905084D3*
D164*
X-7782060Y1880281D3*
X-7797808D3*
X-7813556D3*
X-7829304D3*
X-7845052D3*
D161*
X-7230509Y1824564D3*
Y1808816D3*
Y1793068D3*
Y1777320D3*
Y1761572D3*
D164*
X-7255312Y1736769D3*
X-7271060D3*
X-7286808D3*
X-7302556D3*
X-7318304D3*
D161*
X-7343108Y1761572D3*
Y1777320D3*
Y1793068D3*
Y1808816D3*
Y1824564D3*
D164*
X-7318304Y1849367D3*
X-7302556D3*
X-7286808D3*
X-7271060D3*
X-7255312D3*
D386*
X-6918790Y2180675D3*
X-7063552Y2035912D3*
X-8181522Y1548974D3*
X-8036760Y1693736D3*
D57*
X-6947860Y2783838D3*
Y2579113D3*
X-8152453Y945811D3*
Y1150535D3*
D389*
X-8034474Y3306659D3*
X-8179236Y3161896D3*
X-7065839Y422990D3*
X-6921076Y567752D3*
D158*
X-7071417Y3314533D3*
X-6926655Y3169770D3*
X-8028895Y415115D3*
X-8173657Y559878D3*
D60*
X-7664394Y3267289D3*
X-7459670D3*
X-7435918Y462360D3*
X-7640643D3*
D54*
X-6173822Y1490681D3*
Y1474933D3*
Y1459185D3*
Y1443437D3*
Y1427689D3*
D55*
X-6198625Y1402886D3*
X-6214373D3*
X-6230121D3*
X-6245869D3*
X-6261617D3*
D54*
X-6286420Y1427689D3*
Y1443437D3*
Y1459185D3*
Y1474933D3*
Y1490681D3*
D55*
X-6261617Y1515484D3*
X-6245869D3*
X-6230121D3*
X-6214373D3*
X-6198625D3*
D54*
X-5548822Y1490681D3*
Y1474933D3*
Y1459185D3*
Y1443437D3*
Y1427689D3*
D55*
X-5573625Y1402886D3*
X-5589373D3*
X-5605121D3*
X-5620869D3*
X-5636617D3*
D54*
X-5661420Y1427689D3*
Y1443437D3*
Y1459185D3*
Y1474933D3*
Y1490681D3*
D55*
X-5636617Y1515484D3*
X-5620869D3*
X-5605121D3*
X-5589373D3*
X-5573625D3*
D54*
X-4911322Y1490681D3*
Y1474933D3*
Y1459185D3*
Y1443437D3*
Y1427689D3*
D55*
X-4936125Y1402886D3*
X-4951873D3*
X-4967621D3*
X-4983369D3*
X-4999117D3*
D54*
X-5023920Y1427689D3*
Y1443437D3*
Y1459185D3*
Y1474933D3*
Y1490681D3*
D55*
X-4999117Y1515484D3*
X-4983369D3*
X-4967621D3*
X-4951873D3*
X-4936125D3*
D54*
X-4298822Y1490681D3*
Y1474933D3*
Y1459185D3*
Y1443437D3*
Y1427689D3*
D55*
X-4323625Y1402886D3*
X-4339373D3*
X-4355121D3*
X-4370869D3*
X-4386617D3*
D54*
X-4411420Y1427689D3*
Y1443437D3*
Y1459185D3*
Y1474933D3*
Y1490681D3*
D55*
X-4386617Y1515484D3*
X-4370869D3*
X-4355121D3*
X-4339373D3*
X-4323625D3*
D54*
X-3673822Y1490681D3*
Y1474933D3*
Y1459185D3*
Y1443437D3*
Y1427689D3*
D55*
X-3698625Y1402886D3*
X-3714373D3*
X-3730121D3*
X-3745869D3*
X-3761617D3*
D54*
X-3786420Y1427689D3*
Y1443437D3*
Y1459185D3*
Y1474933D3*
Y1490681D3*
D55*
X-3761617Y1515484D3*
X-3745869D3*
X-3730121D3*
X-3714373D3*
X-3698625D3*
D54*
X-3048822Y1490681D3*
Y1474933D3*
Y1459185D3*
Y1443437D3*
Y1427689D3*
D55*
X-3073625Y1402886D3*
X-3089373D3*
X-3105121D3*
X-3120869D3*
X-3136617D3*
D54*
X-3161420Y1427689D3*
Y1443437D3*
Y1459185D3*
Y1474933D3*
Y1490681D3*
D55*
X-3136617Y1515484D3*
X-3120869D3*
X-3105121D3*
X-3089373D3*
X-3073625D3*
D54*
X-2423822Y1490681D3*
Y1474933D3*
Y1459185D3*
Y1443437D3*
Y1427689D3*
D55*
X-2448625Y1402886D3*
X-2464373D3*
X-2480121D3*
X-2495869D3*
X-2511617D3*
D54*
X-2536420Y1427689D3*
Y1443437D3*
Y1459185D3*
Y1474933D3*
Y1490681D3*
D55*
X-2511617Y1515484D3*
X-2495869D3*
X-2480121D3*
X-2464373D3*
X-2448625D3*
D54*
X-1798822Y1490681D3*
Y1474933D3*
Y1459185D3*
Y1443437D3*
Y1427689D3*
D55*
X-1823625Y1402886D3*
X-1839373D3*
X-1855121D3*
X-1870869D3*
X-1886617D3*
D54*
X-1911420Y1427689D3*
Y1443437D3*
Y1459185D3*
Y1474933D3*
Y1490681D3*
D55*
X-1886617Y1515484D3*
X-1870869D3*
X-1855121D3*
X-1839373D3*
X-1823625D3*
D52*
X-4990945Y2973230D3*
Y2998820D3*
Y3024411D3*
Y3050001D3*
Y3075592D3*
Y3101182D3*
X-4990937Y3126773D3*
X-4762598D3*
Y3101182D3*
Y3075592D3*
Y3050001D3*
Y3024411D3*
Y2998820D3*
Y2973230D3*
X-3592520Y2931104D3*
Y2956694D3*
Y2982285D3*
Y3007875D3*
Y3033466D3*
Y3059056D3*
X-3592512Y3084647D3*
X-3364173D3*
Y3059056D3*
Y3033466D3*
Y3007875D3*
Y2982285D3*
Y2956694D3*
Y2931104D3*
X-4462598Y2783022D3*
Y2757432D3*
Y2731841D3*
Y2706251D3*
Y2680660D3*
Y2655070D3*
X-4462606Y2629479D3*
X-4690945D3*
Y2655070D3*
Y2680660D3*
Y2706251D3*
Y2731841D3*
Y2757432D3*
Y2783022D3*
X-2484694Y2960730D3*
Y2986320D3*
Y3011911D3*
Y3037501D3*
Y3063092D3*
Y3088682D3*
X-2484686Y3114273D3*
X-2256348D3*
Y3088682D3*
Y3063092D3*
Y3037501D3*
Y3011911D3*
Y2986320D3*
Y2960730D3*
X-6284694Y2948230D3*
Y2973820D3*
Y2999411D3*
Y3025001D3*
Y3050592D3*
Y3076182D3*
X-6284686Y3101773D3*
X-6056348D3*
Y3076182D3*
Y3050592D3*
Y3025001D3*
Y2999411D3*
Y2973820D3*
Y2948230D3*
X-5731348Y2764273D3*
Y2738682D3*
Y2713092D3*
Y2687501D3*
Y2661911D3*
Y2636320D3*
X-5731356Y2610730D3*
X-5959694D3*
Y2636320D3*
Y2661911D3*
Y2687501D3*
Y2713092D3*
Y2738682D3*
Y2764273D3*
X-976378Y3118112D3*
Y3143702D3*
Y3169293D3*
Y3194883D3*
Y3220474D3*
Y3246064D3*
X-976370Y3271655D3*
X-748031D3*
Y3246064D3*
Y3220474D3*
Y3194883D3*
Y3169293D3*
Y3143702D3*
Y3118112D3*
D57*
X-6540849Y2414401D3*
Y2209676D3*
X-5915849Y2414401D3*
Y2209676D3*
X-5290849Y2414401D3*
Y2209676D3*
X-4665849Y2414401D3*
Y2209676D3*
X-4040849Y2414401D3*
Y2209676D3*
X-3415849Y2414401D3*
Y2209676D3*
X-2790849Y2414401D3*
Y2209676D3*
X-2165849Y2414401D3*
Y2209676D3*
X-6540849Y2064401D3*
Y1859676D3*
X-5915849Y2064401D3*
Y1859676D3*
X-5290849Y2064401D3*
Y1859676D3*
X-4665849Y2064401D3*
Y1859676D3*
X-4040849Y2064401D3*
Y1859676D3*
X-3415849Y2064401D3*
Y1859676D3*
X-2790849Y2064401D3*
Y1859676D3*
X-2165849Y2064401D3*
Y1859676D3*
M02*
