G04 DipTrace 3.3.1.1*
G04 BottomPaste.gbr*
%MOIN*%
G04 #@! TF.FileFunction,Paste,Bot*
G04 #@! TF.Part,Single*
%AMOUTLINE2*
4,1,4,
0.017717,0.015748,
0.017717,-0.015748,
-0.017717,-0.015748,
-0.017717,0.015748,
0.017717,0.015748,
0*%
%AMOUTLINE5*
4,1,4,
0.015748,-0.017717,
-0.015748,-0.017717,
-0.015748,0.017717,
0.015748,0.017717,
0.015748,-0.017717,
0*%
%AMOUTLINE8*
4,1,4,
-0.017717,-0.015748,
-0.017717,0.015748,
0.017717,0.015748,
0.017717,-0.015748,
-0.017717,-0.015748,
0*%
%AMOUTLINE11*
4,1,4,
-0.001392,-0.023663,
-0.023663,-0.001392,
0.001392,0.023663,
0.023663,0.001392,
-0.001392,-0.023663,
0*%
%AMOUTLINE14*
4,1,4,
0.023663,-0.001392,
0.001392,-0.023663,
-0.023663,0.001392,
-0.001392,0.023663,
0.023663,-0.001392,
0*%
%AMOUTLINE17*
4,1,4,
-0.023663,0.001392,
-0.001392,0.023663,
0.023663,-0.001392,
0.001392,-0.023663,
-0.023663,0.001392,
0*%
%AMOUTLINE26*
4,1,4,
-0.016703,-0.050109,
-0.050109,-0.016703,
0.016703,0.050109,
0.050109,0.016703,
-0.016703,-0.050109,
0*%
%AMOUTLINE29*
4,1,0,
0.012352,0.0,
0*%
%AMOUTLINE32*
4,1,0,
0.0,0.012352,
0*%
%AMOUTLINE254*
4,1,4,
-0.050109,0.016703,
-0.016703,0.050109,
0.050109,-0.016703,
0.016703,-0.050109,
-0.050109,0.016703,
0*%
%AMOUTLINE257*
4,1,4,
0.050109,-0.016703,
0.016703,-0.050109,
-0.050109,0.016703,
-0.016703,0.050109,
0.050109,-0.016703,
0*%
%ADD68R,0.047244X0.094488*%
%ADD70R,0.094488X0.047244*%
%ADD72O,0.0X0.025591*%
%ADD74O,0.025591X0.0*%
%ADD76R,0.042126X0.117323*%
%ADD78R,0.062992X0.007874*%
%ADD80R,0.015748X0.070866*%
%ADD82R,0.090551X0.090551*%
%ADD88R,0.055118X0.051181*%
%ADD90R,0.03937X0.03937*%
%ADD92R,0.015748X0.031496*%
%ADD94R,0.017717X0.033465*%
%ADD96R,0.117323X0.042126*%
%ADD98R,0.137008X0.042126*%
%ADD100R,0.031496X0.110236*%
%ADD102R,0.110236X0.031496*%
%ADD108R,0.009843X0.050197*%
%ADD110R,0.047244X0.003937*%
%ADD112R,0.003937X0.047244*%
%ADD114R,0.003937X0.025591*%
%ADD116R,0.050197X0.009843*%
%ADD121R,0.023622X0.055118*%
%ADD123R,0.035433X0.031496*%
%ADD125R,0.055118X0.062992*%
%ADD127R,0.031496X0.035433*%
%ADD129R,0.062992X0.055118*%
%ADD136OUTLINE2*%
%ADD139OUTLINE5*%
%ADD142OUTLINE8*%
%ADD145OUTLINE11*%
%ADD148OUTLINE14*%
%ADD151OUTLINE17*%
%ADD160OUTLINE26*%
%ADD163OUTLINE29*%
%ADD166OUTLINE32*%
%ADD388OUTLINE254*%
%ADD391OUTLINE257*%
%FSLAX26Y26*%
G04*
G70*
G90*
G75*
G01*
G04 BotPaste*
%LPD*%
D129*
X-358021Y1056251D3*
Y1166487D3*
D127*
X-464272Y1056252D3*
Y1123181D3*
D125*
X-856890Y2276134D3*
X-746654D3*
D127*
X-980807Y2329037D3*
Y2395966D3*
D125*
X-1399606Y2769686D3*
X-1289370D3*
D123*
X-689272Y462501D3*
X-756201D3*
D125*
X-1133021Y468752D3*
X-1022785D3*
D127*
X-1958021Y3243751D3*
Y3176822D3*
D123*
X-1429528Y2301526D3*
X-1362598D3*
D127*
X-453346Y3122786D3*
Y3189715D3*
D123*
X-376772Y2993751D3*
X-443701D3*
D125*
X-1273228Y2301576D3*
X-1162992D3*
D127*
X-6153004Y1597276D3*
Y1664205D3*
X-5528004Y1597276D3*
Y1664205D3*
X-4903004Y1597276D3*
Y1664205D3*
X-4278004Y1597276D3*
Y1664205D3*
X-3653004Y1597276D3*
Y1664205D3*
X-3028004Y1597276D3*
Y1664205D3*
X-2403004Y1597276D3*
Y1664205D3*
X-1778004Y1597276D3*
Y1664205D3*
X-8042348Y1881462D3*
Y1948391D3*
D136*
X-7151772Y1854627D3*
X-7084843D3*
D127*
X-6115504Y1397276D3*
Y1330346D3*
X-5490504Y1397276D3*
Y1330346D3*
X-4851772Y1406251D3*
Y1339322D3*
X-4240504Y1397276D3*
Y1330346D3*
X-3615504Y1397276D3*
Y1330346D3*
X-2990504Y1397276D3*
Y1330346D3*
X-2365504Y1397276D3*
Y1330346D3*
X-1740504Y1397276D3*
Y1330346D3*
X-4923228Y2578741D3*
Y2511812D3*
D123*
X-3753986Y2618751D3*
X-3687056D3*
X-4510236Y3175001D3*
X-4443307D3*
X-2437056Y2568751D3*
X-2503986D3*
X-6243307Y2475000D3*
X-6310236D3*
X-5778987Y3156252D3*
X-5712058D3*
X-1358268Y3269686D3*
X-1291339D3*
X-4672736Y3068752D3*
X-4605807D3*
D127*
X-3271654Y3017718D3*
Y3084647D3*
D123*
X-4780807Y2687500D3*
X-4847736D3*
X-2166487Y3056252D3*
X-2099558D3*
X-5966486Y3043751D3*
X-5899556D3*
X-6049558Y2668751D3*
X-6116487D3*
X-659843Y3206252D3*
X-592913D3*
D139*
X-7979356Y1897210D3*
Y1964139D3*
D142*
X-7158022Y1762501D3*
X-7091093D3*
D121*
X-1234154Y467619D3*
X-1368012D3*
D116*
X-1889764Y2854332D3*
Y2828741D3*
Y2803151D3*
Y2777560D3*
Y2751970D3*
Y2726379D3*
Y2700789D3*
Y2675198D3*
Y2649608D3*
Y2624017D3*
Y2598427D3*
Y2572836D3*
X-2121102D3*
Y2598427D3*
Y2624017D3*
Y2649608D3*
Y2675198D3*
Y2700789D3*
Y2726379D3*
Y2751970D3*
Y2777560D3*
Y2803151D3*
Y2828741D3*
Y2854332D3*
D114*
X-1626772Y1050001D3*
X-1646457D3*
X-1666142D3*
X-1685827D3*
Y1174017D3*
X-1666142D3*
X-1646457D3*
X-1626772D3*
D112*
X-4937402Y2663387D3*
X-4957087D3*
X-4976772D3*
X-4996457D3*
X-5016142D3*
Y2836615D3*
X-4996457D3*
X-4976772D3*
X-4957087D3*
X-4937402D3*
D110*
X-3811024Y2710631D3*
Y2730316D3*
Y2750001D3*
Y2769686D3*
Y2789371D3*
X-3637795D3*
Y2769686D3*
Y2750001D3*
Y2730316D3*
Y2710631D3*
D112*
X-4516142Y3099114D3*
X-4496457D3*
X-4476772D3*
X-4457087D3*
X-4437402D3*
Y2925886D3*
X-4457087D3*
X-4476772D3*
X-4496457D3*
X-4516142D3*
X-2424902Y2650888D3*
X-2444587D3*
X-2464272D3*
X-2483957D3*
X-2503642D3*
Y2824117D3*
X-2483957D3*
X-2464272D3*
X-2444587D3*
X-2424902D3*
X-6231151Y2632138D3*
X-6250836D3*
X-6270521D3*
X-6290206D3*
X-6309891D3*
Y2805366D3*
X-6290206D3*
X-6270521D3*
X-6250836D3*
X-6231151D3*
X-5784892Y3080365D3*
X-5765207D3*
X-5745522D3*
X-5725837D3*
X-5706152D3*
Y2907136D3*
X-5725837D3*
X-5745522D3*
X-5765207D3*
X-5784892D3*
X-1368260Y3175642D3*
X-1348575D3*
X-1328890D3*
X-1309205D3*
X-1289520D3*
Y3002413D3*
X-1309205D3*
X-1328890D3*
X-1348575D3*
X-1368260D3*
D116*
X-5489272Y2712501D3*
Y2738092D3*
Y2763682D3*
Y2789273D3*
Y2814864D3*
Y2840454D3*
Y2866045D3*
Y2891635D3*
Y2917226D3*
Y2942816D3*
Y2968407D3*
Y2993997D3*
Y3019588D3*
Y3045178D3*
X-5257933D3*
Y3019588D3*
Y2993997D3*
Y2968407D3*
Y2942816D3*
Y2917226D3*
Y2891635D3*
Y2866045D3*
Y2840454D3*
Y2814864D3*
Y2789273D3*
Y2763682D3*
Y2738092D3*
Y2712501D3*
X-4218504Y2858269D3*
Y2883860D3*
Y2909450D3*
Y2935041D3*
Y2960631D3*
Y2986222D3*
Y3011812D3*
Y3037403D3*
Y3062993D3*
Y3088584D3*
Y3114175D3*
Y3139765D3*
Y3165356D3*
Y3190946D3*
X-3987165D3*
Y3165356D3*
Y3139765D3*
Y3114175D3*
Y3088584D3*
Y3062993D3*
Y3037403D3*
Y3011812D3*
Y2986222D3*
Y2960631D3*
Y2935041D3*
Y2909450D3*
Y2883860D3*
Y2858269D3*
X-3072835Y2712600D3*
Y2738190D3*
Y2763781D3*
Y2789371D3*
Y2814962D3*
Y2840552D3*
Y2866143D3*
Y2891734D3*
Y2917324D3*
Y2942915D3*
Y2968505D3*
Y2994096D3*
Y3019686D3*
Y3045277D3*
X-2841496D3*
Y3019686D3*
Y2994096D3*
Y2968505D3*
Y2942915D3*
Y2917324D3*
Y2891734D3*
Y2866143D3*
Y2840552D3*
Y2814962D3*
Y2789371D3*
Y2763781D3*
Y2738190D3*
Y2712600D3*
D108*
X-6745521Y2793751D3*
X-6719930D3*
X-6694340D3*
X-6668749D3*
X-6643159D3*
X-6617568D3*
X-6591978D3*
X-6566387D3*
X-6540797D3*
X-6515206D3*
X-6489615D3*
X-6464025D3*
X-6438434D3*
X-6412844D3*
Y2562412D3*
X-6438434D3*
X-6464025D3*
X-6489615D3*
X-6515206D3*
X-6540797D3*
X-6566387D3*
X-6591978D3*
X-6617568D3*
X-6643159D3*
X-6668749D3*
X-6694340D3*
X-6719930D3*
X-6745521D3*
D102*
X-1590354Y3566930D3*
X-740353D3*
X-8101772Y4147639D3*
Y3566930D3*
X-7601772Y4147639D3*
Y3566930D3*
D100*
X-6243996Y3962501D3*
X-5618996D3*
X-4993996D3*
X-4368996D3*
X-6243996Y4450001D3*
X-5618996D3*
X-4993996D3*
X-4368996D3*
D102*
X-1165354Y3566930D3*
X-315353D3*
X-1480118Y4147639D3*
X-956693D3*
X-7101772D3*
Y3566930D3*
D100*
X-3743996Y3962501D3*
X-3118996D3*
X-2493996D3*
X-1868996D3*
X-3743996Y4450001D3*
X-3118996D3*
X-2493996D3*
X-1868996D3*
X-6243996Y3475001D3*
X-5618996D3*
X-4993996D3*
X-4368996D3*
X-3743996D3*
X-3118996D3*
X-2493996D3*
X-1868996D3*
D102*
X-433268Y4147639D3*
D98*
X-1551770Y906252D3*
Y806252D3*
Y706252D3*
Y606252D3*
Y506252D3*
X-1726573D3*
Y606252D3*
Y706252D3*
Y806252D3*
Y906252D3*
D96*
X-1739272Y2012501D3*
X-1614075Y1912501D3*
X-1739272Y1812501D3*
D94*
X-1151575Y2533466D3*
X-1076772D3*
X-1114173Y2442915D3*
D92*
X-6233021Y3637501D3*
X-6157824D3*
X-6195423Y3543013D3*
X-5608021Y3637501D3*
X-5532824D3*
X-5570423Y3543013D3*
X-4980806Y3645967D3*
X-4905609D3*
X-4943207Y3551479D3*
X-4358021Y3650001D3*
X-4282824D3*
X-4320423Y3555513D3*
X-3733021Y3650001D3*
X-3657824D3*
X-3695423Y3555513D3*
X-3105807Y3639717D3*
X-3030610D3*
X-3068209Y3545228D3*
X-2483022Y3637501D3*
X-2407825D3*
X-2445424Y3543013D3*
X-1808021Y4350001D3*
X-1732824D3*
X-1770423Y4255513D3*
X-126772Y4118752D3*
X-201969D3*
X-164370Y4213240D3*
D123*
X-1814272Y2868751D3*
Y2935680D3*
D127*
X-1526772Y1050001D3*
X-1459843D3*
X-1526772Y1175001D3*
X-1459843D3*
D123*
X-6251772Y3275001D3*
Y3341930D3*
X-5626772Y3275001D3*
Y3341930D3*
X-5001772Y3283072D3*
Y3350001D3*
X-4376772Y3283072D3*
Y3350001D3*
X-1064961Y2332678D3*
Y2399608D3*
D127*
X-1145669Y2624017D3*
X-1078740D3*
X-378543Y3238928D3*
X-311614D3*
D123*
X-3751772Y3283072D3*
Y3350001D3*
X-3126772Y3275001D3*
Y3341930D3*
X-2501772Y3275001D3*
Y3341930D3*
X-1870079Y3665356D3*
Y3598427D3*
D127*
X-647244Y4155415D3*
X-580315D3*
X-1521259Y3487895D3*
X-1588188D3*
X-671259D3*
X-738188D3*
X-7876772Y4144096D3*
X-7943701D3*
X-7868307Y3566537D3*
X-7935236D3*
X-7376772Y4144096D3*
X-7443701D3*
X-7380807Y3566537D3*
X-7447736D3*
D123*
X-6251772Y3750001D3*
Y3816930D3*
X-5626772Y3750001D3*
Y3816930D3*
X-5001772Y3758072D3*
Y3825001D3*
X-4376772Y3758072D3*
Y3825001D3*
X-6251772Y4250001D3*
Y4316930D3*
X-5626772Y4250001D3*
Y4316930D3*
X-5001772Y4250001D3*
Y4316930D3*
X-4376772Y4258072D3*
Y4325001D3*
D127*
X-1096259Y3487895D3*
X-1163188D3*
X-240008Y3487894D3*
X-306937D3*
X-1686024Y4155415D3*
X-1619094D3*
X-1170669D3*
X-1103740D3*
X-6876772Y4144096D3*
X-6943701D3*
X-6876772Y3575001D3*
X-6943701D3*
D123*
X-3751772Y3750001D3*
Y3816930D3*
X-3126772Y3750001D3*
Y3816930D3*
X-2501772Y3750001D3*
Y3816930D3*
X-1872047Y3748033D3*
Y3814962D3*
X-3751772Y4250001D3*
Y4316930D3*
X-3126772Y4250001D3*
Y4316930D3*
X-2501772Y4250001D3*
Y4316930D3*
X-1876772Y4250001D3*
Y4316930D3*
X-4676772Y2941537D3*
Y3008466D3*
D127*
X-3387795Y2858269D3*
X-3454724D3*
D123*
X-4776772Y2814715D3*
Y2747786D3*
X-2170521Y2929038D3*
Y2995967D3*
X-5970521Y2916535D3*
Y2983465D3*
X-6045521Y2795966D3*
Y2729037D3*
X-663878Y3079037D3*
Y3145966D3*
X-4601772Y3008466D3*
Y2941537D3*
D127*
X-3456693Y2755907D3*
X-3389764D3*
D123*
X-4851772Y2747786D3*
Y2814715D3*
X-2095521Y2995967D3*
Y2929038D3*
X-5895522Y2983465D3*
Y2916535D3*
X-6120521Y2729037D3*
Y2795966D3*
X-595129Y3145966D3*
Y3079037D3*
X-6186469Y1263811D3*
Y1330740D3*
X-5561469Y1263811D3*
Y1330740D3*
X-4914272Y1268749D3*
Y1335678D3*
X-4311469Y1263811D3*
Y1330740D3*
X-3686469Y1263811D3*
Y1330740D3*
X-3061469Y1263811D3*
Y1330740D3*
X-2436469Y1263811D3*
Y1330740D3*
X-1811469Y1263811D3*
Y1330740D3*
X-6667571Y434430D3*
Y501360D3*
X-6042571Y434430D3*
Y501360D3*
X-5417571Y434430D3*
Y501360D3*
X-4792571Y434430D3*
Y501360D3*
X-4167571Y434430D3*
Y501360D3*
X-3542571Y434430D3*
Y501360D3*
X-2917571Y434430D3*
Y501360D3*
X-2292571Y434430D3*
Y501360D3*
X-6667571Y784844D3*
Y851773D3*
X-6042571Y784844D3*
Y851773D3*
X-5417571Y784844D3*
Y851773D3*
X-4792571Y784844D3*
Y851773D3*
X-4167571Y784844D3*
Y851773D3*
X-3542571Y784844D3*
Y851773D3*
X-2917571Y784844D3*
Y851773D3*
X-2292571Y784844D3*
Y851773D3*
X-6667571Y1135257D3*
Y1202186D3*
X-6042571Y1135257D3*
Y1202186D3*
X-5417571Y1135257D3*
Y1202186D3*
X-4792571Y1135257D3*
Y1202186D3*
X-4167571Y1135257D3*
Y1202186D3*
X-3542571Y1135257D3*
Y1202186D3*
X-2917571Y1135257D3*
Y1202186D3*
X-2292571Y1135257D3*
Y1202186D3*
X-6667571Y1485671D3*
Y1552600D3*
X-6042571Y1485671D3*
Y1552600D3*
X-5417571Y1485671D3*
Y1552600D3*
X-4792571Y1485671D3*
Y1552600D3*
X-4167571Y1485671D3*
Y1552600D3*
X-3542571Y1485671D3*
Y1552600D3*
X-2917571Y1485671D3*
Y1552600D3*
X-2292571Y1485671D3*
Y1552600D3*
X-6667571Y1836084D3*
Y1903013D3*
X-6042571Y1836084D3*
Y1903013D3*
X-5417571Y1836084D3*
Y1903013D3*
X-4792571Y1836084D3*
Y1903013D3*
X-4167571Y1836084D3*
Y1903013D3*
X-3542571Y1836084D3*
Y1903013D3*
X-2917571Y1836084D3*
Y1903013D3*
X-2292571Y1836084D3*
Y1903013D3*
X-6667571Y2186497D3*
Y2253427D3*
X-6042571Y2186497D3*
Y2253427D3*
X-5417571Y2186497D3*
Y2253427D3*
X-4792571Y2186497D3*
Y2253427D3*
X-4167571Y2186497D3*
Y2253427D3*
X-3542571Y2186497D3*
Y2253427D3*
X-2917571Y2186497D3*
Y2253427D3*
X-2292571Y2186497D3*
Y2253427D3*
X-6930143Y2371619D3*
Y2304690D3*
X-8170169Y1358029D3*
Y1424958D3*
D127*
X-7597466Y2007446D3*
X-7664395D3*
X-7502846Y1722202D3*
X-7435917D3*
X-8117151Y2298785D3*
X-8184080D3*
D145*
X-6876772Y1375000D3*
X-6924097Y1422325D3*
D123*
X-8231324Y2416895D3*
Y2483824D3*
X-6868988Y1312753D3*
Y1245824D3*
D127*
X-7814001Y3275163D3*
X-7747072D3*
X-7286311Y454486D3*
X-7353240D3*
X-7262820Y3290911D3*
X-7195891D3*
X-7837492Y438738D3*
X-7904421D3*
X-7888804Y3369651D3*
X-7955734D3*
D148*
X-6885129Y445416D3*
X-6932454Y398091D3*
D123*
X-6945891Y2946423D3*
Y2879493D3*
X-8154421Y783226D3*
Y850155D3*
X-5076772Y2941537D3*
Y3008466D3*
X-3678346Y2898378D3*
Y2965307D3*
X-4376772Y2814715D3*
Y2747786D3*
X-2570521Y2929038D3*
Y2995967D3*
X-6370521Y2916535D3*
Y2983465D3*
X-5645521Y2795966D3*
Y2729037D3*
X-1063878Y3079037D3*
Y3145966D3*
X-5151772Y3008466D3*
Y2941537D3*
X-3753346Y2965307D3*
Y2898378D3*
X-4301772Y2747786D3*
Y2814715D3*
X-2645522Y2995967D3*
Y2929038D3*
X-6445521Y2983465D3*
Y2916535D3*
X-5570522Y2729037D3*
Y2795966D3*
X-1138878Y3145966D3*
Y3079037D3*
X-5076772Y3158466D3*
Y3091537D3*
X-3678346Y3134056D3*
Y3067127D3*
X-4376772Y2597786D3*
Y2664715D3*
X-2570521Y3145967D3*
Y3079038D3*
X-6370521Y3133465D3*
Y3066535D3*
X-5645521Y2579037D3*
Y2645966D3*
X-1063878Y3308466D3*
Y3241537D3*
X-6170522Y3745572D3*
Y3812501D3*
X-5545524Y3745572D3*
Y3812501D3*
X-4918307Y3754038D3*
Y3820967D3*
X-4295524Y3758072D3*
Y3825001D3*
X-3670524Y3758072D3*
Y3825001D3*
X-3043307Y3747787D3*
Y3814717D3*
X-2420522Y3745572D3*
Y3812501D3*
X-1783021Y4468752D3*
Y4535681D3*
D127*
X-118307Y4320966D3*
X-185236D3*
D123*
X-6185236Y3272786D3*
Y3339715D3*
X-5560238Y3272786D3*
Y3339715D3*
X-4933021Y3281252D3*
Y3348181D3*
X-4310236Y3285286D3*
Y3352215D3*
X-3685236Y3285286D3*
Y3352215D3*
X-3058021Y3275001D3*
Y3341930D3*
X-2435236Y3272786D3*
Y3339715D3*
D127*
X-1870522Y4150001D3*
X-1803593D3*
X-789272Y4156252D3*
X-722343D3*
D123*
X-5151772Y3091537D3*
Y3158466D3*
X-3753346Y3067127D3*
Y3134056D3*
X-4301772Y2664715D3*
Y2597786D3*
X-2645522Y3079038D3*
Y3145967D3*
X-6445521Y3066535D3*
Y3133465D3*
X-5570522Y2579037D3*
Y2645966D3*
X-1138878Y3241537D3*
Y3308466D3*
X-4676772Y3195966D3*
Y3129037D3*
D127*
X-3431102Y3147639D3*
X-3498031D3*
D123*
X-4776772Y2560285D3*
Y2627214D3*
X-2170521Y3183466D3*
Y3116537D3*
X-5970521Y3170966D3*
Y3104037D3*
X-6045521Y2541537D3*
Y2608466D3*
X-663878Y3333466D3*
Y3266537D3*
X-4601772Y3129037D3*
Y3195966D3*
X-3588583Y3139765D3*
Y3206694D3*
X-4851772Y2627214D3*
Y2560285D3*
X-2095521Y3116537D3*
Y3183466D3*
X-5895522Y3104037D3*
Y3170966D3*
X-6120521Y2608466D3*
Y2541537D3*
X-588878Y3266537D3*
Y3333466D3*
D151*
X-7932112Y2038942D3*
X-7884786Y2086268D3*
X-7168201Y1690706D3*
X-7215526Y1643381D3*
D90*
X-1114272Y2837501D3*
D88*
X-1074902Y2710729D3*
D90*
X-1035531Y2837462D3*
D82*
X-126772Y925000D3*
X-540157D3*
Y472244D3*
X-126772D3*
D80*
X-1423228Y2633860D3*
X-1373228D3*
X-1323228D3*
X-1273228D3*
Y2421261D3*
X-1323228D3*
X-1373228D3*
X-1423228D3*
D82*
X-445521Y2862501D3*
X-858907D3*
Y2409745D3*
X-445521D3*
D78*
X-1854970Y3044539D3*
Y3070130D3*
Y3095720D3*
Y3121311D3*
Y3146902D3*
Y3172492D3*
Y3198083D3*
Y3223673D3*
Y3249264D3*
Y3274854D3*
Y3300445D3*
Y3326035D3*
Y3351626D3*
Y3377217D3*
X-1571497D3*
X-1571505Y3351626D3*
Y3326035D3*
Y3300445D3*
Y3274854D3*
Y3249264D3*
Y3223673D3*
Y3198083D3*
Y3172492D3*
Y3146902D3*
Y3121311D3*
Y3095720D3*
Y3070130D3*
Y3044539D3*
D76*
X-161664Y1424165D3*
X-261655Y1299146D3*
X-361655Y1424146D3*
X-461655Y1299146D3*
X-561655Y1424146D3*
X-661655Y1299146D3*
X-761655Y1424146D3*
X-861655Y1299146D3*
X-961655Y1424146D3*
X-1061655Y1299146D3*
X-1161655Y1424146D3*
X-1261655Y1299146D3*
X-1361655Y1424146D3*
X-1461664Y1299165D3*
X-1461655Y1899146D3*
X-1361655Y2024146D3*
X-1261655Y1899146D3*
X-1161655Y2024146D3*
X-1061655Y1899146D3*
X-961655Y2024146D3*
X-861655Y1899146D3*
X-761655Y2024146D3*
X-661655Y1899146D3*
X-561655Y2024146D3*
X-461655Y1899146D3*
X-361655Y2024146D3*
X-261655Y1899146D3*
X-161664Y2024165D3*
D74*
X-289272Y3043751D3*
Y3059499D3*
Y3075247D3*
Y3090995D3*
Y3106743D3*
D72*
X-264469Y3131546D3*
X-248720D3*
X-232972D3*
X-217224D3*
X-201476D3*
D74*
X-176673Y3106743D3*
Y3090995D3*
Y3075247D3*
Y3059499D3*
Y3043751D3*
D72*
X-201476Y3018948D3*
X-217224D3*
X-232972D3*
X-248720D3*
X-264469D3*
D70*
X-6540849Y1714401D3*
Y1509676D3*
X-5915849Y1714401D3*
Y1509676D3*
X-5290849Y1714401D3*
Y1509676D3*
X-4665849Y1714401D3*
Y1509676D3*
X-4040849Y1714401D3*
Y1509676D3*
X-3415849Y1714401D3*
Y1509676D3*
X-2790849Y1714401D3*
Y1509676D3*
X-2165849Y1714401D3*
Y1509676D3*
X-6540849Y1364401D3*
Y1159676D3*
X-5915849Y1364401D3*
Y1159676D3*
X-5290849Y1364401D3*
Y1159676D3*
X-4665849Y1364401D3*
Y1159676D3*
X-4040849Y1364401D3*
Y1159676D3*
X-3415849Y1364401D3*
Y1159676D3*
X-2790849Y1364401D3*
Y1159676D3*
X-2165849Y1364401D3*
Y1159676D3*
X-6540849Y1014401D3*
Y809676D3*
X-5915849Y1014401D3*
Y809676D3*
X-5290849Y1014401D3*
Y809676D3*
X-4665849Y1014401D3*
Y809676D3*
X-4040849Y1014401D3*
Y809676D3*
X-3415849Y1014401D3*
Y809676D3*
X-2790849Y1014401D3*
Y809676D3*
X-2165849Y1014401D3*
Y809676D3*
X-6540849Y664401D3*
Y459676D3*
X-5915849Y664401D3*
Y459676D3*
X-5290849Y664401D3*
Y459676D3*
X-4665849Y664401D3*
Y459676D3*
X-4040849Y664401D3*
Y459676D3*
X-3415849Y664401D3*
Y459676D3*
X-2790849Y664401D3*
Y459676D3*
X-2165849Y664401D3*
Y459676D3*
X-8150157Y2566093D3*
Y2770817D3*
X-6950155Y1163555D3*
Y958831D3*
D160*
X-8187101Y2193999D3*
X-8042339Y2049236D3*
X-6913211Y1535650D3*
X-7057974Y1680412D3*
D68*
X-7664394Y2109807D3*
X-7459670D3*
X-7435918Y1619841D3*
X-7640643D3*
D163*
X-7869856Y1905084D3*
Y1920832D3*
Y1936580D3*
Y1952328D3*
Y1968076D3*
D166*
X-7845052Y1992879D3*
X-7829304D3*
X-7813556D3*
X-7797808D3*
X-7782060D3*
D163*
X-7757257Y1968076D3*
Y1952328D3*
Y1936580D3*
Y1920832D3*
Y1905084D3*
D166*
X-7782060Y1880281D3*
X-7797808D3*
X-7813556D3*
X-7829304D3*
X-7845052D3*
D163*
X-7230509Y1824564D3*
Y1808816D3*
Y1793068D3*
Y1777320D3*
Y1761572D3*
D166*
X-7255312Y1736769D3*
X-7271060D3*
X-7286808D3*
X-7302556D3*
X-7318304D3*
D163*
X-7343108Y1761572D3*
Y1777320D3*
Y1793068D3*
Y1808816D3*
Y1824564D3*
D166*
X-7318304Y1849367D3*
X-7302556D3*
X-7286808D3*
X-7271060D3*
X-7255312D3*
D388*
X-6918790Y2180675D3*
X-7063552Y2035912D3*
X-8181522Y1548974D3*
X-8036760Y1693736D3*
D70*
X-6947860Y2783838D3*
Y2579113D3*
X-8152453Y945811D3*
Y1150535D3*
D391*
X-8034474Y3306659D3*
X-8179236Y3161896D3*
X-7065839Y422990D3*
X-6921076Y567752D3*
D160*
X-7071417Y3314533D3*
X-6926655Y3169770D3*
X-8028895Y415115D3*
X-8173657Y559878D3*
D68*
X-7664394Y3267289D3*
X-7459670D3*
X-7435918Y462360D3*
X-7640643D3*
D74*
X-6173822Y1490681D3*
Y1474933D3*
Y1459185D3*
Y1443437D3*
Y1427689D3*
D72*
X-6198625Y1402886D3*
X-6214373D3*
X-6230121D3*
X-6245869D3*
X-6261617D3*
D74*
X-6286420Y1427689D3*
Y1443437D3*
Y1459185D3*
Y1474933D3*
Y1490681D3*
D72*
X-6261617Y1515484D3*
X-6245869D3*
X-6230121D3*
X-6214373D3*
X-6198625D3*
D74*
X-5548822Y1490681D3*
Y1474933D3*
Y1459185D3*
Y1443437D3*
Y1427689D3*
D72*
X-5573625Y1402886D3*
X-5589373D3*
X-5605121D3*
X-5620869D3*
X-5636617D3*
D74*
X-5661420Y1427689D3*
Y1443437D3*
Y1459185D3*
Y1474933D3*
Y1490681D3*
D72*
X-5636617Y1515484D3*
X-5620869D3*
X-5605121D3*
X-5589373D3*
X-5573625D3*
D74*
X-4911322Y1490681D3*
Y1474933D3*
Y1459185D3*
Y1443437D3*
Y1427689D3*
D72*
X-4936125Y1402886D3*
X-4951873D3*
X-4967621D3*
X-4983369D3*
X-4999117D3*
D74*
X-5023920Y1427689D3*
Y1443437D3*
Y1459185D3*
Y1474933D3*
Y1490681D3*
D72*
X-4999117Y1515484D3*
X-4983369D3*
X-4967621D3*
X-4951873D3*
X-4936125D3*
D74*
X-4298822Y1490681D3*
Y1474933D3*
Y1459185D3*
Y1443437D3*
Y1427689D3*
D72*
X-4323625Y1402886D3*
X-4339373D3*
X-4355121D3*
X-4370869D3*
X-4386617D3*
D74*
X-4411420Y1427689D3*
Y1443437D3*
Y1459185D3*
Y1474933D3*
Y1490681D3*
D72*
X-4386617Y1515484D3*
X-4370869D3*
X-4355121D3*
X-4339373D3*
X-4323625D3*
D74*
X-3673822Y1490681D3*
Y1474933D3*
Y1459185D3*
Y1443437D3*
Y1427689D3*
D72*
X-3698625Y1402886D3*
X-3714373D3*
X-3730121D3*
X-3745869D3*
X-3761617D3*
D74*
X-3786420Y1427689D3*
Y1443437D3*
Y1459185D3*
Y1474933D3*
Y1490681D3*
D72*
X-3761617Y1515484D3*
X-3745869D3*
X-3730121D3*
X-3714373D3*
X-3698625D3*
D74*
X-3048822Y1490681D3*
Y1474933D3*
Y1459185D3*
Y1443437D3*
Y1427689D3*
D72*
X-3073625Y1402886D3*
X-3089373D3*
X-3105121D3*
X-3120869D3*
X-3136617D3*
D74*
X-3161420Y1427689D3*
Y1443437D3*
Y1459185D3*
Y1474933D3*
Y1490681D3*
D72*
X-3136617Y1515484D3*
X-3120869D3*
X-3105121D3*
X-3089373D3*
X-3073625D3*
D74*
X-2423822Y1490681D3*
Y1474933D3*
Y1459185D3*
Y1443437D3*
Y1427689D3*
D72*
X-2448625Y1402886D3*
X-2464373D3*
X-2480121D3*
X-2495869D3*
X-2511617D3*
D74*
X-2536420Y1427689D3*
Y1443437D3*
Y1459185D3*
Y1474933D3*
Y1490681D3*
D72*
X-2511617Y1515484D3*
X-2495869D3*
X-2480121D3*
X-2464373D3*
X-2448625D3*
D74*
X-1798822Y1490681D3*
Y1474933D3*
Y1459185D3*
Y1443437D3*
Y1427689D3*
D72*
X-1823625Y1402886D3*
X-1839373D3*
X-1855121D3*
X-1870869D3*
X-1886617D3*
D74*
X-1911420Y1427689D3*
Y1443437D3*
Y1459185D3*
Y1474933D3*
Y1490681D3*
D72*
X-1886617Y1515484D3*
X-1870869D3*
X-1855121D3*
X-1839373D3*
X-1823625D3*
D78*
X-4990945Y2973230D3*
Y2998820D3*
Y3024411D3*
Y3050001D3*
Y3075592D3*
Y3101182D3*
X-4990937Y3126773D3*
X-4762598D3*
Y3101182D3*
Y3075592D3*
Y3050001D3*
Y3024411D3*
Y2998820D3*
Y2973230D3*
X-3592520Y2931104D3*
Y2956694D3*
Y2982285D3*
Y3007875D3*
Y3033466D3*
Y3059056D3*
X-3592512Y3084647D3*
X-3364173D3*
Y3059056D3*
Y3033466D3*
Y3007875D3*
Y2982285D3*
Y2956694D3*
Y2931104D3*
X-4462598Y2783022D3*
Y2757432D3*
Y2731841D3*
Y2706251D3*
Y2680660D3*
Y2655070D3*
X-4462606Y2629479D3*
X-4690945D3*
Y2655070D3*
Y2680660D3*
Y2706251D3*
Y2731841D3*
Y2757432D3*
Y2783022D3*
X-2484694Y2960730D3*
Y2986320D3*
Y3011911D3*
Y3037501D3*
Y3063092D3*
Y3088682D3*
X-2484686Y3114273D3*
X-2256348D3*
Y3088682D3*
Y3063092D3*
Y3037501D3*
Y3011911D3*
Y2986320D3*
Y2960730D3*
X-6284694Y2948230D3*
Y2973820D3*
Y2999411D3*
Y3025001D3*
Y3050592D3*
Y3076182D3*
X-6284686Y3101773D3*
X-6056348D3*
Y3076182D3*
Y3050592D3*
Y3025001D3*
Y2999411D3*
Y2973820D3*
Y2948230D3*
X-5731348Y2764273D3*
Y2738682D3*
Y2713092D3*
Y2687501D3*
Y2661911D3*
Y2636320D3*
X-5731356Y2610730D3*
X-5959694D3*
Y2636320D3*
Y2661911D3*
Y2687501D3*
Y2713092D3*
Y2738682D3*
Y2764273D3*
X-976378Y3118112D3*
Y3143702D3*
Y3169293D3*
Y3194883D3*
Y3220474D3*
Y3246064D3*
X-976370Y3271655D3*
X-748031D3*
Y3246064D3*
Y3220474D3*
Y3194883D3*
Y3169293D3*
Y3143702D3*
Y3118112D3*
D70*
X-6540849Y2414401D3*
Y2209676D3*
X-5915849Y2414401D3*
Y2209676D3*
X-5290849Y2414401D3*
Y2209676D3*
X-4665849Y2414401D3*
Y2209676D3*
X-4040849Y2414401D3*
Y2209676D3*
X-3415849Y2414401D3*
Y2209676D3*
X-2790849Y2414401D3*
Y2209676D3*
X-2165849Y2414401D3*
Y2209676D3*
X-6540849Y2064401D3*
Y1859676D3*
X-5915849Y2064401D3*
Y1859676D3*
X-5290849Y2064401D3*
Y1859676D3*
X-4665849Y2064401D3*
Y1859676D3*
X-4040849Y2064401D3*
Y1859676D3*
X-3415849Y2064401D3*
Y1859676D3*
X-2790849Y2064401D3*
Y1859676D3*
X-2165849Y2064401D3*
Y1859676D3*
M02*
