G04 DipTrace 3.3.1.1*
G04 BottomAssy.gbr*
%MOIN*%
G04 #@! TF.FileFunction,Drawing,Bot*
G04 #@! TF.Part,Single*
%ADD11C,0.005512*%
%ADD15C,0.007874*%
%ADD17C,0.003937*%
%ADD28C,0.001969*%
%ADD43C,0.006*%
%FSLAX26Y26*%
G04*
G70*
G90*
G75*
G01*
G04 BotAssy*
%LPD*%
X-1918813Y2866978D2*
D17*
X-2092053D1*
Y2560190D1*
X-1918813D1*
Y2866978D1*
Y2841623D2*
X-1944454Y2866978D1*
X-1616969Y1066738D2*
Y1157277D1*
X-1695630D1*
Y1066738D1*
X-1616969D1*
X-1636634D2*
X-1616969Y1086380D1*
X-4907874Y2625986D2*
D28*
Y2874017D1*
X-5045669D1*
Y2625986D1*
X-4907874D1*
X-4917713Y2690945D2*
D17*
Y2809058D1*
X-5035831D1*
Y2690945D1*
X-4917713D1*
X-4937404D2*
X-4917713Y2710639D1*
X-3848425Y2681104D2*
D28*
X-3600394D1*
Y2818899D1*
X-3848425D1*
Y2681104D1*
X-3783466Y2690942D2*
D17*
X-3665353D1*
Y2809060D1*
X-3783466D1*
Y2690942D1*
Y2710633D2*
X-3763772Y2690942D1*
X-4545669Y3136516D2*
D28*
Y2888484D1*
X-4407874D1*
Y3136516D1*
X-4545669D1*
X-4535831Y3071556D2*
D17*
Y2953444D1*
X-4417713D1*
Y3071556D1*
X-4535831D1*
X-4516140D2*
X-4535831Y3051863D1*
X-2395374Y2613487D2*
D28*
Y2861518D1*
X-2533169D1*
Y2613487D1*
X-2395374D1*
X-2405213Y2678446D2*
D17*
Y2796559D1*
X-2523331D1*
Y2678446D1*
X-2405213D1*
X-2424904D2*
X-2405213Y2698140D1*
X-6201623Y2594736D2*
D28*
Y2842768D1*
X-6339419D1*
Y2594736D1*
X-6201623D1*
X-6211462Y2659696D2*
D17*
Y2777808D1*
X-6329580D1*
Y2659696D1*
X-6211462D1*
X-6231153D2*
X-6211462Y2679389D1*
X-5814420Y3117766D2*
D28*
Y2869735D1*
X-5676625D1*
Y3117766D1*
X-5814420D1*
X-5804581Y3052807D2*
D17*
Y2934694D1*
X-5686463D1*
Y3052807D1*
X-5804581D1*
X-5784890D2*
X-5804581Y3033113D1*
X-1397787Y3213043D2*
D28*
Y2965012D1*
X-1259992D1*
Y3213043D1*
X-1397787D1*
X-1387949Y3148084D2*
D17*
Y3029971D1*
X-1269831D1*
Y3148084D1*
X-1387949D1*
X-1368258D2*
X-1387949Y3128390D1*
X-5460223Y2687895D2*
X-5286982D1*
Y3069785D1*
X-5460223D1*
Y2687895D1*
Y2713482D2*
X-5434581Y2687895D1*
X-4189455Y2833663D2*
X-4016214D1*
Y3215552D1*
X-4189455D1*
Y2833663D1*
Y2859249D2*
X-4163813Y2833663D1*
X-3043786Y2687993D2*
X-2870545D1*
Y3069883D1*
X-3043786D1*
Y2687993D1*
Y2713580D2*
X-3018144Y2687993D1*
X-6770127Y2764702D2*
Y2591461D1*
X-6388238D1*
Y2764702D1*
X-6770127D1*
X-6744541D2*
X-6770127Y2739060D1*
X-6265108Y3667029D2*
D28*
Y3513486D1*
X-6125738D1*
Y3667029D1*
X-6265108D1*
X-6252899Y3615853D2*
D17*
Y3564662D1*
X-6137946D1*
Y3615853D1*
X-6252899D1*
X-6215311D2*
X-6252899Y3578250D1*
X-5640108Y3667029D2*
D28*
Y3513486D1*
X-5500738D1*
Y3667029D1*
X-5640108D1*
X-5627899Y3615853D2*
D17*
Y3564662D1*
X-5512946D1*
Y3615853D1*
X-5627899D1*
X-5590311D2*
X-5627899Y3578250D1*
X-5012892Y3675495D2*
D28*
Y3521951D1*
X-4873522D1*
Y3675495D1*
X-5012892D1*
X-5000684Y3624319D2*
D17*
Y3573127D1*
X-4885731D1*
Y3624319D1*
X-5000684D1*
X-4963095D2*
X-5000684Y3586716D1*
X-4390108Y3679529D2*
D28*
Y3525986D1*
X-4250738D1*
Y3679529D1*
X-4390108D1*
X-4377899Y3628353D2*
D17*
Y3577162D1*
X-4262946D1*
Y3628353D1*
X-4377899D1*
X-4340311D2*
X-4377899Y3590750D1*
X-3765108Y3679529D2*
D28*
Y3525986D1*
X-3625738D1*
Y3679529D1*
X-3765108D1*
X-3752899Y3628353D2*
D17*
Y3577162D1*
X-3637946D1*
Y3628353D1*
X-3752899D1*
X-3715311D2*
X-3752899Y3590750D1*
X-3137894Y3669244D2*
D28*
Y3515701D1*
X-2998524D1*
Y3669244D1*
X-3137894D1*
X-3125685Y3618068D2*
D17*
Y3566877D1*
X-3010732D1*
Y3618068D1*
X-3125685D1*
X-3088097D2*
X-3125685Y3580465D1*
X-2515109Y3667029D2*
D28*
Y3513486D1*
X-2375739D1*
Y3667029D1*
X-2515109D1*
X-2502900Y3615853D2*
D17*
Y3564662D1*
X-2387948D1*
Y3615853D1*
X-2502900D1*
X-2465312D2*
X-2502900Y3578250D1*
X-1840108Y4379529D2*
D28*
Y4225986D1*
X-1700738D1*
Y4379529D1*
X-1840108D1*
X-1827899Y4328353D2*
D17*
Y4277162D1*
X-1712946D1*
Y4328353D1*
X-1827899D1*
X-1790311D2*
X-1827899Y4290750D1*
X-94685Y4089224D2*
D28*
Y4242768D1*
X-234055D1*
Y4089224D1*
X-94685D1*
X-106894Y4140400D2*
D17*
Y4191592D1*
X-221846D1*
Y4140400D1*
X-106894D1*
X-144482D2*
X-106894Y4178003D1*
X-1828286Y2885207D2*
D43*
Y2919223D1*
X-1800257D2*
Y2885207D1*
G36*
X-1831270Y2919212D2*
X-1797274D1*
Y2935210D1*
X-1831270D1*
Y2919212D1*
G37*
G36*
Y2869220D2*
X-1797274D1*
Y2885218D1*
X-1831270D1*
Y2869220D1*
G37*
G36*
X-1830022Y2894349D2*
X-1798521D1*
Y2910081D1*
X-1830022D1*
Y2894349D1*
G37*
X-1510315Y1064015D2*
D43*
X-1476299D1*
Y1035987D2*
X-1510315D1*
G36*
X-1476310Y1066999D2*
X-1460312D1*
Y1033003D1*
X-1476310D1*
Y1066999D1*
G37*
G36*
X-1526302D2*
X-1510304D1*
Y1033003D1*
X-1526302D1*
Y1066999D1*
G37*
G36*
X-1501173Y1065752D2*
X-1485441D1*
Y1034251D1*
X-1501173D1*
Y1065752D1*
G37*
X-1510315Y1189015D2*
D43*
X-1476299D1*
Y1160987D2*
X-1510315D1*
G36*
X-1476310Y1191999D2*
X-1460312D1*
Y1158003D1*
X-1476310D1*
Y1191999D1*
G37*
G36*
X-1526302D2*
X-1510304D1*
Y1158003D1*
X-1526302D1*
Y1191999D1*
G37*
G36*
X-1501173Y1190752D2*
X-1485441D1*
Y1159251D1*
X-1501173D1*
Y1190752D1*
G37*
X-6265786Y3291458D2*
D43*
Y3325474D1*
X-6237757D2*
Y3291458D1*
G36*
X-6268770Y3325463D2*
X-6234774D1*
Y3341461D1*
X-6268770D1*
Y3325463D1*
G37*
G36*
Y3275471D2*
X-6234774D1*
Y3291469D1*
X-6268770D1*
Y3275471D1*
G37*
G36*
X-6267522Y3300600D2*
X-6236021D1*
Y3316332D1*
X-6267522D1*
Y3300600D1*
G37*
X-5640786Y3291458D2*
D43*
Y3325474D1*
X-5612757D2*
Y3291458D1*
G36*
X-5643770Y3325463D2*
X-5609774D1*
Y3341461D1*
X-5643770D1*
Y3325463D1*
G37*
G36*
Y3275471D2*
X-5609774D1*
Y3291469D1*
X-5643770D1*
Y3275471D1*
G37*
G36*
X-5642522Y3300600D2*
X-5611021D1*
Y3316332D1*
X-5642522D1*
Y3300600D1*
G37*
X-5015786Y3299529D2*
D43*
Y3333545D1*
X-4987757D2*
Y3299529D1*
G36*
X-5018770Y3333534D2*
X-4984774D1*
Y3349532D1*
X-5018770D1*
Y3333534D1*
G37*
G36*
Y3283541D2*
X-4984774D1*
Y3299540D1*
X-5018770D1*
Y3283541D1*
G37*
G36*
X-5017522Y3308671D2*
X-4986021D1*
Y3324403D1*
X-5017522D1*
Y3308671D1*
G37*
X-4390786Y3299529D2*
D43*
Y3333545D1*
X-4362757D2*
Y3299529D1*
G36*
X-4393770Y3333534D2*
X-4359774D1*
Y3349532D1*
X-4393770D1*
Y3333534D1*
G37*
G36*
Y3283541D2*
X-4359774D1*
Y3299540D1*
X-4393770D1*
Y3283541D1*
G37*
G36*
X-4392522Y3308671D2*
X-4361021D1*
Y3324403D1*
X-4392522D1*
Y3308671D1*
G37*
X-1078975Y2349135D2*
D43*
Y2383151D1*
X-1050946D2*
Y2349135D1*
G36*
X-1081959Y2383140D2*
X-1047963D1*
Y2399138D1*
X-1081959D1*
Y2383140D1*
G37*
G36*
Y2333148D2*
X-1047963D1*
Y2349146D1*
X-1081959D1*
Y2333148D1*
G37*
G36*
X-1080711Y2358277D2*
X-1049210D1*
Y2374009D1*
X-1080711D1*
Y2358277D1*
G37*
X-1129213Y2638031D2*
D43*
X-1095197D1*
Y2610003D2*
X-1129213D1*
G36*
X-1095207Y2641015D2*
X-1079209D1*
Y2607019D1*
X-1095207D1*
Y2641015D1*
G37*
G36*
X-1145200D2*
X-1129202D1*
Y2607019D1*
X-1145200D1*
Y2641015D1*
G37*
G36*
X-1120071Y2639768D2*
X-1104339D1*
Y2608266D1*
X-1120071D1*
Y2639768D1*
G37*
X-362087Y3252942D2*
D43*
X-328071D1*
Y3224914D2*
X-362087D1*
G36*
X-328081Y3255926D2*
X-312083D1*
Y3221930D1*
X-328081D1*
Y3255926D1*
G37*
G36*
X-378074D2*
X-362076D1*
Y3221930D1*
X-378074D1*
Y3255926D1*
G37*
G36*
X-352945Y3254679D2*
X-337213D1*
Y3223177D1*
X-352945D1*
Y3254679D1*
G37*
X-3765786Y3299529D2*
D43*
Y3333545D1*
X-3737757D2*
Y3299529D1*
G36*
X-3768770Y3333534D2*
X-3734774D1*
Y3349532D1*
X-3768770D1*
Y3333534D1*
G37*
G36*
Y3283541D2*
X-3734774D1*
Y3299540D1*
X-3768770D1*
Y3283541D1*
G37*
G36*
X-3767522Y3308671D2*
X-3736021D1*
Y3324403D1*
X-3767522D1*
Y3308671D1*
G37*
X-3140786Y3291458D2*
D43*
Y3325474D1*
X-3112757D2*
Y3291458D1*
G36*
X-3143770Y3325463D2*
X-3109774D1*
Y3341461D1*
X-3143770D1*
Y3325463D1*
G37*
G36*
Y3275471D2*
X-3109774D1*
Y3291469D1*
X-3143770D1*
Y3275471D1*
G37*
G36*
X-3142522Y3300600D2*
X-3111021D1*
Y3316332D1*
X-3142522D1*
Y3300600D1*
G37*
X-2515786Y3291458D2*
D43*
Y3325474D1*
X-2487757D2*
Y3291458D1*
G36*
X-2518770Y3325463D2*
X-2484774D1*
Y3341461D1*
X-2518770D1*
Y3325463D1*
G37*
G36*
Y3275471D2*
X-2484774D1*
Y3291469D1*
X-2518770D1*
Y3275471D1*
G37*
G36*
X-2517522Y3300600D2*
X-2486021D1*
Y3316332D1*
X-2517522D1*
Y3300600D1*
G37*
X-1856065Y3648899D2*
D43*
Y3614883D1*
X-1884093D2*
Y3648899D1*
G36*
X-1853081Y3614894D2*
X-1887077D1*
Y3598896D1*
X-1853081D1*
Y3614894D1*
G37*
G36*
Y3664886D2*
X-1887077D1*
Y3648888D1*
X-1853081D1*
Y3664886D1*
G37*
G36*
X-1854328Y3639757D2*
X-1885830D1*
Y3624025D1*
X-1854328D1*
Y3639757D1*
G37*
X-630787Y4169429D2*
D43*
X-596772D1*
Y4141401D2*
X-630787D1*
G36*
X-596782Y4172413D2*
X-580784D1*
Y4138417D1*
X-596782D1*
Y4172413D1*
G37*
G36*
X-646775D2*
X-630777D1*
Y4138417D1*
X-646775D1*
Y4172413D1*
G37*
G36*
X-621646Y4171165D2*
X-605913D1*
Y4139664D1*
X-621646D1*
Y4171165D1*
G37*
X-1537715Y3473881D2*
D43*
X-1571731D1*
Y3501909D2*
X-1537715D1*
G36*
X-1571720Y3470897D2*
X-1587718D1*
Y3504893D1*
X-1571720D1*
Y3470897D1*
G37*
G36*
X-1521728D2*
X-1537726D1*
Y3504893D1*
X-1521728D1*
Y3470897D1*
G37*
G36*
X-1546857Y3472144D2*
X-1562589D1*
Y3503646D1*
X-1546857D1*
Y3472144D1*
G37*
X-687715Y3473881D2*
D43*
X-721731D1*
Y3501909D2*
X-687715D1*
G36*
X-721720Y3470897D2*
X-737718D1*
Y3504893D1*
X-721720D1*
Y3470897D1*
G37*
G36*
X-671728D2*
X-687726D1*
Y3504893D1*
X-671728D1*
Y3470897D1*
G37*
G36*
X-696857Y3472144D2*
X-712589D1*
Y3503646D1*
X-696857D1*
Y3472144D1*
G37*
X-7893228Y4130082D2*
D43*
X-7927244D1*
Y4158110D2*
X-7893228D1*
G36*
X-7927233Y4127098D2*
X-7943231D1*
Y4161094D1*
X-7927233D1*
Y4127098D1*
G37*
G36*
X-7877241D2*
X-7893239D1*
Y4161094D1*
X-7877241D1*
Y4127098D1*
G37*
G36*
X-7902370Y4128345D2*
X-7918102D1*
Y4159847D1*
X-7902370D1*
Y4128345D1*
G37*
X-7884764Y3552523D2*
D43*
X-7918780D1*
Y3580551D2*
X-7884764D1*
G36*
X-7918769Y3549539D2*
X-7934767D1*
Y3583535D1*
X-7918769D1*
Y3549539D1*
G37*
G36*
X-7868776D2*
X-7884774D1*
Y3583535D1*
X-7868776D1*
Y3549539D1*
G37*
G36*
X-7893906Y3550786D2*
X-7909638D1*
Y3582288D1*
X-7893906D1*
Y3550786D1*
G37*
X-7393228Y4130082D2*
D43*
X-7427244D1*
Y4158110D2*
X-7393228D1*
G36*
X-7427233Y4127098D2*
X-7443231D1*
Y4161094D1*
X-7427233D1*
Y4127098D1*
G37*
G36*
X-7377241D2*
X-7393239D1*
Y4161094D1*
X-7377241D1*
Y4127098D1*
G37*
G36*
X-7402370Y4128345D2*
X-7418102D1*
Y4159847D1*
X-7402370D1*
Y4128345D1*
G37*
X-7397264Y3552523D2*
D43*
X-7431280D1*
Y3580551D2*
X-7397264D1*
G36*
X-7431269Y3549539D2*
X-7447267D1*
Y3583535D1*
X-7431269D1*
Y3549539D1*
G37*
G36*
X-7381276D2*
X-7397274D1*
Y3583535D1*
X-7381276D1*
Y3549539D1*
G37*
G36*
X-7406406Y3550786D2*
X-7422138D1*
Y3582288D1*
X-7406406D1*
Y3550786D1*
G37*
X-6265786Y3766458D2*
D43*
Y3800474D1*
X-6237757D2*
Y3766458D1*
G36*
X-6268770Y3800463D2*
X-6234774D1*
Y3816461D1*
X-6268770D1*
Y3800463D1*
G37*
G36*
Y3750471D2*
X-6234774D1*
Y3766469D1*
X-6268770D1*
Y3750471D1*
G37*
G36*
X-6267522Y3775600D2*
X-6236021D1*
Y3791332D1*
X-6267522D1*
Y3775600D1*
G37*
X-5640786Y3766458D2*
D43*
Y3800474D1*
X-5612757D2*
Y3766458D1*
G36*
X-5643770Y3800463D2*
X-5609774D1*
Y3816461D1*
X-5643770D1*
Y3800463D1*
G37*
G36*
Y3750471D2*
X-5609774D1*
Y3766469D1*
X-5643770D1*
Y3750471D1*
G37*
G36*
X-5642522Y3775600D2*
X-5611021D1*
Y3791332D1*
X-5642522D1*
Y3775600D1*
G37*
X-5015786Y3774529D2*
D43*
Y3808545D1*
X-4987757D2*
Y3774529D1*
G36*
X-5018770Y3808534D2*
X-4984774D1*
Y3824532D1*
X-5018770D1*
Y3808534D1*
G37*
G36*
Y3758541D2*
X-4984774D1*
Y3774540D1*
X-5018770D1*
Y3758541D1*
G37*
G36*
X-5017522Y3783671D2*
X-4986021D1*
Y3799403D1*
X-5017522D1*
Y3783671D1*
G37*
X-4390786Y3774529D2*
D43*
Y3808545D1*
X-4362757D2*
Y3774529D1*
G36*
X-4393770Y3808534D2*
X-4359774D1*
Y3824532D1*
X-4393770D1*
Y3808534D1*
G37*
G36*
Y3758541D2*
X-4359774D1*
Y3774540D1*
X-4393770D1*
Y3758541D1*
G37*
G36*
X-4392522Y3783671D2*
X-4361021D1*
Y3799403D1*
X-4392522D1*
Y3783671D1*
G37*
X-6265786Y4266458D2*
D43*
Y4300474D1*
X-6237757D2*
Y4266458D1*
G36*
X-6268770Y4300463D2*
X-6234774D1*
Y4316461D1*
X-6268770D1*
Y4300463D1*
G37*
G36*
Y4250471D2*
X-6234774D1*
Y4266469D1*
X-6268770D1*
Y4250471D1*
G37*
G36*
X-6267522Y4275600D2*
X-6236021D1*
Y4291332D1*
X-6267522D1*
Y4275600D1*
G37*
X-5640786Y4266458D2*
D43*
Y4300474D1*
X-5612757D2*
Y4266458D1*
G36*
X-5643770Y4300463D2*
X-5609774D1*
Y4316461D1*
X-5643770D1*
Y4300463D1*
G37*
G36*
Y4250471D2*
X-5609774D1*
Y4266469D1*
X-5643770D1*
Y4250471D1*
G37*
G36*
X-5642522Y4275600D2*
X-5611021D1*
Y4291332D1*
X-5642522D1*
Y4275600D1*
G37*
X-5015786Y4266458D2*
D43*
Y4300474D1*
X-4987757D2*
Y4266458D1*
G36*
X-5018770Y4300463D2*
X-4984774D1*
Y4316461D1*
X-5018770D1*
Y4300463D1*
G37*
G36*
Y4250471D2*
X-4984774D1*
Y4266469D1*
X-5018770D1*
Y4250471D1*
G37*
G36*
X-5017522Y4275600D2*
X-4986021D1*
Y4291332D1*
X-5017522D1*
Y4275600D1*
G37*
X-4390786Y4274529D2*
D43*
Y4308545D1*
X-4362757D2*
Y4274529D1*
G36*
X-4393770Y4308534D2*
X-4359774D1*
Y4324532D1*
X-4393770D1*
Y4308534D1*
G37*
G36*
Y4258541D2*
X-4359774D1*
Y4274540D1*
X-4393770D1*
Y4258541D1*
G37*
G36*
X-4392522Y4283671D2*
X-4361021D1*
Y4299403D1*
X-4392522D1*
Y4283671D1*
G37*
X-1112715Y3473881D2*
D43*
X-1146731D1*
Y3501909D2*
X-1112715D1*
G36*
X-1146720Y3470897D2*
X-1162718D1*
Y3504893D1*
X-1146720D1*
Y3470897D1*
G37*
G36*
X-1096728D2*
X-1112726D1*
Y3504893D1*
X-1096728D1*
Y3470897D1*
G37*
G36*
X-1121857Y3472144D2*
X-1137589D1*
Y3503646D1*
X-1121857D1*
Y3472144D1*
G37*
X-256465Y3473880D2*
D43*
X-290480D1*
Y3501908D2*
X-256465D1*
G36*
X-290470Y3470896D2*
X-306468D1*
Y3504892D1*
X-290470D1*
Y3470896D1*
G37*
G36*
X-240477D2*
X-256475D1*
Y3504892D1*
X-240477D1*
Y3470896D1*
G37*
G36*
X-265606Y3472143D2*
X-281339D1*
Y3503644D1*
X-265606D1*
Y3472143D1*
G37*
X-1669567Y4169429D2*
D43*
X-1635551D1*
Y4141401D2*
X-1669567D1*
G36*
X-1635562Y4172413D2*
X-1619564D1*
Y4138417D1*
X-1635562D1*
Y4172413D1*
G37*
G36*
X-1685554D2*
X-1669556D1*
Y4138417D1*
X-1685554D1*
Y4172413D1*
G37*
G36*
X-1660425Y4171165D2*
X-1644693D1*
Y4139664D1*
X-1660425D1*
Y4171165D1*
G37*
X-1154213Y4169429D2*
D43*
X-1120197D1*
Y4141401D2*
X-1154213D1*
G36*
X-1120207Y4172413D2*
X-1104209D1*
Y4138417D1*
X-1120207D1*
Y4172413D1*
G37*
G36*
X-1170200D2*
X-1154202D1*
Y4138417D1*
X-1170200D1*
Y4172413D1*
G37*
G36*
X-1145071Y4171165D2*
X-1129339D1*
Y4139664D1*
X-1145071D1*
Y4171165D1*
G37*
X-6893228Y4130082D2*
D43*
X-6927244D1*
Y4158110D2*
X-6893228D1*
G36*
X-6927233Y4127098D2*
X-6943231D1*
Y4161094D1*
X-6927233D1*
Y4127098D1*
G37*
G36*
X-6877241D2*
X-6893239D1*
Y4161094D1*
X-6877241D1*
Y4127098D1*
G37*
G36*
X-6902370Y4128345D2*
X-6918102D1*
Y4159847D1*
X-6902370D1*
Y4128345D1*
G37*
X-6893228Y3560987D2*
D43*
X-6927244D1*
Y3589015D2*
X-6893228D1*
G36*
X-6927233Y3558003D2*
X-6943231D1*
Y3591999D1*
X-6927233D1*
Y3558003D1*
G37*
G36*
X-6877241D2*
X-6893239D1*
Y3591999D1*
X-6877241D1*
Y3558003D1*
G37*
G36*
X-6902370Y3559251D2*
X-6918102D1*
Y3590752D1*
X-6902370D1*
Y3559251D1*
G37*
X-3765786Y3766458D2*
D43*
Y3800474D1*
X-3737757D2*
Y3766458D1*
G36*
X-3768770Y3800463D2*
X-3734774D1*
Y3816461D1*
X-3768770D1*
Y3800463D1*
G37*
G36*
Y3750471D2*
X-3734774D1*
Y3766469D1*
X-3768770D1*
Y3750471D1*
G37*
G36*
X-3767522Y3775600D2*
X-3736021D1*
Y3791332D1*
X-3767522D1*
Y3775600D1*
G37*
X-3140786Y3766458D2*
D43*
Y3800474D1*
X-3112757D2*
Y3766458D1*
G36*
X-3143770Y3800463D2*
X-3109774D1*
Y3816461D1*
X-3143770D1*
Y3800463D1*
G37*
G36*
Y3750471D2*
X-3109774D1*
Y3766469D1*
X-3143770D1*
Y3750471D1*
G37*
G36*
X-3142522Y3775600D2*
X-3111021D1*
Y3791332D1*
X-3142522D1*
Y3775600D1*
G37*
X-2515786Y3766458D2*
D43*
Y3800474D1*
X-2487757D2*
Y3766458D1*
G36*
X-2518770Y3800463D2*
X-2484774D1*
Y3816461D1*
X-2518770D1*
Y3800463D1*
G37*
G36*
Y3750471D2*
X-2484774D1*
Y3766469D1*
X-2518770D1*
Y3750471D1*
G37*
G36*
X-2517522Y3775600D2*
X-2486021D1*
Y3791332D1*
X-2517522D1*
Y3775600D1*
G37*
X-1886061Y3764490D2*
D43*
Y3798505D1*
X-1858033D2*
Y3764490D1*
G36*
X-1889045Y3798495D2*
X-1855049D1*
Y3814493D1*
X-1889045D1*
Y3798495D1*
G37*
G36*
Y3748502D2*
X-1855049D1*
Y3764500D1*
X-1889045D1*
Y3748502D1*
G37*
G36*
X-1887798Y3773631D2*
X-1856296D1*
Y3789364D1*
X-1887798D1*
Y3773631D1*
G37*
X-3765786Y4266458D2*
D43*
Y4300474D1*
X-3737757D2*
Y4266458D1*
G36*
X-3768770Y4300463D2*
X-3734774D1*
Y4316461D1*
X-3768770D1*
Y4300463D1*
G37*
G36*
Y4250471D2*
X-3734774D1*
Y4266469D1*
X-3768770D1*
Y4250471D1*
G37*
G36*
X-3767522Y4275600D2*
X-3736021D1*
Y4291332D1*
X-3767522D1*
Y4275600D1*
G37*
X-3140786Y4266458D2*
D43*
Y4300474D1*
X-3112757D2*
Y4266458D1*
G36*
X-3143770Y4300463D2*
X-3109774D1*
Y4316461D1*
X-3143770D1*
Y4300463D1*
G37*
G36*
Y4250471D2*
X-3109774D1*
Y4266469D1*
X-3143770D1*
Y4250471D1*
G37*
G36*
X-3142522Y4275600D2*
X-3111021D1*
Y4291332D1*
X-3142522D1*
Y4275600D1*
G37*
X-2515786Y4266458D2*
D43*
Y4300474D1*
X-2487757D2*
Y4266458D1*
G36*
X-2518770Y4300463D2*
X-2484774D1*
Y4316461D1*
X-2518770D1*
Y4300463D1*
G37*
G36*
Y4250471D2*
X-2484774D1*
Y4266469D1*
X-2518770D1*
Y4250471D1*
G37*
G36*
X-2517522Y4275600D2*
X-2486021D1*
Y4291332D1*
X-2517522D1*
Y4275600D1*
G37*
X-1890786Y4266458D2*
D43*
Y4300474D1*
X-1862757D2*
Y4266458D1*
G36*
X-1893770Y4300463D2*
X-1859774D1*
Y4316461D1*
X-1893770D1*
Y4300463D1*
G37*
G36*
Y4250471D2*
X-1859774D1*
Y4266469D1*
X-1893770D1*
Y4250471D1*
G37*
G36*
X-1892522Y4275600D2*
X-1861021D1*
Y4291332D1*
X-1892522D1*
Y4275600D1*
G37*
X-4690786Y2957993D2*
D43*
Y2992009D1*
X-4662757D2*
Y2957993D1*
G36*
X-4693770Y2991999D2*
X-4659774D1*
Y3007997D1*
X-4693770D1*
Y2991999D1*
G37*
G36*
Y2942006D2*
X-4659774D1*
Y2958004D1*
X-4693770D1*
Y2942006D1*
G37*
G36*
X-4692522Y2967135D2*
X-4661021D1*
Y2982867D1*
X-4692522D1*
Y2967135D1*
G37*
X-3404252Y2844255D2*
D43*
X-3438268D1*
Y2872283D2*
X-3404252D1*
G36*
X-3438257Y2841271D2*
X-3454255D1*
Y2875267D1*
X-3438257D1*
Y2841271D1*
G37*
G36*
X-3388265D2*
X-3404263D1*
Y2875267D1*
X-3388265D1*
Y2841271D1*
G37*
G36*
X-3413394Y2842518D2*
X-3429126D1*
Y2874020D1*
X-3413394D1*
Y2842518D1*
G37*
X-4762757Y2798259D2*
D43*
Y2764243D1*
X-4790786D2*
Y2798259D1*
G36*
X-4759774Y2764253D2*
X-4793770D1*
Y2748255D1*
X-4759774D1*
Y2764253D1*
G37*
G36*
Y2814246D2*
X-4793770D1*
Y2798248D1*
X-4759774D1*
Y2814246D1*
G37*
G36*
X-4761021Y2789117D2*
X-4792522D1*
Y2773385D1*
X-4761021D1*
Y2789117D1*
G37*
X-2184535Y2945495D2*
D43*
Y2979510D1*
X-2156507D2*
Y2945495D1*
G36*
X-2187519Y2979500D2*
X-2153523D1*
Y2995498D1*
X-2187519D1*
Y2979500D1*
G37*
G36*
Y2929507D2*
X-2153523D1*
Y2945505D1*
X-2187519D1*
Y2929507D1*
G37*
G36*
X-2186272Y2954636D2*
X-2154770D1*
Y2970369D1*
X-2186272D1*
Y2954636D1*
G37*
X-5984535Y2932992D2*
D43*
Y2967008D1*
X-5956507D2*
Y2932992D1*
G36*
X-5987519Y2966997D2*
X-5953523D1*
Y2982995D1*
X-5987519D1*
Y2966997D1*
G37*
G36*
Y2917005D2*
X-5953523D1*
Y2933003D1*
X-5987519D1*
Y2917005D1*
G37*
G36*
X-5986272Y2942134D2*
X-5954770D1*
Y2957866D1*
X-5986272D1*
Y2942134D1*
G37*
X-6031507Y2779509D2*
D43*
Y2745493D1*
X-6059535D2*
Y2779509D1*
G36*
X-6028523Y2745504D2*
X-6062519D1*
Y2729506D1*
X-6028523D1*
Y2745504D1*
G37*
G36*
Y2795497D2*
X-6062519D1*
Y2779499D1*
X-6028523D1*
Y2795497D1*
G37*
G36*
X-6029770Y2770367D2*
X-6061272D1*
Y2754635D1*
X-6029770D1*
Y2770367D1*
G37*
X-677892Y3095493D2*
D43*
Y3129509D1*
X-649864D2*
Y3095493D1*
G36*
X-680876Y3129499D2*
X-646880D1*
Y3145497D1*
X-680876D1*
Y3129499D1*
G37*
G36*
Y3079506D2*
X-646880D1*
Y3095504D1*
X-680876D1*
Y3079506D1*
G37*
G36*
X-679629Y3104635D2*
X-648127D1*
Y3120367D1*
X-679629D1*
Y3104635D1*
G37*
X-4587757Y2992009D2*
D43*
Y2957993D1*
X-4615786D2*
Y2992009D1*
G36*
X-4584774Y2958004D2*
X-4618770D1*
Y2942006D1*
X-4584774D1*
Y2958004D1*
G37*
G36*
Y3007997D2*
X-4618770D1*
Y2991999D1*
X-4584774D1*
Y3007997D1*
G37*
G36*
X-4586021Y2982867D2*
X-4617522D1*
Y2967135D1*
X-4586021D1*
Y2982867D1*
G37*
X-3440236Y2769921D2*
D43*
X-3406220D1*
Y2741893D2*
X-3440236D1*
G36*
X-3406231Y2772905D2*
X-3390233D1*
Y2738909D1*
X-3406231D1*
Y2772905D1*
G37*
G36*
X-3456224D2*
X-3440226D1*
Y2738909D1*
X-3456224D1*
Y2772905D1*
G37*
G36*
X-3431094Y2771658D2*
X-3415362D1*
Y2740156D1*
X-3431094D1*
Y2771658D1*
G37*
X-4865786Y2764243D2*
D43*
Y2798259D1*
X-4837757D2*
Y2764243D1*
G36*
X-4868770Y2798248D2*
X-4834774D1*
Y2814246D1*
X-4868770D1*
Y2798248D1*
G37*
G36*
Y2748255D2*
X-4834774D1*
Y2764253D1*
X-4868770D1*
Y2748255D1*
G37*
G36*
X-4867522Y2773385D2*
X-4836021D1*
Y2789117D1*
X-4867522D1*
Y2773385D1*
G37*
X-2081507Y2979510D2*
D43*
Y2945495D1*
X-2109535D2*
Y2979510D1*
G36*
X-2078523Y2945505D2*
X-2112519D1*
Y2929507D1*
X-2078523D1*
Y2945505D1*
G37*
G36*
Y2995498D2*
X-2112519D1*
Y2979500D1*
X-2078523D1*
Y2995498D1*
G37*
G36*
X-2079770Y2970369D2*
X-2111272D1*
Y2954636D1*
X-2079770D1*
Y2970369D1*
G37*
X-5881508Y2967008D2*
D43*
Y2932992D1*
X-5909536D2*
Y2967008D1*
G36*
X-5878524Y2933003D2*
X-5912520D1*
Y2917005D1*
X-5878524D1*
Y2933003D1*
G37*
G36*
Y2982995D2*
X-5912520D1*
Y2966997D1*
X-5878524D1*
Y2982995D1*
G37*
G36*
X-5879772Y2957866D2*
X-5911273D1*
Y2942134D1*
X-5879772D1*
Y2957866D1*
G37*
X-6134535Y2745493D2*
D43*
Y2779509D1*
X-6106507D2*
Y2745493D1*
G36*
X-6137519Y2779499D2*
X-6103523D1*
Y2795497D1*
X-6137519D1*
Y2779499D1*
G37*
G36*
Y2729506D2*
X-6103523D1*
Y2745504D1*
X-6137519D1*
Y2729506D1*
G37*
G36*
X-6136272Y2754635D2*
X-6104770D1*
Y2770367D1*
X-6136272D1*
Y2754635D1*
G37*
X-581114Y3129509D2*
D43*
Y3095493D1*
X-609143D2*
Y3129509D1*
G36*
X-578131Y3095504D2*
X-612127D1*
Y3079506D1*
X-578131D1*
Y3095504D1*
G37*
G36*
Y3145497D2*
X-612127D1*
Y3129499D1*
X-578131D1*
Y3145497D1*
G37*
G36*
X-579378Y3120367D2*
X-610879D1*
Y3104635D1*
X-579378D1*
Y3120367D1*
G37*
X-6200483Y1280268D2*
D43*
Y1314283D1*
X-6172454D2*
Y1280268D1*
G36*
X-6203467Y1314273D2*
X-6169470D1*
Y1330271D1*
X-6203467D1*
Y1314273D1*
G37*
G36*
Y1264280D2*
X-6169470D1*
Y1280278D1*
X-6203467D1*
Y1264280D1*
G37*
G36*
X-6202219Y1289409D2*
X-6170718D1*
Y1305142D1*
X-6202219D1*
Y1289409D1*
G37*
X-5575483Y1280268D2*
D43*
Y1314283D1*
X-5547454D2*
Y1280268D1*
G36*
X-5578467Y1314273D2*
X-5544470D1*
Y1330271D1*
X-5578467D1*
Y1314273D1*
G37*
G36*
Y1264280D2*
X-5544470D1*
Y1280278D1*
X-5578467D1*
Y1264280D1*
G37*
G36*
X-5577219Y1289409D2*
X-5545718D1*
Y1305142D1*
X-5577219D1*
Y1289409D1*
G37*
X-4928286Y1285206D2*
D43*
Y1319222D1*
X-4900257D2*
Y1285206D1*
G36*
X-4931270Y1319211D2*
X-4897274D1*
Y1335209D1*
X-4931270D1*
Y1319211D1*
G37*
G36*
Y1269219D2*
X-4897274D1*
Y1285217D1*
X-4931270D1*
Y1269219D1*
G37*
G36*
X-4930022Y1294348D2*
X-4898521D1*
Y1310080D1*
X-4930022D1*
Y1294348D1*
G37*
X-4325483Y1280268D2*
D43*
Y1314283D1*
X-4297454D2*
Y1280268D1*
G36*
X-4328467Y1314273D2*
X-4294470D1*
Y1330271D1*
X-4328467D1*
Y1314273D1*
G37*
G36*
Y1264280D2*
X-4294470D1*
Y1280278D1*
X-4328467D1*
Y1264280D1*
G37*
G36*
X-4327219Y1289409D2*
X-4295718D1*
Y1305142D1*
X-4327219D1*
Y1289409D1*
G37*
X-3700483Y1280268D2*
D43*
Y1314283D1*
X-3672454D2*
Y1280268D1*
G36*
X-3703467Y1314273D2*
X-3669470D1*
Y1330271D1*
X-3703467D1*
Y1314273D1*
G37*
G36*
Y1264280D2*
X-3669470D1*
Y1280278D1*
X-3703467D1*
Y1264280D1*
G37*
G36*
X-3702219Y1289409D2*
X-3670718D1*
Y1305142D1*
X-3702219D1*
Y1289409D1*
G37*
X-3075483Y1280268D2*
D43*
Y1314283D1*
X-3047454D2*
Y1280268D1*
G36*
X-3078467Y1314273D2*
X-3044470D1*
Y1330271D1*
X-3078467D1*
Y1314273D1*
G37*
G36*
Y1264280D2*
X-3044470D1*
Y1280278D1*
X-3078467D1*
Y1264280D1*
G37*
G36*
X-3077219Y1289409D2*
X-3045718D1*
Y1305142D1*
X-3077219D1*
Y1289409D1*
G37*
X-2450483Y1280268D2*
D43*
Y1314283D1*
X-2422454D2*
Y1280268D1*
G36*
X-2453467Y1314273D2*
X-2419470D1*
Y1330271D1*
X-2453467D1*
Y1314273D1*
G37*
G36*
Y1264280D2*
X-2419470D1*
Y1280278D1*
X-2453467D1*
Y1264280D1*
G37*
G36*
X-2452219Y1289409D2*
X-2420718D1*
Y1305142D1*
X-2452219D1*
Y1289409D1*
G37*
X-1825483Y1280268D2*
D43*
Y1314283D1*
X-1797454D2*
Y1280268D1*
G36*
X-1828467Y1314273D2*
X-1794470D1*
Y1330271D1*
X-1828467D1*
Y1314273D1*
G37*
G36*
Y1264280D2*
X-1794470D1*
Y1280278D1*
X-1828467D1*
Y1264280D1*
G37*
G36*
X-1827219Y1289409D2*
X-1795718D1*
Y1305142D1*
X-1827219D1*
Y1289409D1*
G37*
X-6681585Y450887D2*
D43*
Y484903D1*
X-6653557D2*
Y450887D1*
G36*
X-6684569Y484892D2*
X-6650573D1*
Y500890D1*
X-6684569D1*
Y484892D1*
G37*
G36*
Y434900D2*
X-6650573D1*
Y450898D1*
X-6684569D1*
Y434900D1*
G37*
G36*
X-6683322Y460029D2*
X-6651820D1*
Y475761D1*
X-6683322D1*
Y460029D1*
G37*
X-6056585Y450887D2*
D43*
Y484903D1*
X-6028557D2*
Y450887D1*
G36*
X-6059569Y484892D2*
X-6025573D1*
Y500890D1*
X-6059569D1*
Y484892D1*
G37*
G36*
Y434900D2*
X-6025573D1*
Y450898D1*
X-6059569D1*
Y434900D1*
G37*
G36*
X-6058322Y460029D2*
X-6026820D1*
Y475761D1*
X-6058322D1*
Y460029D1*
G37*
X-5431585Y450887D2*
D43*
Y484903D1*
X-5403557D2*
Y450887D1*
G36*
X-5434569Y484892D2*
X-5400573D1*
Y500890D1*
X-5434569D1*
Y484892D1*
G37*
G36*
Y434900D2*
X-5400573D1*
Y450898D1*
X-5434569D1*
Y434900D1*
G37*
G36*
X-5433322Y460029D2*
X-5401820D1*
Y475761D1*
X-5433322D1*
Y460029D1*
G37*
X-4806585Y450887D2*
D43*
Y484903D1*
X-4778557D2*
Y450887D1*
G36*
X-4809569Y484892D2*
X-4775573D1*
Y500890D1*
X-4809569D1*
Y484892D1*
G37*
G36*
Y434900D2*
X-4775573D1*
Y450898D1*
X-4809569D1*
Y434900D1*
G37*
G36*
X-4808322Y460029D2*
X-4776820D1*
Y475761D1*
X-4808322D1*
Y460029D1*
G37*
X-4181585Y450887D2*
D43*
Y484903D1*
X-4153557D2*
Y450887D1*
G36*
X-4184569Y484892D2*
X-4150573D1*
Y500890D1*
X-4184569D1*
Y484892D1*
G37*
G36*
Y434900D2*
X-4150573D1*
Y450898D1*
X-4184569D1*
Y434900D1*
G37*
G36*
X-4183322Y460029D2*
X-4151820D1*
Y475761D1*
X-4183322D1*
Y460029D1*
G37*
X-3556585Y450887D2*
D43*
Y484903D1*
X-3528557D2*
Y450887D1*
G36*
X-3559569Y484892D2*
X-3525573D1*
Y500890D1*
X-3559569D1*
Y484892D1*
G37*
G36*
Y434900D2*
X-3525573D1*
Y450898D1*
X-3559569D1*
Y434900D1*
G37*
G36*
X-3558322Y460029D2*
X-3526820D1*
Y475761D1*
X-3558322D1*
Y460029D1*
G37*
X-2931585Y450887D2*
D43*
Y484903D1*
X-2903557D2*
Y450887D1*
G36*
X-2934569Y484892D2*
X-2900573D1*
Y500890D1*
X-2934569D1*
Y484892D1*
G37*
G36*
Y434900D2*
X-2900573D1*
Y450898D1*
X-2934569D1*
Y434900D1*
G37*
G36*
X-2933322Y460029D2*
X-2901820D1*
Y475761D1*
X-2933322D1*
Y460029D1*
G37*
X-2306585Y450887D2*
D43*
Y484903D1*
X-2278557D2*
Y450887D1*
G36*
X-2309569Y484892D2*
X-2275573D1*
Y500890D1*
X-2309569D1*
Y484892D1*
G37*
G36*
Y434900D2*
X-2275573D1*
Y450898D1*
X-2309569D1*
Y434900D1*
G37*
G36*
X-2308322Y460029D2*
X-2276820D1*
Y475761D1*
X-2308322D1*
Y460029D1*
G37*
X-6681585Y801301D2*
D43*
Y835316D1*
X-6653557D2*
Y801301D1*
G36*
X-6684569Y835306D2*
X-6650573D1*
Y851304D1*
X-6684569D1*
Y835306D1*
G37*
G36*
Y785313D2*
X-6650573D1*
Y801311D1*
X-6684569D1*
Y785313D1*
G37*
G36*
X-6683322Y810442D2*
X-6651820D1*
Y826175D1*
X-6683322D1*
Y810442D1*
G37*
X-6056585Y801301D2*
D43*
Y835316D1*
X-6028557D2*
Y801301D1*
G36*
X-6059569Y835306D2*
X-6025573D1*
Y851304D1*
X-6059569D1*
Y835306D1*
G37*
G36*
Y785313D2*
X-6025573D1*
Y801311D1*
X-6059569D1*
Y785313D1*
G37*
G36*
X-6058322Y810442D2*
X-6026820D1*
Y826175D1*
X-6058322D1*
Y810442D1*
G37*
X-5431585Y801301D2*
D43*
Y835316D1*
X-5403557D2*
Y801301D1*
G36*
X-5434569Y835306D2*
X-5400573D1*
Y851304D1*
X-5434569D1*
Y835306D1*
G37*
G36*
Y785313D2*
X-5400573D1*
Y801311D1*
X-5434569D1*
Y785313D1*
G37*
G36*
X-5433322Y810442D2*
X-5401820D1*
Y826175D1*
X-5433322D1*
Y810442D1*
G37*
X-4806585Y801301D2*
D43*
Y835316D1*
X-4778557D2*
Y801301D1*
G36*
X-4809569Y835306D2*
X-4775573D1*
Y851304D1*
X-4809569D1*
Y835306D1*
G37*
G36*
Y785313D2*
X-4775573D1*
Y801311D1*
X-4809569D1*
Y785313D1*
G37*
G36*
X-4808322Y810442D2*
X-4776820D1*
Y826175D1*
X-4808322D1*
Y810442D1*
G37*
X-4181585Y801301D2*
D43*
Y835316D1*
X-4153557D2*
Y801301D1*
G36*
X-4184569Y835306D2*
X-4150573D1*
Y851304D1*
X-4184569D1*
Y835306D1*
G37*
G36*
Y785313D2*
X-4150573D1*
Y801311D1*
X-4184569D1*
Y785313D1*
G37*
G36*
X-4183322Y810442D2*
X-4151820D1*
Y826175D1*
X-4183322D1*
Y810442D1*
G37*
X-3556585Y801301D2*
D43*
Y835316D1*
X-3528557D2*
Y801301D1*
G36*
X-3559569Y835306D2*
X-3525573D1*
Y851304D1*
X-3559569D1*
Y835306D1*
G37*
G36*
Y785313D2*
X-3525573D1*
Y801311D1*
X-3559569D1*
Y785313D1*
G37*
G36*
X-3558322Y810442D2*
X-3526820D1*
Y826175D1*
X-3558322D1*
Y810442D1*
G37*
X-2931585Y801301D2*
D43*
Y835316D1*
X-2903557D2*
Y801301D1*
G36*
X-2934569Y835306D2*
X-2900573D1*
Y851304D1*
X-2934569D1*
Y835306D1*
G37*
G36*
Y785313D2*
X-2900573D1*
Y801311D1*
X-2934569D1*
Y785313D1*
G37*
G36*
X-2933322Y810442D2*
X-2901820D1*
Y826175D1*
X-2933322D1*
Y810442D1*
G37*
X-2306585Y801301D2*
D43*
Y835316D1*
X-2278557D2*
Y801301D1*
G36*
X-2309569Y835306D2*
X-2275573D1*
Y851304D1*
X-2309569D1*
Y835306D1*
G37*
G36*
Y785313D2*
X-2275573D1*
Y801311D1*
X-2309569D1*
Y785313D1*
G37*
G36*
X-2308322Y810442D2*
X-2276820D1*
Y826175D1*
X-2308322D1*
Y810442D1*
G37*
X-6681585Y1151714D2*
D43*
Y1185730D1*
X-6653557D2*
Y1151714D1*
G36*
X-6684569Y1185719D2*
X-6650573D1*
Y1201717D1*
X-6684569D1*
Y1185719D1*
G37*
G36*
Y1135727D2*
X-6650573D1*
Y1151725D1*
X-6684569D1*
Y1135727D1*
G37*
G36*
X-6683322Y1160856D2*
X-6651820D1*
Y1176588D1*
X-6683322D1*
Y1160856D1*
G37*
X-6056585Y1151714D2*
D43*
Y1185730D1*
X-6028557D2*
Y1151714D1*
G36*
X-6059569Y1185719D2*
X-6025573D1*
Y1201717D1*
X-6059569D1*
Y1185719D1*
G37*
G36*
Y1135727D2*
X-6025573D1*
Y1151725D1*
X-6059569D1*
Y1135727D1*
G37*
G36*
X-6058322Y1160856D2*
X-6026820D1*
Y1176588D1*
X-6058322D1*
Y1160856D1*
G37*
X-5431585Y1151714D2*
D43*
Y1185730D1*
X-5403557D2*
Y1151714D1*
G36*
X-5434569Y1185719D2*
X-5400573D1*
Y1201717D1*
X-5434569D1*
Y1185719D1*
G37*
G36*
Y1135727D2*
X-5400573D1*
Y1151725D1*
X-5434569D1*
Y1135727D1*
G37*
G36*
X-5433322Y1160856D2*
X-5401820D1*
Y1176588D1*
X-5433322D1*
Y1160856D1*
G37*
X-4806585Y1151714D2*
D43*
Y1185730D1*
X-4778557D2*
Y1151714D1*
G36*
X-4809569Y1185719D2*
X-4775573D1*
Y1201717D1*
X-4809569D1*
Y1185719D1*
G37*
G36*
Y1135727D2*
X-4775573D1*
Y1151725D1*
X-4809569D1*
Y1135727D1*
G37*
G36*
X-4808322Y1160856D2*
X-4776820D1*
Y1176588D1*
X-4808322D1*
Y1160856D1*
G37*
X-4181585Y1151714D2*
D43*
Y1185730D1*
X-4153557D2*
Y1151714D1*
G36*
X-4184569Y1185719D2*
X-4150573D1*
Y1201717D1*
X-4184569D1*
Y1185719D1*
G37*
G36*
Y1135727D2*
X-4150573D1*
Y1151725D1*
X-4184569D1*
Y1135727D1*
G37*
G36*
X-4183322Y1160856D2*
X-4151820D1*
Y1176588D1*
X-4183322D1*
Y1160856D1*
G37*
X-3556585Y1151714D2*
D43*
Y1185730D1*
X-3528557D2*
Y1151714D1*
G36*
X-3559569Y1185719D2*
X-3525573D1*
Y1201717D1*
X-3559569D1*
Y1185719D1*
G37*
G36*
Y1135727D2*
X-3525573D1*
Y1151725D1*
X-3559569D1*
Y1135727D1*
G37*
G36*
X-3558322Y1160856D2*
X-3526820D1*
Y1176588D1*
X-3558322D1*
Y1160856D1*
G37*
X-2931585Y1151714D2*
D43*
Y1185730D1*
X-2903557D2*
Y1151714D1*
G36*
X-2934569Y1185719D2*
X-2900573D1*
Y1201717D1*
X-2934569D1*
Y1185719D1*
G37*
G36*
Y1135727D2*
X-2900573D1*
Y1151725D1*
X-2934569D1*
Y1135727D1*
G37*
G36*
X-2933322Y1160856D2*
X-2901820D1*
Y1176588D1*
X-2933322D1*
Y1160856D1*
G37*
X-2306585Y1151714D2*
D43*
Y1185730D1*
X-2278557D2*
Y1151714D1*
G36*
X-2309569Y1185719D2*
X-2275573D1*
Y1201717D1*
X-2309569D1*
Y1185719D1*
G37*
G36*
Y1135727D2*
X-2275573D1*
Y1151725D1*
X-2309569D1*
Y1135727D1*
G37*
G36*
X-2308322Y1160856D2*
X-2276820D1*
Y1176588D1*
X-2308322D1*
Y1160856D1*
G37*
X-6681585Y1502127D2*
D43*
Y1536143D1*
X-6653557D2*
Y1502127D1*
G36*
X-6684569Y1536132D2*
X-6650573D1*
Y1552130D1*
X-6684569D1*
Y1536132D1*
G37*
G36*
Y1486140D2*
X-6650573D1*
Y1502138D1*
X-6684569D1*
Y1486140D1*
G37*
G36*
X-6683322Y1511269D2*
X-6651820D1*
Y1527001D1*
X-6683322D1*
Y1511269D1*
G37*
X-6056585Y1502127D2*
D43*
Y1536143D1*
X-6028557D2*
Y1502127D1*
G36*
X-6059569Y1536132D2*
X-6025573D1*
Y1552130D1*
X-6059569D1*
Y1536132D1*
G37*
G36*
Y1486140D2*
X-6025573D1*
Y1502138D1*
X-6059569D1*
Y1486140D1*
G37*
G36*
X-6058322Y1511269D2*
X-6026820D1*
Y1527001D1*
X-6058322D1*
Y1511269D1*
G37*
X-5431585Y1502127D2*
D43*
Y1536143D1*
X-5403557D2*
Y1502127D1*
G36*
X-5434569Y1536132D2*
X-5400573D1*
Y1552130D1*
X-5434569D1*
Y1536132D1*
G37*
G36*
Y1486140D2*
X-5400573D1*
Y1502138D1*
X-5434569D1*
Y1486140D1*
G37*
G36*
X-5433322Y1511269D2*
X-5401820D1*
Y1527001D1*
X-5433322D1*
Y1511269D1*
G37*
X-4806585Y1502127D2*
D43*
Y1536143D1*
X-4778557D2*
Y1502127D1*
G36*
X-4809569Y1536132D2*
X-4775573D1*
Y1552130D1*
X-4809569D1*
Y1536132D1*
G37*
G36*
Y1486140D2*
X-4775573D1*
Y1502138D1*
X-4809569D1*
Y1486140D1*
G37*
G36*
X-4808322Y1511269D2*
X-4776820D1*
Y1527001D1*
X-4808322D1*
Y1511269D1*
G37*
X-4181585Y1502127D2*
D43*
Y1536143D1*
X-4153557D2*
Y1502127D1*
G36*
X-4184569Y1536132D2*
X-4150573D1*
Y1552130D1*
X-4184569D1*
Y1536132D1*
G37*
G36*
Y1486140D2*
X-4150573D1*
Y1502138D1*
X-4184569D1*
Y1486140D1*
G37*
G36*
X-4183322Y1511269D2*
X-4151820D1*
Y1527001D1*
X-4183322D1*
Y1511269D1*
G37*
X-3556585Y1502127D2*
D43*
Y1536143D1*
X-3528557D2*
Y1502127D1*
G36*
X-3559569Y1536132D2*
X-3525573D1*
Y1552130D1*
X-3559569D1*
Y1536132D1*
G37*
G36*
Y1486140D2*
X-3525573D1*
Y1502138D1*
X-3559569D1*
Y1486140D1*
G37*
G36*
X-3558322Y1511269D2*
X-3526820D1*
Y1527001D1*
X-3558322D1*
Y1511269D1*
G37*
X-2931585Y1502127D2*
D43*
Y1536143D1*
X-2903557D2*
Y1502127D1*
G36*
X-2934569Y1536132D2*
X-2900573D1*
Y1552130D1*
X-2934569D1*
Y1536132D1*
G37*
G36*
Y1486140D2*
X-2900573D1*
Y1502138D1*
X-2934569D1*
Y1486140D1*
G37*
G36*
X-2933322Y1511269D2*
X-2901820D1*
Y1527001D1*
X-2933322D1*
Y1511269D1*
G37*
X-2306585Y1502127D2*
D43*
Y1536143D1*
X-2278557D2*
Y1502127D1*
G36*
X-2309569Y1536132D2*
X-2275573D1*
Y1552130D1*
X-2309569D1*
Y1536132D1*
G37*
G36*
Y1486140D2*
X-2275573D1*
Y1502138D1*
X-2309569D1*
Y1486140D1*
G37*
G36*
X-2308322Y1511269D2*
X-2276820D1*
Y1527001D1*
X-2308322D1*
Y1511269D1*
G37*
X-6681585Y1852541D2*
D43*
Y1886556D1*
X-6653557D2*
Y1852541D1*
G36*
X-6684569Y1886546D2*
X-6650573D1*
Y1902544D1*
X-6684569D1*
Y1886546D1*
G37*
G36*
Y1836553D2*
X-6650573D1*
Y1852551D1*
X-6684569D1*
Y1836553D1*
G37*
G36*
X-6683322Y1861682D2*
X-6651820D1*
Y1877415D1*
X-6683322D1*
Y1861682D1*
G37*
X-6056585Y1852541D2*
D43*
Y1886556D1*
X-6028557D2*
Y1852541D1*
G36*
X-6059569Y1886546D2*
X-6025573D1*
Y1902544D1*
X-6059569D1*
Y1886546D1*
G37*
G36*
Y1836553D2*
X-6025573D1*
Y1852551D1*
X-6059569D1*
Y1836553D1*
G37*
G36*
X-6058322Y1861682D2*
X-6026820D1*
Y1877415D1*
X-6058322D1*
Y1861682D1*
G37*
X-5431585Y1852541D2*
D43*
Y1886556D1*
X-5403557D2*
Y1852541D1*
G36*
X-5434569Y1886546D2*
X-5400573D1*
Y1902544D1*
X-5434569D1*
Y1886546D1*
G37*
G36*
Y1836553D2*
X-5400573D1*
Y1852551D1*
X-5434569D1*
Y1836553D1*
G37*
G36*
X-5433322Y1861682D2*
X-5401820D1*
Y1877415D1*
X-5433322D1*
Y1861682D1*
G37*
X-4806585Y1852541D2*
D43*
Y1886556D1*
X-4778557D2*
Y1852541D1*
G36*
X-4809569Y1886546D2*
X-4775573D1*
Y1902544D1*
X-4809569D1*
Y1886546D1*
G37*
G36*
Y1836553D2*
X-4775573D1*
Y1852551D1*
X-4809569D1*
Y1836553D1*
G37*
G36*
X-4808322Y1861682D2*
X-4776820D1*
Y1877415D1*
X-4808322D1*
Y1861682D1*
G37*
X-4181585Y1852541D2*
D43*
Y1886556D1*
X-4153557D2*
Y1852541D1*
G36*
X-4184569Y1886546D2*
X-4150573D1*
Y1902544D1*
X-4184569D1*
Y1886546D1*
G37*
G36*
Y1836553D2*
X-4150573D1*
Y1852551D1*
X-4184569D1*
Y1836553D1*
G37*
G36*
X-4183322Y1861682D2*
X-4151820D1*
Y1877415D1*
X-4183322D1*
Y1861682D1*
G37*
X-3556585Y1852541D2*
D43*
Y1886556D1*
X-3528557D2*
Y1852541D1*
G36*
X-3559569Y1886546D2*
X-3525573D1*
Y1902544D1*
X-3559569D1*
Y1886546D1*
G37*
G36*
Y1836553D2*
X-3525573D1*
Y1852551D1*
X-3559569D1*
Y1836553D1*
G37*
G36*
X-3558322Y1861682D2*
X-3526820D1*
Y1877415D1*
X-3558322D1*
Y1861682D1*
G37*
X-2931585Y1852541D2*
D43*
Y1886556D1*
X-2903557D2*
Y1852541D1*
G36*
X-2934569Y1886546D2*
X-2900573D1*
Y1902544D1*
X-2934569D1*
Y1886546D1*
G37*
G36*
Y1836553D2*
X-2900573D1*
Y1852551D1*
X-2934569D1*
Y1836553D1*
G37*
G36*
X-2933322Y1861682D2*
X-2901820D1*
Y1877415D1*
X-2933322D1*
Y1861682D1*
G37*
X-2306585Y1852541D2*
D43*
Y1886556D1*
X-2278557D2*
Y1852541D1*
G36*
X-2309569Y1886546D2*
X-2275573D1*
Y1902544D1*
X-2309569D1*
Y1886546D1*
G37*
G36*
Y1836553D2*
X-2275573D1*
Y1852551D1*
X-2309569D1*
Y1836553D1*
G37*
G36*
X-2308322Y1861682D2*
X-2276820D1*
Y1877415D1*
X-2308322D1*
Y1861682D1*
G37*
X-6681585Y2202954D2*
D43*
Y2236970D1*
X-6653557D2*
Y2202954D1*
G36*
X-6684569Y2236959D2*
X-6650573D1*
Y2252957D1*
X-6684569D1*
Y2236959D1*
G37*
G36*
Y2186967D2*
X-6650573D1*
Y2202965D1*
X-6684569D1*
Y2186967D1*
G37*
G36*
X-6683322Y2212096D2*
X-6651820D1*
Y2227828D1*
X-6683322D1*
Y2212096D1*
G37*
X-6056585Y2202954D2*
D43*
Y2236970D1*
X-6028557D2*
Y2202954D1*
G36*
X-6059569Y2236959D2*
X-6025573D1*
Y2252957D1*
X-6059569D1*
Y2236959D1*
G37*
G36*
Y2186967D2*
X-6025573D1*
Y2202965D1*
X-6059569D1*
Y2186967D1*
G37*
G36*
X-6058322Y2212096D2*
X-6026820D1*
Y2227828D1*
X-6058322D1*
Y2212096D1*
G37*
X-5431585Y2202954D2*
D43*
Y2236970D1*
X-5403557D2*
Y2202954D1*
G36*
X-5434569Y2236959D2*
X-5400573D1*
Y2252957D1*
X-5434569D1*
Y2236959D1*
G37*
G36*
Y2186967D2*
X-5400573D1*
Y2202965D1*
X-5434569D1*
Y2186967D1*
G37*
G36*
X-5433322Y2212096D2*
X-5401820D1*
Y2227828D1*
X-5433322D1*
Y2212096D1*
G37*
X-4806585Y2202954D2*
D43*
Y2236970D1*
X-4778557D2*
Y2202954D1*
G36*
X-4809569Y2236959D2*
X-4775573D1*
Y2252957D1*
X-4809569D1*
Y2236959D1*
G37*
G36*
Y2186967D2*
X-4775573D1*
Y2202965D1*
X-4809569D1*
Y2186967D1*
G37*
G36*
X-4808322Y2212096D2*
X-4776820D1*
Y2227828D1*
X-4808322D1*
Y2212096D1*
G37*
X-4181585Y2202954D2*
D43*
Y2236970D1*
X-4153557D2*
Y2202954D1*
G36*
X-4184569Y2236959D2*
X-4150573D1*
Y2252957D1*
X-4184569D1*
Y2236959D1*
G37*
G36*
Y2186967D2*
X-4150573D1*
Y2202965D1*
X-4184569D1*
Y2186967D1*
G37*
G36*
X-4183322Y2212096D2*
X-4151820D1*
Y2227828D1*
X-4183322D1*
Y2212096D1*
G37*
X-3556585Y2202954D2*
D43*
Y2236970D1*
X-3528557D2*
Y2202954D1*
G36*
X-3559569Y2236959D2*
X-3525573D1*
Y2252957D1*
X-3559569D1*
Y2236959D1*
G37*
G36*
Y2186967D2*
X-3525573D1*
Y2202965D1*
X-3559569D1*
Y2186967D1*
G37*
G36*
X-3558322Y2212096D2*
X-3526820D1*
Y2227828D1*
X-3558322D1*
Y2212096D1*
G37*
X-2931585Y2202954D2*
D43*
Y2236970D1*
X-2903557D2*
Y2202954D1*
G36*
X-2934569Y2236959D2*
X-2900573D1*
Y2252957D1*
X-2934569D1*
Y2236959D1*
G37*
G36*
Y2186967D2*
X-2900573D1*
Y2202965D1*
X-2934569D1*
Y2186967D1*
G37*
G36*
X-2933322Y2212096D2*
X-2901820D1*
Y2227828D1*
X-2933322D1*
Y2212096D1*
G37*
X-2306585Y2202954D2*
D43*
Y2236970D1*
X-2278557D2*
Y2202954D1*
G36*
X-2309569Y2236959D2*
X-2275573D1*
Y2252957D1*
X-2309569D1*
Y2236959D1*
G37*
G36*
Y2186967D2*
X-2275573D1*
Y2202965D1*
X-2309569D1*
Y2186967D1*
G37*
G36*
X-2308322Y2212096D2*
X-2276820D1*
Y2227828D1*
X-2308322D1*
Y2212096D1*
G37*
X-6916129Y2355163D2*
D43*
Y2321147D1*
X-6944157D2*
Y2355163D1*
G36*
X-6913145Y2321158D2*
X-6947141D1*
Y2305160D1*
X-6913145D1*
Y2321158D1*
G37*
G36*
Y2371150D2*
X-6947141D1*
Y2355152D1*
X-6913145D1*
Y2371150D1*
G37*
G36*
X-6914392Y2346021D2*
X-6945894D1*
Y2330289D1*
X-6914392D1*
Y2346021D1*
G37*
X-8184183Y1374486D2*
D43*
Y1408501D1*
X-8156155D2*
Y1374486D1*
G36*
X-8187167Y1408491D2*
X-8153171D1*
Y1424489D1*
X-8187167D1*
Y1408491D1*
G37*
G36*
Y1358498D2*
X-8153171D1*
Y1374496D1*
X-8187167D1*
Y1358498D1*
G37*
G36*
X-8185920Y1383627D2*
X-8154419D1*
Y1399360D1*
X-8185920D1*
Y1383627D1*
G37*
X-7613923Y1993432D2*
D43*
X-7647938D1*
Y2021460D2*
X-7613923D1*
G36*
X-7647928Y1990448D2*
X-7663926D1*
Y2024444D1*
X-7647928D1*
Y1990448D1*
G37*
G36*
X-7597935D2*
X-7613933D1*
Y2024444D1*
X-7597935D1*
Y1990448D1*
G37*
G36*
X-7623064Y1991695D2*
X-7638797D1*
Y2023197D1*
X-7623064D1*
Y1991695D1*
G37*
X-7486390Y1736216D2*
D43*
X-7452374D1*
Y1708188D2*
X-7486390D1*
G36*
X-7452385Y1739200D2*
X-7436387D1*
Y1705204D1*
X-7452385D1*
Y1739200D1*
G37*
G36*
X-7502377D2*
X-7486379D1*
Y1705204D1*
X-7502377D1*
Y1739200D1*
G37*
G36*
X-7477248Y1737953D2*
X-7461516D1*
Y1706451D1*
X-7477248D1*
Y1737953D1*
G37*
X-8133608Y2284771D2*
D43*
X-8167623D1*
Y2312799D2*
X-8133608D1*
G36*
X-8167613Y2281787D2*
X-8183611D1*
Y2315783D1*
X-8167613D1*
Y2281787D1*
G37*
G36*
X-8117620D2*
X-8133618D1*
Y2315783D1*
X-8117620D1*
Y2281787D1*
G37*
G36*
X-8142749Y2283034D2*
X-8158482D1*
Y2314536D1*
X-8142749D1*
Y2283034D1*
G37*
X-6898319Y1376722D2*
D43*
X-6922375Y1400778D1*
X-6902550Y1420603D2*
X-6878494Y1396547D1*
G36*
X-6924469Y1398663D2*
X-6935789Y1409971D1*
X-6911743Y1434017D1*
X-6900434Y1422698D1*
X-6924469Y1398663D1*
G37*
G36*
X-6889126Y1363309D2*
X-6900434Y1374628D1*
X-6876399Y1398663D1*
X-6865080Y1387354D1*
X-6889126Y1363309D1*
G37*
G36*
X-6906009Y1381959D2*
X-6917138Y1393088D1*
X-6894859Y1415367D1*
X-6883731Y1404238D1*
X-6906009Y1381959D1*
G37*
X-8245338Y2433352D2*
D43*
Y2467367D1*
X-8217310D2*
Y2433352D1*
G36*
X-8248322Y2467357D2*
X-8214326D1*
Y2483355D1*
X-8248322D1*
Y2467357D1*
G37*
G36*
Y2417364D2*
X-8214326D1*
Y2433362D1*
X-8248322D1*
Y2417364D1*
G37*
G36*
X-8247075Y2442493D2*
X-8215573D1*
Y2458226D1*
X-8247075D1*
Y2442493D1*
G37*
X-6854974Y1296297D2*
D43*
Y1262281D1*
X-6883002D2*
Y1296297D1*
G36*
X-6851990Y1262291D2*
X-6885986D1*
Y1246293D1*
X-6851990D1*
Y1262291D1*
G37*
G36*
Y1312284D2*
X-6885986D1*
Y1296286D1*
X-6851990D1*
Y1312284D1*
G37*
G36*
X-6853237Y1287155D2*
X-6884739D1*
Y1271423D1*
X-6853237D1*
Y1287155D1*
G37*
X-7797545Y3289177D2*
D43*
X-7763529D1*
Y3261149D2*
X-7797545D1*
G36*
X-7763540Y3292161D2*
X-7747541D1*
Y3258165D1*
X-7763540D1*
Y3292161D1*
G37*
G36*
X-7813532D2*
X-7797534D1*
Y3258165D1*
X-7813532D1*
Y3292161D1*
G37*
G36*
X-7788403Y3290914D2*
X-7772671D1*
Y3259412D1*
X-7788403D1*
Y3290914D1*
G37*
X-7302768Y440471D2*
D43*
X-7336783D1*
Y468500D2*
X-7302768D1*
G36*
X-7336773Y437488D2*
X-7352771D1*
Y471484D1*
X-7336773D1*
Y437488D1*
G37*
G36*
X-7286780D2*
X-7302778D1*
Y471484D1*
X-7286780D1*
Y437488D1*
G37*
G36*
X-7311909Y438735D2*
X-7327642D1*
Y470236D1*
X-7311909D1*
Y438735D1*
G37*
X-7246364Y3304925D2*
D43*
X-7212348D1*
Y3276897D2*
X-7246364D1*
G36*
X-7212358Y3307909D2*
X-7196360D1*
Y3273913D1*
X-7212358D1*
Y3307909D1*
G37*
G36*
X-7262351D2*
X-7246353D1*
Y3273913D1*
X-7262351D1*
Y3307909D1*
G37*
G36*
X-7237222Y3306662D2*
X-7221490D1*
Y3275160D1*
X-7237222D1*
Y3306662D1*
G37*
X-7853949Y424723D2*
D43*
X-7887965D1*
Y452752D2*
X-7853949D1*
G36*
X-7887954Y421740D2*
X-7903952D1*
Y455736D1*
X-7887954D1*
Y421740D1*
G37*
G36*
X-7837961D2*
X-7853959D1*
Y455736D1*
X-7837961D1*
Y421740D1*
G37*
G36*
X-7863091Y422987D2*
X-7878823D1*
Y454488D1*
X-7863091D1*
Y422987D1*
G37*
X-7905261Y3355637D2*
D43*
X-7939277D1*
Y3383665D2*
X-7905261D1*
G36*
X-7939266Y3352653D2*
X-7955264D1*
Y3386649D1*
X-7939266D1*
Y3352653D1*
G37*
G36*
X-7889274D2*
X-7905272D1*
Y3386649D1*
X-7889274D1*
Y3352653D1*
G37*
G36*
X-7914403Y3353900D2*
X-7930135D1*
Y3385402D1*
X-7914403D1*
Y3353900D1*
G37*
X-6886851Y423869D2*
D43*
X-6910907Y399813D1*
X-6930732Y419638D2*
X-6906676Y443694D1*
G36*
X-6908791Y397718D2*
X-6920100Y386399D1*
X-6944145Y410445D1*
X-6932826Y421753D1*
X-6908791Y397718D1*
G37*
G36*
X-6873437Y433062D2*
X-6884756Y421753D1*
X-6908791Y445788D1*
X-6897483Y457107D1*
X-6873437Y433062D1*
G37*
G36*
X-6892088Y416178D2*
X-6903216Y405049D1*
X-6925495Y427328D1*
X-6914366Y438457D1*
X-6892088Y416178D1*
G37*
X-6931877Y2929966D2*
D43*
Y2895950D1*
X-6959905D2*
Y2929966D1*
G36*
X-6928893Y2895961D2*
X-6962889D1*
Y2879963D1*
X-6928893D1*
Y2895961D1*
G37*
G36*
Y2945953D2*
X-6962889D1*
Y2929955D1*
X-6928893D1*
Y2945953D1*
G37*
G36*
X-6930140Y2920824D2*
X-6961642D1*
Y2905092D1*
X-6930140D1*
Y2920824D1*
G37*
X-8168435Y799682D2*
D43*
Y833698D1*
X-8140407D2*
Y799682D1*
G36*
X-8171419Y833688D2*
X-8137423D1*
Y849686D1*
X-8171419D1*
Y833688D1*
G37*
G36*
Y783695D2*
X-8137423D1*
Y799693D1*
X-8171419D1*
Y783695D1*
G37*
G36*
X-8170172Y808824D2*
X-8138670D1*
Y824556D1*
X-8170172D1*
Y808824D1*
G37*
X-5090786Y2957993D2*
D43*
Y2992009D1*
X-5062757D2*
Y2957993D1*
G36*
X-5093770Y2991999D2*
X-5059774D1*
Y3007997D1*
X-5093770D1*
Y2991999D1*
G37*
G36*
Y2942006D2*
X-5059774D1*
Y2958004D1*
X-5093770D1*
Y2942006D1*
G37*
G36*
X-5092522Y2967135D2*
X-5061021D1*
Y2982867D1*
X-5092522D1*
Y2967135D1*
G37*
X-3692361Y2914835D2*
D43*
Y2948850D1*
X-3664332D2*
Y2914835D1*
G36*
X-3695344Y2948840D2*
X-3661348D1*
Y2964838D1*
X-3695344D1*
Y2948840D1*
G37*
G36*
Y2898847D2*
X-3661348D1*
Y2914845D1*
X-3695344D1*
Y2898847D1*
G37*
G36*
X-3694097Y2923976D2*
X-3662596D1*
Y2939709D1*
X-3694097D1*
Y2923976D1*
G37*
X-4362757Y2798259D2*
D43*
Y2764243D1*
X-4390786D2*
Y2798259D1*
G36*
X-4359774Y2764253D2*
X-4393770D1*
Y2748255D1*
X-4359774D1*
Y2764253D1*
G37*
G36*
Y2814246D2*
X-4393770D1*
Y2798248D1*
X-4359774D1*
Y2814246D1*
G37*
G36*
X-4361021Y2789117D2*
X-4392522D1*
Y2773385D1*
X-4361021D1*
Y2789117D1*
G37*
X-2584535Y2945495D2*
D43*
Y2979510D1*
X-2556507D2*
Y2945495D1*
G36*
X-2587519Y2979500D2*
X-2553523D1*
Y2995498D1*
X-2587519D1*
Y2979500D1*
G37*
G36*
Y2929507D2*
X-2553523D1*
Y2945505D1*
X-2587519D1*
Y2929507D1*
G37*
G36*
X-2586272Y2954636D2*
X-2554770D1*
Y2970369D1*
X-2586272D1*
Y2954636D1*
G37*
X-6384535Y2932992D2*
D43*
Y2967008D1*
X-6356507D2*
Y2932992D1*
G36*
X-6387519Y2966997D2*
X-6353523D1*
Y2982995D1*
X-6387519D1*
Y2966997D1*
G37*
G36*
Y2917005D2*
X-6353523D1*
Y2933003D1*
X-6387519D1*
Y2917005D1*
G37*
G36*
X-6386272Y2942134D2*
X-6354770D1*
Y2957866D1*
X-6386272D1*
Y2942134D1*
G37*
X-5631507Y2779509D2*
D43*
Y2745493D1*
X-5659535D2*
Y2779509D1*
G36*
X-5628523Y2745504D2*
X-5662519D1*
Y2729506D1*
X-5628523D1*
Y2745504D1*
G37*
G36*
Y2795497D2*
X-5662519D1*
Y2779499D1*
X-5628523D1*
Y2795497D1*
G37*
G36*
X-5629770Y2770367D2*
X-5661272D1*
Y2754635D1*
X-5629770D1*
Y2770367D1*
G37*
X-1077892Y3095493D2*
D43*
Y3129509D1*
X-1049864D2*
Y3095493D1*
G36*
X-1080876Y3129499D2*
X-1046880D1*
Y3145497D1*
X-1080876D1*
Y3129499D1*
G37*
G36*
Y3079506D2*
X-1046880D1*
Y3095504D1*
X-1080876D1*
Y3079506D1*
G37*
G36*
X-1079629Y3104635D2*
X-1048127D1*
Y3120367D1*
X-1079629D1*
Y3104635D1*
G37*
X-5137757Y2992009D2*
D43*
Y2957993D1*
X-5165786D2*
Y2992009D1*
G36*
X-5134774Y2958004D2*
X-5168770D1*
Y2942006D1*
X-5134774D1*
Y2958004D1*
G37*
G36*
Y3007997D2*
X-5168770D1*
Y2991999D1*
X-5134774D1*
Y3007997D1*
G37*
G36*
X-5136021Y2982867D2*
X-5167522D1*
Y2967135D1*
X-5136021D1*
Y2982867D1*
G37*
X-3739332Y2948850D2*
D43*
Y2914835D1*
X-3767361D2*
Y2948850D1*
G36*
X-3736348Y2914845D2*
X-3770344D1*
Y2898847D1*
X-3736348D1*
Y2914845D1*
G37*
G36*
Y2964838D2*
X-3770344D1*
Y2948840D1*
X-3736348D1*
Y2964838D1*
G37*
G36*
X-3737596Y2939709D2*
X-3769097D1*
Y2923976D1*
X-3737596D1*
Y2939709D1*
G37*
X-4315786Y2764243D2*
D43*
Y2798259D1*
X-4287757D2*
Y2764243D1*
G36*
X-4318770Y2798248D2*
X-4284774D1*
Y2814246D1*
X-4318770D1*
Y2798248D1*
G37*
G36*
Y2748255D2*
X-4284774D1*
Y2764253D1*
X-4318770D1*
Y2748255D1*
G37*
G36*
X-4317522Y2773385D2*
X-4286021D1*
Y2789117D1*
X-4317522D1*
Y2773385D1*
G37*
X-2631508Y2979510D2*
D43*
Y2945495D1*
X-2659536D2*
Y2979510D1*
G36*
X-2628524Y2945505D2*
X-2662520D1*
Y2929507D1*
X-2628524D1*
Y2945505D1*
G37*
G36*
Y2995498D2*
X-2662520D1*
Y2979500D1*
X-2628524D1*
Y2995498D1*
G37*
G36*
X-2629772Y2970369D2*
X-2661273D1*
Y2954636D1*
X-2629772D1*
Y2970369D1*
G37*
X-6431507Y2967008D2*
D43*
Y2932992D1*
X-6459535D2*
Y2967008D1*
G36*
X-6428523Y2933003D2*
X-6462519D1*
Y2917005D1*
X-6428523D1*
Y2933003D1*
G37*
G36*
Y2982995D2*
X-6462519D1*
Y2966997D1*
X-6428523D1*
Y2982995D1*
G37*
G36*
X-6429770Y2957866D2*
X-6461272D1*
Y2942134D1*
X-6429770D1*
Y2957866D1*
G37*
X-5584536Y2745493D2*
D43*
Y2779509D1*
X-5556508D2*
Y2745493D1*
G36*
X-5587520Y2779499D2*
X-5553524D1*
Y2795497D1*
X-5587520D1*
Y2779499D1*
G37*
G36*
Y2729506D2*
X-5553524D1*
Y2745504D1*
X-5587520D1*
Y2729506D1*
G37*
G36*
X-5586273Y2754635D2*
X-5554772D1*
Y2770367D1*
X-5586273D1*
Y2754635D1*
G37*
X-1124864Y3129509D2*
D43*
Y3095493D1*
X-1152892D2*
Y3129509D1*
G36*
X-1121880Y3095504D2*
X-1155876D1*
Y3079506D1*
X-1121880D1*
Y3095504D1*
G37*
G36*
Y3145497D2*
X-1155876D1*
Y3129499D1*
X-1121880D1*
Y3145497D1*
G37*
G36*
X-1123127Y3120367D2*
X-1154629D1*
Y3104635D1*
X-1123127D1*
Y3120367D1*
G37*
X-5062757Y3142009D2*
D43*
Y3107993D1*
X-5090786D2*
Y3142009D1*
G36*
X-5059774Y3108004D2*
X-5093770D1*
Y3092006D1*
X-5059774D1*
Y3108004D1*
G37*
G36*
Y3157997D2*
X-5093770D1*
Y3141999D1*
X-5059774D1*
Y3157997D1*
G37*
G36*
X-5061021Y3132867D2*
X-5092522D1*
Y3117135D1*
X-5061021D1*
Y3132867D1*
G37*
X-3664332Y3117600D2*
D43*
Y3083584D1*
X-3692361D2*
Y3117600D1*
G36*
X-3661348Y3083595D2*
X-3695344D1*
Y3067597D1*
X-3661348D1*
Y3083595D1*
G37*
G36*
Y3133587D2*
X-3695344D1*
Y3117589D1*
X-3661348D1*
Y3133587D1*
G37*
G36*
X-3662596Y3108458D2*
X-3694097D1*
Y3092726D1*
X-3662596D1*
Y3108458D1*
G37*
X-4390786Y2614243D2*
D43*
Y2648259D1*
X-4362757D2*
Y2614243D1*
G36*
X-4393770Y2648248D2*
X-4359774D1*
Y2664246D1*
X-4393770D1*
Y2648248D1*
G37*
G36*
Y2598255D2*
X-4359774D1*
Y2614253D1*
X-4393770D1*
Y2598255D1*
G37*
G36*
X-4392522Y2623385D2*
X-4361021D1*
Y2639117D1*
X-4392522D1*
Y2623385D1*
G37*
X-2556507Y3129510D2*
D43*
Y3095495D1*
X-2584535D2*
Y3129510D1*
G36*
X-2553523Y3095505D2*
X-2587519D1*
Y3079507D1*
X-2553523D1*
Y3095505D1*
G37*
G36*
Y3145498D2*
X-2587519D1*
Y3129500D1*
X-2553523D1*
Y3145498D1*
G37*
G36*
X-2554770Y3120369D2*
X-2586272D1*
Y3104636D1*
X-2554770D1*
Y3120369D1*
G37*
X-6356507Y3117008D2*
D43*
Y3082992D1*
X-6384535D2*
Y3117008D1*
G36*
X-6353523Y3083003D2*
X-6387519D1*
Y3067005D1*
X-6353523D1*
Y3083003D1*
G37*
G36*
Y3132995D2*
X-6387519D1*
Y3116997D1*
X-6353523D1*
Y3132995D1*
G37*
G36*
X-6354770Y3107866D2*
X-6386272D1*
Y3092134D1*
X-6354770D1*
Y3107866D1*
G37*
X-5659535Y2595493D2*
D43*
Y2629509D1*
X-5631507D2*
Y2595493D1*
G36*
X-5662519Y2629499D2*
X-5628523D1*
Y2645497D1*
X-5662519D1*
Y2629499D1*
G37*
G36*
Y2579506D2*
X-5628523D1*
Y2595504D1*
X-5662519D1*
Y2579506D1*
G37*
G36*
X-5661272Y2604635D2*
X-5629770D1*
Y2620367D1*
X-5661272D1*
Y2604635D1*
G37*
X-1049864Y3292009D2*
D43*
Y3257993D1*
X-1077892D2*
Y3292009D1*
G36*
X-1046880Y3258004D2*
X-1080876D1*
Y3242006D1*
X-1046880D1*
Y3258004D1*
G37*
G36*
Y3307997D2*
X-1080876D1*
Y3291999D1*
X-1046880D1*
Y3307997D1*
G37*
G36*
X-1048127Y3282867D2*
X-1079629D1*
Y3267135D1*
X-1048127D1*
Y3282867D1*
G37*
X-6184536Y3762029D2*
D43*
Y3796045D1*
X-6156508D2*
Y3762029D1*
G36*
X-6187520Y3796034D2*
X-6153524D1*
Y3812032D1*
X-6187520D1*
Y3796034D1*
G37*
G36*
Y3746041D2*
X-6153524D1*
Y3762040D1*
X-6187520D1*
Y3746041D1*
G37*
G36*
X-6186273Y3771171D2*
X-6154772D1*
Y3786903D1*
X-6186273D1*
Y3771171D1*
G37*
X-5559538Y3762029D2*
D43*
Y3796045D1*
X-5531509D2*
Y3762029D1*
G36*
X-5562522Y3796034D2*
X-5528526D1*
Y3812032D1*
X-5562522D1*
Y3796034D1*
G37*
G36*
Y3746041D2*
X-5528526D1*
Y3762040D1*
X-5562522D1*
Y3746041D1*
G37*
G36*
X-5561274Y3771171D2*
X-5529773D1*
Y3786903D1*
X-5561274D1*
Y3771171D1*
G37*
X-4932321Y3770495D2*
D43*
Y3804510D1*
X-4904293D2*
Y3770495D1*
G36*
X-4935305Y3804500D2*
X-4901309D1*
Y3820498D1*
X-4935305D1*
Y3804500D1*
G37*
G36*
Y3754507D2*
X-4901309D1*
Y3770505D1*
X-4935305D1*
Y3754507D1*
G37*
G36*
X-4934058Y3779636D2*
X-4902556D1*
Y3795369D1*
X-4934058D1*
Y3779636D1*
G37*
X-4309538Y3774529D2*
D43*
Y3808545D1*
X-4281509D2*
Y3774529D1*
G36*
X-4312522Y3808534D2*
X-4278526D1*
Y3824532D1*
X-4312522D1*
Y3808534D1*
G37*
G36*
Y3758541D2*
X-4278526D1*
Y3774540D1*
X-4312522D1*
Y3758541D1*
G37*
G36*
X-4311274Y3783671D2*
X-4279773D1*
Y3799403D1*
X-4311274D1*
Y3783671D1*
G37*
X-3684538Y3774529D2*
D43*
Y3808545D1*
X-3656509D2*
Y3774529D1*
G36*
X-3687522Y3808534D2*
X-3653526D1*
Y3824532D1*
X-3687522D1*
Y3808534D1*
G37*
G36*
Y3758541D2*
X-3653526D1*
Y3774540D1*
X-3687522D1*
Y3758541D1*
G37*
G36*
X-3686274Y3783671D2*
X-3654773D1*
Y3799403D1*
X-3686274D1*
Y3783671D1*
G37*
X-3057321Y3764244D2*
D43*
Y3798260D1*
X-3029293D2*
Y3764244D1*
G36*
X-3060305Y3798249D2*
X-3026309D1*
Y3814247D1*
X-3060305D1*
Y3798249D1*
G37*
G36*
Y3748257D2*
X-3026309D1*
Y3764255D1*
X-3060305D1*
Y3748257D1*
G37*
G36*
X-3059058Y3773386D2*
X-3027556D1*
Y3789118D1*
X-3059058D1*
Y3773386D1*
G37*
X-2434536Y3762029D2*
D43*
Y3796045D1*
X-2406508D2*
Y3762029D1*
G36*
X-2437520Y3796034D2*
X-2403524D1*
Y3812032D1*
X-2437520D1*
Y3796034D1*
G37*
G36*
Y3746041D2*
X-2403524D1*
Y3762040D1*
X-2437520D1*
Y3746041D1*
G37*
G36*
X-2436273Y3771171D2*
X-2404772D1*
Y3786903D1*
X-2436273D1*
Y3771171D1*
G37*
X-1797035Y4485209D2*
D43*
Y4519224D1*
X-1769007D2*
Y4485209D1*
G36*
X-1800019Y4519214D2*
X-1766023D1*
Y4535212D1*
X-1800019D1*
Y4519214D1*
G37*
G36*
Y4469221D2*
X-1766023D1*
Y4485219D1*
X-1800019D1*
Y4469221D1*
G37*
G36*
X-1798772Y4494350D2*
X-1767270D1*
Y4510083D1*
X-1798772D1*
Y4494350D1*
G37*
X-134764Y4306952D2*
D43*
X-168780D1*
Y4334980D2*
X-134764D1*
G36*
X-168769Y4303968D2*
X-184767D1*
Y4337964D1*
X-168769D1*
Y4303968D1*
G37*
G36*
X-118776D2*
X-134774D1*
Y4337964D1*
X-118776D1*
Y4303968D1*
G37*
G36*
X-143906Y4305215D2*
X-159638D1*
Y4336717D1*
X-143906D1*
Y4305215D1*
G37*
X-6199250Y3289243D2*
D43*
Y3323259D1*
X-6171222D2*
Y3289243D1*
G36*
X-6202234Y3323248D2*
X-6168238D1*
Y3339246D1*
X-6202234D1*
Y3323248D1*
G37*
G36*
Y3273255D2*
X-6168238D1*
Y3289253D1*
X-6202234D1*
Y3273255D1*
G37*
G36*
X-6200987Y3298385D2*
X-6169485D1*
Y3314117D1*
X-6200987D1*
Y3298385D1*
G37*
X-5574252Y3289243D2*
D43*
Y3323259D1*
X-5546223D2*
Y3289243D1*
G36*
X-5577236Y3323248D2*
X-5543240D1*
Y3339246D1*
X-5577236D1*
Y3323248D1*
G37*
G36*
Y3273255D2*
X-5543240D1*
Y3289253D1*
X-5577236D1*
Y3273255D1*
G37*
G36*
X-5575988Y3298385D2*
X-5544487D1*
Y3314117D1*
X-5575988D1*
Y3298385D1*
G37*
X-4947035Y3297709D2*
D43*
Y3331724D1*
X-4919007D2*
Y3297709D1*
G36*
X-4950019Y3331714D2*
X-4916023D1*
Y3347712D1*
X-4950019D1*
Y3331714D1*
G37*
G36*
Y3281721D2*
X-4916023D1*
Y3297719D1*
X-4950019D1*
Y3281721D1*
G37*
G36*
X-4948772Y3306850D2*
X-4917270D1*
Y3322583D1*
X-4948772D1*
Y3306850D1*
G37*
X-4324250Y3301743D2*
D43*
Y3335759D1*
X-4296222D2*
Y3301743D1*
G36*
X-4327234Y3335748D2*
X-4293238D1*
Y3351746D1*
X-4327234D1*
Y3335748D1*
G37*
G36*
Y3285755D2*
X-4293238D1*
Y3301753D1*
X-4327234D1*
Y3285755D1*
G37*
G36*
X-4325987Y3310885D2*
X-4294485D1*
Y3326617D1*
X-4325987D1*
Y3310885D1*
G37*
X-3699250Y3301743D2*
D43*
Y3335759D1*
X-3671222D2*
Y3301743D1*
G36*
X-3702234Y3335748D2*
X-3668238D1*
Y3351746D1*
X-3702234D1*
Y3335748D1*
G37*
G36*
Y3285755D2*
X-3668238D1*
Y3301753D1*
X-3702234D1*
Y3285755D1*
G37*
G36*
X-3700987Y3310885D2*
X-3669485D1*
Y3326617D1*
X-3700987D1*
Y3310885D1*
G37*
X-3072035Y3291458D2*
D43*
Y3325474D1*
X-3044007D2*
Y3291458D1*
G36*
X-3075019Y3325463D2*
X-3041023D1*
Y3341461D1*
X-3075019D1*
Y3325463D1*
G37*
G36*
Y3275471D2*
X-3041023D1*
Y3291469D1*
X-3075019D1*
Y3275471D1*
G37*
G36*
X-3073772Y3300600D2*
X-3042270D1*
Y3316332D1*
X-3073772D1*
Y3300600D1*
G37*
X-2449250Y3289243D2*
D43*
Y3323259D1*
X-2421222D2*
Y3289243D1*
G36*
X-2452234Y3323248D2*
X-2418238D1*
Y3339246D1*
X-2452234D1*
Y3323248D1*
G37*
G36*
Y3273255D2*
X-2418238D1*
Y3289253D1*
X-2452234D1*
Y3273255D1*
G37*
G36*
X-2450987Y3298385D2*
X-2419485D1*
Y3314117D1*
X-2450987D1*
Y3298385D1*
G37*
X-1854066Y4164015D2*
D43*
X-1820050D1*
Y4135987D2*
X-1854066D1*
G36*
X-1820060Y4166999D2*
X-1804062D1*
Y4133003D1*
X-1820060D1*
Y4166999D1*
G37*
G36*
X-1870053D2*
X-1854055D1*
Y4133003D1*
X-1870053D1*
Y4166999D1*
G37*
G36*
X-1844924Y4165752D2*
X-1829192D1*
Y4134251D1*
X-1844924D1*
Y4165752D1*
G37*
X-772815Y4170266D2*
D43*
X-738799D1*
Y4142238D2*
X-772815D1*
G36*
X-738810Y4173250D2*
X-722812D1*
Y4139254D1*
X-738810D1*
Y4173250D1*
G37*
G36*
X-788802D2*
X-772804D1*
Y4139254D1*
X-788802D1*
Y4173250D1*
G37*
G36*
X-763673Y4172003D2*
X-747941D1*
Y4140501D1*
X-763673D1*
Y4172003D1*
G37*
X-5165786Y3107993D2*
D43*
Y3142009D1*
X-5137757D2*
Y3107993D1*
G36*
X-5168770Y3141999D2*
X-5134774D1*
Y3157997D1*
X-5168770D1*
Y3141999D1*
G37*
G36*
Y3092006D2*
X-5134774D1*
Y3108004D1*
X-5168770D1*
Y3092006D1*
G37*
G36*
X-5167522Y3117135D2*
X-5136021D1*
Y3132867D1*
X-5167522D1*
Y3117135D1*
G37*
X-3767361Y3083584D2*
D43*
Y3117600D1*
X-3739332D2*
Y3083584D1*
G36*
X-3770344Y3117589D2*
X-3736348D1*
Y3133587D1*
X-3770344D1*
Y3117589D1*
G37*
G36*
Y3067597D2*
X-3736348D1*
Y3083595D1*
X-3770344D1*
Y3067597D1*
G37*
G36*
X-3769097Y3092726D2*
X-3737596D1*
Y3108458D1*
X-3769097D1*
Y3092726D1*
G37*
X-4287757Y2648259D2*
D43*
Y2614243D1*
X-4315786D2*
Y2648259D1*
G36*
X-4284774Y2614253D2*
X-4318770D1*
Y2598255D1*
X-4284774D1*
Y2614253D1*
G37*
G36*
Y2664246D2*
X-4318770D1*
Y2648248D1*
X-4284774D1*
Y2664246D1*
G37*
G36*
X-4286021Y2639117D2*
X-4317522D1*
Y2623385D1*
X-4286021D1*
Y2639117D1*
G37*
X-2659536Y3095495D2*
D43*
Y3129510D1*
X-2631508D2*
Y3095495D1*
G36*
X-2662520Y3129500D2*
X-2628524D1*
Y3145498D1*
X-2662520D1*
Y3129500D1*
G37*
G36*
Y3079507D2*
X-2628524D1*
Y3095505D1*
X-2662520D1*
Y3079507D1*
G37*
G36*
X-2661273Y3104636D2*
X-2629772D1*
Y3120369D1*
X-2661273D1*
Y3104636D1*
G37*
X-6459535Y3082992D2*
D43*
Y3117008D1*
X-6431507D2*
Y3082992D1*
G36*
X-6462519Y3116997D2*
X-6428523D1*
Y3132995D1*
X-6462519D1*
Y3116997D1*
G37*
G36*
Y3067005D2*
X-6428523D1*
Y3083003D1*
X-6462519D1*
Y3067005D1*
G37*
G36*
X-6461272Y3092134D2*
X-6429770D1*
Y3107866D1*
X-6461272D1*
Y3092134D1*
G37*
X-5584536Y2595493D2*
D43*
Y2629509D1*
X-5556508D2*
Y2595493D1*
G36*
X-5587520Y2629499D2*
X-5553524D1*
Y2645497D1*
X-5587520D1*
Y2629499D1*
G37*
G36*
Y2579506D2*
X-5553524D1*
Y2595504D1*
X-5587520D1*
Y2579506D1*
G37*
G36*
X-5586273Y2604635D2*
X-5554772D1*
Y2620367D1*
X-5586273D1*
Y2604635D1*
G37*
X-1152892Y3257993D2*
D43*
Y3292009D1*
X-1124864D2*
Y3257993D1*
G36*
X-1155876Y3291999D2*
X-1121880D1*
Y3307997D1*
X-1155876D1*
Y3291999D1*
G37*
G36*
Y3242006D2*
X-1121880D1*
Y3258004D1*
X-1155876D1*
Y3242006D1*
G37*
G36*
X-1154629Y3267135D2*
X-1123127D1*
Y3282867D1*
X-1154629D1*
Y3267135D1*
G37*
X-4662757Y3179509D2*
D43*
Y3145493D1*
X-4690786D2*
Y3179509D1*
G36*
X-4659774Y3145504D2*
X-4693770D1*
Y3129506D1*
X-4659774D1*
Y3145504D1*
G37*
G36*
Y3195497D2*
X-4693770D1*
Y3179499D1*
X-4659774D1*
Y3195497D1*
G37*
G36*
X-4661021Y3170367D2*
X-4692522D1*
Y3154635D1*
X-4661021D1*
Y3170367D1*
G37*
X-3447559Y3133625D2*
D43*
X-3481575D1*
Y3161653D2*
X-3447559D1*
G36*
X-3481564Y3130641D2*
X-3497562D1*
Y3164637D1*
X-3481564D1*
Y3130641D1*
G37*
G36*
X-3431572D2*
X-3447570D1*
Y3164637D1*
X-3431572D1*
Y3130641D1*
G37*
G36*
X-3456701Y3131888D2*
X-3472433D1*
Y3163390D1*
X-3456701D1*
Y3131888D1*
G37*
X-4790786Y2576741D2*
D43*
Y2610757D1*
X-4762757D2*
Y2576741D1*
G36*
X-4793770Y2610747D2*
X-4759774D1*
Y2626745D1*
X-4793770D1*
Y2610747D1*
G37*
G36*
Y2560754D2*
X-4759774D1*
Y2576752D1*
X-4793770D1*
Y2560754D1*
G37*
G36*
X-4792522Y2585883D2*
X-4761021D1*
Y2601615D1*
X-4792522D1*
Y2585883D1*
G37*
X-2156507Y3167009D2*
D43*
Y3132993D1*
X-2184535D2*
Y3167009D1*
G36*
X-2153523Y3133004D2*
X-2187519D1*
Y3117006D1*
X-2153523D1*
Y3133004D1*
G37*
G36*
Y3182997D2*
X-2187519D1*
Y3166999D1*
X-2153523D1*
Y3182997D1*
G37*
G36*
X-2154770Y3157867D2*
X-2186272D1*
Y3142135D1*
X-2154770D1*
Y3157867D1*
G37*
X-5956507Y3154509D2*
D43*
Y3120493D1*
X-5984535D2*
Y3154509D1*
G36*
X-5953523Y3120504D2*
X-5987519D1*
Y3104506D1*
X-5953523D1*
Y3120504D1*
G37*
G36*
Y3170497D2*
X-5987519D1*
Y3154499D1*
X-5953523D1*
Y3170497D1*
G37*
G36*
X-5954770Y3145367D2*
X-5986272D1*
Y3129635D1*
X-5954770D1*
Y3145367D1*
G37*
X-6059535Y2557993D2*
D43*
Y2592009D1*
X-6031507D2*
Y2557993D1*
G36*
X-6062519Y2591999D2*
X-6028523D1*
Y2607997D1*
X-6062519D1*
Y2591999D1*
G37*
G36*
Y2542006D2*
X-6028523D1*
Y2558004D1*
X-6062519D1*
Y2542006D1*
G37*
G36*
X-6061272Y2567135D2*
X-6029770D1*
Y2582867D1*
X-6061272D1*
Y2567135D1*
G37*
X-649864Y3317009D2*
D43*
Y3282993D1*
X-677892D2*
Y3317009D1*
G36*
X-646880Y3283004D2*
X-680876D1*
Y3267006D1*
X-646880D1*
Y3283004D1*
G37*
G36*
Y3332997D2*
X-680876D1*
Y3316999D1*
X-646880D1*
Y3332997D1*
G37*
G36*
X-648127Y3307867D2*
X-679629D1*
Y3292135D1*
X-648127D1*
Y3307867D1*
G37*
X-4615786Y3145493D2*
D43*
Y3179509D1*
X-4587757D2*
Y3145493D1*
G36*
X-4618770Y3179499D2*
X-4584774D1*
Y3195497D1*
X-4618770D1*
Y3179499D1*
G37*
G36*
Y3129506D2*
X-4584774D1*
Y3145504D1*
X-4618770D1*
Y3129506D1*
G37*
G36*
X-4617522Y3154635D2*
X-4586021D1*
Y3170367D1*
X-4617522D1*
Y3154635D1*
G37*
X-3602597Y3156222D2*
D43*
Y3190238D1*
X-3574569D2*
Y3156222D1*
G36*
X-3605581Y3190227D2*
X-3571585D1*
Y3206225D1*
X-3605581D1*
Y3190227D1*
G37*
G36*
Y3140234D2*
X-3571585D1*
Y3156232D1*
X-3605581D1*
Y3140234D1*
G37*
G36*
X-3604333Y3165364D2*
X-3572832D1*
Y3181096D1*
X-3604333D1*
Y3165364D1*
G37*
X-4837757Y2610757D2*
D43*
Y2576741D1*
X-4865786D2*
Y2610757D1*
G36*
X-4834774Y2576752D2*
X-4868770D1*
Y2560754D1*
X-4834774D1*
Y2576752D1*
G37*
G36*
Y2626745D2*
X-4868770D1*
Y2610747D1*
X-4834774D1*
Y2626745D1*
G37*
G36*
X-4836021Y2601615D2*
X-4867522D1*
Y2585883D1*
X-4836021D1*
Y2601615D1*
G37*
X-2109535Y3132993D2*
D43*
Y3167009D1*
X-2081507D2*
Y3132993D1*
G36*
X-2112519Y3166999D2*
X-2078523D1*
Y3182997D1*
X-2112519D1*
Y3166999D1*
G37*
G36*
Y3117006D2*
X-2078523D1*
Y3133004D1*
X-2112519D1*
Y3117006D1*
G37*
G36*
X-2111272Y3142135D2*
X-2079770D1*
Y3157867D1*
X-2111272D1*
Y3142135D1*
G37*
X-5909536Y3120493D2*
D43*
Y3154509D1*
X-5881508D2*
Y3120493D1*
G36*
X-5912520Y3154499D2*
X-5878524D1*
Y3170497D1*
X-5912520D1*
Y3154499D1*
G37*
G36*
Y3104506D2*
X-5878524D1*
Y3120504D1*
X-5912520D1*
Y3104506D1*
G37*
G36*
X-5911273Y3129635D2*
X-5879772D1*
Y3145367D1*
X-5911273D1*
Y3129635D1*
G37*
X-6106507Y2592009D2*
D43*
Y2557993D1*
X-6134535D2*
Y2592009D1*
G36*
X-6103523Y2558004D2*
X-6137519D1*
Y2542006D1*
X-6103523D1*
Y2558004D1*
G37*
G36*
Y2607997D2*
X-6137519D1*
Y2591999D1*
X-6103523D1*
Y2607997D1*
G37*
G36*
X-6104770Y2582867D2*
X-6136272D1*
Y2567135D1*
X-6104770D1*
Y2582867D1*
G37*
X-602892Y3282993D2*
D43*
Y3317009D1*
X-574864D2*
Y3282993D1*
G36*
X-605876Y3316999D2*
X-571880D1*
Y3332997D1*
X-605876D1*
Y3316999D1*
G37*
G36*
Y3267006D2*
X-571880D1*
Y3283004D1*
X-605876D1*
Y3267006D1*
G37*
G36*
X-604629Y3292135D2*
X-573127D1*
Y3307867D1*
X-604629D1*
Y3292135D1*
G37*
X-7930389Y2060489D2*
D43*
X-7906333Y2084545D1*
X-7886509Y2064721D2*
X-7910565Y2040665D1*
G36*
X-7908449Y2086640D2*
X-7897140Y2097959D1*
X-7873095Y2073914D1*
X-7884414Y2062605D1*
X-7908449Y2086640D1*
G37*
G36*
X-7943803Y2051296D2*
X-7932484Y2062605D1*
X-7908449Y2038570D1*
X-7919757Y2027251D1*
X-7943803Y2051296D1*
G37*
G36*
X-7925153Y2068180D2*
X-7914024Y2079309D1*
X-7891745Y2057030D1*
X-7902874Y2045901D1*
X-7925153Y2068180D1*
G37*
X-7169923Y1669159D2*
D43*
X-7193979Y1645103D1*
X-7213804Y1664928D2*
X-7189748Y1688984D1*
G36*
X-7191864Y1643008D2*
X-7203172Y1631689D1*
X-7227218Y1655735D1*
X-7215898Y1667043D1*
X-7191864Y1643008D1*
G37*
G36*
X-7156509Y1678352D2*
X-7167829Y1667043D1*
X-7191864Y1691078D1*
X-7180555Y1702397D1*
X-7156509Y1678352D1*
G37*
G36*
X-7175160Y1661468D2*
X-7186289Y1650339D1*
X-7208567Y1672618D1*
X-7197439Y1683747D1*
X-7175160Y1661468D1*
G37*
X-87232Y964346D2*
D15*
X-579646D1*
Y432898D1*
X-87232D1*
Y964346D1*
X-405982Y2901848D2*
X-898395D1*
Y2370399D1*
X-405982D1*
Y2901848D1*
X-8346457Y1D2*
D11*
X-39370D1*
G03X0Y39371I-1J39371D01*
G01*
Y5019686D1*
G03X-39370Y5059056I-39371J-1D01*
G01*
X-8346457D1*
G03X-8385827Y5019686I1J-39371D01*
G01*
Y39371D1*
G03X-8346457Y1I39371J1D01*
G01*
X-7912293Y121398D2*
X-7912387Y117675D1*
X-7912667Y114007D1*
X-7913127Y110400D1*
X-7913762Y106864D1*
X-7914568Y103402D1*
X-7915538Y100021D1*
X-7916668Y96726D1*
X-7917953Y93524D1*
X-7919386Y90421D1*
X-7920965Y87424D1*
X-7922681Y84538D1*
X-7924531Y81769D1*
X-7926510Y79123D1*
X-7928613Y76608D1*
X-7930833Y74227D1*
X-7933167Y71990D1*
X-7935609Y69899D1*
X-7938154Y67962D1*
X-7940795Y66186D1*
X-7943529Y64576D1*
X-7946350Y63138D1*
X-7949253Y61878D1*
X-7952234Y60803D1*
X-7955285Y59920D1*
X-7958403Y59232D1*
X-7961583Y58748D1*
X-7963734Y58541D1*
X-7965908Y58428D1*
X-8134265D1*
X-8136440Y58541D1*
X-8138591Y58748D1*
X-8141770Y59232D1*
X-8144888Y59920D1*
X-8147941Y60803D1*
X-8150921Y61878D1*
X-8153824Y63138D1*
X-8156646Y64576D1*
X-8159379Y66186D1*
X-8162022Y67962D1*
X-8164566Y69899D1*
X-8167008Y71990D1*
X-8169341Y74227D1*
X-8171562Y76608D1*
X-8173664Y79123D1*
X-8175643Y81769D1*
X-8177495Y84538D1*
X-8179211Y87424D1*
X-8180789Y90421D1*
X-8182222Y93524D1*
X-8183507Y96726D1*
X-8184636Y100021D1*
X-8185606Y103402D1*
X-8186412Y106864D1*
X-8187049Y110400D1*
X-8187508Y114007D1*
X-8188976Y122047D1*
X-8187883Y121398D1*
X-8187789Y125122D1*
X-8187508Y128790D1*
X-8187049Y132395D1*
X-8186412Y135932D1*
X-8185606Y139394D1*
X-8184636Y142776D1*
X-8183507Y146070D1*
X-8182222Y149272D1*
X-8180789Y152374D1*
X-8179211Y155371D1*
X-8177495Y158259D1*
X-8175643Y161028D1*
X-8173664Y163672D1*
X-8171562Y166188D1*
X-8169341Y168568D1*
X-8167008Y170807D1*
X-8164566Y172898D1*
X-8162022Y174833D1*
X-8159379Y176610D1*
X-8156646Y178220D1*
X-8153824Y179657D1*
X-8150921Y180917D1*
X-8147941Y181992D1*
X-8144888Y182877D1*
X-8141770Y183564D1*
X-8138591Y184049D1*
X-8136440Y184256D1*
X-8134265Y184369D1*
X-7965908D1*
X-7963734Y184256D1*
X-7961583Y184049D1*
X-7958403Y183564D1*
X-7955285Y182877D1*
X-7952234Y181992D1*
X-7949253Y180917D1*
X-7946350Y179657D1*
X-7943529Y178220D1*
X-7940795Y176610D1*
X-7938154Y174833D1*
X-7935609Y172898D1*
X-7933167Y170807D1*
X-7930833Y168568D1*
X-7928613Y166188D1*
X-7926510Y163672D1*
X-7924531Y161028D1*
X-7922681Y158259D1*
X-7920965Y155371D1*
X-7919386Y152374D1*
X-7917953Y149272D1*
X-7916668Y146070D1*
X-7915538Y142776D1*
X-7914568Y139394D1*
X-7913762Y135932D1*
X-7913127Y132395D1*
X-7912667Y128790D1*
X-7912387Y125122D1*
X-7912293Y121398D1*
Y4933755D2*
X-7912387Y4930030D1*
X-7912667Y4926362D1*
X-7913127Y4922757D1*
X-7913762Y4919220D1*
X-7914568Y4915759D1*
X-7915538Y4912377D1*
X-7916668Y4909081D1*
X-7917953Y4905881D1*
X-7919386Y4902778D1*
X-7920965Y4899780D1*
X-7922681Y4896894D1*
X-7924531Y4894125D1*
X-7926510Y4891480D1*
X-7928613Y4888963D1*
X-7930833Y4886584D1*
X-7933167Y4884345D1*
X-7935609Y4882255D1*
X-7938154Y4880319D1*
X-7940795Y4878542D1*
X-7943529Y4876932D1*
X-7946350Y4875495D1*
X-7949253Y4874235D1*
X-7952234Y4873160D1*
X-7955285Y4872276D1*
X-7958403Y4871588D1*
X-7961583Y4871104D1*
X-7963734Y4870896D1*
X-7965908Y4870783D1*
X-8134265D1*
X-8136440Y4870896D1*
X-8138591Y4871104D1*
X-8141770Y4871588D1*
X-8144888Y4872276D1*
X-8147941Y4873160D1*
X-8150921Y4874235D1*
X-8153824Y4875495D1*
X-8156646Y4876932D1*
X-8159379Y4878542D1*
X-8162022Y4880319D1*
X-8164566Y4882255D1*
X-8167008Y4884345D1*
X-8169341Y4886584D1*
X-8171562Y4888963D1*
X-8173664Y4891480D1*
X-8175643Y4894125D1*
X-8177495Y4896894D1*
X-8179211Y4899780D1*
X-8180789Y4902778D1*
X-8182222Y4905881D1*
X-8183507Y4909081D1*
X-8184636Y4912377D1*
X-8185606Y4915759D1*
X-8186412Y4919220D1*
X-8187049Y4922757D1*
X-8187508Y4926362D1*
X-8187789Y4930030D1*
X-8187883Y4933755D1*
X-8187789Y4937478D1*
X-8187508Y4941146D1*
X-8187049Y4944751D1*
X-8186412Y4948287D1*
X-8185606Y4951751D1*
X-8184636Y4955131D1*
X-8183507Y4958427D1*
X-8182222Y4961627D1*
X-8180789Y4964731D1*
X-8179211Y4967728D1*
X-8177495Y4970614D1*
X-8175643Y4973383D1*
X-8173664Y4976029D1*
X-8171562Y4978545D1*
X-8169341Y4980924D1*
X-8167008Y4983163D1*
X-8164566Y4985253D1*
X-8162022Y4987190D1*
X-8159379Y4988966D1*
X-8156646Y4990576D1*
X-8153824Y4992014D1*
X-8150921Y4993273D1*
X-8147941Y4994348D1*
X-8144888Y4995232D1*
X-8141770Y4995920D1*
X-8138591Y4996404D1*
X-8136440Y4996612D1*
X-8134265Y4996724D1*
X-7965908D1*
X-7963734Y4996612D1*
X-7961583Y4996404D1*
X-7958403Y4995920D1*
X-7955285Y4995232D1*
X-7952234Y4994348D1*
X-7949253Y4993273D1*
X-7946350Y4992014D1*
X-7943529Y4990576D1*
X-7940795Y4988966D1*
X-7938154Y4987190D1*
X-7935609Y4985253D1*
X-7933167Y4983163D1*
X-7930833Y4980924D1*
X-7928613Y4978545D1*
X-7926510Y4976029D1*
X-7924531Y4973383D1*
X-7922681Y4970614D1*
X-7920965Y4967728D1*
X-7919386Y4964731D1*
X-7917953Y4961627D1*
X-7916668Y4958427D1*
X-7915538Y4955131D1*
X-7914568Y4951751D1*
X-7913762Y4948287D1*
X-7913127Y4944751D1*
X-7912667Y4941146D1*
X-7912387Y4937478D1*
X-7912293Y4933755D1*
X-197883Y121398D2*
X-197978Y117675D1*
X-198257Y114007D1*
X-198718Y110400D1*
X-199353Y106864D1*
X-200159Y103402D1*
X-201129Y100021D1*
X-202259Y96726D1*
X-203543Y93524D1*
X-204976Y90421D1*
X-206555Y87424D1*
X-208272Y84538D1*
X-210122Y81769D1*
X-212101Y79123D1*
X-214203Y76608D1*
X-216424Y74227D1*
X-218757Y71990D1*
X-221199Y69899D1*
X-223744Y67962D1*
X-226386Y66186D1*
X-229119Y64576D1*
X-231941Y63138D1*
X-234844Y61878D1*
X-237824Y60803D1*
X-240875Y59920D1*
X-243993Y59232D1*
X-247173Y58748D1*
X-249324Y58541D1*
X-251499Y58428D1*
X-419856D1*
X-422030Y58541D1*
X-424181Y58748D1*
X-427361Y59232D1*
X-430479Y59920D1*
X-433531Y60803D1*
X-436512Y61878D1*
X-439415Y63138D1*
X-442236Y64576D1*
X-444970Y66186D1*
X-447613Y67962D1*
X-450156Y69899D1*
X-452598Y71990D1*
X-454932Y74227D1*
X-457152Y76608D1*
X-459255Y79123D1*
X-461234Y81769D1*
X-463085Y84538D1*
X-464802Y87424D1*
X-466379Y90421D1*
X-467812Y93524D1*
X-469097Y96726D1*
X-470227Y100021D1*
X-471197Y103402D1*
X-472003Y106864D1*
X-472639Y110400D1*
X-473098Y114007D1*
X-473379Y117675D1*
X-473474Y121398D1*
X-473379Y125122D1*
X-473098Y128790D1*
X-472639Y132395D1*
X-472003Y135932D1*
X-471197Y139394D1*
X-470227Y142776D1*
X-469097Y146070D1*
X-467812Y149272D1*
X-466379Y152374D1*
X-464802Y155371D1*
X-463085Y158259D1*
X-461234Y161028D1*
X-459255Y163672D1*
X-457152Y166188D1*
X-454932Y168568D1*
X-452598Y170807D1*
X-450156Y172898D1*
X-447613Y174833D1*
X-444970Y176610D1*
X-442236Y178220D1*
X-439415Y179657D1*
X-436512Y180917D1*
X-433531Y181992D1*
X-430479Y182877D1*
X-427361Y183564D1*
X-424181Y184049D1*
X-422030Y184256D1*
X-419856Y184369D1*
X-251499D1*
X-249324Y184256D1*
X-247173Y184049D1*
X-243993Y183564D1*
X-240875Y182877D1*
X-237824Y181992D1*
X-234844Y180917D1*
X-231941Y179657D1*
X-229119Y178220D1*
X-226386Y176610D1*
X-223744Y174833D1*
X-221199Y172898D1*
X-218757Y170807D1*
X-216424Y168568D1*
X-214203Y166188D1*
X-212101Y163672D1*
X-210122Y161028D1*
X-208272Y158259D1*
X-206555Y155371D1*
X-204976Y152374D1*
X-203543Y149272D1*
X-202259Y146070D1*
X-201129Y142776D1*
X-200159Y139394D1*
X-199353Y135932D1*
X-198718Y132395D1*
X-198257Y128790D1*
X-197978Y125122D1*
X-197883Y121398D1*
Y4933755D2*
X-197978Y4930030D1*
X-198257Y4926362D1*
X-198718Y4922757D1*
X-199353Y4919220D1*
X-200159Y4915759D1*
X-201129Y4912377D1*
X-202259Y4909081D1*
X-203543Y4905881D1*
X-204976Y4902778D1*
X-206555Y4899780D1*
X-208272Y4896894D1*
X-210122Y4894125D1*
X-212101Y4891480D1*
X-214203Y4888963D1*
X-216424Y4886584D1*
X-218757Y4884345D1*
X-221199Y4882255D1*
X-223744Y4880319D1*
X-226386Y4878542D1*
X-229119Y4876932D1*
X-231941Y4875495D1*
X-234844Y4874235D1*
X-237824Y4873160D1*
X-240875Y4872276D1*
X-243993Y4871588D1*
X-247173Y4871104D1*
X-249324Y4870896D1*
X-251499Y4870783D1*
X-419856D1*
X-422030Y4870896D1*
X-424181Y4871104D1*
X-427361Y4871588D1*
X-430479Y4872276D1*
X-433531Y4873160D1*
X-436512Y4874235D1*
X-439415Y4875495D1*
X-442236Y4876932D1*
X-444970Y4878542D1*
X-447613Y4880319D1*
X-450156Y4882255D1*
X-452598Y4884345D1*
X-454932Y4886584D1*
X-457152Y4888963D1*
X-459255Y4891480D1*
X-461234Y4894125D1*
X-463085Y4896894D1*
X-464802Y4899780D1*
X-466379Y4902778D1*
X-467812Y4905881D1*
X-469097Y4909081D1*
X-470227Y4912377D1*
X-471197Y4915759D1*
X-472003Y4919220D1*
X-472639Y4922757D1*
X-473098Y4926362D1*
X-473379Y4930030D1*
X-473474Y4933755D1*
X-473379Y4937478D1*
X-473098Y4941146D1*
X-472639Y4944751D1*
X-472003Y4948287D1*
X-471197Y4951751D1*
X-470227Y4955131D1*
X-469097Y4958427D1*
X-467812Y4961627D1*
X-466379Y4964731D1*
X-464802Y4967728D1*
X-463085Y4970614D1*
X-461234Y4973383D1*
X-459255Y4976029D1*
X-457152Y4978545D1*
X-454932Y4980924D1*
X-452598Y4983163D1*
X-450156Y4985253D1*
X-447613Y4987190D1*
X-444970Y4988966D1*
X-442236Y4990576D1*
X-439415Y4992014D1*
X-436512Y4993273D1*
X-433531Y4994348D1*
X-430479Y4995232D1*
X-427361Y4995920D1*
X-424181Y4996404D1*
X-422030Y4996612D1*
X-419856Y4996724D1*
X-251499D1*
X-249324Y4996612D1*
X-247173Y4996404D1*
X-243993Y4995920D1*
X-240875Y4995232D1*
X-237824Y4994348D1*
X-234844Y4993273D1*
X-231941Y4992014D1*
X-229119Y4990576D1*
X-226386Y4988966D1*
X-223744Y4987190D1*
X-221199Y4985253D1*
X-218757Y4983163D1*
X-216424Y4980924D1*
X-214203Y4978545D1*
X-212101Y4976029D1*
X-210122Y4973383D1*
X-208272Y4970614D1*
X-206555Y4967728D1*
X-204976Y4964731D1*
X-203543Y4961627D1*
X-202259Y4958427D1*
X-201129Y4955131D1*
X-200159Y4951751D1*
X-199353Y4948287D1*
X-198718Y4944751D1*
X-198257Y4941146D1*
X-197978Y4937478D1*
X-197883Y4933755D1*
X-936315Y679783D2*
X-943720Y679902D1*
X-951051Y680374D1*
X-958307Y681083D1*
X-965488Y682087D1*
X-972520Y683386D1*
X-979551Y684921D1*
X-986358Y686752D1*
X-993165Y688878D1*
X-999823Y691181D1*
X-1006331Y693780D1*
X-1012689Y696614D1*
X-1018972Y699685D1*
X-1025106Y702992D1*
X-1031091Y706535D1*
X-1036925Y710256D1*
X-1042610Y714213D1*
X-1048071Y718406D1*
X-1053457Y722776D1*
X-1058618Y727323D1*
X-1063630Y732047D1*
X-1068417Y737008D1*
X-1073055Y742146D1*
X-1077469Y747461D1*
X-1081732Y752894D1*
X-1085697Y758504D1*
X-1089512Y764291D1*
X-1093102Y770256D1*
X-1095421Y774272D1*
X-1095795Y774980D1*
Y946713D1*
X-1093102Y951496D1*
X-1089512Y957402D1*
X-1085697Y963189D1*
X-1081732Y968858D1*
X-1077469Y974291D1*
X-1073055Y979606D1*
X-1068417Y984744D1*
X-1063630Y989646D1*
X-1058618Y994429D1*
X-1053457Y998976D1*
X-1048071Y1003346D1*
X-1042610Y1007539D1*
X-1036925Y1011496D1*
X-1031091Y1015217D1*
X-1025106Y1018760D1*
X-1018972Y1022067D1*
X-1012689Y1025138D1*
X-1006331Y1027913D1*
X-999823Y1030512D1*
X-993165Y1032874D1*
X-986358Y1034941D1*
X-979551Y1036772D1*
X-972520Y1038366D1*
X-965488Y1039606D1*
X-958307Y1040669D1*
X-951051Y1041378D1*
X-943720Y1041791D1*
X-936315Y1041969D1*
X-928909Y1041791D1*
X-921579Y1041378D1*
X-914323Y1040669D1*
X-907142Y1039606D1*
X-900110Y1038366D1*
X-893154Y1036772D1*
X-886272Y1034941D1*
X-879465Y1032874D1*
X-872882Y1030512D1*
X-866299Y1027913D1*
X-859941Y1025138D1*
X-853657Y1022067D1*
X-847524Y1018760D1*
X-841539Y1015217D1*
X-835705Y1011496D1*
X-830094Y1007539D1*
X-824559Y1003346D1*
X-819173Y998976D1*
X-814012Y994429D1*
X-809000Y989646D1*
X-804213Y984744D1*
X-799575Y979606D1*
X-795161Y974291D1*
X-790898Y968858D1*
X-786933Y963189D1*
X-783118Y957402D1*
X-779528Y951496D1*
X-777209Y947421D1*
X-776835Y946713D1*
Y774980D1*
X-779528Y770256D1*
X-783118Y764291D1*
X-786933Y758504D1*
X-790898Y752894D1*
X-795161Y747461D1*
X-799575Y742146D1*
X-804213Y737008D1*
X-809000Y732047D1*
X-814012Y727323D1*
X-819173Y722776D1*
X-824559Y718406D1*
X-830094Y714213D1*
X-835705Y710256D1*
X-841539Y706535D1*
X-847524Y702992D1*
X-853657Y699685D1*
X-859941Y696614D1*
X-866299Y693780D1*
X-872882Y691181D1*
X-879465Y688878D1*
X-886272Y686752D1*
X-893154Y684921D1*
X-900110Y683386D1*
X-907142Y682087D1*
X-914323Y681083D1*
X-921579Y680374D1*
X-928909Y679902D1*
X-936315Y679783D1*
M02*
