G04 DipTrace 3.3.1.1*
G04 Inner1.gbr*
%MOIN*%
G04 #@! TF.FileFunction,Copper,L3,Inr*
G04 #@! TF.Part,Single*
G04 #@! TA.AperFunction,Conductor*
%ADD13C,0.015748*%
%ADD14C,0.011811*%
%ADD15C,0.007874*%
G04 #@! TA.AperFunction,ComponentPad*
%ADD24O,0.086614X0.051181*%
%ADD32C,0.314961*%
%ADD48O,0.059055X0.035433*%
G04 #@! TA.AperFunction,ViaPad*
%ADD62C,0.023622*%
%ADD63C,0.017717*%
%FSLAX26Y26*%
G04*
G70*
G90*
G75*
G01*
G04 Inner2*
%LPD*%
X-6404969Y3025001D2*
D13*
X-6386219Y3043751D1*
X-5899555D1*
X-2473130Y3214860D2*
Y3029528D1*
X-2496408Y3006249D1*
X-2573913D1*
X-2605165Y3037501D1*
X-504134Y3635139D2*
Y3175000D1*
Y2783613D1*
X-458021Y2737500D1*
X-4122256Y3176182D2*
X-4117581Y3180857D1*
X-3810039D1*
X-3672933Y3043751D1*
X-3326770D1*
X-3308021Y3062500D1*
X-3295522D1*
X-5457331Y3085482D2*
X-5360236D1*
X-5304969Y3140749D1*
X-4649402D1*
X-4157689D1*
X-4122256Y3176182D1*
X-5899555Y3043751D2*
X-5863387D1*
X-5821656Y3085482D1*
X-5457331D1*
X-2605165Y3037501D2*
X-2633610Y3065946D1*
X-2940323D1*
X-2999377Y3125000D1*
X-3308021D1*
X-551772Y3175000D2*
D14*
X-504134D1*
X-2051773Y3056252D2*
X-2101776Y3006249D1*
X-2496408D1*
X-3708808Y3007875D2*
D13*
X-3672933Y3043751D1*
X-4605807Y3068752D2*
Y3097155D1*
X-4649402Y3140749D1*
X-5801772Y2700000D2*
X-5799213Y2697441D1*
Y2943408D1*
X-5899555Y3043751D1*
X-6151773Y2668751D2*
X-6062650Y2757874D1*
X-5859646D1*
X-5801772Y2700000D1*
X-4901772Y2781249D2*
X-4783021D1*
X-4776772Y2775000D1*
X-4212848D1*
X-4191929Y2795919D1*
X-1926772Y925000D2*
D14*
X-1833466D1*
X-1602165Y1156301D1*
X-5620913Y3123773D2*
X-5671701D1*
X-4510236Y3175001D2*
X-5503692D1*
X-5522394Y3156299D1*
Y3123773D1*
X-5540343D1*
X-1773917Y2972001D2*
Y3052706D1*
X-1755118Y3071505D1*
Y3140001D1*
X-1777559Y3162442D1*
Y3346458D1*
X-1879921D1*
X-1992126Y3234253D1*
X-6295521Y1256251D2*
X-6956462D1*
X-6972681Y1272470D1*
Y1648423D1*
X-6189272Y1556251D2*
Y1486615D1*
X-6168209Y1465552D1*
X-5855677D1*
X-5802480Y1518749D1*
X-5520521D1*
X-2421260Y1712598D2*
X-3066732D1*
Y1705710D1*
X-2375984Y3157480D2*
Y3043307D1*
X-1223031Y2277954D2*
X-1105311D1*
X-1602165Y1156301D2*
X-1223031Y1535434D1*
Y2277954D1*
X-3645522Y1537500D2*
X-3506734D1*
X-3490098Y1554135D1*
X-3066732D1*
X-4433022Y1531251D2*
X-4400173Y1564100D1*
X-4307087D1*
Y1559055D1*
X-3789272D1*
X-3667077D1*
X-3645522Y1537500D1*
X-4901772Y1550000D2*
X-4883022Y1531251D1*
X-4433022D1*
X-5064272Y1550000D2*
X-4901772D1*
X-5520521Y1518749D2*
X-5095522D1*
X-5064272Y1550000D1*
X-3789272Y1625000D2*
Y1559055D1*
X-8176772Y2437500D2*
D13*
X-8164272Y2425000D1*
Y2350000D1*
Y2137500D1*
X-8051772Y2025000D1*
X-7526772D1*
X-6926518Y1312753D2*
X-6914272Y1325000D1*
Y1675000D1*
X-6964272Y1725000D1*
X-7526772D1*
X-7539272Y1712500D1*
X-7839272D1*
X-8051772Y1925000D1*
Y2025000D1*
X-8189272Y700000D2*
Y425000D1*
X-8164272Y400000D1*
X-7801772D1*
X-7276772D1*
X-6839272D2*
X-7276772D1*
X-6839272D2*
Y425000D1*
X-6764272Y500000D1*
X-8170169Y1286583D2*
Y1806602D1*
X-8051772Y1925000D1*
X-7820521Y3387500D2*
X-8139272D1*
X-8176772Y3350000D1*
Y2437500D1*
X-4895521Y482285D2*
X-4895522Y312500D1*
X-1314272Y987500D2*
X-1345521D1*
X-1401772Y1043751D1*
Y1175001D2*
Y1043751D1*
X-3987165Y2822894D2*
X-4022541Y2858269D1*
X-4293503D1*
X-4264272Y3306249D2*
X-4276770Y3293751D1*
X-4933021D1*
X-5526770D1*
X-6089270D1*
X-6120521Y3262500D1*
X-2614272Y2775000D2*
X-2745521D1*
X-2764272Y2793751D1*
Y2862500D1*
X-2876772Y2975000D1*
X-2995521D1*
X-3114272Y3093751D1*
X-3245521D1*
X-3633022D1*
X-3751772Y3212500D1*
X-839272Y4093751D2*
X-870522Y4062500D1*
X-1651772D1*
X-3245521Y2850000D2*
Y3093751D1*
X-4264272Y3306249D2*
Y3300000D1*
X-4251772Y3287500D1*
X-3670521D1*
X-3639272Y3318749D1*
X-3614270D1*
X-3583021Y3287500D1*
X-3039272D1*
X-3026772Y3300000D1*
X-2376772D1*
X-6139272Y1493749D2*
D15*
X-5899953D1*
X-5806201Y1587501D1*
X-3883020D1*
X-3820521Y1650000D1*
X-3720522D1*
X-3658024Y1587501D1*
X-1958021D1*
X-1816929Y1728593D1*
Y2128592D1*
X-1814272Y2131249D1*
X-1783022Y2550000D2*
Y1562500D1*
X-1789272Y1556251D1*
X-3001770D1*
X-3039272Y1518749D1*
X-5561024Y1718505D2*
X-5501772Y1777757D1*
Y1893749D1*
X-5264272Y2131249D1*
X-5120522D1*
X-4770522Y2481249D1*
X-1895522D1*
X-1758022Y2575000D2*
Y1525000D1*
X-2408021D1*
X-7808022Y1943751D2*
X-7233417D1*
X-6942913Y2234253D1*
Y2712600D1*
X-6539370Y3116143D1*
X-5921260D1*
X-5774903Y3262500D1*
X-2128640D1*
X-1909449Y3043308D1*
X-1971703Y3070130D2*
X-2139073Y3237500D1*
X-5768407D1*
X-5915354Y3090552D1*
X-6523622D1*
X-6887795Y2726379D1*
Y2167324D1*
X-7192913Y1862206D1*
Y1836615D1*
X-4891732Y1750001D2*
X-1931102D1*
X-1883022Y1798081D1*
Y1918749D1*
X-4261811Y2393751D2*
X-1820521D1*
X-1733021Y2600000D2*
Y1537499D1*
X-1683022Y1487500D1*
Y1462499D1*
X-1702084Y1443437D1*
X-1570522Y2587500D2*
D14*
Y2581052D1*
X-1635827Y2515748D1*
Y2458661D1*
X-1616142Y2438976D1*
X-1528248D1*
X-1326772Y2237500D1*
Y1562500D1*
X-1486220Y2320866D2*
Y1721949D1*
X-1364272Y1600000D1*
X-1570522Y2487500D2*
X-1202067D1*
X-1064961Y2350394D1*
Y1750689D1*
X-864272Y1550000D1*
X-276772Y1512500D2*
X-195521Y1593751D1*
Y2272341D1*
X-310680Y2387500D1*
X-864272Y1600000D2*
X-1014272Y1750000D1*
Y2475001D1*
X-261655Y1446366D2*
X-151772Y1556249D1*
Y2328592D1*
X-310680Y2487500D1*
X-461655Y1490117D2*
X-239272Y1712500D1*
Y2216092D1*
X-310680Y2287500D1*
Y2187500D2*
Y1752657D1*
X-520522Y1542815D1*
X-6620521Y2625000D2*
D15*
X-6576770Y2668751D1*
X-6389273D1*
X-6345522Y2625000D1*
X-5783022D1*
X-5733022Y2675000D1*
Y2919537D1*
X-5795522Y2982037D1*
Y3037497D1*
X-5776770Y3056249D1*
X-5470521D1*
X-5254823Y2840551D1*
X-5101625Y2993749D1*
X-4539272D1*
X-4426772Y3106249D1*
X-4060974D1*
X-3938976Y2984252D1*
X-3899606D1*
X-3769685Y2854331D1*
X-3728346D1*
X-3659449Y2785433D1*
X-3011811D1*
X-2982283Y2755906D1*
X-2883858D1*
X-2799211Y2840552D1*
Y2787400D1*
X-2722441Y2710630D1*
X-2265748D1*
X-2230315Y2746063D1*
X-2029526D1*
X-1969340Y2806249D1*
X-1751772D1*
X-1708022Y2762500D1*
Y1881251D1*
X-1351772Y1525000D1*
X-1301772D1*
X-6170522Y3812501D2*
X-6151084D1*
X-5988583Y3650000D1*
X-2014272D1*
X-1539272Y3175000D1*
X-1264272D1*
X-914272Y2825000D1*
Y1700000D1*
X-826772Y1612500D1*
Y1475000D1*
X-976772Y1325000D1*
X-1164272D1*
X-5545524Y3812501D2*
X-5525100D1*
X-5387598Y3675000D1*
X-2001772D1*
X-1526772Y3200000D1*
X-1251772D1*
X-889272Y2837500D1*
Y1712500D1*
X-801772Y1625000D1*
Y1462500D1*
X-976772Y1287500D1*
X-1189272D1*
X-4951772Y3862500D2*
X-4917618D1*
X-4755118Y3700000D1*
X-1989272D1*
X-1514272Y3225000D1*
X-1239272D1*
X-864272Y2850000D1*
Y1725000D1*
X-776772Y1637500D1*
Y1450000D1*
X-976772Y1250000D1*
X-1276772D1*
X-1364272Y1337500D1*
X-4295524Y3825001D2*
X-4262009D1*
X-4162008Y3725000D1*
X-1976772D1*
X-1501772Y3250000D1*
X-1226772D1*
X-839272Y2862500D1*
Y1737500D1*
X-751772Y1650000D1*
Y1437500D1*
X-964272Y1225000D1*
X-1314272D1*
X-1388437Y1299165D1*
X-3670524Y3825001D2*
X-3588781D1*
X-3513780Y3750000D1*
X-1964272D1*
X-1489272Y3275000D1*
X-1214272D1*
X-814272Y2875000D1*
Y2212500D1*
X-3043307Y3814717D2*
X-2966488D1*
X-2926772Y3775000D1*
X-1951772D1*
X-1476772Y3300000D1*
X-1201772D1*
X-789272Y2887500D1*
Y2187500D1*
X-1976772Y3800000D2*
X-1939272D1*
X-1464272Y3325000D1*
X-1189272D1*
X-764272Y2900000D1*
Y2162500D1*
X-1776772Y4575000D2*
X-1826772Y4525000D1*
Y3725000D1*
X-1451772Y3350000D1*
X-1176772D1*
X-739272Y2912500D1*
Y2137500D1*
X-214272Y4287500D2*
X-526772Y3975000D1*
Y3706249D1*
X-714272Y3518749D1*
Y2112500D1*
X-1964180Y2777068D2*
X-1959259Y2772147D1*
X-1944390D1*
X-1923228Y2750986D1*
Y2598427D1*
X-2021656Y2499999D1*
X-4924142Y2500000D1*
X-4983198Y2559056D1*
X-4990157D1*
X-1964180Y2752462D2*
X-1959259Y2757383D1*
X-1950505D1*
X-1937992Y2744870D1*
Y2604542D1*
X-2027772Y2514762D1*
X-4918026Y2514764D1*
X-4972759Y2569496D1*
Y2576455D1*
X-1978734Y2725887D2*
X-1983655Y2720966D1*
X-1992408D1*
X-1993885Y2722442D1*
X-2212102D1*
X-2244781Y2689764D1*
X-3619945D1*
X-3690622Y2760441D1*
Y2767400D1*
X-1978734Y2701281D2*
X-1983655Y2706202D1*
X-1998524D1*
X-2000000Y2707678D1*
X-2205987D1*
X-2238665Y2675000D1*
X-3626060D1*
X-3701062Y2750001D1*
X-3708021D1*
X-1991391Y2659270D2*
Y2652311D1*
X-1997580Y2646122D1*
X-2053601D1*
X-2096457Y2688978D1*
X-2185038D1*
X-2221752Y2652264D1*
X-3653037D1*
X-3981089Y2980316D1*
X-4444882D1*
X-4467186Y3002621D1*
Y3009580D1*
X-1973992Y2641871D2*
X-1980951D1*
X-1991465Y2631358D1*
X-2059717D1*
X-2102572Y2674214D1*
X-2178923D1*
X-2215636Y2637500D1*
X-3659152D1*
X-3987205Y2965552D1*
X-4450997D1*
X-4477626Y2992181D1*
X-4484585D1*
X-6272982Y2560967D2*
X-6268060Y2556046D1*
Y2541177D1*
X-6249619Y2522736D1*
X-5083156D1*
X-4993392Y2612500D1*
X-4783021D1*
X-4735285Y2660236D1*
X-3832887D1*
X-3732887Y2560236D1*
X-2162633D1*
X-2144619Y2578249D1*
X-2126516D1*
X-2121102Y2572836D1*
X-6248375Y2560967D2*
X-6253297Y2556046D1*
Y2547293D1*
X-6243504Y2537500D1*
X-5089272D1*
X-4999508Y2627264D1*
X-4789136D1*
X-4741400Y2675000D1*
X-3826772D1*
X-3726772Y2575000D1*
X-2168748D1*
X-2150735Y2593013D1*
X-2126516D1*
X-2121102Y2598427D1*
Y2624017D2*
X-2126516Y2629430D1*
X-2147677D1*
X-2162336D1*
X-2194030Y2597736D1*
X-3682887D1*
X-3807887Y2722736D1*
X-4807566D1*
X-4850182Y2680119D1*
X-5252180D1*
X-5592105Y3020045D1*
X-5744572D1*
X-5750836Y3013781D1*
Y3004923D1*
X-5745915Y3000001D1*
X-2121102Y2649608D2*
X-2126516Y2644194D1*
X-2147677D1*
X-2168451D1*
X-2200146Y2612500D1*
X-3676772D1*
X-3801772Y2737500D1*
X-4813681D1*
X-4856298Y2694883D1*
X-5246064D1*
X-5585990Y3034808D1*
X-5750688D1*
X-5765600Y3019896D1*
Y3004923D1*
X-5770521Y3000001D1*
X-1326429Y3117364D2*
X-1331350Y3112442D1*
Y3097573D1*
X-1506680Y2922244D1*
X-1895459D1*
X-1964448Y2853256D1*
Y2846297D1*
X-1351035Y3117364D2*
X-1346114Y3112442D1*
Y3103689D1*
X-1512795Y2937008D1*
X-1901575D1*
X-1974887Y2863696D1*
X-1981846D1*
X-2005906Y2919291D2*
X-1966537D1*
X-1799213Y3086615D1*
Y3324804D1*
X-7295035Y1808816D2*
X-7149846D1*
X-6866142Y2092521D1*
Y2572836D1*
X-6788978Y2650000D1*
X-6714272D1*
X-5257972Y2763682D2*
X-5112205Y2909450D1*
X-3979291D1*
X-6250000Y1480316D2*
X-6578500Y1808816D1*
X-7149846D1*
X-7833022Y1918751D2*
X-7404970D1*
X-7295035Y1808816D1*
X-5627953Y1482285D2*
Y1480316D1*
X-5645669D1*
X-5677165Y1448820D1*
X-6196850D1*
X-6228346Y1480316D1*
X-6250000D1*
X-5627953Y1482285D2*
X-5190945D1*
X-5159449Y1450789D1*
X-5006496D1*
X-4976772Y1480513D1*
X-4575000D1*
X-4541339Y1446852D1*
X-4413386D1*
X-4377953Y1482285D1*
X-3956693D1*
X-3925197Y1450789D1*
X-3782234D1*
X-3751772Y1481251D1*
X-3315895D1*
X-3281496Y1446852D1*
X-3122047D1*
X-3090551Y1478348D1*
X-2687008D1*
X-2659449Y1450789D1*
X-2531496D1*
X-2500000Y1482285D1*
X-2494094D1*
X-2059055D1*
X-2027559Y1450789D1*
X-1901575D1*
X-1875984Y1476379D1*
Y1480316D1*
X-2645521Y2806249D2*
X-2057924D1*
X-2041184Y2822990D1*
X-2007874Y2856299D1*
Y2919291D1*
X-2005906D1*
X-1875984Y1480316D2*
Y1475000D1*
X-1714272D1*
X-2041184Y2822990D2*
X-1743512D1*
X-1676772Y2756249D1*
Y1975000D1*
X-1620522Y1918751D1*
X-2037402Y2870079D2*
X-2038731Y2868749D1*
X-2633022D1*
X-2690747Y2811025D1*
X-2692913D1*
X-3981260Y2883860D2*
Y2885828D1*
X-5102362D1*
X-5250000Y2738190D1*
X-5257933D1*
X-6250000Y1450789D2*
X-6251970D1*
X-6582430Y1781249D1*
X-7026772D1*
X-7273870D1*
X-7925197Y1895671D2*
X-7417323D1*
X-7302902Y1781249D1*
X-7273870D1*
X-5612205Y1458663D2*
X-5629921D1*
X-5663386Y1425198D1*
X-6226378D1*
X-6250000Y1448820D1*
Y1450789D1*
X-5612205Y1458663D2*
X-5204724D1*
X-5175197Y1429135D1*
X-4996654D1*
X-4970522Y1455266D1*
X-4585186D1*
X-4557087Y1427167D1*
X-4397638D1*
X-4368110Y1456694D1*
X-3974409D1*
X-3944882Y1427167D1*
X-3768356D1*
X-3739272Y1456251D1*
X-3733022Y1462500D1*
X-3330609D1*
X-3291339Y1423230D1*
X-3108268D1*
X-3090551Y1440946D1*
X-2692913D1*
X-2675197Y1423230D1*
X-2509843D1*
X-2480315Y1452757D1*
X-2486220D1*
X-2480315D2*
X-2066929D1*
X-2041339Y1427167D1*
X-1891732D1*
X-1866142Y1452757D1*
X-6751772Y2625000D2*
X-6764272Y2612500D1*
Y2562500D1*
X-6801772Y2525000D1*
Y1925000D1*
X-6889272Y1837500D1*
X-7026772D1*
D62*
X-551772Y3175000D3*
X-2051773Y3056252D3*
X-3708808Y3007875D3*
X-4605807Y3068752D3*
X-5801772Y2700000D3*
X-6151773Y2668751D3*
X-5801772Y2700000D3*
X-4901772Y2781249D3*
X-3739273Y2443751D3*
X-3789272Y1625000D3*
X-8108021Y1950000D3*
X-4307087Y1559055D3*
X-8176772Y2437500D3*
X-8164272Y2350000D3*
X-7526772Y2025000D3*
X-6926518Y1312753D3*
X-7539272Y1712500D3*
X-8189272Y700000D3*
X-7801772Y400000D3*
X-7276772D3*
X-6839272D3*
X-6764272Y500000D3*
X-6839272Y400000D3*
X-8170169Y1286583D3*
X-6701770Y2862500D3*
X-6901772Y2943751D3*
X-7820521Y3387500D3*
X-8176772Y2437500D3*
X-4895521Y482285D3*
X-4895522Y312500D3*
X-1401772Y1043751D3*
Y1175001D3*
X-4293503Y2858269D3*
X-4376772Y3200000D3*
X-3987165Y2822894D3*
X-4293503Y2858269D3*
X-3639272Y3318749D3*
X-4264272Y3306249D3*
X-4933021Y3293751D3*
X-5526770D3*
X-6120521Y3262500D3*
X-2614272Y2775000D3*
X-3751772Y3212500D3*
X-839272Y4093751D3*
X-1651772Y4062500D3*
X-1870522Y4143751D3*
X-1053987Y2531251D3*
X-501772Y2250000D3*
X-3245521Y2738190D3*
Y2850000D3*
X-4264272Y3306249D3*
X-3639272Y3318749D3*
X-3026772Y3300000D3*
X-3639272Y3318749D3*
X-2376772Y3300000D3*
D3*
X-689272Y512500D3*
X-1914272Y1981251D3*
X-1845521Y312500D3*
D63*
X-6139272Y1493749D3*
D62*
X-1814272Y2131249D3*
D63*
X-3716535Y1435236D3*
X-3676772Y2537500D3*
D62*
X-2908022Y3131251D3*
X-1639272Y3112500D3*
D63*
X-1783022Y2550000D3*
X-3039272Y1518749D3*
X-5595521Y1437501D3*
D62*
X-5561024Y1718505D3*
X-1895522Y2481249D3*
X-1739272Y3037500D3*
D63*
X-1758022Y2575000D3*
X-2408021Y1525000D3*
X-7808022Y1943751D3*
X-1909449Y3043308D3*
X-1971703Y3070130D3*
X-7192913Y1836615D3*
X-4945522Y1435041D3*
D62*
X-4891732Y1750001D3*
X-1883022Y1918749D3*
X-1708022Y3037499D3*
D63*
X-4261811Y1501970D3*
Y2393751D3*
D62*
X-1820521D3*
X-176772Y3612501D3*
X-145522Y3581251D3*
X-5023622Y2937008D3*
X-6250000Y3724409D3*
X-6251772Y4169094D3*
X-4416487Y2814715D3*
X-7339272Y3512501D3*
X-6376772Y2918752D3*
X-6914272Y3462501D3*
X-5970521Y3168752D3*
X-7301772Y3481252D3*
X-6401772Y3162501D3*
X-5626772Y4137500D3*
X-4414272Y2575000D3*
D63*
X-1733021Y2600000D3*
X-1702084Y1443437D3*
D62*
X-120522Y3550001D3*
X-95521Y3518751D3*
X-6258022Y606249D3*
X-5383022Y2581251D3*
X-6289272Y943749D3*
X-5426772Y2593751D3*
X-6295276Y1653545D3*
X-5460630Y2592521D3*
X-6758022Y2468751D3*
X-6576772Y2512501D3*
X-8208022Y1727017D3*
X-7158022Y1968752D3*
X-6926772Y1962501D3*
X-6566929Y2606299D3*
X-6783022Y862500D3*
X-6540797Y2512500D3*
X-6808022Y2581251D3*
X-6876772Y2031252D3*
X-6976770D3*
X-8151919Y1150001D3*
X-6501773Y2712500D3*
Y2637501D3*
X-7576772Y1750001D3*
X-6464025Y2637500D3*
X-7046361Y1680412D3*
X-6889272Y1893751D3*
X-6851772Y2055696D3*
X-6820522Y2537500D3*
X-6864272Y1006252D3*
X-6808022Y1855365D3*
X-6826772Y2412500D3*
X-6614272Y2706251D3*
X-7458022Y3337501D3*
X-6433021Y2856252D3*
X-6464025Y2843751D3*
X-6765291Y3169770D3*
X-6916408Y2579113D3*
X-6515206Y2750936D3*
X-6708021Y2718751D3*
X-6545522Y2732285D3*
X-8214272Y2056252D3*
X-6595521Y2837501D3*
X-1727854Y4113583D3*
X-5714272Y3450000D3*
X-1239272Y4175000D3*
X-5739272Y3350000D3*
X-5851772Y2862500D3*
X-5858022Y2662500D3*
X-6314272Y3250001D3*
X-6083022Y2912501D3*
X-6351772Y3225001D3*
X-6089272Y2862500D3*
X-6226772Y3162501D3*
X-6039272Y2906252D3*
X-5001772Y4112500D3*
X-4889272Y3450000D3*
Y3200000D3*
X-4689272Y2575000D3*
X-4464272Y2812500D3*
X-4739272D3*
X-2426772Y3887500D3*
X-3195522Y3156251D3*
X-2389272Y3406251D3*
X-3070521Y3168749D3*
X-1153543Y2706693D3*
D63*
X-1101772Y2331249D3*
D62*
X-1326772Y1562500D3*
X-1486220Y2320866D3*
X-1364272Y1600000D3*
X-864272Y1550000D3*
X-276772Y1512500D3*
X-864272Y1600000D3*
X-1014272Y2475001D3*
X-261655Y1446366D3*
X-461655Y1490117D3*
X-520522Y1542815D3*
X-6257874Y2232285D3*
X-5553150Y2842520D3*
X-6263780Y2009844D3*
X-5515748Y2633860D3*
X-6269685Y1811025D3*
X-5478346Y2622049D3*
X-2458022Y436370D3*
X-2730315Y2812992D3*
X-2433022Y2325000D3*
X-2383858Y797245D3*
X-2389272Y1006251D3*
X-2724409Y2911417D3*
X-2771654Y2966537D3*
X-2489272Y2437500D3*
X-2738189Y2986222D3*
X-1931102Y2210631D3*
X-2523622Y586615D3*
X-2887795Y3013781D3*
X-2543307Y966537D3*
X-2939272Y3012500D3*
X-3017717Y1029529D3*
X-2931102Y2722441D3*
X-2562992Y1681104D3*
X-3125984Y2988190D3*
X-3068898Y629923D3*
X-3120079Y2919293D3*
X-3169291Y923230D3*
X-3145522Y2893751D3*
X-3190600Y1523623D3*
X-3169291Y2866143D3*
X-3176772Y1690946D3*
X-3194882Y2840552D3*
X-3647835Y421063D3*
X-3834646Y3062993D3*
X-3799213Y948820D3*
X-3842520Y3104332D3*
X-3816929Y1527559D3*
X-3917323Y3116143D3*
X-3791339Y1683072D3*
X-3842520Y3141734D3*
X-3919291Y2562993D3*
X-4044252Y3137797D3*
X-4083021Y3143749D3*
X-3946850Y2543308D3*
X-4311024Y431104D3*
X-4065906Y2566930D3*
X-4423228Y929135D3*
X-4089528Y2598427D3*
X-4433071Y1649608D3*
X-4113150Y2629923D3*
X-4425197Y1694883D3*
X-4154488Y3078741D3*
X-4419291Y1840552D3*
X-4158022Y3039570D3*
X-4417323Y2242127D3*
X-4267717Y3039371D3*
X-4275591Y553151D3*
X-4139764Y2541340D3*
X-5035433Y933072D3*
X-4340551Y2629923D3*
D63*
X-4929134Y1717077D3*
X-5020521Y1650000D3*
X-4892396Y1809375D3*
X-5020522Y1681249D3*
D62*
X-4883021Y1862206D3*
X-5019685D3*
X-4883021Y2204726D3*
X-4994094D3*
X-5664272Y587501D3*
X-5058022Y2633564D3*
Y2775001D3*
X-5195521Y2956252D3*
X-5670521Y943752D3*
X-5089272Y2633564D3*
Y2831251D3*
X-5195522Y2987501D3*
X-5683022Y1681251D3*
X-5120522Y2633564D3*
Y2800001D3*
X-5195522Y3018751D3*
D63*
X-6620521Y2625000D3*
X-5254823Y2840551D3*
X-3938976Y2984252D3*
X-2799211Y2840552D3*
D62*
X-1301772Y1525000D3*
X-8216337Y2770818D3*
X-6620522Y2868752D3*
D63*
X-433021Y3062500D3*
X-1776772Y3093751D3*
D62*
X-6170522Y3812501D3*
X-1164272Y1325000D3*
X-5545524Y3812501D3*
X-1189272Y1287500D3*
X-4951772Y3862500D3*
X-1364272Y1337500D3*
X-4295524Y3825001D3*
X-1388437Y1299165D3*
X-3670524Y3825001D3*
D63*
X-814272Y2212500D3*
D62*
X-3043307Y3814717D3*
D63*
X-789272Y2187500D3*
D62*
X-1976772Y3800000D3*
D63*
X-764272Y2162500D3*
D62*
X-1776772Y4575000D3*
D63*
X-739272Y2137500D3*
X-214272Y4287500D3*
X-714272Y2112500D3*
X-1633021Y1237500D3*
X-1676772Y993751D3*
D62*
X-89272Y3137500D3*
Y3100000D3*
Y3062500D3*
Y3012500D3*
X-8016190Y2147701D3*
X-7084122Y1581948D3*
X-7830993Y2147654D3*
X-7269319Y1581995D3*
X-7645798Y2344465D3*
X-7454514Y1385184D3*
X-7090247Y2494930D3*
X-8010066Y1234718D3*
X-7275444Y2355975D3*
X-7824869Y1373673D3*
X-7460640Y2286593D3*
X-7639672Y1443055D3*
D63*
X-1964180Y2777068D3*
X-4990157Y2559056D3*
X-1964180Y2752462D3*
X-4972759Y2576455D3*
X-1978734Y2725887D3*
X-3690622Y2767400D3*
X-1978734Y2701281D3*
X-3708021Y2750001D3*
X-1991391Y2659270D3*
X-4467186Y3009580D3*
X-1973992Y2641871D3*
X-4484585Y2992181D3*
X-6272982Y2560967D3*
X-2121102Y2572836D3*
X-6248375Y2560967D3*
X-2121102Y2598427D3*
Y2624017D3*
X-5745915Y3000001D3*
X-2121102Y2649608D3*
X-5770521Y3000001D3*
X-1326429Y3117364D3*
X-1964448Y2846297D3*
X-1351035Y3117364D3*
X-1981846Y2863696D3*
D62*
X-2005906Y2919291D3*
D63*
X-1799213Y3324804D3*
X-7295035Y1808816D3*
X-6714272Y2650000D3*
X-5257972Y2763682D3*
X-3979291Y2909450D3*
X-6250000Y1480316D3*
X-7833022Y1918751D3*
X-7295035Y1808816D3*
X-5627953Y1482285D3*
X-6250000Y1480316D3*
X-4976772Y1480513D3*
X-5627953Y1482285D3*
X-4377953D3*
X-3751772Y1481251D3*
X-3090551Y1478348D3*
X-2494094Y1482285D3*
X-2645521Y2806249D3*
D62*
X-2005906Y2919291D3*
D63*
X-3979291Y2909450D3*
D62*
X-2005906Y2919291D3*
D63*
X-1714272Y1475000D3*
X-333021Y3043751D3*
X-1799213Y3324804D3*
X-1620522Y1918751D3*
D62*
X-2037402Y2870079D3*
D63*
X-2692913Y2811025D3*
X-2624016Y2738190D3*
X-3981260Y2883860D3*
X-5257933Y2738190D3*
X-6250000Y1450789D3*
X-7273870Y1781249D3*
X-7925197Y1895671D3*
X-5612205Y1458663D3*
X-6250000Y1450789D3*
X-4970522Y1455266D3*
X-5612205Y1458663D3*
X-4368110Y1456694D3*
X-3739272Y1456251D3*
X-3090551Y1440946D3*
X-2486220Y1452757D3*
X-1866142D3*
X-6751772Y2625000D3*
X-7026772Y1837500D3*
Y1781249D3*
X-3981260Y2883860D3*
D62*
X-2037402Y2870079D3*
D63*
X-351772Y3068749D3*
X-1726378Y3236220D3*
X-1639273Y2012501D3*
X-1808021Y2506251D3*
Y2687499D3*
D62*
X-2037402Y2870079D3*
X-6386322Y2434430D3*
X-6386320Y1996979D3*
Y1653278D3*
Y1297077D3*
Y953377D3*
Y603428D3*
X-6386322Y2178181D3*
Y1834479D3*
Y1478278D3*
Y1128328D3*
Y778378D3*
Y396930D3*
X-5761322Y2434430D3*
X-5761320Y1996979D3*
Y1653278D3*
Y1297077D3*
Y953377D3*
Y603428D3*
X-5761322Y2178181D3*
Y1834479D3*
Y1478278D3*
Y1128328D3*
Y778378D3*
Y396930D3*
X-5136322Y2434430D3*
X-5136320Y1996979D3*
Y1653278D3*
Y1297077D3*
Y953377D3*
Y603428D3*
X-5136322Y2178181D3*
Y1834479D3*
Y1478278D3*
Y1128328D3*
Y778378D3*
Y396930D3*
X-4511322Y2434430D3*
X-4511320Y1996979D3*
Y1653278D3*
Y1297077D3*
Y953377D3*
Y603428D3*
X-4511322Y2178181D3*
Y1834479D3*
Y1478278D3*
Y1128328D3*
Y778378D3*
Y396930D3*
X-3886322Y2434430D3*
X-3886320Y1996979D3*
Y1653278D3*
Y1297077D3*
Y953377D3*
Y603428D3*
X-3886322Y2178181D3*
Y1834479D3*
Y1478278D3*
Y1128328D3*
Y778378D3*
Y396930D3*
X-3261322Y2434430D3*
X-3261320Y1996979D3*
Y1653278D3*
Y1297077D3*
Y953377D3*
Y603428D3*
X-3261322Y2178181D3*
Y1834479D3*
Y1478278D3*
Y1128328D3*
Y778378D3*
Y396930D3*
X-2636322Y2434430D3*
X-2636320Y1996979D3*
Y1653278D3*
Y1297077D3*
Y953377D3*
Y603428D3*
X-2636322Y2178181D3*
Y1834479D3*
Y1478278D3*
Y1128328D3*
Y778378D3*
Y396930D3*
X-2011322Y2434430D3*
X-2011320Y1996979D3*
Y1653278D3*
Y1297077D3*
Y953377D3*
Y603428D3*
X-2011322Y2178181D3*
Y1834479D3*
Y1478278D3*
Y1128328D3*
Y778378D3*
Y396930D3*
X-8056420Y1512501D3*
X-7963825D3*
X-7871230D3*
X-7778635D3*
X-7686041D3*
X-7593448D3*
X-7500853D3*
X-7408259D3*
X-7315664D3*
X-7223070D3*
X-7130474D3*
X-7037879D3*
X-8056420Y1327312D3*
X-7963825D3*
X-7871230D3*
X-7778635D3*
X-7686041D3*
X-7593448D3*
X-7500853D3*
X-7408259D3*
X-7315664D3*
X-7223070D3*
X-7130474D3*
X-7037878D3*
X-8056420Y586533D3*
X-7963825D3*
X-7871230D3*
X-7778635D3*
X-7686041D3*
X-7593448D3*
X-7500853D3*
X-7408259D3*
X-7315664D3*
X-7223070D3*
X-7130474D3*
X-7037878D3*
X-8056420Y771738D3*
X-7963825D3*
X-7871230D3*
X-7778635D3*
X-7686041D3*
X-7593448D3*
X-7500853D3*
X-7408259D3*
X-7315664D3*
X-7223070D3*
X-7130474D3*
X-7037878D3*
X-8056390Y957478D3*
X-7963795D3*
X-7871199D3*
X-7778605D3*
X-7686010D3*
X-7593417D3*
X-7500823D3*
X-7408228D3*
X-7315634D3*
X-7223039D3*
X-7130444D3*
X-7037848D3*
X-8056420Y1142147D3*
X-7963825D3*
X-7871230D3*
X-7778635D3*
X-7686041D3*
X-7593448D3*
X-7500853D3*
X-7408259D3*
X-7315664D3*
X-7223070D3*
X-7130474D3*
X-7037878D3*
X-7043892Y2217147D3*
X-7136487D3*
X-7229083D3*
X-7321677D3*
X-7414272D3*
X-7506865D3*
X-7599459D3*
X-7692054D3*
X-7784648D3*
X-7877243D3*
X-7969839D3*
X-8062433D3*
X-7043892Y2402336D3*
X-7136487D3*
X-7229083D3*
X-7321677D3*
X-7414272D3*
X-7506865D3*
X-7599459D3*
X-7692054D3*
X-7784648D3*
X-7877243D3*
X-7969839D3*
X-8062434D3*
X-7043892Y3143115D3*
X-7136487D3*
X-7229083D3*
X-7321677D3*
X-7414272D3*
X-7506865D3*
X-7599459D3*
X-7692054D3*
X-7784648D3*
X-7877243D3*
X-7969839D3*
X-8062434D3*
X-7043892Y2957911D3*
X-7136487D3*
X-7229083D3*
X-7321677D3*
X-7414272D3*
X-7506865D3*
X-7599459D3*
X-7692054D3*
X-7784648D3*
X-7877243D3*
X-7969839D3*
X-8062434D3*
X-7043923Y2772171D3*
X-7136517D3*
X-7229113D3*
X-7321707D3*
X-7414302D3*
X-7506895D3*
X-7599490D3*
X-7692084D3*
X-7784678D3*
X-7877273D3*
X-7969869D3*
X-8062465D3*
X-7043892Y2587501D3*
X-7136487D3*
X-7229083D3*
X-7321677D3*
X-7414272D3*
X-7506865D3*
X-7599459D3*
X-7692054D3*
X-7784648D3*
X-7877243D3*
X-7969839D3*
X-8062434D3*
X-7051772Y1862500D3*
X-6664272Y2881251D3*
X-6139272Y3012500D3*
X-5885827Y2712598D3*
X-1687008Y1600394D3*
X-2625984Y3196850D3*
X-2322835Y3031496D3*
X-2379921Y2840551D3*
X-1751969Y3275591D3*
X-1188976Y3051181D3*
X-828740Y3188976D3*
X-2903543Y2779528D3*
X-4805118Y2679134D3*
X-4840551Y3033465D3*
X-5592520Y2879921D3*
X-3877953Y2767717D3*
X-3748031Y2893701D3*
X-5716535Y2964567D3*
X-1460630Y706693D3*
Y805118D3*
X-1105311Y2277954D3*
X-5671701Y3123773D3*
X-5620913D3*
X-4923228Y2578741D3*
X-5540343Y3123773D3*
X-1223031Y2277954D3*
X-6972681Y1648423D3*
X-6295521Y1256251D3*
X-1773917Y2972001D3*
X-1602165Y1156301D3*
X-3066732Y1705710D3*
X-2421260Y1712598D3*
X-2186268Y2778545D3*
X-2375984Y3043307D3*
Y3157480D3*
X-1926772Y925000D3*
X-5064272Y1550000D3*
X-4901772D3*
X-4510236Y3175001D3*
X-3645522Y1537500D3*
X-4433022Y1531251D3*
X-3066732Y1554135D3*
X-1992126Y3234253D3*
X-5520521Y1518749D3*
X-6189272Y1556251D3*
X-5457331Y3085482D3*
X-4191929Y2795919D3*
X-710850Y557824D3*
X-464272D3*
X-3308021Y3125000D3*
X-3295522Y3062500D3*
X-458021Y2737500D3*
X-504134Y3635139D3*
X-6404969Y3025001D3*
D63*
X-1875984Y1480316D3*
D62*
X-2473130Y3214860D3*
X-2605165Y3037501D3*
X-1239272Y3637500D3*
X-5899555Y3043751D3*
X-4122256Y3176182D3*
X-4307087Y1655512D3*
X-3426181Y2808072D3*
X-2433071Y2448819D3*
X-4320866Y3003938D3*
X-1375197Y1131694D3*
X-4540748Y2971112D3*
X-5041634Y2863190D3*
X-3040354Y2451773D3*
X-1829134Y2458612D3*
X-6289665Y3177364D3*
X-1555980Y1100198D3*
X-4439961Y2552360D3*
X-3777165Y3388387D3*
X-5521114Y1289990D3*
X-3040354Y1225423D3*
X-4021614Y2796316D3*
D63*
X-6651772Y2631251D3*
D62*
X-4010827Y2765804D3*
X-3272098Y2808072D3*
X-5519685Y1551181D3*
X-4290354Y3003938D3*
X-691634Y2223423D3*
X-1286909Y3058612D3*
X-5497787Y3112056D3*
X-530709Y2968360D3*
X-3651575Y1708661D3*
X-1871835Y2881891D3*
X-7121106Y1698423D3*
X-5386811Y3150395D3*
X-3043752Y1772639D3*
X-4268701Y1229332D3*
X-4237205Y2830710D3*
X-6261909Y2759104D3*
X-1379579Y3127312D3*
X-1577559Y1077560D3*
X-6410382Y2878147D3*
X-1788831Y1374635D3*
X-3079189Y1225423D3*
X-4931992Y1230364D3*
X-1702114Y1348064D3*
X-5521114Y1248060D3*
X-796559Y478249D3*
X-1286909Y3129379D3*
X-1136516Y3528249D3*
X-6296606Y2585875D3*
X-4266240Y2939966D3*
X-4261417Y2809131D3*
X-3272098Y2762793D3*
X-263878Y1985139D3*
X-4540748Y2932088D3*
X-7931102Y1994094D3*
X-3418307Y3007879D3*
X-3389768Y2808072D3*
X-1460626Y606253D3*
X-1817717Y706253D3*
Y806253D3*
Y606253D3*
X-980811Y2436320D3*
X-691634Y2862501D3*
X-6412846Y2746013D3*
X-595126Y3040647D3*
X-3217520Y2814962D3*
X-412157Y1166486D3*
X-2413386Y1781496D3*
X-4892126Y2814714D3*
X-3646114Y1263812D3*
X-6146114D3*
X-5218071Y2656497D3*
X-4913484Y1402887D3*
X-1273228Y2355710D3*
X-548520Y3333466D3*
X-416929Y3260139D3*
X-540157Y992915D3*
X-4996457Y2718505D3*
X-2073362Y2777560D3*
X-4937402Y2790352D3*
X-464272Y1163537D3*
X-1811469Y1225423D3*
X-6310236Y2513387D3*
X-1323228Y2633860D3*
X-4903004Y1664205D3*
X-4851772Y2560285D3*
X-2645522Y2929038D3*
X-6120521Y2795966D3*
X-5895522Y2916535D3*
X-4601772Y2941537D3*
X-5712058Y3156252D3*
X-2433071Y1265748D3*
X-1958021Y3176822D3*
D24*
X-1570522Y2187500D3*
Y2287500D3*
Y2387500D3*
Y2487500D3*
Y2587500D3*
Y2687500D3*
Y2787500D3*
X-310680D3*
Y2687500D3*
Y2587500D3*
Y2487500D3*
Y2387500D3*
Y2287500D3*
Y2187500D3*
D32*
X-1590354Y3862206D3*
X-740353D3*
X-8101772Y4442915D3*
Y3862206D3*
X-7601772Y4442915D3*
Y3862206D3*
X-6539272Y3962501D3*
X-5914272D3*
X-5289272D3*
X-4664272D3*
X-6539272Y4450001D3*
X-5914272D3*
X-5289272D3*
X-4664272D3*
X-1165354Y3862206D3*
X-315353D3*
X-1480118Y4442915D3*
X-956693D3*
X-7101772D3*
Y3862206D3*
X-4039272Y3962501D3*
X-3414272D3*
X-2789272D3*
X-2164272D3*
X-4039272Y4450001D3*
X-3414272D3*
X-2789272D3*
X-2164272D3*
X-6539272Y3475001D3*
X-5914272D3*
X-5289272D3*
X-4664272D3*
X-4039272D3*
X-3414272D3*
X-2789272D3*
X-2164272D3*
X-433268Y4442915D3*
D48*
X-1314272Y737500D3*
Y787500D3*
Y837500D3*
Y887500D3*
Y937500D3*
Y987500D3*
M02*
