M48
INCH
T01C0.0079
T02C0.0098
T03C0.0236
T04C0.0315
T05C0.2362
%
T04
X-015705Y+021875
X-015705Y+022875
X-015705Y+023875
X-015705Y+024875
X-015705Y+025875
X-015705Y+026875
X-015705Y+027875
X-003107Y+027875
X-003107Y+026875
X-003107Y+025875
X-003107Y+024875
X-003107Y+023875
X-003107Y+022875
X-003107Y+021875
T05
X-015904Y+038622
X-007404Y+038622
X-081018Y+044429
X-081018Y+038622
X-076018Y+044429
X-076018Y+038622
X-065393Y+039625
X-059143Y+039625
X-052893Y+039625
X-046643Y+039625
X-065393Y+044500
X-059143Y+044500
X-052893Y+044500
X-046643Y+044500
X-011654Y+038622
X-003154Y+038622
X-014801Y+044429
X-009567Y+044429
X-071018Y+044429
X-071018Y+038622
X-040393Y+039625
X-034143Y+039625
X-027893Y+039625
X-021643Y+039625
X-040393Y+044500
X-034143Y+044500
X-027893Y+044500
X-021643Y+044500
X-065393Y+034750
X-059143Y+034750
X-052893Y+034750
X-046643Y+034750
X-040393Y+034750
X-034143Y+034750
X-027893Y+034750
X-021643Y+034750
X-004333Y+044429
T02
X-063863Y+024344
X-063863Y+019970
X-063863Y+016533
X-063863Y+012971
X-063863Y+009534
X-063863Y+006034
X-063863Y+021782
X-063863Y+018345
X-063863Y+014783
X-063863Y+011283
X-063863Y+007784
X-063863Y+003969
X-057613Y+024344
X-057613Y+019970
X-057613Y+016533
X-057613Y+012971
X-057613Y+009534
X-057613Y+006034
X-057613Y+021782
X-057613Y+018345
X-057613Y+014783
X-057613Y+011283
X-057613Y+007784
X-057613Y+003969
X-051363Y+024344
X-051363Y+019970
X-051363Y+016533
X-051363Y+012971
X-051363Y+009534
X-051363Y+006034
X-051363Y+021782
X-051363Y+018345
X-051363Y+014783
X-051363Y+011283
X-051363Y+007784
X-051363Y+003969
X-045113Y+024344
X-045113Y+019970
X-045113Y+016533
X-045113Y+012971
X-045113Y+009534
X-045113Y+006034
X-045113Y+021782
X-045113Y+018345
X-045113Y+014783
X-045113Y+011283
X-045113Y+007784
X-045113Y+003969
X-038863Y+024344
X-038863Y+019970
X-038863Y+016533
X-038863Y+012971
X-038863Y+009534
X-038863Y+006034
X-038863Y+021782
X-038863Y+018345
X-038863Y+014783
X-038863Y+011283
X-038863Y+007784
X-038863Y+003969
X-032613Y+024344
X-032613Y+019970
X-032613Y+016533
X-032613Y+012971
X-032613Y+009534
X-032613Y+006034
X-032613Y+021782
X-032613Y+018345
X-032613Y+014783
X-032613Y+011283
X-032613Y+007784
X-032613Y+003969
X-026363Y+024344
X-026363Y+019970
X-026363Y+016533
X-026363Y+012971
X-026363Y+009534
X-026363Y+006034
X-026363Y+021782
X-026363Y+018345
X-026363Y+014783
X-026363Y+011283
X-026363Y+007784
X-026363Y+003969
X-020113Y+024344
X-020113Y+019970
X-020113Y+016533
X-020113Y+012971
X-020113Y+009534
X-020113Y+006034
X-020113Y+021782
X-020113Y+018345
X-020113Y+014783
X-020113Y+011283
X-020113Y+007784
X-020113Y+003969
X-080564Y+015125
X-079638Y+015125
X-078712Y+015125
X-077786Y+015125
X-076860Y+015125
X-075934Y+015125
X-075009Y+015125
X-074083Y+015125
X-073157Y+015125
X-072231Y+015125
X-071305Y+015125
X-070379Y+015125
X-080564Y+013273
X-079638Y+013273
X-078712Y+013273
X-077786Y+013273
X-076860Y+013273
X-075934Y+013273
X-075009Y+013273
X-074083Y+013273
X-073157Y+013273
X-072231Y+013273
X-071305Y+013273
X-070379Y+013273
X-080564Y+005865
X-079638Y+005865
X-078712Y+005865
X-077786Y+005865
X-076860Y+005865
X-075934Y+005865
X-075009Y+005865
X-074083Y+005865
X-073157Y+005865
X-072231Y+005865
X-071305Y+005865
X-070379Y+005865
X-080564Y+007717
X-079638Y+007717
X-078712Y+007717
X-077786Y+007717
X-076860Y+007717
X-075934Y+007717
X-075009Y+007717
X-074083Y+007717
X-073157Y+007717
X-072231Y+007717
X-071305Y+007717
X-070379Y+007717
X-080564Y+009575
X-079638Y+009575
X-078712Y+009575
X-077786Y+009575
X-076860Y+009575
X-075934Y+009575
X-075008Y+009575
X-074082Y+009575
X-073156Y+009575
X-072230Y+009575
X-071304Y+009575
X-070378Y+009575
X-080564Y+011421
X-079638Y+011421
X-078712Y+011421
X-077786Y+011421
X-076860Y+011421
X-075934Y+011421
X-075009Y+011421
X-074083Y+011421
X-073157Y+011421
X-072231Y+011421
X-071305Y+011421
X-070379Y+011421
X-070439Y+022171
X-071365Y+022171
X-072291Y+022171
X-073217Y+022171
X-074143Y+022171
X-075069Y+022171
X-075995Y+022171
X-076921Y+022171
X-077846Y+022171
X-078772Y+022171
X-079698Y+022171
X-080624Y+022171
X-070439Y+024023
X-071365Y+024023
X-072291Y+024023
X-073217Y+024023
X-074143Y+024023
X-075069Y+024023
X-075995Y+024023
X-076921Y+024023
X-077846Y+024023
X-078772Y+024023
X-079698Y+024023
X-080624Y+024023
X-070439Y+031431
X-071365Y+031431
X-072291Y+031431
X-073217Y+031431
X-074143Y+031431
X-075069Y+031431
X-075995Y+031431
X-076921Y+031431
X-077846Y+031431
X-078772Y+031431
X-079698Y+031431
X-080624Y+031431
X-070439Y+029579
X-071365Y+029579
X-072291Y+029579
X-073217Y+029579
X-074143Y+029579
X-075069Y+029579
X-075995Y+029579
X-076921Y+029579
X-077846Y+029579
X-078772Y+029579
X-079698Y+029579
X-080624Y+029579
X-070439Y+027722
X-071365Y+027722
X-072291Y+027722
X-073217Y+027722
X-074143Y+027722
X-075069Y+027722
X-075995Y+027722
X-076921Y+027722
X-077847Y+027722
X-078773Y+027722
X-079699Y+027722
X-080625Y+027722
X-070439Y+025875
X-071365Y+025875
X-072291Y+025875
X-073217Y+025875
X-074143Y+025875
X-075069Y+025875
X-075995Y+025875
X-076921Y+025875
X-077846Y+025875
X-078772Y+025875
X-079698Y+025875
X-080624Y+025875
X-070518Y+018625
X-066643Y+028813
X-061393Y+030125
X-058858Y+027126
X-016870Y+016004
X-026260Y+031969
X-023228Y+030315
X-023799Y+028406
X-017520Y+032756
X-011890Y+030512
X-008287Y+031890
X-029035Y+027795
X-048051Y+026791
X-048406Y+030335
X-055925Y+028799
X-038780Y+027677
X-037480Y+028937
X-057165Y+029646
T03
X-013143Y+007375
X-013143Y+007875
X-013143Y+008375
X-013143Y+008875
X-013143Y+009375
X-013143Y+009875
T02
X-014606Y+007067
X-014606Y+008051
X-011053Y+022780
X-056717Y+031238
X-056209Y+031238
X-049232Y+025787
X-055403Y+031238
X-012230Y+022780
X-069727Y+016484
X-062955Y+012563
X-017739Y+029720
X-016022Y+011563
X-030667Y+017057
X-024213Y+017126
X-021863Y+027785
X-023760Y+030433
X-023760Y+031575
X-019268Y+009250
X-050643Y+015500
X-049018Y+015500
X-045102Y+031750
X-036455Y+015375
X-044330Y+015313
X-030667Y+015541
X-019921Y+032343
X-055205Y+015187
X-061893Y+015563
X-054573Y+030855
X-041919Y+027959
X-007109Y+005578
X-004643Y+005578
X-033080Y+031250
X-032955Y+030625
X-004580Y+027375
X-005041Y+036351
X-064050Y+030250
T01
X-018760Y+014803
T02
X-024731Y+032149
X-026052Y+030375
X-012393Y+036375
X-058996Y+030438
X-041223Y+031762
X-043071Y+016555
X-034262Y+028081
X-024331Y+024488
X-043209Y+030039
X-013752Y+011317
X-045407Y+029711
X-050416Y+028632
X-030404Y+024518
X-018291Y+024586
X-062897Y+031774
X-015560Y+011002
X-044400Y+025524
X-037772Y+033884
X-055211Y+012900
X-030404Y+012254
X-040216Y+027963
T01
X-066518Y+026313
T02
X-040108Y+027658
X-032721Y+028081
X-055197Y+015512
X-042904Y+030039
X-006916Y+022234
X-012869Y+030586
X-054978Y+031121
X-005307Y+029684
X-036516Y+017087
X-018718Y+028819
X-071211Y+016984
X-053868Y+031504
X-030438Y+017726
X-042687Y+012293
X-042372Y+028307
X-062619Y+027591
X-013796Y+031273
X-015776Y+010776
X-064104Y+028781
X-017888Y+013746
X-030792Y+012254
X-049320Y+012304
X-017021Y+013481
X-055211Y+012481
X-007966Y+004782
X-012869Y+031294
X-011365Y+035282
X-062966Y+025859
X-042662Y+029400
X-042614Y+028091
X-032721Y+027628
X-002639Y+019851
X-045407Y+029321
X-079311Y+019941
X-034183Y+030079
X-033898Y+028081
X-014606Y+006063
X-018177Y+007063
X-018177Y+008063
X-018177Y+006063
X-009808Y+024363
X-006916Y+028625
X-064128Y+027460
X-005951Y+030406
X-032175Y+028150
X-004122Y+011665
X-024134Y+017815
X-048921Y+028147
X-036461Y+012638
X-061461Y+012638
X-052181Y+026565
X-049135Y+014029
X-012732Y+023557
X-005485Y+033335
X-004169Y+032601
X-005402Y+009929
X-049965Y+027185
X-020734Y+027776
X-049374Y+027904
X-004643Y+011635
X-018115Y+012254
X-063102Y+025134
X-013232Y+026339
X-049030Y+016642
X-048518Y+025603
X-026455Y+029290
X-061205Y+027960
X-058955Y+029165
X-046018Y+029415
X-057121Y+031563
X-024331Y+012657
X-019580Y+031768
X-005518Y+031750
X-020518Y+030563
X-037088Y+030079
X-046058Y+030688
X-058018Y+027000
X-061518Y+026688
X-049018Y+027812
X-037393Y+024438
X-037893Y+016250
X-081080Y+019500
X-043071Y+015591
X-081768Y+024375
X-081643Y+023500
X-075268Y+020250
X-069265Y+013128
X-075393Y+017125
X-081893Y+007000
X-078018Y+004000
X-072768Y+004000
X-068393Y+004000
X-067643Y+005000
X-081702Y+012866
X-067018Y+028625
X-069018Y+029438
X-078205Y+033875
X-048955Y+004823
X-048955Y+003125
X-014018Y+010438
X-014018Y+011750
X-042935Y+028583
X-043768Y+032000
X-039872Y+028229
X-036393Y+033187
X-042643Y+033062
X-049330Y+032938
X-055268Y+032938
X-061205Y+032625
X-026143Y+027750
X-037518Y+032125
X-008393Y+040938
X-016518Y+040625
X-018705Y+041438
X-010540Y+025313
X-005018Y+022500
X-032455Y+027382
X-032455Y+028500
X-030268Y+033000
X-023768Y+033000
X-006893Y+005125
X-019143Y+019813
X-018455Y+003125
T01
X-061393Y+014937
T02
X-018143Y+021312
T01
X-037165Y+014352
X-036768Y+025375
T02
X-029080Y+031313
X-016393Y+031125
T01
X-017830Y+025500
X-030393Y+015187
X-055955Y+014375
T02
X-055610Y+017185
X-018955Y+024812
X-017393Y+030375
T01
X-017580Y+025750
X-024080Y+015250
X-078080Y+019438
X-019094Y+030433
X-019717Y+030701
X-071929Y+018366
X-049455Y+014350
T02
X-048917Y+017500
X-018830Y+019187
X-017080Y+030375
T01
X-042618Y+015020
X-042618Y+023938
T02
X-018205Y+023938
X-001768Y+036125
X-001455Y+035813
X-050236Y+029370
X-062500Y+037244
X-062518Y+041691
X-044165Y+028147
X-073393Y+035125
X-063768Y+029188
X-069143Y+034625
X-059705Y+031688
X-073018Y+034813
X-064018Y+031625
X-056268Y+041375
X-044143Y+025750
T01
X-017330Y+026000
X-017021Y+014434
T02
X-001205Y+035500
X-000955Y+035188
X-062580Y+006062
X-053830Y+025813
X-062893Y+009437
X-054268Y+025938
X-062953Y+016535
X-054606Y+025925
X-067580Y+024688
X-065768Y+025125
X-082080Y+017270
X-071580Y+019688
X-069268Y+019625
X-065669Y+026063
X-067830Y+008625
X-065408Y+025125
X-068080Y+025813
X-068768Y+020313
X-069768Y+020313
X-081519Y+011500
X-065018Y+027125
X-065018Y+026375
X-075768Y+017500
X-064640Y+026375
X-070464Y+016804
X-068893Y+018938
X-068518Y+020557
X-068205Y+025375
X-068643Y+010063
X-068080Y+018554
X-068268Y+024125
X-066143Y+027063
X-074580Y+033375
X-064330Y+028563
X-064640Y+028438
X-067653Y+031698
X-069164Y+025791
X-065152Y+027509
X-067080Y+027188
X-065455Y+027323
X-082143Y+020563
X-065955Y+028375
X-017279Y+041136
X-057143Y+034500
X-012393Y+041750
X-057393Y+033500
X-058518Y+028625
X-058580Y+026625
X-063143Y+032500
X-060830Y+029125
X-063518Y+032250
X-060893Y+028625
X-062268Y+031625
X-060393Y+029063
X-050018Y+041125
X-048893Y+034500
X-048893Y+032000
X-046893Y+025750
X-044643Y+028125
X-047393Y+028125
X-024268Y+038875
X-031955Y+031563
X-023893Y+034063
X-030705Y+031687
X-011535Y+027067
T01
X-011018Y+023312
T02
X-013268Y+015625
X-014862Y+023209
X-013643Y+016000
X-008643Y+015500
X-002768Y+015125
X-008643Y+016000
X-010143Y+024750
X-002617Y+014464
X-004617Y+014901
X-005205Y+015428
X-062579Y+022323
X-055531Y+028425
X-062638Y+020098
X-055157Y+026339
X-062697Y+018110
X-054783Y+026220
X-024580Y+004364
X-027303Y+028130
X-024330Y+023250
X-023839Y+007972
X-023893Y+010063
X-027244Y+029114
X-027717Y+029665
X-024893Y+024375
X-027382Y+029862
X-019311Y+022106
X-025236Y+005866
X-028878Y+030138
X-025433Y+009665
X-029393Y+030125
X-030177Y+010295
X-029311Y+027224
X-025630Y+016811
X-031260Y+029882
X-030689Y+006299
X-031201Y+029193
X-031693Y+009232
X-031455Y+028938
X-031906Y+015236
X-031693Y+028661
X-031768Y+016909
X-031949Y+028406
X-036478Y+004211
X-038346Y+030630
X-037992Y+009488
X-038425Y+031043
X-038169Y+015276
X-039173Y+031161
X-037913Y+016831
X-038425Y+031417
X-039193Y+025630
X-040443Y+031378
X-040830Y+031437
X-039469Y+025433
X-043110Y+004311
X-040659Y+025669
X-044232Y+009291
X-040895Y+025984
X-044331Y+016496
X-041131Y+026299
X-044252Y+016949
X-041545Y+030787
X-044193Y+018406
X-041580Y+030396
X-044173Y+022421
X-042677Y+030394
X-042756Y+005532
X-041398Y+025413
X-050354Y+009331
X-043406Y+026299
T01
X-049291Y+017171
X-050205Y+016500
X-048924Y+018094
X-050205Y+016812
T02
X-048830Y+018622
X-050197Y+018622
X-048830Y+022047
X-049941Y+022047
X-056643Y+005875
X-050580Y+026336
X-050580Y+027750
X-051955Y+029563
X-056705Y+009438
X-050893Y+026336
X-050893Y+028313
X-051955Y+029875
X-056830Y+016813
X-051205Y+026336
X-051205Y+028000
X-051955Y+030188
T01
X-066205Y+026250
X-052548Y+028406
X-039390Y+029843
X-027992Y+028406
T02
X-013018Y+015250
X-082163Y+027708
X-066205Y+028688
T01
X-004330Y+030625
X-017768Y+030938
T02
X-061705Y+038125
X-011643Y+013250
X-055455Y+038125
X-011893Y+012875
X-049518Y+038625
X-013643Y+013375
X-042955Y+038250
X-013884Y+012992
X-036705Y+038250
T01
X-008143Y+022125
T02
X-030433Y+038147
T01
X-007893Y+021875
T02
X-019768Y+038000
T01
X-007643Y+021625
T02
X-017768Y+045750
T01
X-007393Y+021375
X-002143Y+042875
X-007143Y+021125
X-016330Y+012375
X-016768Y+009938
T02
X-000893Y+031375
X-000893Y+031000
X-000893Y+030625
X-000893Y+030125
X-080162Y+021477
X-070841Y+015819
X-078310Y+021477
X-072693Y+015820
X-076458Y+023445
X-074545Y+013852
X-070902Y+024949
X-080101Y+012347
X-072754Y+023560
X-078249Y+013737
X-074606Y+022866
X-076397Y+014431
T01
X-019642Y+027771
X-049902Y+025591
X-019642Y+027525
X-049728Y+025765
X-019787Y+027259
X-036906Y+027674
X-019787Y+027013
X-037080Y+027500
X-019914Y+026593
X-044672Y+030096
X-019740Y+026419
X-044846Y+029922
X-062730Y+025610
X-021211Y+025728
X-062484Y+025610
X-021211Y+025984
X-021211Y+026240
X-057459Y+030000
X-021211Y+026496
X-057705Y+030000
X-013264Y+031174
X-019644Y+028463
X-013510Y+031174
X-019818Y+028637
T02
X-020059Y+029193
T01
X-017992Y+033248
X-072950Y+018088
X-067143Y+026500
X-052580Y+027637
X-039793Y+029095
X-062500Y+014803
X-078330Y+019188
X-056280Y+014823
X-049768Y+014805
X-043780Y+014823
X-037518Y+014813
X-030906Y+014783
X-024941Y+014823
X-026455Y+028062
X-017143Y+014750
X-003330Y+030438
X-016205Y+019188
T02
X-020374Y+028701
T01
X-026929Y+028110
X-026240Y+027382
X-039813Y+028839
X-052579Y+027382
X-062500Y+014508
X-072739Y+017812
X-079252Y+018957
X-056122Y+014587
X-049705Y+014553
X-043681Y+014567
X-037393Y+014563
X-030906Y+014409
X-024862Y+014528
X-018661Y+014528
X-067518Y+026250
X-070268Y+018375
X-070268Y+017812
X-003518Y+030687
X-017264Y+032362
X-016393Y+020125
X-018080Y+025063
X-018080Y+026875
T00
M30
