G04 DipTrace 3.3.1.1*
G04 TopAssy.gbr*
%MOIN*%
G04 #@! TF.FileFunction,Drawing,Top*
G04 #@! TF.Part,Single*
%ADD11C,0.005512*%
%ADD15C,0.007874*%
%FSLAX26Y26*%
G04*
G70*
G90*
G75*
G01*
G04 TopAssy*
%LPD*%
X-1728383Y2881201D2*
D15*
X-153132D1*
Y2093799D1*
X-1728383D1*
Y2881201D1*
X-8346457Y1D2*
D11*
X-39370D1*
G03X0Y39371I-1J39371D01*
G01*
Y5019686D1*
G03X-39370Y5059056I-39371J-1D01*
G01*
X-8346457D1*
G03X-8385827Y5019686I1J-39371D01*
G01*
Y39371D1*
G03X-8346457Y1I39371J1D01*
G01*
X-7912293Y121398D2*
X-7912387Y117675D1*
X-7912667Y114007D1*
X-7913127Y110400D1*
X-7913762Y106864D1*
X-7914568Y103402D1*
X-7915538Y100021D1*
X-7916668Y96726D1*
X-7917953Y93524D1*
X-7919386Y90421D1*
X-7920965Y87424D1*
X-7922681Y84538D1*
X-7924531Y81769D1*
X-7926510Y79123D1*
X-7928613Y76608D1*
X-7930833Y74227D1*
X-7933167Y71990D1*
X-7935609Y69899D1*
X-7938154Y67962D1*
X-7940795Y66186D1*
X-7943529Y64576D1*
X-7946350Y63138D1*
X-7949253Y61878D1*
X-7952234Y60803D1*
X-7955285Y59920D1*
X-7958403Y59232D1*
X-7961583Y58748D1*
X-7963734Y58541D1*
X-7965908Y58428D1*
X-8134265D1*
X-8136440Y58541D1*
X-8138591Y58748D1*
X-8141770Y59232D1*
X-8144888Y59920D1*
X-8147941Y60803D1*
X-8150921Y61878D1*
X-8153824Y63138D1*
X-8156646Y64576D1*
X-8159379Y66186D1*
X-8162022Y67962D1*
X-8164566Y69899D1*
X-8167008Y71990D1*
X-8169341Y74227D1*
X-8171562Y76608D1*
X-8173664Y79123D1*
X-8175643Y81769D1*
X-8177495Y84538D1*
X-8179211Y87424D1*
X-8180789Y90421D1*
X-8182222Y93524D1*
X-8183507Y96726D1*
X-8184636Y100021D1*
X-8185606Y103402D1*
X-8186412Y106864D1*
X-8187049Y110400D1*
X-8187508Y114007D1*
X-8188976Y122047D1*
X-8187883Y121398D1*
X-8187789Y125122D1*
X-8187508Y128790D1*
X-8187049Y132395D1*
X-8186412Y135932D1*
X-8185606Y139394D1*
X-8184636Y142776D1*
X-8183507Y146070D1*
X-8182222Y149272D1*
X-8180789Y152374D1*
X-8179211Y155371D1*
X-8177495Y158259D1*
X-8175643Y161028D1*
X-8173664Y163672D1*
X-8171562Y166188D1*
X-8169341Y168568D1*
X-8167008Y170807D1*
X-8164566Y172898D1*
X-8162022Y174833D1*
X-8159379Y176610D1*
X-8156646Y178220D1*
X-8153824Y179657D1*
X-8150921Y180917D1*
X-8147941Y181992D1*
X-8144888Y182877D1*
X-8141770Y183564D1*
X-8138591Y184049D1*
X-8136440Y184256D1*
X-8134265Y184369D1*
X-7965908D1*
X-7963734Y184256D1*
X-7961583Y184049D1*
X-7958403Y183564D1*
X-7955285Y182877D1*
X-7952234Y181992D1*
X-7949253Y180917D1*
X-7946350Y179657D1*
X-7943529Y178220D1*
X-7940795Y176610D1*
X-7938154Y174833D1*
X-7935609Y172898D1*
X-7933167Y170807D1*
X-7930833Y168568D1*
X-7928613Y166188D1*
X-7926510Y163672D1*
X-7924531Y161028D1*
X-7922681Y158259D1*
X-7920965Y155371D1*
X-7919386Y152374D1*
X-7917953Y149272D1*
X-7916668Y146070D1*
X-7915538Y142776D1*
X-7914568Y139394D1*
X-7913762Y135932D1*
X-7913127Y132395D1*
X-7912667Y128790D1*
X-7912387Y125122D1*
X-7912293Y121398D1*
Y4933755D2*
X-7912387Y4930030D1*
X-7912667Y4926362D1*
X-7913127Y4922757D1*
X-7913762Y4919220D1*
X-7914568Y4915759D1*
X-7915538Y4912377D1*
X-7916668Y4909081D1*
X-7917953Y4905881D1*
X-7919386Y4902778D1*
X-7920965Y4899780D1*
X-7922681Y4896894D1*
X-7924531Y4894125D1*
X-7926510Y4891480D1*
X-7928613Y4888963D1*
X-7930833Y4886584D1*
X-7933167Y4884345D1*
X-7935609Y4882255D1*
X-7938154Y4880319D1*
X-7940795Y4878542D1*
X-7943529Y4876932D1*
X-7946350Y4875495D1*
X-7949253Y4874235D1*
X-7952234Y4873160D1*
X-7955285Y4872276D1*
X-7958403Y4871588D1*
X-7961583Y4871104D1*
X-7963734Y4870896D1*
X-7965908Y4870783D1*
X-8134265D1*
X-8136440Y4870896D1*
X-8138591Y4871104D1*
X-8141770Y4871588D1*
X-8144888Y4872276D1*
X-8147941Y4873160D1*
X-8150921Y4874235D1*
X-8153824Y4875495D1*
X-8156646Y4876932D1*
X-8159379Y4878542D1*
X-8162022Y4880319D1*
X-8164566Y4882255D1*
X-8167008Y4884345D1*
X-8169341Y4886584D1*
X-8171562Y4888963D1*
X-8173664Y4891480D1*
X-8175643Y4894125D1*
X-8177495Y4896894D1*
X-8179211Y4899780D1*
X-8180789Y4902778D1*
X-8182222Y4905881D1*
X-8183507Y4909081D1*
X-8184636Y4912377D1*
X-8185606Y4915759D1*
X-8186412Y4919220D1*
X-8187049Y4922757D1*
X-8187508Y4926362D1*
X-8187789Y4930030D1*
X-8187883Y4933755D1*
X-8187789Y4937478D1*
X-8187508Y4941146D1*
X-8187049Y4944751D1*
X-8186412Y4948287D1*
X-8185606Y4951751D1*
X-8184636Y4955131D1*
X-8183507Y4958427D1*
X-8182222Y4961627D1*
X-8180789Y4964731D1*
X-8179211Y4967728D1*
X-8177495Y4970614D1*
X-8175643Y4973383D1*
X-8173664Y4976029D1*
X-8171562Y4978545D1*
X-8169341Y4980924D1*
X-8167008Y4983163D1*
X-8164566Y4985253D1*
X-8162022Y4987190D1*
X-8159379Y4988966D1*
X-8156646Y4990576D1*
X-8153824Y4992014D1*
X-8150921Y4993273D1*
X-8147941Y4994348D1*
X-8144888Y4995232D1*
X-8141770Y4995920D1*
X-8138591Y4996404D1*
X-8136440Y4996612D1*
X-8134265Y4996724D1*
X-7965908D1*
X-7963734Y4996612D1*
X-7961583Y4996404D1*
X-7958403Y4995920D1*
X-7955285Y4995232D1*
X-7952234Y4994348D1*
X-7949253Y4993273D1*
X-7946350Y4992014D1*
X-7943529Y4990576D1*
X-7940795Y4988966D1*
X-7938154Y4987190D1*
X-7935609Y4985253D1*
X-7933167Y4983163D1*
X-7930833Y4980924D1*
X-7928613Y4978545D1*
X-7926510Y4976029D1*
X-7924531Y4973383D1*
X-7922681Y4970614D1*
X-7920965Y4967728D1*
X-7919386Y4964731D1*
X-7917953Y4961627D1*
X-7916668Y4958427D1*
X-7915538Y4955131D1*
X-7914568Y4951751D1*
X-7913762Y4948287D1*
X-7913127Y4944751D1*
X-7912667Y4941146D1*
X-7912387Y4937478D1*
X-7912293Y4933755D1*
X-197883Y121398D2*
X-197978Y117675D1*
X-198257Y114007D1*
X-198718Y110400D1*
X-199353Y106864D1*
X-200159Y103402D1*
X-201129Y100021D1*
X-202259Y96726D1*
X-203543Y93524D1*
X-204976Y90421D1*
X-206555Y87424D1*
X-208272Y84538D1*
X-210122Y81769D1*
X-212101Y79123D1*
X-214203Y76608D1*
X-216424Y74227D1*
X-218757Y71990D1*
X-221199Y69899D1*
X-223744Y67962D1*
X-226386Y66186D1*
X-229119Y64576D1*
X-231941Y63138D1*
X-234844Y61878D1*
X-237824Y60803D1*
X-240875Y59920D1*
X-243993Y59232D1*
X-247173Y58748D1*
X-249324Y58541D1*
X-251499Y58428D1*
X-419856D1*
X-422030Y58541D1*
X-424181Y58748D1*
X-427361Y59232D1*
X-430479Y59920D1*
X-433531Y60803D1*
X-436512Y61878D1*
X-439415Y63138D1*
X-442236Y64576D1*
X-444970Y66186D1*
X-447613Y67962D1*
X-450156Y69899D1*
X-452598Y71990D1*
X-454932Y74227D1*
X-457152Y76608D1*
X-459255Y79123D1*
X-461234Y81769D1*
X-463085Y84538D1*
X-464802Y87424D1*
X-466379Y90421D1*
X-467812Y93524D1*
X-469097Y96726D1*
X-470227Y100021D1*
X-471197Y103402D1*
X-472003Y106864D1*
X-472639Y110400D1*
X-473098Y114007D1*
X-473379Y117675D1*
X-473474Y121398D1*
X-473379Y125122D1*
X-473098Y128790D1*
X-472639Y132395D1*
X-472003Y135932D1*
X-471197Y139394D1*
X-470227Y142776D1*
X-469097Y146070D1*
X-467812Y149272D1*
X-466379Y152374D1*
X-464802Y155371D1*
X-463085Y158259D1*
X-461234Y161028D1*
X-459255Y163672D1*
X-457152Y166188D1*
X-454932Y168568D1*
X-452598Y170807D1*
X-450156Y172898D1*
X-447613Y174833D1*
X-444970Y176610D1*
X-442236Y178220D1*
X-439415Y179657D1*
X-436512Y180917D1*
X-433531Y181992D1*
X-430479Y182877D1*
X-427361Y183564D1*
X-424181Y184049D1*
X-422030Y184256D1*
X-419856Y184369D1*
X-251499D1*
X-249324Y184256D1*
X-247173Y184049D1*
X-243993Y183564D1*
X-240875Y182877D1*
X-237824Y181992D1*
X-234844Y180917D1*
X-231941Y179657D1*
X-229119Y178220D1*
X-226386Y176610D1*
X-223744Y174833D1*
X-221199Y172898D1*
X-218757Y170807D1*
X-216424Y168568D1*
X-214203Y166188D1*
X-212101Y163672D1*
X-210122Y161028D1*
X-208272Y158259D1*
X-206555Y155371D1*
X-204976Y152374D1*
X-203543Y149272D1*
X-202259Y146070D1*
X-201129Y142776D1*
X-200159Y139394D1*
X-199353Y135932D1*
X-198718Y132395D1*
X-198257Y128790D1*
X-197978Y125122D1*
X-197883Y121398D1*
Y4933755D2*
X-197978Y4930030D1*
X-198257Y4926362D1*
X-198718Y4922757D1*
X-199353Y4919220D1*
X-200159Y4915759D1*
X-201129Y4912377D1*
X-202259Y4909081D1*
X-203543Y4905881D1*
X-204976Y4902778D1*
X-206555Y4899780D1*
X-208272Y4896894D1*
X-210122Y4894125D1*
X-212101Y4891480D1*
X-214203Y4888963D1*
X-216424Y4886584D1*
X-218757Y4884345D1*
X-221199Y4882255D1*
X-223744Y4880319D1*
X-226386Y4878542D1*
X-229119Y4876932D1*
X-231941Y4875495D1*
X-234844Y4874235D1*
X-237824Y4873160D1*
X-240875Y4872276D1*
X-243993Y4871588D1*
X-247173Y4871104D1*
X-249324Y4870896D1*
X-251499Y4870783D1*
X-419856D1*
X-422030Y4870896D1*
X-424181Y4871104D1*
X-427361Y4871588D1*
X-430479Y4872276D1*
X-433531Y4873160D1*
X-436512Y4874235D1*
X-439415Y4875495D1*
X-442236Y4876932D1*
X-444970Y4878542D1*
X-447613Y4880319D1*
X-450156Y4882255D1*
X-452598Y4884345D1*
X-454932Y4886584D1*
X-457152Y4888963D1*
X-459255Y4891480D1*
X-461234Y4894125D1*
X-463085Y4896894D1*
X-464802Y4899780D1*
X-466379Y4902778D1*
X-467812Y4905881D1*
X-469097Y4909081D1*
X-470227Y4912377D1*
X-471197Y4915759D1*
X-472003Y4919220D1*
X-472639Y4922757D1*
X-473098Y4926362D1*
X-473379Y4930030D1*
X-473474Y4933755D1*
X-473379Y4937478D1*
X-473098Y4941146D1*
X-472639Y4944751D1*
X-472003Y4948287D1*
X-471197Y4951751D1*
X-470227Y4955131D1*
X-469097Y4958427D1*
X-467812Y4961627D1*
X-466379Y4964731D1*
X-464802Y4967728D1*
X-463085Y4970614D1*
X-461234Y4973383D1*
X-459255Y4976029D1*
X-457152Y4978545D1*
X-454932Y4980924D1*
X-452598Y4983163D1*
X-450156Y4985253D1*
X-447613Y4987190D1*
X-444970Y4988966D1*
X-442236Y4990576D1*
X-439415Y4992014D1*
X-436512Y4993273D1*
X-433531Y4994348D1*
X-430479Y4995232D1*
X-427361Y4995920D1*
X-424181Y4996404D1*
X-422030Y4996612D1*
X-419856Y4996724D1*
X-251499D1*
X-249324Y4996612D1*
X-247173Y4996404D1*
X-243993Y4995920D1*
X-240875Y4995232D1*
X-237824Y4994348D1*
X-234844Y4993273D1*
X-231941Y4992014D1*
X-229119Y4990576D1*
X-226386Y4988966D1*
X-223744Y4987190D1*
X-221199Y4985253D1*
X-218757Y4983163D1*
X-216424Y4980924D1*
X-214203Y4978545D1*
X-212101Y4976029D1*
X-210122Y4973383D1*
X-208272Y4970614D1*
X-206555Y4967728D1*
X-204976Y4964731D1*
X-203543Y4961627D1*
X-202259Y4958427D1*
X-201129Y4955131D1*
X-200159Y4951751D1*
X-199353Y4948287D1*
X-198718Y4944751D1*
X-198257Y4941146D1*
X-197978Y4937478D1*
X-197883Y4933755D1*
X-936315Y679783D2*
X-943720Y679902D1*
X-951051Y680374D1*
X-958307Y681083D1*
X-965488Y682087D1*
X-972520Y683386D1*
X-979551Y684921D1*
X-986358Y686752D1*
X-993165Y688878D1*
X-999823Y691181D1*
X-1006331Y693780D1*
X-1012689Y696614D1*
X-1018972Y699685D1*
X-1025106Y702992D1*
X-1031091Y706535D1*
X-1036925Y710256D1*
X-1042610Y714213D1*
X-1048071Y718406D1*
X-1053457Y722776D1*
X-1058618Y727323D1*
X-1063630Y732047D1*
X-1068417Y737008D1*
X-1073055Y742146D1*
X-1077469Y747461D1*
X-1081732Y752894D1*
X-1085697Y758504D1*
X-1089512Y764291D1*
X-1093102Y770256D1*
X-1095421Y774272D1*
X-1095795Y774980D1*
Y946713D1*
X-1093102Y951496D1*
X-1089512Y957402D1*
X-1085697Y963189D1*
X-1081732Y968858D1*
X-1077469Y974291D1*
X-1073055Y979606D1*
X-1068417Y984744D1*
X-1063630Y989646D1*
X-1058618Y994429D1*
X-1053457Y998976D1*
X-1048071Y1003346D1*
X-1042610Y1007539D1*
X-1036925Y1011496D1*
X-1031091Y1015217D1*
X-1025106Y1018760D1*
X-1018972Y1022067D1*
X-1012689Y1025138D1*
X-1006331Y1027913D1*
X-999823Y1030512D1*
X-993165Y1032874D1*
X-986358Y1034941D1*
X-979551Y1036772D1*
X-972520Y1038366D1*
X-965488Y1039606D1*
X-958307Y1040669D1*
X-951051Y1041378D1*
X-943720Y1041791D1*
X-936315Y1041969D1*
X-928909Y1041791D1*
X-921579Y1041378D1*
X-914323Y1040669D1*
X-907142Y1039606D1*
X-900110Y1038366D1*
X-893154Y1036772D1*
X-886272Y1034941D1*
X-879465Y1032874D1*
X-872882Y1030512D1*
X-866299Y1027913D1*
X-859941Y1025138D1*
X-853657Y1022067D1*
X-847524Y1018760D1*
X-841539Y1015217D1*
X-835705Y1011496D1*
X-830094Y1007539D1*
X-824559Y1003346D1*
X-819173Y998976D1*
X-814012Y994429D1*
X-809000Y989646D1*
X-804213Y984744D1*
X-799575Y979606D1*
X-795161Y974291D1*
X-790898Y968858D1*
X-786933Y963189D1*
X-783118Y957402D1*
X-779528Y951496D1*
X-777209Y947421D1*
X-776835Y946713D1*
Y774980D1*
X-779528Y770256D1*
X-783118Y764291D1*
X-786933Y758504D1*
X-790898Y752894D1*
X-795161Y747461D1*
X-799575Y742146D1*
X-804213Y737008D1*
X-809000Y732047D1*
X-814012Y727323D1*
X-819173Y722776D1*
X-824559Y718406D1*
X-830094Y714213D1*
X-835705Y710256D1*
X-841539Y706535D1*
X-847524Y702992D1*
X-853657Y699685D1*
X-859941Y696614D1*
X-866299Y693780D1*
X-872882Y691181D1*
X-879465Y688878D1*
X-886272Y686752D1*
X-893154Y684921D1*
X-900110Y683386D1*
X-907142Y682087D1*
X-914323Y681083D1*
X-921579Y680374D1*
X-928909Y679902D1*
X-936315Y679783D1*
M02*
